<?xml version="1.0" encoding="utf-8" standalone="no"?>
<!DOCTYPE svg PUBLIC "-//W3C//DTD SVG 1.1//EN"
  "http://www.w3.org/Graphics/SVG/1.1/DTD/svg11.dtd">
<svg xmlns:xlink="http://www.w3.org/1999/xlink" width="1350.72pt" height="686.88pt" viewBox="0 0 1350.72 686.88" xmlns="http://www.w3.org/2000/svg" version="1.1">
 <metadata>
  <rdf:RDF xmlns:dc="http://purl.org/dc/elements/1.1/" xmlns:cc="http://creativecommons.org/ns#" xmlns:rdf="http://www.w3.org/1999/02/22-rdf-syntax-ns#">
   <cc:Work>
    <dc:type rdf:resource="http://purl.org/dc/dcmitype/StillImage"/>
    <dc:date>2023-09-28T02:04:15.649025</dc:date>
    <dc:format>image/svg+xml</dc:format>
    <dc:creator>
     <cc:Agent>
      <dc:title>Matplotlib v3.5.2, https://matplotlib.org/</dc:title>
     </cc:Agent>
    </dc:creator>
   </cc:Work>
  </rdf:RDF>
 </metadata>
 <defs>
  <style type="text/css">*{stroke-linejoin: round; stroke-linecap: butt}</style>
 </defs>
 <g id="figure_1">
  <g id="patch_1">
   <path d="M 0 686.88 
L 1350.72 686.88 
L 1350.72 0 
L 0 0 
z
" style="fill: #ffffff"/>
  </g>
  <g id="axes_1">
   <g id="patch_2">
    <path d="M 675.36 348.309959 
L 148.286886 649.804091 
L 493.610651 37.075909 
z
" clip-path="url(#p7e0e43b27e)" style="fill: #ff0000; opacity: 0.7; stroke: #ff0000; stroke-linejoin: miter"/>
   </g>
   <g id="patch_3">
    <path d="M 675.36 348.309959 
L 1202.433114 37.075909 
L 493.610651 37.075909 
z
" clip-path="url(#p7e0e43b27e)" style="fill: #0000ff; opacity: 0.7; stroke: #0000ff; stroke-linejoin: miter"/>
   </g>
   <g id="patch_4">
    <path d="M 675.36 348.309959 
L 1202.433114 37.075909 
L 857.109349 649.804091 
z
" clip-path="url(#p7e0e43b27e)" style="fill: #ff0000; opacity: 0.7; stroke: #ff0000; stroke-linejoin: miter"/>
   </g>
   <g id="patch_5">
    <path d="M 675.36 348.309959 
L 148.286886 649.804091 
L 857.109349 649.804091 
z
" clip-path="url(#p7e0e43b27e)" style="fill: #0000ff; opacity: 0.7; stroke: #0000ff; stroke-linejoin: miter"/>
   </g>
   <g id="patch_6">
    <path d="M 239.161561 553.306072 
L 202.811691 574.292679 
L 202.811691 616.265893 
L 239.161561 637.2525 
L 275.511431 616.265893 
L 275.511431 574.292679 
z
" clip-path="url(#p7e0e43b27e)" style="fill: #ffffff; stroke: #000000; stroke-width: 2; stroke-linejoin: miter"/>
   </g>
   <g id="patch_7">
    <path d="M 275.511431 490.34625 
L 239.161561 511.332857 
L 239.161561 553.306072 
L 275.511431 574.292679 
L 311.861301 553.306072 
L 311.861301 511.332857 
z
" clip-path="url(#p7e0e43b27e)" style="fill: #0000ff; stroke: #000000; stroke-width: 2; stroke-linejoin: miter"/>
   </g>
   <g id="patch_8">
    <path d="M 311.861301 427.386429 
L 275.511431 448.373036 
L 275.511431 490.34625 
L 311.861301 511.332857 
L 348.211171 490.34625 
L 348.211171 448.373036 
z
" clip-path="url(#p7e0e43b27e)" style="fill: #ff0000; stroke: #000000; stroke-width: 2; stroke-linejoin: miter"/>
   </g>
   <g id="patch_9">
    <path d="M 348.211171 364.426607 
L 311.861301 385.413214 
L 311.861301 427.386429 
L 348.211171 448.373036 
L 384.561041 427.386429 
L 384.561041 385.413214 
z
" clip-path="url(#p7e0e43b27e)" style="fill: #ff0000; stroke: #000000; stroke-width: 2; stroke-linejoin: miter"/>
   </g>
   <g id="patch_10">
    <path d="M 384.561041 301.466786 
L 348.211171 322.453393 
L 348.211171 364.426607 
L 384.561041 385.413214 
L 420.910911 364.426607 
L 420.910911 322.453393 
z
" clip-path="url(#p7e0e43b27e)" style="fill: #ff0000; stroke: #000000; stroke-width: 2; stroke-linejoin: miter"/>
   </g>
   <g id="patch_11">
    <path d="M 420.910911 238.506964 
L 384.561041 259.493571 
L 384.561041 301.466786 
L 420.910911 322.453393 
L 457.260781 301.466786 
L 457.260781 259.493571 
z
" clip-path="url(#p7e0e43b27e)" style="fill: #ff0000; stroke: #000000; stroke-width: 2; stroke-linejoin: miter"/>
   </g>
   <g id="patch_12">
    <path d="M 457.260781 175.547143 
L 420.910911 196.53375 
L 420.910911 238.506964 
L 457.260781 259.493571 
L 493.610651 238.506964 
L 493.610651 196.53375 
z
" clip-path="url(#p7e0e43b27e)" style="fill: #ff0000; stroke: #000000; stroke-width: 2; stroke-linejoin: miter"/>
   </g>
   <g id="patch_13">
    <path d="M 493.610651 112.587321 
L 457.260781 133.573928 
L 457.260781 175.547143 
L 493.610651 196.53375 
L 529.96052 175.547143 
L 529.96052 133.573928 
z
" clip-path="url(#p7e0e43b27e)" style="fill: #ff0000; stroke: #000000; stroke-width: 2; stroke-linejoin: miter"/>
   </g>
   <g id="patch_14">
    <path d="M 529.96052 49.6275 
L 493.610651 70.614107 
L 493.610651 112.587321 
L 529.96052 133.573928 
L 566.31039 112.587321 
L 566.31039 70.614107 
z
" clip-path="url(#p7e0e43b27e)" style="fill: #ff0000; stroke: #000000; stroke-width: 2; stroke-linejoin: miter"/>
   </g>
   <g id="patch_15">
    <path d="M 311.861301 553.306072 
L 275.511431 574.292679 
L 275.511431 616.265893 
L 311.861301 637.2525 
L 348.211171 616.265893 
L 348.211171 574.292679 
z
" clip-path="url(#p7e0e43b27e)" style="fill: #ff0000; stroke: #000000; stroke-width: 2; stroke-linejoin: miter"/>
   </g>
   <g id="patch_16">
    <path d="M 348.211171 490.34625 
L 311.861301 511.332857 
L 311.861301 553.306072 
L 348.211171 574.292679 
L 384.561041 553.306072 
L 384.561041 511.332857 
z
" clip-path="url(#p7e0e43b27e)" style="fill: #0000ff; stroke: #000000; stroke-width: 2; stroke-linejoin: miter"/>
   </g>
   <g id="patch_17">
    <path d="M 384.561041 427.386429 
L 348.211171 448.373036 
L 348.211171 490.34625 
L 384.561041 511.332857 
L 420.910911 490.34625 
L 420.910911 448.373036 
z
" clip-path="url(#p7e0e43b27e)" style="fill: #ffffff; stroke: #000000; stroke-width: 2; stroke-linejoin: miter"/>
   </g>
   <g id="patch_18">
    <path d="M 420.910911 364.426607 
L 384.561041 385.413214 
L 384.561041 427.386429 
L 420.910911 448.373036 
L 457.260781 427.386429 
L 457.260781 385.413214 
z
" clip-path="url(#p7e0e43b27e)" style="fill: #ffffff; stroke: #000000; stroke-width: 2; stroke-linejoin: miter"/>
   </g>
   <g id="patch_19">
    <path d="M 457.260781 301.466786 
L 420.910911 322.453393 
L 420.910911 364.426607 
L 457.260781 385.413214 
L 493.610651 364.426607 
L 493.610651 322.453393 
z
" clip-path="url(#p7e0e43b27e)" style="fill: #ffffff; stroke: #000000; stroke-width: 2; stroke-linejoin: miter"/>
   </g>
   <g id="patch_20">
    <path d="M 493.610651 238.506964 
L 457.260781 259.493571 
L 457.260781 301.466786 
L 493.610651 322.453393 
L 529.96052 301.466786 
L 529.96052 259.493571 
z
" clip-path="url(#p7e0e43b27e)" style="fill: #ffffff; stroke: #000000; stroke-width: 2; stroke-linejoin: miter"/>
   </g>
   <g id="patch_21">
    <path d="M 529.96052 175.547143 
L 493.610651 196.53375 
L 493.610651 238.506964 
L 529.96052 259.493571 
L 566.31039 238.506964 
L 566.31039 196.53375 
z
" clip-path="url(#p7e0e43b27e)" style="fill: #ffffff; stroke: #000000; stroke-width: 2; stroke-linejoin: miter"/>
   </g>
   <g id="patch_22">
    <path d="M 566.31039 112.587321 
L 529.96052 133.573928 
L 529.96052 175.547143 
L 566.31039 196.53375 
L 602.66026 175.547143 
L 602.66026 133.573928 
z
" clip-path="url(#p7e0e43b27e)" style="fill: #ffffff; stroke: #000000; stroke-width: 2; stroke-linejoin: miter"/>
   </g>
   <g id="patch_23">
    <path d="M 602.66026 49.6275 
L 566.31039 70.614107 
L 566.31039 112.587321 
L 602.66026 133.573928 
L 639.01013 112.587321 
L 639.01013 70.614107 
z
" clip-path="url(#p7e0e43b27e)" style="fill: #ffffff; stroke: #000000; stroke-width: 2; stroke-linejoin: miter"/>
   </g>
   <g id="patch_24">
    <path d="M 384.561041 553.306072 
L 348.211171 574.292679 
L 348.211171 616.265893 
L 384.561041 637.2525 
L 420.910911 616.265893 
L 420.910911 574.292679 
z
" clip-path="url(#p7e0e43b27e)" style="fill: #ff0000; stroke: #000000; stroke-width: 2; stroke-linejoin: miter"/>
   </g>
   <g id="patch_25">
    <path d="M 420.910911 490.34625 
L 384.561041 511.332857 
L 384.561041 553.306072 
L 420.910911 574.292679 
L 457.260781 553.306072 
L 457.260781 511.332857 
z
" clip-path="url(#p7e0e43b27e)" style="fill: #0000ff; stroke: #000000; stroke-width: 2; stroke-linejoin: miter"/>
   </g>
   <g id="patch_26">
    <path d="M 457.260781 427.386429 
L 420.910911 448.373036 
L 420.910911 490.34625 
L 457.260781 511.332857 
L 493.610651 490.34625 
L 493.610651 448.373036 
z
" clip-path="url(#p7e0e43b27e)" style="fill: #ffffff; stroke: #000000; stroke-width: 2; stroke-linejoin: miter"/>
   </g>
   <g id="patch_27">
    <path d="M 493.610651 364.426607 
L 457.260781 385.413214 
L 457.260781 427.386429 
L 493.610651 448.373036 
L 529.96052 427.386429 
L 529.96052 385.413214 
z
" clip-path="url(#p7e0e43b27e)" style="fill: #ffffff; stroke: #000000; stroke-width: 2; stroke-linejoin: miter"/>
   </g>
   <g id="patch_28">
    <path d="M 529.96052 301.466786 
L 493.610651 322.453393 
L 493.610651 364.426607 
L 529.96052 385.413214 
L 566.31039 364.426607 
L 566.31039 322.453393 
z
" clip-path="url(#p7e0e43b27e)" style="fill: #ffffff; stroke: #000000; stroke-width: 2; stroke-linejoin: miter"/>
   </g>
   <g id="patch_29">
    <path d="M 566.31039 238.506964 
L 529.96052 259.493571 
L 529.96052 301.466786 
L 566.31039 322.453393 
L 602.66026 301.466786 
L 602.66026 259.493571 
z
" clip-path="url(#p7e0e43b27e)" style="fill: #ffffff; stroke: #000000; stroke-width: 2; stroke-linejoin: miter"/>
   </g>
   <g id="patch_30">
    <path d="M 602.66026 175.547143 
L 566.31039 196.53375 
L 566.31039 238.506964 
L 602.66026 259.493571 
L 639.01013 238.506964 
L 639.01013 196.53375 
z
" clip-path="url(#p7e0e43b27e)" style="fill: #ffffff; stroke: #000000; stroke-width: 2; stroke-linejoin: miter"/>
   </g>
   <g id="patch_31">
    <path d="M 639.01013 112.587321 
L 602.66026 133.573928 
L 602.66026 175.547143 
L 639.01013 196.53375 
L 675.36 175.547143 
L 675.36 133.573928 
z
" clip-path="url(#p7e0e43b27e)" style="fill: #ffffff; stroke: #000000; stroke-width: 2; stroke-linejoin: miter"/>
   </g>
   <g id="patch_32">
    <path d="M 675.36 49.6275 
L 639.01013 70.614107 
L 639.01013 112.587321 
L 675.36 133.573928 
L 711.70987 112.587321 
L 711.70987 70.614107 
z
" clip-path="url(#p7e0e43b27e)" style="fill: #ffffff; stroke: #000000; stroke-width: 2; stroke-linejoin: miter"/>
   </g>
   <g id="patch_33">
    <path d="M 457.260781 553.306072 
L 420.910911 574.292679 
L 420.910911 616.265893 
L 457.260781 637.2525 
L 493.610651 616.265893 
L 493.610651 574.292679 
z
" clip-path="url(#p7e0e43b27e)" style="fill: #ff0000; stroke: #000000; stroke-width: 2; stroke-linejoin: miter"/>
   </g>
   <g id="patch_34">
    <path d="M 493.610651 490.34625 
L 457.260781 511.332857 
L 457.260781 553.306072 
L 493.610651 574.292679 
L 529.96052 553.306072 
L 529.96052 511.332857 
z
" clip-path="url(#p7e0e43b27e)" style="fill: #0000ff; stroke: #000000; stroke-width: 2; stroke-linejoin: miter"/>
   </g>
   <g id="patch_35">
    <path d="M 529.96052 427.386429 
L 493.610651 448.373036 
L 493.610651 490.34625 
L 529.96052 511.332857 
L 566.31039 490.34625 
L 566.31039 448.373036 
z
" clip-path="url(#p7e0e43b27e)" style="fill: #ffffff; stroke: #000000; stroke-width: 2; stroke-linejoin: miter"/>
   </g>
   <g id="patch_36">
    <path d="M 566.31039 364.426607 
L 529.96052 385.413214 
L 529.96052 427.386429 
L 566.31039 448.373036 
L 602.66026 427.386429 
L 602.66026 385.413214 
z
" clip-path="url(#p7e0e43b27e)" style="fill: #ffffff; stroke: #000000; stroke-width: 2; stroke-linejoin: miter"/>
   </g>
   <g id="patch_37">
    <path d="M 602.66026 301.466786 
L 566.31039 322.453393 
L 566.31039 364.426607 
L 602.66026 385.413214 
L 639.01013 364.426607 
L 639.01013 322.453393 
z
" clip-path="url(#p7e0e43b27e)" style="fill: #ffffff; stroke: #000000; stroke-width: 2; stroke-linejoin: miter"/>
   </g>
   <g id="patch_38">
    <path d="M 639.01013 238.506964 
L 602.66026 259.493571 
L 602.66026 301.466786 
L 639.01013 322.453393 
L 675.36 301.466786 
L 675.36 259.493571 
z
" clip-path="url(#p7e0e43b27e)" style="fill: #ffffff; stroke: #000000; stroke-width: 2; stroke-linejoin: miter"/>
   </g>
   <g id="patch_39">
    <path d="M 675.36 175.547143 
L 639.01013 196.53375 
L 639.01013 238.506964 
L 675.36 259.493571 
L 711.70987 238.506964 
L 711.70987 196.53375 
z
" clip-path="url(#p7e0e43b27e)" style="fill: #ffffff; stroke: #000000; stroke-width: 2; stroke-linejoin: miter"/>
   </g>
   <g id="patch_40">
    <path d="M 711.70987 112.587321 
L 675.36 133.573928 
L 675.36 175.547143 
L 711.70987 196.53375 
L 748.05974 175.547143 
L 748.05974 133.573928 
z
" clip-path="url(#p7e0e43b27e)" style="fill: #ffffff; stroke: #000000; stroke-width: 2; stroke-linejoin: miter"/>
   </g>
   <g id="patch_41">
    <path d="M 748.05974 49.6275 
L 711.70987 70.614107 
L 711.70987 112.587321 
L 748.05974 133.573928 
L 784.40961 112.587321 
L 784.40961 70.614107 
z
" clip-path="url(#p7e0e43b27e)" style="fill: #ffffff; stroke: #000000; stroke-width: 2; stroke-linejoin: miter"/>
   </g>
   <g id="patch_42">
    <path d="M 529.96052 553.306072 
L 493.610651 574.292679 
L 493.610651 616.265893 
L 529.96052 637.2525 
L 566.31039 616.265893 
L 566.31039 574.292679 
z
" clip-path="url(#p7e0e43b27e)" style="fill: #ff0000; stroke: #000000; stroke-width: 2; stroke-linejoin: miter"/>
   </g>
   <g id="patch_43">
    <path d="M 566.31039 490.34625 
L 529.96052 511.332857 
L 529.96052 553.306072 
L 566.31039 574.292679 
L 602.66026 553.306072 
L 602.66026 511.332857 
z
" clip-path="url(#p7e0e43b27e)" style="fill: #0000ff; stroke: #000000; stroke-width: 2; stroke-linejoin: miter"/>
   </g>
   <g id="patch_44">
    <path d="M 602.66026 427.386429 
L 566.31039 448.373036 
L 566.31039 490.34625 
L 602.66026 511.332857 
L 639.01013 490.34625 
L 639.01013 448.373036 
z
" clip-path="url(#p7e0e43b27e)" style="fill: #ffffff; stroke: #000000; stroke-width: 2; stroke-linejoin: miter"/>
   </g>
   <g id="patch_45">
    <path d="M 639.01013 364.426607 
L 602.66026 385.413214 
L 602.66026 427.386429 
L 639.01013 448.373036 
L 675.36 427.386429 
L 675.36 385.413214 
z
" clip-path="url(#p7e0e43b27e)" style="fill: #ffffff; stroke: #000000; stroke-width: 2; stroke-linejoin: miter"/>
   </g>
   <g id="patch_46">
    <path d="M 675.36 301.466786 
L 639.01013 322.453393 
L 639.01013 364.426607 
L 675.36 385.413214 
L 711.70987 364.426607 
L 711.70987 322.453393 
z
" clip-path="url(#p7e0e43b27e)" style="fill: #ffffff; stroke: #000000; stroke-width: 2; stroke-linejoin: miter"/>
   </g>
   <g id="patch_47">
    <path d="M 711.70987 238.506964 
L 675.36 259.493571 
L 675.36 301.466786 
L 711.70987 322.453393 
L 748.05974 301.466786 
L 748.05974 259.493571 
z
" clip-path="url(#p7e0e43b27e)" style="fill: #ffffff; stroke: #000000; stroke-width: 2; stroke-linejoin: miter"/>
   </g>
   <g id="patch_48">
    <path d="M 748.05974 175.547143 
L 711.70987 196.53375 
L 711.70987 238.506964 
L 748.05974 259.493571 
L 784.40961 238.506964 
L 784.40961 196.53375 
z
" clip-path="url(#p7e0e43b27e)" style="fill: #ffffff; stroke: #000000; stroke-width: 2; stroke-linejoin: miter"/>
   </g>
   <g id="patch_49">
    <path d="M 784.40961 112.587321 
L 748.05974 133.573928 
L 748.05974 175.547143 
L 784.40961 196.53375 
L 820.75948 175.547143 
L 820.75948 133.573928 
z
" clip-path="url(#p7e0e43b27e)" style="fill: #ffffff; stroke: #000000; stroke-width: 2; stroke-linejoin: miter"/>
   </g>
   <g id="patch_50">
    <path d="M 820.75948 49.6275 
L 784.40961 70.614107 
L 784.40961 112.587321 
L 820.75948 133.573928 
L 857.109349 112.587321 
L 857.109349 70.614107 
z
" clip-path="url(#p7e0e43b27e)" style="fill: #ffffff; stroke: #000000; stroke-width: 2; stroke-linejoin: miter"/>
   </g>
   <g id="patch_51">
    <path d="M 602.66026 553.306072 
L 566.31039 574.292679 
L 566.31039 616.265893 
L 602.66026 637.2525 
L 639.01013 616.265893 
L 639.01013 574.292679 
z
" clip-path="url(#p7e0e43b27e)" style="fill: #ff0000; stroke: #000000; stroke-width: 2; stroke-linejoin: miter"/>
   </g>
   <g id="patch_52">
    <path d="M 639.01013 490.34625 
L 602.66026 511.332857 
L 602.66026 553.306072 
L 639.01013 574.292679 
L 675.36 553.306072 
L 675.36 511.332857 
z
" clip-path="url(#p7e0e43b27e)" style="fill: #0000ff; stroke: #000000; stroke-width: 2; stroke-linejoin: miter"/>
   </g>
   <g id="patch_53">
    <path d="M 675.36 427.386429 
L 639.01013 448.373036 
L 639.01013 490.34625 
L 675.36 511.332857 
L 711.70987 490.34625 
L 711.70987 448.373036 
z
" clip-path="url(#p7e0e43b27e)" style="fill: #ffffff; stroke: #000000; stroke-width: 2; stroke-linejoin: miter"/>
   </g>
   <g id="patch_54">
    <path d="M 711.70987 364.426607 
L 675.36 385.413214 
L 675.36 427.386429 
L 711.70987 448.373036 
L 748.05974 427.386429 
L 748.05974 385.413214 
z
" clip-path="url(#p7e0e43b27e)" style="fill: #ffffff; stroke: #000000; stroke-width: 2; stroke-linejoin: miter"/>
   </g>
   <g id="patch_55">
    <path d="M 748.05974 301.466786 
L 711.70987 322.453393 
L 711.70987 364.426607 
L 748.05974 385.413214 
L 784.40961 364.426607 
L 784.40961 322.453393 
z
" clip-path="url(#p7e0e43b27e)" style="fill: #ffffff; stroke: #000000; stroke-width: 2; stroke-linejoin: miter"/>
   </g>
   <g id="patch_56">
    <path d="M 784.40961 238.506964 
L 748.05974 259.493571 
L 748.05974 301.466786 
L 784.40961 322.453393 
L 820.75948 301.466786 
L 820.75948 259.493571 
z
" clip-path="url(#p7e0e43b27e)" style="fill: #ffffff; stroke: #000000; stroke-width: 2; stroke-linejoin: miter"/>
   </g>
   <g id="patch_57">
    <path d="M 820.75948 175.547143 
L 784.40961 196.53375 
L 784.40961 238.506964 
L 820.75948 259.493571 
L 857.109349 238.506964 
L 857.109349 196.53375 
z
" clip-path="url(#p7e0e43b27e)" style="fill: #ffffff; stroke: #000000; stroke-width: 2; stroke-linejoin: miter"/>
   </g>
   <g id="patch_58">
    <path d="M 857.109349 112.587321 
L 820.75948 133.573928 
L 820.75948 175.547143 
L 857.109349 196.53375 
L 893.459219 175.547143 
L 893.459219 133.573928 
z
" clip-path="url(#p7e0e43b27e)" style="fill: #ffffff; stroke: #000000; stroke-width: 2; stroke-linejoin: miter"/>
   </g>
   <g id="patch_59">
    <path d="M 893.459219 49.6275 
L 857.109349 70.614107 
L 857.109349 112.587321 
L 893.459219 133.573928 
L 929.809089 112.587321 
L 929.809089 70.614107 
z
" clip-path="url(#p7e0e43b27e)" style="fill: #ffffff; stroke: #000000; stroke-width: 2; stroke-linejoin: miter"/>
   </g>
   <g id="patch_60">
    <path d="M 675.36 553.306072 
L 639.01013 574.292679 
L 639.01013 616.265893 
L 675.36 637.2525 
L 711.70987 616.265893 
L 711.70987 574.292679 
z
" clip-path="url(#p7e0e43b27e)" style="fill: #ff0000; stroke: #000000; stroke-width: 2; stroke-linejoin: miter"/>
   </g>
   <g id="patch_61">
    <path d="M 711.70987 490.34625 
L 675.36 511.332857 
L 675.36 553.306072 
L 711.70987 574.292679 
L 748.05974 553.306072 
L 748.05974 511.332857 
z
" clip-path="url(#p7e0e43b27e)" style="fill: #0000ff; stroke: #000000; stroke-width: 2; stroke-linejoin: miter"/>
   </g>
   <g id="patch_62">
    <path d="M 748.05974 427.386429 
L 711.70987 448.373036 
L 711.70987 490.34625 
L 748.05974 511.332857 
L 784.40961 490.34625 
L 784.40961 448.373036 
z
" clip-path="url(#p7e0e43b27e)" style="fill: #ffffff; stroke: #000000; stroke-width: 2; stroke-linejoin: miter"/>
   </g>
   <g id="patch_63">
    <path d="M 784.40961 364.426607 
L 748.05974 385.413214 
L 748.05974 427.386429 
L 784.40961 448.373036 
L 820.75948 427.386429 
L 820.75948 385.413214 
z
" clip-path="url(#p7e0e43b27e)" style="fill: #ffffff; stroke: #000000; stroke-width: 2; stroke-linejoin: miter"/>
   </g>
   <g id="patch_64">
    <path d="M 820.75948 301.466786 
L 784.40961 322.453393 
L 784.40961 364.426607 
L 820.75948 385.413214 
L 857.109349 364.426607 
L 857.109349 322.453393 
z
" clip-path="url(#p7e0e43b27e)" style="fill: #ffffff; stroke: #000000; stroke-width: 2; stroke-linejoin: miter"/>
   </g>
   <g id="patch_65">
    <path d="M 857.109349 238.506964 
L 820.75948 259.493571 
L 820.75948 301.466786 
L 857.109349 322.453393 
L 893.459219 301.466786 
L 893.459219 259.493571 
z
" clip-path="url(#p7e0e43b27e)" style="fill: #ffffff; stroke: #000000; stroke-width: 2; stroke-linejoin: miter"/>
   </g>
   <g id="patch_66">
    <path d="M 893.459219 175.547143 
L 857.109349 196.53375 
L 857.109349 238.506964 
L 893.459219 259.493571 
L 929.809089 238.506964 
L 929.809089 196.53375 
z
" clip-path="url(#p7e0e43b27e)" style="fill: #ffffff; stroke: #000000; stroke-width: 2; stroke-linejoin: miter"/>
   </g>
   <g id="patch_67">
    <path d="M 929.809089 112.587321 
L 893.459219 133.573928 
L 893.459219 175.547143 
L 929.809089 196.53375 
L 966.158959 175.547143 
L 966.158959 133.573928 
z
" clip-path="url(#p7e0e43b27e)" style="fill: #ffffff; stroke: #000000; stroke-width: 2; stroke-linejoin: miter"/>
   </g>
   <g id="patch_68">
    <path d="M 966.158959 49.6275 
L 929.809089 70.614107 
L 929.809089 112.587321 
L 966.158959 133.573928 
L 1002.508829 112.587321 
L 1002.508829 70.614107 
z
" clip-path="url(#p7e0e43b27e)" style="fill: #ffffff; stroke: #000000; stroke-width: 2; stroke-linejoin: miter"/>
   </g>
   <g id="patch_69">
    <path d="M 748.05974 553.306072 
L 711.70987 574.292679 
L 711.70987 616.265893 
L 748.05974 637.2525 
L 784.40961 616.265893 
L 784.40961 574.292679 
z
" clip-path="url(#p7e0e43b27e)" style="fill: #ff0000; stroke: #000000; stroke-width: 2; stroke-linejoin: miter"/>
   </g>
   <g id="patch_70">
    <path d="M 784.40961 490.34625 
L 748.05974 511.332857 
L 748.05974 553.306072 
L 784.40961 574.292679 
L 820.75948 553.306072 
L 820.75948 511.332857 
z
" clip-path="url(#p7e0e43b27e)" style="fill: #0000ff; stroke: #000000; stroke-width: 2; stroke-linejoin: miter"/>
   </g>
   <g id="patch_71">
    <path d="M 820.75948 427.386429 
L 784.40961 448.373036 
L 784.40961 490.34625 
L 820.75948 511.332857 
L 857.109349 490.34625 
L 857.109349 448.373036 
z
" clip-path="url(#p7e0e43b27e)" style="fill: #ffffff; stroke: #000000; stroke-width: 2; stroke-linejoin: miter"/>
   </g>
   <g id="patch_72">
    <path d="M 857.109349 364.426607 
L 820.75948 385.413214 
L 820.75948 427.386429 
L 857.109349 448.373036 
L 893.459219 427.386429 
L 893.459219 385.413214 
z
" clip-path="url(#p7e0e43b27e)" style="fill: #ffffff; stroke: #000000; stroke-width: 2; stroke-linejoin: miter"/>
   </g>
   <g id="patch_73">
    <path d="M 893.459219 301.466786 
L 857.109349 322.453393 
L 857.109349 364.426607 
L 893.459219 385.413214 
L 929.809089 364.426607 
L 929.809089 322.453393 
z
" clip-path="url(#p7e0e43b27e)" style="fill: #ffffff; stroke: #000000; stroke-width: 2; stroke-linejoin: miter"/>
   </g>
   <g id="patch_74">
    <path d="M 929.809089 238.506964 
L 893.459219 259.493571 
L 893.459219 301.466786 
L 929.809089 322.453393 
L 966.158959 301.466786 
L 966.158959 259.493571 
z
" clip-path="url(#p7e0e43b27e)" style="fill: #ffffff; stroke: #000000; stroke-width: 2; stroke-linejoin: miter"/>
   </g>
   <g id="patch_75">
    <path d="M 966.158959 175.547143 
L 929.809089 196.53375 
L 929.809089 238.506964 
L 966.158959 259.493571 
L 1002.508829 238.506964 
L 1002.508829 196.53375 
z
" clip-path="url(#p7e0e43b27e)" style="fill: #ffffff; stroke: #000000; stroke-width: 2; stroke-linejoin: miter"/>
   </g>
   <g id="patch_76">
    <path d="M 1002.508829 112.587321 
L 966.158959 133.573928 
L 966.158959 175.547143 
L 1002.508829 196.53375 
L 1038.858699 175.547143 
L 1038.858699 133.573928 
z
" clip-path="url(#p7e0e43b27e)" style="fill: #ffffff; stroke: #000000; stroke-width: 2; stroke-linejoin: miter"/>
   </g>
   <g id="patch_77">
    <path d="M 1038.858699 49.6275 
L 1002.508829 70.614107 
L 1002.508829 112.587321 
L 1038.858699 133.573928 
L 1075.208569 112.587321 
L 1075.208569 70.614107 
z
" clip-path="url(#p7e0e43b27e)" style="fill: #ffffff; stroke: #000000; stroke-width: 2; stroke-linejoin: miter"/>
   </g>
   <g id="patch_78">
    <path d="M 820.75948 553.306072 
L 784.40961 574.292679 
L 784.40961 616.265893 
L 820.75948 637.2525 
L 857.109349 616.265893 
L 857.109349 574.292679 
z
" clip-path="url(#p7e0e43b27e)" style="fill: #ffffff; stroke: #000000; stroke-width: 2; stroke-linejoin: miter"/>
   </g>
   <g id="patch_79">
    <path d="M 857.109349 490.34625 
L 820.75948 511.332857 
L 820.75948 553.306072 
L 857.109349 574.292679 
L 893.459219 553.306072 
L 893.459219 511.332857 
z
" clip-path="url(#p7e0e43b27e)" style="fill: #0000ff; stroke: #000000; stroke-width: 2; stroke-linejoin: miter"/>
   </g>
   <g id="patch_80">
    <path d="M 893.459219 427.386429 
L 857.109349 448.373036 
L 857.109349 490.34625 
L 893.459219 511.332857 
L 929.809089 490.34625 
L 929.809089 448.373036 
z
" clip-path="url(#p7e0e43b27e)" style="fill: #ff0000; stroke: #000000; stroke-width: 2; stroke-linejoin: miter"/>
   </g>
   <g id="patch_81">
    <path d="M 929.809089 364.426607 
L 893.459219 385.413214 
L 893.459219 427.386429 
L 929.809089 448.373036 
L 966.158959 427.386429 
L 966.158959 385.413214 
z
" clip-path="url(#p7e0e43b27e)" style="fill: #ff0000; stroke: #000000; stroke-width: 2; stroke-linejoin: miter"/>
   </g>
   <g id="patch_82">
    <path d="M 966.158959 301.466786 
L 929.809089 322.453393 
L 929.809089 364.426607 
L 966.158959 385.413214 
L 1002.508829 364.426607 
L 1002.508829 322.453393 
z
" clip-path="url(#p7e0e43b27e)" style="fill: #ff0000; stroke: #000000; stroke-width: 2; stroke-linejoin: miter"/>
   </g>
   <g id="patch_83">
    <path d="M 1002.508829 238.506964 
L 966.158959 259.493571 
L 966.158959 301.466786 
L 1002.508829 322.453393 
L 1038.858699 301.466786 
L 1038.858699 259.493571 
z
" clip-path="url(#p7e0e43b27e)" style="fill: #ff0000; stroke: #000000; stroke-width: 2; stroke-linejoin: miter"/>
   </g>
   <g id="patch_84">
    <path d="M 1038.858699 175.547143 
L 1002.508829 196.53375 
L 1002.508829 238.506964 
L 1038.858699 259.493571 
L 1075.208569 238.506964 
L 1075.208569 196.53375 
z
" clip-path="url(#p7e0e43b27e)" style="fill: #ff0000; stroke: #000000; stroke-width: 2; stroke-linejoin: miter"/>
   </g>
   <g id="patch_85">
    <path d="M 1075.208569 112.587321 
L 1038.858699 133.573928 
L 1038.858699 175.547143 
L 1075.208569 196.53375 
L 1111.558439 175.547143 
L 1111.558439 133.573928 
z
" clip-path="url(#p7e0e43b27e)" style="fill: #ff0000; stroke: #000000; stroke-width: 2; stroke-linejoin: miter"/>
   </g>
   <g id="patch_86">
    <path d="M 1111.558439 49.6275 
L 1075.208569 70.614107 
L 1075.208569 112.587321 
L 1111.558439 133.573928 
L 1147.908309 112.587321 
L 1147.908309 70.614107 
z
" clip-path="url(#p7e0e43b27e)" style="fill: #ff0000; stroke: #000000; stroke-width: 2; stroke-linejoin: miter"/>
   </g>
   <g id="text_1">
    <!-- .58 -->
    <g transform="translate(212.262657 603.276257)scale(0.3 -0.3)">
     <defs>
      <path id="DejaVuSans-2e" d="M 684 794 
L 1344 794 
L 1344 0 
L 684 0 
L 684 794 
z
" transform="scale(0.015625)"/>
      <path id="DejaVuSans-35" d="M 691 4666 
L 3169 4666 
L 3169 4134 
L 1269 4134 
L 1269 2991 
Q 1406 3038 1543 3061 
Q 1681 3084 1819 3084 
Q 2600 3084 3056 2656 
Q 3513 2228 3513 1497 
Q 3513 744 3044 326 
Q 2575 -91 1722 -91 
Q 1428 -91 1123 -41 
Q 819 9 494 109 
L 494 744 
Q 775 591 1075 516 
Q 1375 441 1709 441 
Q 2250 441 2565 725 
Q 2881 1009 2881 1497 
Q 2881 1984 2565 2268 
Q 2250 2553 1709 2553 
Q 1456 2553 1204 2497 
Q 953 2441 691 2322 
L 691 4666 
z
" transform="scale(0.015625)"/>
      <path id="DejaVuSans-38" d="M 2034 2216 
Q 1584 2216 1326 1975 
Q 1069 1734 1069 1313 
Q 1069 891 1326 650 
Q 1584 409 2034 409 
Q 2484 409 2743 651 
Q 3003 894 3003 1313 
Q 3003 1734 2745 1975 
Q 2488 2216 2034 2216 
z
M 1403 2484 
Q 997 2584 770 2862 
Q 544 3141 544 3541 
Q 544 4100 942 4425 
Q 1341 4750 2034 4750 
Q 2731 4750 3128 4425 
Q 3525 4100 3525 3541 
Q 3525 3141 3298 2862 
Q 3072 2584 2669 2484 
Q 3125 2378 3379 2068 
Q 3634 1759 3634 1313 
Q 3634 634 3220 271 
Q 2806 -91 2034 -91 
Q 1263 -91 848 271 
Q 434 634 434 1313 
Q 434 1759 690 2068 
Q 947 2378 1403 2484 
z
M 1172 3481 
Q 1172 3119 1398 2916 
Q 1625 2713 2034 2713 
Q 2441 2713 2670 2916 
Q 2900 3119 2900 3481 
Q 2900 3844 2670 4047 
Q 2441 4250 2034 4250 
Q 1625 4250 1398 4047 
Q 1172 3844 1172 3481 
z
" transform="scale(0.015625)"/>
     </defs>
     <use xlink:href="#DejaVuSans-2e"/>
     <use xlink:href="#DejaVuSans-35" x="31.787109"/>
     <use xlink:href="#DejaVuSans-38" x="95.410156"/>
    </g>
   </g>
   <g id="text_2">
    <!-- .01 -->
    <g transform="translate(357.662137 477.356614)scale(0.3 -0.3)">
     <defs>
      <path id="DejaVuSans-30" d="M 2034 4250 
Q 1547 4250 1301 3770 
Q 1056 3291 1056 2328 
Q 1056 1369 1301 889 
Q 1547 409 2034 409 
Q 2525 409 2770 889 
Q 3016 1369 3016 2328 
Q 3016 3291 2770 3770 
Q 2525 4250 2034 4250 
z
M 2034 4750 
Q 2819 4750 3233 4129 
Q 3647 3509 3647 2328 
Q 3647 1150 3233 529 
Q 2819 -91 2034 -91 
Q 1250 -91 836 529 
Q 422 1150 422 2328 
Q 422 3509 836 4129 
Q 1250 4750 2034 4750 
z
" transform="scale(0.015625)"/>
      <path id="DejaVuSans-31" d="M 794 531 
L 1825 531 
L 1825 4091 
L 703 3866 
L 703 4441 
L 1819 4666 
L 2450 4666 
L 2450 531 
L 3481 531 
L 3481 0 
L 794 0 
L 794 531 
z
" transform="scale(0.015625)"/>
     </defs>
     <use xlink:href="#DejaVuSans-2e"/>
     <use xlink:href="#DejaVuSans-30" x="31.787109"/>
     <use xlink:href="#DejaVuSans-31" x="95.410156"/>
    </g>
   </g>
   <g id="text_3">
    <!-- .04 -->
    <g transform="translate(394.012007 414.396793)scale(0.3 -0.3)">
     <defs>
      <path id="DejaVuSans-34" d="M 2419 4116 
L 825 1625 
L 2419 1625 
L 2419 4116 
z
M 2253 4666 
L 3047 4666 
L 3047 1625 
L 3713 1625 
L 3713 1100 
L 3047 1100 
L 3047 0 
L 2419 0 
L 2419 1100 
L 313 1100 
L 313 1709 
L 2253 4666 
z
" transform="scale(0.015625)"/>
     </defs>
     <use xlink:href="#DejaVuSans-2e"/>
     <use xlink:href="#DejaVuSans-30" x="31.787109"/>
     <use xlink:href="#DejaVuSans-34" x="95.410156"/>
    </g>
   </g>
   <g id="text_4">
    <!-- .18 -->
    <g transform="translate(430.361877 351.436971)scale(0.3 -0.3)">
     <use xlink:href="#DejaVuSans-2e"/>
     <use xlink:href="#DejaVuSans-31" x="31.787109"/>
     <use xlink:href="#DejaVuSans-38" x="95.410156"/>
    </g>
   </g>
   <g id="text_5">
    <!-- .26 -->
    <g transform="translate(466.711747 288.47715)scale(0.3 -0.3)">
     <defs>
      <path id="DejaVuSans-32" d="M 1228 531 
L 3431 531 
L 3431 0 
L 469 0 
L 469 531 
Q 828 903 1448 1529 
Q 2069 2156 2228 2338 
Q 2531 2678 2651 2914 
Q 2772 3150 2772 3378 
Q 2772 3750 2511 3984 
Q 2250 4219 1831 4219 
Q 1534 4219 1204 4116 
Q 875 4013 500 3803 
L 500 4441 
Q 881 4594 1212 4672 
Q 1544 4750 1819 4750 
Q 2544 4750 2975 4387 
Q 3406 4025 3406 3419 
Q 3406 3131 3298 2873 
Q 3191 2616 2906 2266 
Q 2828 2175 2409 1742 
Q 1991 1309 1228 531 
z
" transform="scale(0.015625)"/>
      <path id="DejaVuSans-36" d="M 2113 2584 
Q 1688 2584 1439 2293 
Q 1191 2003 1191 1497 
Q 1191 994 1439 701 
Q 1688 409 2113 409 
Q 2538 409 2786 701 
Q 3034 994 3034 1497 
Q 3034 2003 2786 2293 
Q 2538 2584 2113 2584 
z
M 3366 4563 
L 3366 3988 
Q 3128 4100 2886 4159 
Q 2644 4219 2406 4219 
Q 1781 4219 1451 3797 
Q 1122 3375 1075 2522 
Q 1259 2794 1537 2939 
Q 1816 3084 2150 3084 
Q 2853 3084 3261 2657 
Q 3669 2231 3669 1497 
Q 3669 778 3244 343 
Q 2819 -91 2113 -91 
Q 1303 -91 875 529 
Q 447 1150 447 2328 
Q 447 3434 972 4092 
Q 1497 4750 2381 4750 
Q 2619 4750 2861 4703 
Q 3103 4656 3366 4563 
z
" transform="scale(0.015625)"/>
     </defs>
     <use xlink:href="#DejaVuSans-2e"/>
     <use xlink:href="#DejaVuSans-32" x="31.787109"/>
     <use xlink:href="#DejaVuSans-36" x="95.410156"/>
    </g>
   </g>
   <g id="text_6">
    <!-- .28 -->
    <g transform="translate(503.061617 225.517328)scale(0.3 -0.3)">
     <use xlink:href="#DejaVuSans-2e"/>
     <use xlink:href="#DejaVuSans-32" x="31.787109"/>
     <use xlink:href="#DejaVuSans-38" x="95.410156"/>
    </g>
   </g>
   <g id="text_7">
    <!-- .42 -->
    <g transform="translate(539.411487 162.557507)scale(0.3 -0.3)">
     <use xlink:href="#DejaVuSans-2e"/>
     <use xlink:href="#DejaVuSans-34" x="31.787109"/>
     <use xlink:href="#DejaVuSans-32" x="95.410156"/>
    </g>
   </g>
   <g id="text_8">
    <!-- .30 -->
    <g transform="translate(575.761356 99.597685)scale(0.3 -0.3)">
     <defs>
      <path id="DejaVuSans-33" d="M 2597 2516 
Q 3050 2419 3304 2112 
Q 3559 1806 3559 1356 
Q 3559 666 3084 287 
Q 2609 -91 1734 -91 
Q 1441 -91 1130 -33 
Q 819 25 488 141 
L 488 750 
Q 750 597 1062 519 
Q 1375 441 1716 441 
Q 2309 441 2620 675 
Q 2931 909 2931 1356 
Q 2931 1769 2642 2001 
Q 2353 2234 1838 2234 
L 1294 2234 
L 1294 2753 
L 1863 2753 
Q 2328 2753 2575 2939 
Q 2822 3125 2822 3475 
Q 2822 3834 2567 4026 
Q 2313 4219 1838 4219 
Q 1578 4219 1281 4162 
Q 984 4106 628 3988 
L 628 4550 
Q 988 4650 1302 4700 
Q 1616 4750 1894 4750 
Q 2613 4750 3031 4423 
Q 3450 4097 3450 3541 
Q 3450 3153 3228 2886 
Q 3006 2619 2597 2516 
z
" transform="scale(0.015625)"/>
     </defs>
     <use xlink:href="#DejaVuSans-2e"/>
     <use xlink:href="#DejaVuSans-33" x="31.787109"/>
     <use xlink:href="#DejaVuSans-30" x="95.410156"/>
    </g>
   </g>
   <g id="text_9">
    <!-- .10 -->
    <g transform="translate(430.361877 477.356614)scale(0.3 -0.3)">
     <use xlink:href="#DejaVuSans-2e"/>
     <use xlink:href="#DejaVuSans-31" x="31.787109"/>
     <use xlink:href="#DejaVuSans-30" x="95.410156"/>
    </g>
   </g>
   <g id="text_10">
    <!-- .15 -->
    <g transform="translate(466.711747 414.396793)scale(0.3 -0.3)">
     <use xlink:href="#DejaVuSans-2e"/>
     <use xlink:href="#DejaVuSans-31" x="31.787109"/>
     <use xlink:href="#DejaVuSans-35" x="95.410156"/>
    </g>
   </g>
   <g id="text_11">
    <!-- .35 -->
    <g transform="translate(503.061617 351.436971)scale(0.3 -0.3)">
     <use xlink:href="#DejaVuSans-2e"/>
     <use xlink:href="#DejaVuSans-33" x="31.787109"/>
     <use xlink:href="#DejaVuSans-35" x="95.410156"/>
    </g>
   </g>
   <g id="text_12">
    <!-- .45 -->
    <g transform="translate(539.411487 288.47715)scale(0.3 -0.3)">
     <use xlink:href="#DejaVuSans-2e"/>
     <use xlink:href="#DejaVuSans-34" x="31.787109"/>
     <use xlink:href="#DejaVuSans-35" x="95.410156"/>
    </g>
   </g>
   <g id="text_13">
    <!-- .37 -->
    <g transform="translate(575.761356 225.517328)scale(0.3 -0.3)">
     <defs>
      <path id="DejaVuSans-37" d="M 525 4666 
L 3525 4666 
L 3525 4397 
L 1831 0 
L 1172 0 
L 2766 4134 
L 525 4134 
L 525 4666 
z
" transform="scale(0.015625)"/>
     </defs>
     <use xlink:href="#DejaVuSans-2e"/>
     <use xlink:href="#DejaVuSans-33" x="31.787109"/>
     <use xlink:href="#DejaVuSans-37" x="95.410156"/>
    </g>
   </g>
   <g id="text_14">
    <!-- .42 -->
    <g transform="translate(612.111226 162.557507)scale(0.3 -0.3)">
     <use xlink:href="#DejaVuSans-2e"/>
     <use xlink:href="#DejaVuSans-34" x="31.787109"/>
     <use xlink:href="#DejaVuSans-32" x="95.410156"/>
    </g>
   </g>
   <g id="text_15">
    <!-- .18 -->
    <g transform="translate(648.461096 99.597685)scale(0.3 -0.3)">
     <use xlink:href="#DejaVuSans-2e"/>
     <use xlink:href="#DejaVuSans-31" x="31.787109"/>
     <use xlink:href="#DejaVuSans-38" x="95.410156"/>
    </g>
   </g>
   <g id="text_16">
    <!-- .24 -->
    <g transform="translate(503.061617 477.356614)scale(0.3 -0.3)">
     <use xlink:href="#DejaVuSans-2e"/>
     <use xlink:href="#DejaVuSans-32" x="31.787109"/>
     <use xlink:href="#DejaVuSans-34" x="95.410156"/>
    </g>
   </g>
   <g id="text_17">
    <!-- .24 -->
    <g transform="translate(539.411487 414.396793)scale(0.3 -0.3)">
     <use xlink:href="#DejaVuSans-2e"/>
     <use xlink:href="#DejaVuSans-32" x="31.787109"/>
     <use xlink:href="#DejaVuSans-34" x="95.410156"/>
    </g>
   </g>
   <g id="text_18">
    <!-- .49 -->
    <g transform="translate(575.761356 351.436971)scale(0.3 -0.3)">
     <defs>
      <path id="DejaVuSans-39" d="M 703 97 
L 703 672 
Q 941 559 1184 500 
Q 1428 441 1663 441 
Q 2288 441 2617 861 
Q 2947 1281 2994 2138 
Q 2813 1869 2534 1725 
Q 2256 1581 1919 1581 
Q 1219 1581 811 2004 
Q 403 2428 403 3163 
Q 403 3881 828 4315 
Q 1253 4750 1959 4750 
Q 2769 4750 3195 4129 
Q 3622 3509 3622 2328 
Q 3622 1225 3098 567 
Q 2575 -91 1691 -91 
Q 1453 -91 1209 -44 
Q 966 3 703 97 
z
M 1959 2075 
Q 2384 2075 2632 2365 
Q 2881 2656 2881 3163 
Q 2881 3666 2632 3958 
Q 2384 4250 1959 4250 
Q 1534 4250 1286 3958 
Q 1038 3666 1038 3163 
Q 1038 2656 1286 2365 
Q 1534 2075 1959 2075 
z
" transform="scale(0.015625)"/>
     </defs>
     <use xlink:href="#DejaVuSans-2e"/>
     <use xlink:href="#DejaVuSans-34" x="31.787109"/>
     <use xlink:href="#DejaVuSans-39" x="95.410156"/>
    </g>
   </g>
   <g id="text_19">
    <!-- .55 -->
    <g transform="translate(612.111226 288.47715)scale(0.3 -0.3)">
     <use xlink:href="#DejaVuSans-2e"/>
     <use xlink:href="#DejaVuSans-35" x="31.787109"/>
     <use xlink:href="#DejaVuSans-35" x="95.410156"/>
    </g>
   </g>
   <g id="text_20">
    <!-- .45 -->
    <g transform="translate(648.461096 225.517328)scale(0.3 -0.3)">
     <use xlink:href="#DejaVuSans-2e"/>
     <use xlink:href="#DejaVuSans-34" x="31.787109"/>
     <use xlink:href="#DejaVuSans-35" x="95.410156"/>
    </g>
   </g>
   <g id="text_21">
    <!-- .39 -->
    <g transform="translate(684.810966 162.557507)scale(0.3 -0.3)">
     <use xlink:href="#DejaVuSans-2e"/>
     <use xlink:href="#DejaVuSans-33" x="31.787109"/>
     <use xlink:href="#DejaVuSans-39" x="95.410156"/>
    </g>
   </g>
   <g id="text_22">
    <!-- .21 -->
    <g transform="translate(721.160836 99.597685)scale(0.3 -0.3)">
     <use xlink:href="#DejaVuSans-2e"/>
     <use xlink:href="#DejaVuSans-32" x="31.787109"/>
     <use xlink:href="#DejaVuSans-31" x="95.410156"/>
    </g>
   </g>
   <g id="text_23">
    <!-- .40 -->
    <g transform="translate(575.761356 477.356614)scale(0.3 -0.3)">
     <use xlink:href="#DejaVuSans-2e"/>
     <use xlink:href="#DejaVuSans-34" x="31.787109"/>
     <use xlink:href="#DejaVuSans-30" x="95.410156"/>
    </g>
   </g>
   <g id="text_24">
    <!-- .39 -->
    <g transform="translate(612.111226 414.396793)scale(0.3 -0.3)">
     <use xlink:href="#DejaVuSans-2e"/>
     <use xlink:href="#DejaVuSans-33" x="31.787109"/>
     <use xlink:href="#DejaVuSans-39" x="95.410156"/>
    </g>
   </g>
   <g id="text_25">
    <!-- .52 -->
    <g transform="translate(648.461096 351.436971)scale(0.3 -0.3)">
     <use xlink:href="#DejaVuSans-2e"/>
     <use xlink:href="#DejaVuSans-35" x="31.787109"/>
     <use xlink:href="#DejaVuSans-32" x="95.410156"/>
    </g>
   </g>
   <g id="text_26">
    <!-- .54 -->
    <g transform="translate(684.810966 288.47715)scale(0.3 -0.3)">
     <use xlink:href="#DejaVuSans-2e"/>
     <use xlink:href="#DejaVuSans-35" x="31.787109"/>
     <use xlink:href="#DejaVuSans-34" x="95.410156"/>
    </g>
   </g>
   <g id="text_27">
    <!-- .45 -->
    <g transform="translate(721.160836 225.517328)scale(0.3 -0.3)">
     <use xlink:href="#DejaVuSans-2e"/>
     <use xlink:href="#DejaVuSans-34" x="31.787109"/>
     <use xlink:href="#DejaVuSans-35" x="95.410156"/>
    </g>
   </g>
   <g id="text_28">
    <!-- .38 -->
    <g transform="translate(757.510706 162.557507)scale(0.3 -0.3)">
     <use xlink:href="#DejaVuSans-2e"/>
     <use xlink:href="#DejaVuSans-33" x="31.787109"/>
     <use xlink:href="#DejaVuSans-38" x="95.410156"/>
    </g>
   </g>
   <g id="text_29">
    <!-- .30 -->
    <g transform="translate(793.860576 99.597685)scale(0.3 -0.3)">
     <use xlink:href="#DejaVuSans-2e"/>
     <use xlink:href="#DejaVuSans-33" x="31.787109"/>
     <use xlink:href="#DejaVuSans-30" x="95.410156"/>
    </g>
   </g>
   <g id="text_30">
    <!-- .38 -->
    <g transform="translate(648.461096 477.356614)scale(0.3 -0.3)">
     <use xlink:href="#DejaVuSans-2e"/>
     <use xlink:href="#DejaVuSans-33" x="31.787109"/>
     <use xlink:href="#DejaVuSans-38" x="95.410156"/>
    </g>
   </g>
   <g id="text_31">
    <!-- .52 -->
    <g transform="translate(684.810966 414.396793)scale(0.3 -0.3)">
     <use xlink:href="#DejaVuSans-2e"/>
     <use xlink:href="#DejaVuSans-35" x="31.787109"/>
     <use xlink:href="#DejaVuSans-32" x="95.410156"/>
    </g>
   </g>
   <g id="text_32">
    <!-- .56 -->
    <g transform="translate(721.160836 351.436971)scale(0.3 -0.3)">
     <use xlink:href="#DejaVuSans-2e"/>
     <use xlink:href="#DejaVuSans-35" x="31.787109"/>
     <use xlink:href="#DejaVuSans-36" x="95.410156"/>
    </g>
   </g>
   <g id="text_33">
    <!-- .58 -->
    <g transform="translate(757.510706 288.47715)scale(0.3 -0.3)">
     <use xlink:href="#DejaVuSans-2e"/>
     <use xlink:href="#DejaVuSans-35" x="31.787109"/>
     <use xlink:href="#DejaVuSans-38" x="95.410156"/>
    </g>
   </g>
   <g id="text_34">
    <!-- .46 -->
    <g transform="translate(793.860576 225.517328)scale(0.3 -0.3)">
     <use xlink:href="#DejaVuSans-2e"/>
     <use xlink:href="#DejaVuSans-34" x="31.787109"/>
     <use xlink:href="#DejaVuSans-36" x="95.410156"/>
    </g>
   </g>
   <g id="text_35">
    <!-- .44 -->
    <g transform="translate(830.210446 162.557507)scale(0.3 -0.3)">
     <use xlink:href="#DejaVuSans-2e"/>
     <use xlink:href="#DejaVuSans-34" x="31.787109"/>
     <use xlink:href="#DejaVuSans-34" x="95.410156"/>
    </g>
   </g>
   <g id="text_36">
    <!-- .28 -->
    <g transform="translate(866.560316 99.597685)scale(0.3 -0.3)">
     <use xlink:href="#DejaVuSans-2e"/>
     <use xlink:href="#DejaVuSans-32" x="31.787109"/>
     <use xlink:href="#DejaVuSans-38" x="95.410156"/>
    </g>
   </g>
   <g id="text_37">
    <!-- .49 -->
    <g transform="translate(721.160836 477.356614)scale(0.3 -0.3)">
     <use xlink:href="#DejaVuSans-2e"/>
     <use xlink:href="#DejaVuSans-34" x="31.787109"/>
     <use xlink:href="#DejaVuSans-39" x="95.410156"/>
    </g>
   </g>
   <g id="text_38">
    <!-- .62 -->
    <g transform="translate(757.510706 414.396793)scale(0.3 -0.3)">
     <use xlink:href="#DejaVuSans-2e"/>
     <use xlink:href="#DejaVuSans-36" x="31.787109"/>
     <use xlink:href="#DejaVuSans-32" x="95.410156"/>
    </g>
   </g>
   <g id="text_39">
    <!-- .59 -->
    <g transform="translate(793.860576 351.436971)scale(0.3 -0.3)">
     <use xlink:href="#DejaVuSans-2e"/>
     <use xlink:href="#DejaVuSans-35" x="31.787109"/>
     <use xlink:href="#DejaVuSans-39" x="95.410156"/>
    </g>
   </g>
   <g id="text_40">
    <!-- .53 -->
    <g transform="translate(830.210446 288.47715)scale(0.3 -0.3)">
     <use xlink:href="#DejaVuSans-2e"/>
     <use xlink:href="#DejaVuSans-35" x="31.787109"/>
     <use xlink:href="#DejaVuSans-33" x="95.410156"/>
    </g>
   </g>
   <g id="text_41">
    <!-- .48 -->
    <g transform="translate(866.560316 225.517328)scale(0.3 -0.3)">
     <use xlink:href="#DejaVuSans-2e"/>
     <use xlink:href="#DejaVuSans-34" x="31.787109"/>
     <use xlink:href="#DejaVuSans-38" x="95.410156"/>
    </g>
   </g>
   <g id="text_42">
    <!-- .42 -->
    <g transform="translate(902.910186 162.557507)scale(0.3 -0.3)">
     <use xlink:href="#DejaVuSans-2e"/>
     <use xlink:href="#DejaVuSans-34" x="31.787109"/>
     <use xlink:href="#DejaVuSans-32" x="95.410156"/>
    </g>
   </g>
   <g id="text_43">
    <!-- .22 -->
    <g transform="translate(939.260055 99.597685)scale(0.3 -0.3)">
     <use xlink:href="#DejaVuSans-2e"/>
     <use xlink:href="#DejaVuSans-32" x="31.787109"/>
     <use xlink:href="#DejaVuSans-32" x="95.410156"/>
    </g>
   </g>
   <g id="text_44">
    <!-- .59 -->
    <g transform="translate(793.860576 477.356614)scale(0.3 -0.3)">
     <use xlink:href="#DejaVuSans-2e"/>
     <use xlink:href="#DejaVuSans-35" x="31.787109"/>
     <use xlink:href="#DejaVuSans-39" x="95.410156"/>
    </g>
   </g>
   <g id="text_45">
    <!-- .57 -->
    <g transform="translate(830.210446 414.396793)scale(0.3 -0.3)">
     <use xlink:href="#DejaVuSans-2e"/>
     <use xlink:href="#DejaVuSans-35" x="31.787109"/>
     <use xlink:href="#DejaVuSans-37" x="95.410156"/>
    </g>
   </g>
   <g id="text_46">
    <!-- .54 -->
    <g transform="translate(866.560316 351.436971)scale(0.3 -0.3)">
     <use xlink:href="#DejaVuSans-2e"/>
     <use xlink:href="#DejaVuSans-35" x="31.787109"/>
     <use xlink:href="#DejaVuSans-34" x="95.410156"/>
    </g>
   </g>
   <g id="text_47">
    <!-- .49 -->
    <g transform="translate(902.910186 288.47715)scale(0.3 -0.3)">
     <use xlink:href="#DejaVuSans-2e"/>
     <use xlink:href="#DejaVuSans-34" x="31.787109"/>
     <use xlink:href="#DejaVuSans-39" x="95.410156"/>
    </g>
   </g>
   <g id="text_48">
    <!-- .47 -->
    <g transform="translate(939.260055 225.517328)scale(0.3 -0.3)">
     <use xlink:href="#DejaVuSans-2e"/>
     <use xlink:href="#DejaVuSans-34" x="31.787109"/>
     <use xlink:href="#DejaVuSans-37" x="95.410156"/>
    </g>
   </g>
   <g id="text_49">
    <!-- .41 -->
    <g transform="translate(975.609925 162.557507)scale(0.3 -0.3)">
     <use xlink:href="#DejaVuSans-2e"/>
     <use xlink:href="#DejaVuSans-34" x="31.787109"/>
     <use xlink:href="#DejaVuSans-31" x="95.410156"/>
    </g>
   </g>
   <g id="text_50">
    <!-- .26 -->
    <g transform="translate(1011.959795 99.597685)scale(0.3 -0.3)">
     <use xlink:href="#DejaVuSans-2e"/>
     <use xlink:href="#DejaVuSans-32" x="31.787109"/>
     <use xlink:href="#DejaVuSans-36" x="95.410156"/>
    </g>
   </g>
   <g id="text_51">
    <!-- .63 -->
    <g transform="translate(793.860576 603.276257)scale(0.3 -0.3)">
     <use xlink:href="#DejaVuSans-2e"/>
     <use xlink:href="#DejaVuSans-36" x="31.787109"/>
     <use xlink:href="#DejaVuSans-33" x="95.410156"/>
    </g>
   </g>
  </g>
 </g>
 <defs>
  <clipPath id="p7e0e43b27e">
   <rect x="95.579575" y="6.4395" width="1159.56085" height="674.001"/>
  </clipPath>
 </defs>
</svg>
