<?xml version="1.0" encoding="UTF-8" standalone="no"?>
<!-- Created with Inkscape (http://www.inkscape.org/) -->

<svg
   version="1.1"
   id="svg2365"
   width="430.67551"
   height="258.0386"
   viewBox="0 0 430.67551 258.0386"
   sodipodi:docname="5x5_graph.svg"
   inkscape:version="1.2.2 (732a01da63, 2022-12-09)"
   xmlns:inkscape="http://www.inkscape.org/namespaces/inkscape"
   xmlns:sodipodi="http://sodipodi.sourceforge.net/DTD/sodipodi-0.dtd"
   xmlns="http://www.w3.org/2000/svg"
   xmlns:svg="http://www.w3.org/2000/svg">
  <defs
     id="defs2369" />
  <sodipodi:namedview
     id="namedview2367"
     pagecolor="#ffffff"
     bordercolor="#000000"
     borderopacity="0.25"
     inkscape:showpageshadow="2"
     inkscape:pageopacity="0.0"
     inkscape:pagecheckerboard="0"
     inkscape:deskcolor="#d1d1d1"
     showgrid="false"
     inkscape:zoom="1.7427745"
     inkscape:cx="275.42289"
     inkscape:cy="193.65672"
     inkscape:window-width="1920"
     inkscape:window-height="991"
     inkscape:window-x="-9"
     inkscape:window-y="-9"
     inkscape:window-maximized="1"
     inkscape:current-layer="g2373">
    <inkscape:page
       x="0"
       y="0"
       id="page2371"
       width="430.67551"
       height="258.0386" />
  </sodipodi:namedview>
  <g
     id="g2373"
     inkscape:groupmode="layer"
     inkscape:label="Page 1"
     transform="matrix(1.3333333,0,0,1.3333333,-31.159214,-15.613838)">
    <path
       d="M 38.117896,108.23258 187.54256,21.962013"
       style="fill:none;stroke:#2e3436;stroke-width:0.929905;stroke-linecap:butt;stroke-linejoin:miter;stroke-miterlimit:10;stroke-dasharray:none;stroke-opacity:0.8"
       id="path2379" />
    <path
       d="M 38.117896,108.23258 H 187.54256"
       style="fill:none;stroke:#2e3436;stroke-width:0.929905;stroke-linecap:butt;stroke-linejoin:miter;stroke-miterlimit:10;stroke-dasharray:none;stroke-opacity:0.8"
       id="path2383" />
    <path
       d="M 38.117896,108.23258 212.44687,65.098464"
       style="fill:none;stroke:#2e3436;stroke-width:0.929905;stroke-linecap:butt;stroke-linejoin:miter;stroke-miterlimit:10;stroke-dasharray:none;stroke-opacity:0.8"
       id="path2387" />
    <path
       d="M 38.117896,108.23258 H 137.73453"
       style="fill:none;stroke:#2e3436;stroke-width:0.929905;stroke-linecap:butt;stroke-linejoin:miter;stroke-miterlimit:10;stroke-dasharray:none;stroke-opacity:0.8"
       id="path2391" />
    <path
       d="M 38.117896,194.50315 V 108.23258"
       style="fill:none;stroke:#2e3436;stroke-width:0.929905;stroke-linecap:butt;stroke-linejoin:miter;stroke-miterlimit:10;stroke-dasharray:none;stroke-opacity:0.8"
       id="path2395" />
    <path
       d="M 63.022201,151.3667 38.117896,108.23258"
       style="fill:none;stroke:#2e3436;stroke-width:0.929905;stroke-linecap:butt;stroke-linejoin:miter;stroke-miterlimit:10;stroke-dasharray:none;stroke-opacity:0.8"
       id="path2399" />
    <path
       d="M 87.925923,108.23258 H 38.117896"
       style="fill:none;stroke:#2e3436;stroke-width:0.929905;stroke-linecap:butt;stroke-linejoin:miter;stroke-miterlimit:10;stroke-dasharray:none;stroke-opacity:0.8"
       id="path2403" />
    <path
       d="M 87.925923,194.50315 H 38.117896"
       style="fill:none;stroke:#2e3436;stroke-width:0.929905;stroke-linecap:butt;stroke-linejoin:miter;stroke-miterlimit:10;stroke-dasharray:none;stroke-opacity:0.8"
       id="path2407" />
    <path
       d="M 87.925923,194.50315 63.022201,151.3667"
       style="fill:none;stroke:#2e3436;stroke-width:0.929905;stroke-linecap:butt;stroke-linejoin:miter;stroke-miterlimit:10;stroke-dasharray:none;stroke-opacity:0.8"
       id="path2411" />
    <path
       d="M 112.83023,151.3667 87.925923,194.50315"
       style="fill:none;stroke:#2e3436;stroke-width:0.929905;stroke-linecap:butt;stroke-linejoin:miter;stroke-miterlimit:10;stroke-dasharray:none;stroke-opacity:0.8"
       id="path2415" />
    <path
       d="M 112.83023,151.3667 H 63.022201"
       style="fill:none;stroke:#2e3436;stroke-width:0.929905;stroke-linecap:butt;stroke-linejoin:miter;stroke-miterlimit:10;stroke-dasharray:none;stroke-opacity:0.8"
       id="path2419" />
    <path
       d="M 112.83023,151.3667 87.925923,108.23258"
       style="fill:none;stroke:#2e3436;stroke-width:0.929905;stroke-linecap:butt;stroke-linejoin:miter;stroke-miterlimit:10;stroke-dasharray:none;stroke-opacity:0.8"
       id="path2423" />
    <path
       d="m 137.73453,108.23258 -24.9043,43.13412"
       style="fill:none;stroke:#2e3436;stroke-width:0.929905;stroke-linecap:butt;stroke-linejoin:miter;stroke-miterlimit:10;stroke-dasharray:none;stroke-opacity:0.8"
       id="path2427" />
    <path
       d="M 137.73453,194.50315 H 87.925923"
       style="fill:none;stroke:#2e3436;stroke-width:0.929905;stroke-linecap:butt;stroke-linejoin:miter;stroke-miterlimit:10;stroke-dasharray:none;stroke-opacity:0.8"
       id="path2431" />
    <path
       d="M 137.73453,194.50315 112.83023,151.3667"
       style="fill:none;stroke:#2e3436;stroke-width:0.929905;stroke-linecap:butt;stroke-linejoin:miter;stroke-miterlimit:10;stroke-dasharray:none;stroke-opacity:0.8"
       id="path2435" />
    <path
       d="m 162.63826,151.3667 -24.90373,43.13645"
       style="fill:none;stroke:#2e3436;stroke-width:0.929905;stroke-linecap:butt;stroke-linejoin:miter;stroke-miterlimit:10;stroke-dasharray:none;stroke-opacity:0.8"
       id="path2439" />
    <path
       d="M 162.63826,151.3667 H 112.83023"
       style="fill:none;stroke:#2e3436;stroke-width:0.929905;stroke-linecap:butt;stroke-linejoin:miter;stroke-miterlimit:10;stroke-dasharray:none;stroke-opacity:0.8"
       id="path2443" />
    <path
       d="M 162.63826,151.3667 137.73453,108.23258"
       style="fill:none;stroke:#2e3436;stroke-width:0.929905;stroke-linecap:butt;stroke-linejoin:miter;stroke-miterlimit:10;stroke-dasharray:none;stroke-opacity:0.8"
       id="path2447" />
    <path
       d="m 187.54256,108.23258 -24.9043,43.13412"
       style="fill:none;stroke:#2e3436;stroke-width:0.929905;stroke-linecap:butt;stroke-linejoin:miter;stroke-miterlimit:10;stroke-dasharray:none;stroke-opacity:0.8"
       id="path2451" />
    <path
       d="M 237.35059,21.962013 212.44687,65.098464"
       style="fill:none;stroke:#2e3436;stroke-width:0.929905;stroke-linecap:butt;stroke-linejoin:miter;stroke-miterlimit:10;stroke-dasharray:none;stroke-opacity:0.8"
       id="path2455" />
    <path
       d="M 237.35059,21.962013 H 187.54256"
       style="fill:none;stroke:#2e3436;stroke-width:0.929905;stroke-linecap:butt;stroke-linejoin:miter;stroke-miterlimit:10;stroke-dasharray:none;stroke-opacity:0.8"
       id="path2459" />
    <path
       d="M 237.35059,108.23258 H 187.54256"
       style="fill:none;stroke:#2e3436;stroke-width:0.929905;stroke-linecap:butt;stroke-linejoin:miter;stroke-miterlimit:10;stroke-dasharray:none;stroke-opacity:0.8"
       id="path2463" />
    <path
       d="M 237.35059,108.23258 212.44687,65.098464"
       style="fill:none;stroke:#2e3436;stroke-width:0.929905;stroke-linecap:butt;stroke-linejoin:miter;stroke-miterlimit:10;stroke-dasharray:none;stroke-opacity:0.8"
       id="path2467" />
    <path
       d="m 262.25489,65.098464 -24.9043,43.134116"
       style="fill:none;stroke:#2e3436;stroke-width:0.929905;stroke-linecap:butt;stroke-linejoin:miter;stroke-miterlimit:10;stroke-dasharray:none;stroke-opacity:0.8"
       id="path2471" />
    <path
       d="M 262.25489,65.098464 H 212.44687"
       style="fill:none;stroke:#2e3436;stroke-width:0.929905;stroke-linecap:butt;stroke-linejoin:miter;stroke-miterlimit:10;stroke-dasharray:none;stroke-opacity:0.8"
       id="path2475" />
    <path
       d="M 262.25489,65.098464 237.35059,21.962013"
       style="fill:none;stroke:#2e3436;stroke-width:0.929905;stroke-linecap:butt;stroke-linejoin:miter;stroke-miterlimit:10;stroke-dasharray:none;stroke-opacity:0.8"
       id="path2479" />
    <path
       d="M 287.1592,21.962013 262.25489,65.098464"
       style="fill:none;stroke:#2e3436;stroke-width:0.929905;stroke-linecap:butt;stroke-linejoin:miter;stroke-miterlimit:10;stroke-dasharray:none;stroke-opacity:0.8"
       id="path2483" />
    <path
       d="M 287.1592,21.962013 H 237.35059"
       style="fill:none;stroke:#2e3436;stroke-width:0.929905;stroke-linecap:butt;stroke-linejoin:miter;stroke-miterlimit:10;stroke-dasharray:none;stroke-opacity:0.8"
       id="path2487" />
    <path
       d="m 262.25489,151.3667 74.71234,-43.13412"
       style="fill:none;stroke:#2e3436;stroke-width:0.929905;stroke-linecap:butt;stroke-linejoin:miter;stroke-miterlimit:10;stroke-dasharray:none;stroke-opacity:0.8"
       id="path2491" />
    <path
       d="m 262.25489,151.3667 -24.9043,-43.13412"
       style="fill:none;stroke:#2e3436;stroke-width:0.929905;stroke-linecap:butt;stroke-linejoin:miter;stroke-miterlimit:10;stroke-dasharray:none;stroke-opacity:0.8"
       id="path2495" />
    <path
       d="m 287.1592,108.23258 h 49.80803"
       style="fill:none;stroke:#2e3436;stroke-width:0.929905;stroke-linecap:butt;stroke-linejoin:miter;stroke-miterlimit:10;stroke-dasharray:none;stroke-opacity:0.8"
       id="path2499" />
    <path
       d="M 287.1592,108.23258 H 237.35059"
       style="fill:none;stroke:#2e3436;stroke-width:0.929905;stroke-linecap:butt;stroke-linejoin:miter;stroke-miterlimit:10;stroke-dasharray:none;stroke-opacity:0.8"
       id="path2503" />
    <path
       d="M 287.1592,108.23258 262.25489,65.098464"
       style="fill:none;stroke:#2e3436;stroke-width:0.929905;stroke-linecap:butt;stroke-linejoin:miter;stroke-miterlimit:10;stroke-dasharray:none;stroke-opacity:0.8"
       id="path2507" />
    <path
       d="m 312.06292,65.098464 24.90431,43.134116"
       style="fill:none;stroke:#2e3436;stroke-width:0.929905;stroke-linecap:butt;stroke-linejoin:miter;stroke-miterlimit:10;stroke-dasharray:none;stroke-opacity:0.8"
       id="path2511" />
    <path
       d="M 312.06292,65.098464 H 262.25489"
       style="fill:none;stroke:#2e3436;stroke-width:0.929905;stroke-linecap:butt;stroke-linejoin:miter;stroke-miterlimit:10;stroke-dasharray:none;stroke-opacity:0.8"
       id="path2515" />
    <path
       d="M 312.06292,65.098464 287.1592,21.962013"
       style="fill:none;stroke:#2e3436;stroke-width:0.929905;stroke-linecap:butt;stroke-linejoin:miter;stroke-miterlimit:10;stroke-dasharray:none;stroke-opacity:0.8"
       id="path2519" />
    <path
       d="M 336.96723,21.962013 V 108.23258"
       style="fill:none;stroke:#2e3436;stroke-width:0.929905;stroke-linecap:butt;stroke-linejoin:miter;stroke-miterlimit:10;stroke-dasharray:none;stroke-opacity:0.8"
       id="path2523" />
    <path
       d="M 336.96723,21.962013 H 287.1592"
       style="fill:none;stroke:#2e3436;stroke-width:0.929905;stroke-linecap:butt;stroke-linejoin:miter;stroke-miterlimit:10;stroke-dasharray:none;stroke-opacity:0.8"
       id="path2527" />
    <path
       d="m 45.194613,111.73107 c 0,5.8392 -4.735998,10.57521 -10.575202,10.57521 -5.839202,0 -10.5752,-4.73601 -10.5752,-10.57521 0,-5.8392 4.735998,-10.5752 10.5752,-10.5752 5.839204,0 10.575202,4.736 10.575202,10.5752 z"
       style="fill:#ff0000;fill-opacity:1;fill-rule:nonzero;stroke:none;stroke-width:0.846016"
       id="path2529" />
    <path
       d="m 45.194613,111.73107 c 0,5.8392 -4.735998,10.5752 -10.575201,10.5752 -5.839203,0 -10.575201,-4.736 -10.575201,-10.5752 0,-5.8392 4.735998,-10.5752 10.575201,-10.5752 5.839203,0 10.575201,4.736 10.575201,10.5752 z"
       style="fill:none;stroke:#999999;stroke-width:1.3496;stroke-linecap:butt;stroke-linejoin:miter;stroke-miterlimit:10;stroke-dasharray:none;stroke-opacity:0.8"
       id="path2533" />
    <path
       d="m 344.04395,108.73107 c 0,5.8392 -4.73599,10.57521 -10.5752,10.57521 -5.8392,0 -10.57521,-4.73601 -10.57521,-10.57521 0,-5.8392 4.73601,-10.575202 10.57521,-10.575202 5.83921,0 10.5752,4.736002 10.5752,10.575202 z"
       style="fill:#ff0000;fill-opacity:1;fill-rule:nonzero;stroke:none;stroke-width:0.846016"
       id="path2539" />
    <path
       d="m 344.04395,108.73107 c 0,5.8392 -4.736,10.5752 -10.5752,10.5752 -5.83921,0 -10.5752,-4.736 -10.5752,-10.5752 0,-5.8392 4.73599,-10.575201 10.5752,-10.575201 5.8392,0 10.5752,4.736001 10.5752,10.575201 z"
       style="fill:none;stroke:#999999;stroke-width:1.3496;stroke-linecap:butt;stroke-linejoin:miter;stroke-miterlimit:10;stroke-dasharray:none;stroke-opacity:0.8"
       id="path2543" />
    <path
       d="M 41.950681,201.78816 H 31.931066 l -5.009804,-8.67832 5.009804,-8.67832 h 10.019615 l 5.009807,8.67832 z"
       style="fill:#000000;fill-opacity:1;fill-rule:nonzero;stroke:none;stroke-width:1.33595"
       id="path2549" />
    <path
       d="M 41.950683,201.78818 H 31.931069 l -5.009806,-8.67833 5.009806,-8.67832 h 10.019614 l 5.009807,8.67832 z"
       style="fill:none;stroke:#999999;stroke-width:2.13116;stroke-linecap:butt;stroke-linejoin:miter;stroke-miterlimit:10;stroke-dasharray:none;stroke-opacity:0.8"
       id="path2553" />
    <path
       d="M 67.690805,159.53411 H 57.671277 l -5.009765,-8.67825 5.009765,-8.6729 h 10.019528 l 5.009765,8.6729 z"
       style="fill:#000000;fill-opacity:1;fill-rule:nonzero;stroke:none;stroke-width:1.33594"
       id="path2559" />
    <path
       d="M 67.690804,159.53411 H 57.671275 l -5.009764,-8.67825 5.009764,-8.6729 h 10.019529 l 5.009765,8.6729 z"
       style="fill:none;stroke:#999999;stroke-width:2.13114;stroke-linecap:butt;stroke-linejoin:miter;stroke-miterlimit:10;stroke-dasharray:none;stroke-opacity:0.8"
       id="path2563" />
    <path
       d="M 92.594528,117.90316 H 82.574914 l -5.009807,-8.67832 5.009807,-8.67832 h 10.019614 l 5.009805,8.67832 z"
       style="fill:#000000;fill-opacity:1;fill-rule:nonzero;stroke:none;stroke-width:1.33595"
       id="path2569" />
    <path
       d="M 92.594532,117.90317 H 82.574918 l -5.009807,-8.67832 5.009807,-8.67832 h 10.019614 l 5.009807,8.67832 z"
       style="fill:none;stroke:#999999;stroke-width:2.13116;stroke-linecap:butt;stroke-linejoin:miter;stroke-miterlimit:10;stroke-dasharray:none;stroke-opacity:0.8"
       id="path2573" />
    <path
       d="M 92.594528,202.67373 H 82.574914 l -5.009807,-8.67832 5.009807,-8.67832 h 10.019614 l 5.009805,8.67832 z"
       style="fill:#000000;fill-opacity:1;fill-rule:nonzero;stroke:none;stroke-width:1.33595"
       id="path2579" />
    <path
       d="M 92.594532,202.67375 H 82.574918 l -5.009807,-8.67833 5.009807,-8.67832 h 10.019614 l 5.009807,8.67832 z"
       style="fill:none;stroke:#999999;stroke-width:2.13116;stroke-linecap:butt;stroke-linejoin:miter;stroke-miterlimit:10;stroke-dasharray:none;stroke-opacity:0.8"
       id="path2583" />
    <path
       d="m 117.49884,159.53411 h -10.01953 l -5.00977,-8.67825 5.00977,-8.6729 h 10.01953 l 5.00977,8.6729 z"
       style="fill:#000000;fill-opacity:1;fill-rule:nonzero;stroke:none;stroke-width:1.33594"
       id="path2589" />
    <path
       d="m 117.49884,159.53411 h -10.01953 l -5.00977,-8.67825 5.00977,-8.6729 h 10.01953 l 5.00976,8.6729 z"
       style="fill:none;stroke:#999999;stroke-width:2.13114;stroke-linecap:butt;stroke-linejoin:miter;stroke-miterlimit:10;stroke-dasharray:none;stroke-opacity:0.8"
       id="path2593" />
    <path
       d="m 142.40314,116.40316 h -10.01962 l -5.00979,-8.67832 5.00979,-8.678319 h 10.01962 l 5.00981,8.678319 z"
       style="fill:#000000;fill-opacity:1;fill-rule:nonzero;stroke:none;stroke-width:1.33595"
       id="path2599" />
    <path
       d="m 142.40315,116.40317 h -10.01962 l -5.0098,-8.67832 5.0098,-8.678321 h 10.01962 l 5.0098,8.678321 z"
       style="fill:none;stroke:#999999;stroke-width:2.13116;stroke-linecap:butt;stroke-linejoin:miter;stroke-miterlimit:10;stroke-dasharray:none;stroke-opacity:0.8"
       id="path2603" />
    <path
       d="m 188.36291,30.968423 h -10.01962 l -5.0098,-8.678322 5.0098,-8.678321 h 10.01962 l 5.0098,8.678321 z"
       style="fill:#000000;fill-opacity:1;fill-rule:nonzero;stroke:none;stroke-width:1.33595"
       id="path2609" />
    <path
       d="m 188.36291,30.968423 h -10.01962 l -5.0098,-8.678322 5.0098,-8.678321 h 10.01962 l 5.0098,8.678321 z"
       style="fill:none;stroke:#999999;stroke-width:2.13116;stroke-linecap:butt;stroke-linejoin:miter;stroke-miterlimit:10;stroke-dasharray:none;stroke-opacity:0.8"
       id="path2613" />
    <path
       d="m 142.40314,204.17373 h -10.01962 l -5.00979,-8.67832 5.00979,-8.67832 h 10.01962 l 5.00981,8.67832 z"
       style="fill:#000000;fill-opacity:1;fill-rule:nonzero;stroke:none;stroke-width:1.33595"
       id="path2619" />
    <path
       d="m 142.40315,204.17375 h -10.01962 l -5.0098,-8.67833 5.0098,-8.67832 h 10.01962 l 5.0098,8.67832 z"
       style="fill:none;stroke:#999999;stroke-width:2.13116;stroke-linecap:butt;stroke-linejoin:miter;stroke-miterlimit:10;stroke-dasharray:none;stroke-opacity:0.8"
       id="path2623" />
    <path
       d="m 167.30685,159.53411 h -10.01951 l -5.00977,-8.67825 5.00977,-8.6729 h 10.01951 l 5.00977,8.6729 z"
       style="fill:#000000;fill-opacity:1;fill-rule:nonzero;stroke:none;stroke-width:1.33594"
       id="path2629" />
    <path
       d="m 167.30686,159.53411 h -10.01953 l -5.00976,-8.67825 5.00976,-8.6729 h 10.01953 l 5.00976,8.6729 z"
       style="fill:none;stroke:#999999;stroke-width:2.13114;stroke-linecap:butt;stroke-linejoin:miter;stroke-miterlimit:10;stroke-dasharray:none;stroke-opacity:0.8"
       id="path2633" />
    <path
       d="m 190.71116,117.90316 h -10.01962 l -5.00981,-8.67832 5.00981,-8.67832 h 10.01962 l 5.00981,8.67832 z"
       style="fill:#000000;fill-opacity:1;fill-rule:nonzero;stroke:none;stroke-width:1.33595"
       id="path2639" />
    <path
       d="m 190.71117,117.90317 h -10.01962 l -5.0098,-8.67832 5.0098,-8.67832 h 10.01962 l 5.0098,8.67832 z"
       style="fill:none;stroke:#999999;stroke-width:2.13116;stroke-linecap:butt;stroke-linejoin:miter;stroke-miterlimit:10;stroke-dasharray:none;stroke-opacity:0.8"
       id="path2643" />
    <path
       d="m 217.11547,73.263553 h -10.01953 l -5.00977,-8.672906 5.00977,-8.678249 h 10.01953 l 5.00975,8.678249 z"
       style="fill:#000000;fill-opacity:1;fill-rule:nonzero;stroke:none;stroke-width:1.33594"
       id="path2649" />
    <path
       d="m 217.11546,73.263549 h -10.01953 l -5.00976,-8.672904 5.00976,-8.678249 h 10.01953 l 5.00976,8.678249 z"
       style="fill:none;stroke:#999999;stroke-width:2.13114;stroke-linecap:butt;stroke-linejoin:miter;stroke-miterlimit:10;stroke-dasharray:none;stroke-opacity:0.8"
       id="path2653" />
    <path
       d="m 243.51919,30.1326 h -10.01962 l -5.00981,-8.678319 5.00981,-8.678322 h 10.01962 l 5.00981,8.678322 z"
       style="fill:#000000;fill-opacity:1;fill-rule:nonzero;stroke:none;stroke-width:1.33595"
       id="path2659" />
    <path
       d="m 243.5192,30.132602 h -10.01962 l -5.0098,-8.678322 5.0098,-8.678321 h 10.01962 l 5.0098,8.678321 z"
       style="fill:none;stroke:#999999;stroke-width:2.13116;stroke-linecap:butt;stroke-linejoin:miter;stroke-miterlimit:10;stroke-dasharray:none;stroke-opacity:0.8"
       id="path2663" />
    <path
       d="m 242.01919,116.40316 h -10.01962 l -5.00981,-8.67832 5.00981,-8.678319 h 10.01962 l 5.00981,8.678319 z"
       style="fill:#000000;fill-opacity:1;fill-rule:nonzero;stroke:none;stroke-width:1.33595"
       id="path2669" />
    <path
       d="m 242.0192,116.40317 h -10.01962 l -5.0098,-8.67832 5.0098,-8.678321 h 10.01962 l 5.0098,8.678321 z"
       style="fill:none;stroke:#999999;stroke-width:2.13116;stroke-linecap:butt;stroke-linejoin:miter;stroke-miterlimit:10;stroke-dasharray:none;stroke-opacity:0.8"
       id="path2673" />
    <path
       d="m 266.92348,73.263553 h -10.01951 l -5.00977,-8.672906 5.00977,-8.678249 h 10.01951 l 5.00977,8.678249 z"
       style="fill:#000000;fill-opacity:1;fill-rule:nonzero;stroke:none;stroke-width:1.33594"
       id="path2679" />
    <path
       d="m 266.92348,73.263549 h -10.01953 l -5.00976,-8.672904 5.00976,-8.678249 h 10.01953 l 5.00977,8.678249 z"
       style="fill:none;stroke:#999999;stroke-width:2.13114;stroke-linecap:butt;stroke-linejoin:miter;stroke-miterlimit:10;stroke-dasharray:none;stroke-opacity:0.8"
       id="path2683" />
    <path
       d="m 291.8278,31.6326 h -10.01962 l -5.00981,-8.678319 5.00981,-8.678322 h 10.01962 l 5.00981,8.678322 z"
       style="fill:#000000;fill-opacity:1;fill-rule:nonzero;stroke:none;stroke-width:1.33595"
       id="path2689" />
    <path
       d="M 291.82781,31.632602 H 281.8082 l -5.00981,-8.678322 5.00981,-8.678321 h 10.01961 l 5.00981,8.678321 z"
       style="fill:none;stroke:#999999;stroke-width:2.13116;stroke-linecap:butt;stroke-linejoin:miter;stroke-miterlimit:10;stroke-dasharray:none;stroke-opacity:0.8"
       id="path2693" />
    <path
       d="m 268.42348,161.03411 h -10.01951 l -5.00977,-8.67825 5.00977,-8.6729 h 10.01951 l 5.00977,8.6729 z"
       style="fill:#000000;fill-opacity:1;fill-rule:nonzero;stroke:none;stroke-width:1.33594"
       id="path2699" />
    <path
       d="m 268.42348,161.03411 h -10.01953 l -5.00976,-8.67825 5.00976,-8.6729 h 10.01953 l 5.00977,8.6729 z"
       style="fill:none;stroke:#999999;stroke-width:2.13114;stroke-linecap:butt;stroke-linejoin:miter;stroke-miterlimit:10;stroke-dasharray:none;stroke-opacity:0.8"
       id="path2703" />
    <path
       d="m 291.8278,116.40316 h -10.01962 l -5.00981,-8.67832 5.00981,-8.678319 h 10.01962 l 5.00981,8.678319 z"
       style="fill:#000000;fill-opacity:1;fill-rule:nonzero;stroke:none;stroke-width:1.33595"
       id="path2709" />
    <path
       d="M 291.82781,116.40317 H 281.8082 l -5.00981,-8.67832 5.00981,-8.678321 h 10.01961 l 5.00981,8.678321 z"
       style="fill:none;stroke:#999999;stroke-width:2.13116;stroke-linecap:butt;stroke-linejoin:miter;stroke-miterlimit:10;stroke-dasharray:none;stroke-opacity:0.8"
       id="path2713" />
    <path
       d="m 315.23151,73.263553 h -10.01953 l -5.00977,-8.672906 5.00977,-8.678249 h 10.01953 l 5.00977,8.678249 z"
       style="fill:#000000;fill-opacity:1;fill-rule:nonzero;stroke:none;stroke-width:1.33594"
       id="path2719" />
    <path
       d="m 315.23151,73.263549 h -10.01953 l -5.00977,-8.672904 5.00977,-8.678249 h 10.01953 l 5.00976,8.678249 z"
       style="fill:none;stroke:#999999;stroke-width:2.13114;stroke-linecap:butt;stroke-linejoin:miter;stroke-miterlimit:10;stroke-dasharray:none;stroke-opacity:0.8"
       id="path2723" />
    <path
       d="m 340.13584,31.6326 h -10.01962 l -5.00981,-8.678319 5.00981,-8.678322 h 10.01962 l 5.00978,8.678322 z"
       style="fill:#000000;fill-opacity:1;fill-rule:nonzero;stroke:none;stroke-width:1.33595"
       id="path2729" />
    <path
       d="m 340.13584,31.632602 h -10.01961 l -5.00981,-8.678322 5.00981,-8.678321 h 10.01961 l 5.00981,8.678321 z"
       style="fill:none;stroke:#999999;stroke-width:2.13116;stroke-linecap:butt;stroke-linejoin:miter;stroke-miterlimit:10;stroke-dasharray:none;stroke-opacity:0.8"
       id="path2733" />
  </g>
</svg>
