<?xml version="1.0" encoding="utf-8" standalone="no"?>
<!DOCTYPE svg PUBLIC "-//W3C//DTD SVG 1.1//EN"
  "http://www.w3.org/Graphics/SVG/1.1/DTD/svg11.dtd">
<svg xmlns:xlink="http://www.w3.org/1999/xlink" width="650.88pt" height="709.2pt" viewBox="0 0 650.88 709.2" xmlns="http://www.w3.org/2000/svg" version="1.1">
 <metadata>
  <rdf:RDF xmlns:dc="http://purl.org/dc/elements/1.1/" xmlns:cc="http://creativecommons.org/ns#" xmlns:rdf="http://www.w3.org/1999/02/22-rdf-syntax-ns#">
   <cc:Work>
    <dc:type rdf:resource="http://purl.org/dc/dcmitype/StillImage"/>
    <dc:date>2023-01-19T07:34:35.647366</dc:date>
    <dc:format>image/svg+xml</dc:format>
    <dc:creator>
     <cc:Agent>
      <dc:title>Matplotlib v3.5.2, https://matplotlib.org/</dc:title>
     </cc:Agent>
    </dc:creator>
   </cc:Work>
  </rdf:RDF>
 </metadata>
 <defs>
  <style type="text/css">*{stroke-linejoin: round; stroke-linecap: butt}</style>
 </defs>
 <g id="figure_1">
  <g id="patch_1">
   <path d="M 0 709.2 
L 650.88 709.2 
L 650.88 0 
L 0 0 
z
" style="fill: #ffffff"/>
  </g>
  <g id="axes_1">
   <g id="patch_2">
    <path d="M 325.44 359.108424 
L 39.403636 521.648656 
L 224.485989 187.551344 
z
" clip-path="url(#p92cd59f896)" style="fill: #ff0000; opacity: 0.7; stroke: #ff0000; stroke-linejoin: miter"/>
   </g>
   <g id="patch_3">
    <path d="M 325.44 359.108424 
L 611.476364 187.551344 
L 224.485989 187.551344 
z
" clip-path="url(#p92cd59f896)" style="fill: #0000ff; opacity: 0.7; stroke: #0000ff; stroke-linejoin: miter"/>
   </g>
   <g id="patch_4">
    <path d="M 325.44 359.108424 
L 611.476364 187.551344 
L 426.394011 521.648656 
z
" clip-path="url(#p92cd59f896)" style="fill: #ff0000; opacity: 0.7; stroke: #ff0000; stroke-linejoin: miter"/>
   </g>
   <g id="patch_5">
    <path d="M 325.44 359.108424 
L 39.403636 521.648656 
L 426.394011 521.648656 
z
" clip-path="url(#p92cd59f896)" style="fill: #0000ff; opacity: 0.7; stroke: #0000ff; stroke-linejoin: miter"/>
   </g>
   <g id="patch_6">
    <path d="M 123.531979 432.314434 
L 89.880642 451.743042 
L 89.880642 490.600259 
L 123.531979 510.028867 
L 157.183316 490.600259 
L 157.183316 451.743042 
z
" clip-path="url(#p92cd59f896)" style="fill: #ffffff; stroke: #000000; stroke-width: 2; stroke-linejoin: miter"/>
   </g>
   <g id="patch_7">
    <path d="M 157.183316 374.028608 
L 123.531979 393.457217 
L 123.531979 432.314434 
L 157.183316 451.743042 
L 190.834652 432.314434 
L 190.834652 393.457217 
z
" clip-path="url(#p92cd59f896)" style="fill: #ffffff; stroke: #000000; stroke-width: 2; stroke-linejoin: miter"/>
   </g>
   <g id="patch_8">
    <path d="M 190.834652 315.742783 
L 157.183316 335.171392 
L 157.183316 374.028608 
L 190.834652 393.457217 
L 224.485989 374.028608 
L 224.485989 335.171392 
z
" clip-path="url(#p92cd59f896)" style="fill: #ffffff; stroke: #000000; stroke-width: 2; stroke-linejoin: miter"/>
   </g>
   <g id="patch_9">
    <path d="M 224.485989 257.456958 
L 190.834652 276.885566 
L 190.834652 315.742783 
L 224.485989 335.171392 
L 258.137326 315.742783 
L 258.137326 276.885566 
z
" clip-path="url(#p92cd59f896)" style="fill: #ffffff; stroke: #000000; stroke-width: 2; stroke-linejoin: miter"/>
   </g>
   <g id="patch_10">
    <path d="M 258.137326 199.171133 
L 224.485989 218.599741 
L 224.485989 257.456958 
L 258.137326 276.885566 
L 291.788663 257.456958 
L 291.788663 218.599741 
z
" clip-path="url(#p92cd59f896)" style="fill: #ff0000; stroke: #000000; stroke-width: 2; stroke-linejoin: miter"/>
   </g>
   <g id="patch_11">
    <path d="M 190.834652 432.314434 
L 157.183316 451.743042 
L 157.183316 490.600259 
L 190.834652 510.028867 
L 224.485989 490.600259 
L 224.485989 451.743042 
z
" clip-path="url(#p92cd59f896)" style="fill: #ffffff; stroke: #000000; stroke-width: 2; stroke-linejoin: miter"/>
   </g>
   <g id="patch_12">
    <path d="M 224.485989 374.028608 
L 190.834652 393.457217 
L 190.834652 432.314434 
L 224.485989 451.743042 
L 258.137326 432.314434 
L 258.137326 393.457217 
z
" clip-path="url(#p92cd59f896)" style="fill: #ffffff; stroke: #000000; stroke-width: 2; stroke-linejoin: miter"/>
   </g>
   <g id="patch_13">
    <path d="M 258.137326 315.742783 
L 224.485989 335.171392 
L 224.485989 374.028608 
L 258.137326 393.457217 
L 291.788663 374.028608 
L 291.788663 335.171392 
z
" clip-path="url(#p92cd59f896)" style="fill: #ffffff; stroke: #000000; stroke-width: 2; stroke-linejoin: miter"/>
   </g>
   <g id="patch_14">
    <path d="M 291.788663 257.456958 
L 258.137326 276.885566 
L 258.137326 315.742783 
L 291.788663 335.171392 
L 325.44 315.742783 
L 325.44 276.885566 
z
" clip-path="url(#p92cd59f896)" style="fill: #0000ff; stroke: #000000; stroke-width: 2; stroke-linejoin: miter"/>
   </g>
   <g id="patch_15">
    <path d="M 325.44 199.171133 
L 291.788663 218.599741 
L 291.788663 257.456958 
L 325.44 276.885566 
L 359.091337 257.456958 
L 359.091337 218.599741 
z
" clip-path="url(#p92cd59f896)" style="fill: #ffffff; stroke: #000000; stroke-width: 2; stroke-linejoin: miter"/>
   </g>
   <g id="patch_16">
    <path d="M 258.137326 432.314434 
L 224.485989 451.743042 
L 224.485989 490.600259 
L 258.137326 510.028867 
L 291.788663 490.600259 
L 291.788663 451.743042 
z
" clip-path="url(#p92cd59f896)" style="fill: #ffffff; stroke: #000000; stroke-width: 2; stroke-linejoin: miter"/>
   </g>
   <g id="patch_17">
    <path d="M 291.788663 374.028608 
L 258.137326 393.457217 
L 258.137326 432.314434 
L 291.788663 451.743042 
L 325.44 432.314434 
L 325.44 393.457217 
z
" clip-path="url(#p92cd59f896)" style="fill: #ff0000; stroke: #000000; stroke-width: 2; stroke-linejoin: miter"/>
   </g>
   <g id="patch_18">
    <path d="M 325.44 315.742783 
L 291.788663 335.171392 
L 291.788663 374.028608 
L 325.44 393.457217 
L 359.091337 374.028608 
L 359.091337 335.171392 
z
" clip-path="url(#p92cd59f896)" style="fill: #ffffff; stroke: #000000; stroke-width: 2; stroke-linejoin: miter"/>
   </g>
   <g id="patch_19">
    <path d="M 359.091337 257.456958 
L 325.44 276.885566 
L 325.44 315.742783 
L 359.091337 335.171392 
L 392.742674 315.742783 
L 392.742674 276.885566 
z
" clip-path="url(#p92cd59f896)" style="fill: #ffffff; stroke: #000000; stroke-width: 2; stroke-linejoin: miter"/>
   </g>
   <g id="patch_20">
    <path d="M 392.742674 199.171133 
L 359.091337 218.599741 
L 359.091337 257.456958 
L 392.742674 276.885566 
L 426.394011 257.456958 
L 426.394011 218.599741 
z
" clip-path="url(#p92cd59f896)" style="fill: #ffffff; stroke: #000000; stroke-width: 2; stroke-linejoin: miter"/>
   </g>
   <g id="patch_21">
    <path d="M 325.44 432.314434 
L 291.788663 451.743042 
L 291.788663 490.600259 
L 325.44 510.028867 
L 359.091337 490.600259 
L 359.091337 451.743042 
z
" clip-path="url(#p92cd59f896)" style="fill: #ffffff; stroke: #000000; stroke-width: 2; stroke-linejoin: miter"/>
   </g>
   <g id="patch_22">
    <path d="M 359.091337 374.028608 
L 325.44 393.457217 
L 325.44 432.314434 
L 359.091337 451.743042 
L 392.742674 432.314434 
L 392.742674 393.457217 
z
" clip-path="url(#p92cd59f896)" style="fill: #0000ff; stroke: #000000; stroke-width: 2; stroke-linejoin: miter"/>
   </g>
   <g id="patch_23">
    <path d="M 392.742674 315.742783 
L 359.091337 335.171392 
L 359.091337 374.028608 
L 392.742674 393.457217 
L 426.394011 374.028608 
L 426.394011 335.171392 
z
" clip-path="url(#p92cd59f896)" style="fill: #ffffff; stroke: #000000; stroke-width: 2; stroke-linejoin: miter"/>
   </g>
   <g id="patch_24">
    <path d="M 426.394011 257.456958 
L 392.742674 276.885566 
L 392.742674 315.742783 
L 426.394011 335.171392 
L 460.045348 315.742783 
L 460.045348 276.885566 
z
" clip-path="url(#p92cd59f896)" style="fill: #ffffff; stroke: #000000; stroke-width: 2; stroke-linejoin: miter"/>
   </g>
   <g id="patch_25">
    <path d="M 460.045348 199.171133 
L 426.394011 218.599741 
L 426.394011 257.456958 
L 460.045348 276.885566 
L 493.696684 257.456958 
L 493.696684 218.599741 
z
" clip-path="url(#p92cd59f896)" style="fill: #ffffff; stroke: #000000; stroke-width: 2; stroke-linejoin: miter"/>
   </g>
   <g id="patch_26">
    <path d="M 392.742674 432.314434 
L 359.091337 451.743042 
L 359.091337 490.600259 
L 392.742674 510.028867 
L 426.394011 490.600259 
L 426.394011 451.743042 
z
" clip-path="url(#p92cd59f896)" style="fill: #ffffff; stroke: #000000; stroke-width: 2; stroke-linejoin: miter"/>
   </g>
   <g id="patch_27">
    <path d="M 426.394011 374.028608 
L 392.742674 393.457217 
L 392.742674 432.314434 
L 426.394011 451.743042 
L 460.045348 432.314434 
L 460.045348 393.457217 
z
" clip-path="url(#p92cd59f896)" style="fill: #ffffff; stroke: #000000; stroke-width: 2; stroke-linejoin: miter"/>
   </g>
   <g id="patch_28">
    <path d="M 460.045348 315.742783 
L 426.394011 335.171392 
L 426.394011 374.028608 
L 460.045348 393.457217 
L 493.696684 374.028608 
L 493.696684 335.171392 
z
" clip-path="url(#p92cd59f896)" style="fill: #ffffff; stroke: #000000; stroke-width: 2; stroke-linejoin: miter"/>
   </g>
   <g id="patch_29">
    <path d="M 493.696684 257.456958 
L 460.045348 276.885566 
L 460.045348 315.742783 
L 493.696684 335.171392 
L 527.348021 315.742783 
L 527.348021 276.885566 
z
" clip-path="url(#p92cd59f896)" style="fill: #ffffff; stroke: #000000; stroke-width: 2; stroke-linejoin: miter"/>
   </g>
   <g id="patch_30">
    <path d="M 527.348021 199.171133 
L 493.696684 218.599741 
L 493.696684 257.456958 
L 527.348021 276.885566 
L 560.999358 257.456958 
L 560.999358 218.599741 
z
" clip-path="url(#p92cd59f896)" style="fill: #ffffff; stroke: #000000; stroke-width: 2; stroke-linejoin: miter"/>
   </g>
  </g>
 </g>
 <defs>
  <clipPath id="p92cd59f896">
   <rect x="10.8" y="170.846479" width="629.28" height="367.507043"/>
  </clipPath>
 </defs>
</svg>
