<?xml version="1.0" encoding="UTF-8" standalone="no"?>
<svg
   width="1365.12pt"
   height="709.2pt"
   viewBox="0 0 1365.12 709.2"
   version="1.1"
   id="svg1231"
   sodipodi:docname="board_blocked.svg"
   inkscape:version="1.2.1 (9c6d41e410, 2022-07-14, custom)"
   xmlns:inkscape="http://www.inkscape.org/namespaces/inkscape"
   xmlns:sodipodi="http://sodipodi.sourceforge.net/DTD/sodipodi-0.dtd"
   xmlns="http://www.w3.org/2000/svg"
   xmlns:svg="http://www.w3.org/2000/svg"
   xmlns:rdf="http://www.w3.org/1999/02/22-rdf-syntax-ns#"
   xmlns:cc="http://creativecommons.org/ns#"
   xmlns:dc="http://purl.org/dc/elements/1.1/">
  <sodipodi:namedview
     id="namedview1233"
     pagecolor="#ffffff"
     bordercolor="#000000"
     borderopacity="0.25"
     inkscape:showpageshadow="2"
     inkscape:pageopacity="0.0"
     inkscape:pagecheckerboard="0"
     inkscape:deskcolor="#d1d1d1"
     inkscape:document-units="pt"
     showgrid="false"
     inkscape:zoom="0.74553886"
     inkscape:cx="840.33179"
     inkscape:cy="472.14172"
     inkscape:window-width="1896"
     inkscape:window-height="1027"
     inkscape:window-x="12"
     inkscape:window-y="41"
     inkscape:window-maximized="1"
     inkscape:current-layer="svg1231" />
  <metadata
     id="metadata840">
    <rdf:RDF>
      <cc:Work>
        <dc:type
           rdf:resource="http://purl.org/dc/dcmitype/StillImage" />
        <dc:date>2022-11-23T11:46:47.344070</dc:date>
        <dc:format>image/svg+xml</dc:format>
        <dc:creator>
          <cc:Agent>
            <dc:title>Matplotlib v3.5.2, https://matplotlib.org/</dc:title>
          </cc:Agent>
        </dc:creator>
      </cc:Work>
    </rdf:RDF>
  </metadata>
  <defs
     id="defs844">
    <style
       type="text/css"
       id="style842">*{stroke-linejoin: round; stroke-linecap: butt}</style>
  </defs>
  <g
     id="axes_1">
    <g
       id="patch_2">
      <path
         d="M 682.56,359.44127 144.23237,667.86545 497.99053,42.774545 Z"
         clip-path="url(#p2163858d41)"
         style="opacity:0.7;fill:#ff0000;stroke:#ff0000;stroke-linejoin:miter"
         id="path849" />
    </g>
    <g
       id="patch_3">
      <path
         d="M 682.56,359.44127 1220.8876,42.774545 H 497.99053 Z"
         clip-path="url(#p2163858d41)"
         style="opacity:0.7;fill:#0000ff;stroke:#0000ff;stroke-linejoin:miter"
         id="path852" />
    </g>
    <g
       id="patch_4">
      <path
         d="M 682.56,359.44127 1220.8876,42.774545 867.12947,667.86545 Z"
         clip-path="url(#p2163858d41)"
         style="opacity:0.7;fill:#ff0000;stroke:#ff0000;stroke-linejoin:miter"
         id="path855" />
    </g>
    <g
       id="patch_5">
      <path
         d="M 682.56,359.44127 144.23237,667.86545 h 722.8971 z"
         clip-path="url(#p2163858d41)"
         style="opacity:0.7;fill:#0000ff;stroke:#0000ff;stroke-linejoin:miter"
         id="path858" />
    </g>
    <g
       id="patch_6">
      <path
         d="m 221.13632,586.20267 -30.76158,17.76021 v 35.52041 l 30.76158,17.76021 30.76158,-17.76021 v -35.52041 z"
         clip-path="url(#p2163858d41)"
         style="fill:#ffffff;stroke:#000000;stroke-width:2;stroke-linejoin:miter"
         id="path861" />
    </g>
    <g
       id="patch_7">
      <path
         d="m 251.8979,532.92206 -30.76158,17.7602 v 35.52041 l 30.76158,17.76021 30.76158,-17.76021 v -35.52041 z"
         clip-path="url(#p2163858d41)"
         style="fill:#ffffff;stroke:#000000;stroke-width:2;stroke-linejoin:miter"
         id="path864" />
    </g>
    <g
       id="patch_8">
      <path
         d="m 282.65948,479.64144 -30.76158,17.76021 v 35.52041 l 30.76158,17.7602 30.76158,-17.7602 v -35.52041 z"
         clip-path="url(#p2163858d41)"
         style="fill:#ffffff;stroke:#000000;stroke-width:2;stroke-linejoin:miter"
         id="path867" />
    </g>
    <g
       id="patch_9">
      <path
         d="m 313.42106,426.36082 -30.76158,17.76021 v 35.52041 l 30.76158,17.76021 30.76157,-17.76021 v -35.52041 z"
         clip-path="url(#p2163858d41)"
         style="fill:#ffffff;stroke:#000000;stroke-width:2;stroke-linejoin:miter"
         id="path870" />
    </g>
    <g
       id="patch_10">
      <path
         d="m 344.18263,373.08021 -30.76157,17.7602 v 35.52041 l 30.76157,17.76021 30.76158,-17.76021 v -35.52041 z"
         clip-path="url(#p2163858d41)"
         style="fill:#ffffff;stroke:#000000;stroke-width:2;stroke-linejoin:miter"
         id="path873" />
    </g>
    <g
       id="patch_11">
      <path
         d="m 374.94421,319.79959 -30.76158,17.7602 v 35.52042 l 30.76158,17.7602 30.76158,-17.7602 v -35.52042 z"
         clip-path="url(#p2163858d41)"
         style="fill:#ffffff;stroke:#000000;stroke-width:2;stroke-linejoin:miter"
         id="path876" />
    </g>
    <g
       id="patch_12">
      <path
         d="m 405.70579,266.51897 -30.76158,17.76021 v 35.52041 l 30.76158,17.7602 30.76158,-17.7602 v -35.52041 z"
         clip-path="url(#p2163858d41)"
         style="fill:#ffffff;stroke:#000000;stroke-width:2;stroke-linejoin:miter"
         id="path879" />
    </g>
    <g
       id="patch_13">
      <path
         d="m 436.46737,213.23835 -30.76158,17.76021 v 35.52041 l 30.76158,17.76021 30.76158,-17.76021 v -35.52041 z"
         clip-path="url(#p2163858d41)"
         style="fill:#ffffff;stroke:#000000;stroke-width:2;stroke-linejoin:miter"
         id="path882" />
    </g>
    <g
       id="patch_14">
      <path
         d="m 467.22895,159.95774 -30.76158,17.7602 v 35.52041 l 30.76158,17.76021 30.76158,-17.76021 v -35.52041 z"
         clip-path="url(#p2163858d41)"
         style="fill:#ffffff;stroke:#000000;stroke-width:2;stroke-linejoin:miter"
         id="path885" />
    </g>
    <g
       id="patch_15">
      <path
         d="m 497.99053,106.67712 -30.76158,17.76021 v 35.52041 l 30.76158,17.7602 30.76158,-17.7602 v -35.52041 z"
         clip-path="url(#p2163858d41)"
         style="fill:#0000ff;stroke:#000000;stroke-width:2;stroke-linejoin:miter"
         id="path888" />
    </g>
    <g
       id="patch_16">
      <path
         d="m 528.75211,53.396502 -30.76158,17.760206 v 35.520412 l 30.76158,17.76021 30.76157,-17.76021 V 71.156708 Z"
         clip-path="url(#p2163858d41)"
         style="fill:#ffffff;stroke:#000000;stroke-width:2;stroke-linejoin:miter"
         id="path891" />
    </g>
    <g
       id="patch_17">
      <path
         d="m 282.65948,586.20267 -30.76158,17.76021 v 35.52041 l 30.76158,17.76021 30.76158,-17.76021 v -35.52041 z"
         clip-path="url(#p2163858d41)"
         style="fill:#ffffff;stroke:#000000;stroke-width:2;stroke-linejoin:miter"
         id="path894" />
    </g>
    <g
       id="patch_18">
      <path
         d="m 313.42106,532.92206 -30.76158,17.7602 v 35.52041 l 30.76158,17.76021 30.76157,-17.76021 v -35.52041 z"
         clip-path="url(#p2163858d41)"
         style="fill:#ffffff;stroke:#000000;stroke-width:2;stroke-linejoin:miter"
         id="path897" />
    </g>
    <g
       id="patch_19">
      <path
         d="m 344.18263,479.64144 -30.76157,17.76021 v 35.52041 l 30.76157,17.7602 30.76158,-17.7602 v -35.52041 z"
         clip-path="url(#p2163858d41)"
         style="fill:#ff0000;stroke:#000000;stroke-width:2;stroke-linejoin:miter"
         id="path900" />
    </g>
    <g
       id="patch_20">
      <path
         d="m 374.94421,426.36082 -30.76158,17.76021 v 35.52041 l 30.76158,17.76021 30.76158,-17.76021 v -35.52041 z"
         clip-path="url(#p2163858d41)"
         style="fill:#ffffff;stroke:#000000;stroke-width:2;stroke-linejoin:miter"
         id="path903" />
    </g>
    <g
       id="patch_21">
      <path
         d="m 405.70579,373.08021 -30.76158,17.7602 v 35.52041 l 30.76158,17.76021 30.76158,-17.76021 v -35.52041 z"
         clip-path="url(#p2163858d41)"
         style="fill:#ffffff;stroke:#000000;stroke-width:2;stroke-linejoin:miter"
         id="path906" />
    </g>
    <g
       id="patch_22">
      <path
         d="m 436.46737,319.79959 -30.76158,17.7602 v 35.52042 l 30.76158,17.7602 30.76158,-17.7602 v -35.52042 z"
         clip-path="url(#p2163858d41)"
         style="fill:#ffffff;stroke:#000000;stroke-width:2;stroke-linejoin:miter"
         id="path909" />
    </g>
    <g
       id="patch_23">
      <path
         d="m 467.22895,266.51897 -30.76158,17.76021 v 35.52041 l 30.76158,17.7602 30.76158,-17.7602 v -35.52041 z"
         clip-path="url(#p2163858d41)"
         style="fill:#ffffff;stroke:#000000;stroke-width:2;stroke-linejoin:miter"
         id="path912" />
    </g>
    <g
       id="patch_24">
      <path
         d="m 497.99053,213.23835 -30.76158,17.76021 v 35.52041 l 30.76158,17.76021 30.76158,-17.76021 v -35.52041 z"
         clip-path="url(#p2163858d41)"
         style="fill:#ffffff;stroke:#000000;stroke-width:2;stroke-linejoin:miter"
         id="path915" />
    </g>
    <g
       id="patch_25">
      <path
         d="m 528.75211,159.95774 -30.76158,17.7602 v 35.52041 l 30.76158,17.76021 30.76157,-17.76021 v -35.52041 z"
         clip-path="url(#p2163858d41)"
         style="fill:#ffffff;stroke:#000000;stroke-width:2;stroke-linejoin:miter"
         id="path918" />
    </g>
    <g
       id="patch_26">
      <path
         d="m 559.51368,106.67712 -30.76157,17.76021 v 35.52041 l 30.76157,17.7602 30.76158,-17.7602 v -35.52041 z"
         clip-path="url(#p2163858d41)"
         style="fill:#0000ff;stroke:#000000;stroke-width:2;stroke-linejoin:miter"
         id="path921" />
    </g>
    <g
       id="patch_27">
      <path
         d="m 590.27526,53.396502 -30.76158,17.760206 v 35.520412 l 30.76158,17.76021 30.76158,-17.76021 V 71.156708 Z"
         clip-path="url(#p2163858d41)"
         style="fill:#ff0000;stroke:#000000;stroke-width:2;stroke-linejoin:miter"
         id="path924" />
    </g>
    <g
       id="patch_28">
      <path
         d="m 344.18263,586.20267 -30.76157,17.76021 v 35.52041 l 30.76157,17.76021 30.76158,-17.76021 v -35.52041 z"
         clip-path="url(#p2163858d41)"
         style="fill:#ffffff;stroke:#000000;stroke-width:2;stroke-linejoin:miter"
         id="path927" />
    </g>
    <g
       id="patch_29">
      <path
         d="m 374.94421,532.92206 -30.76158,17.7602 v 35.52041 l 30.76158,17.76021 30.76158,-17.76021 v -35.52041 z"
         clip-path="url(#p2163858d41)"
         style="fill:#ffffff;stroke:#000000;stroke-width:2;stroke-linejoin:miter"
         id="path930" />
    </g>
    <g
       id="patch_30">
      <path
         d="m 405.70579,479.64144 -30.76158,17.76021 v 35.52041 l 30.76158,17.7602 30.76158,-17.7602 v -35.52041 z"
         clip-path="url(#p2163858d41)"
         style="fill:#ffffff;stroke:#000000;stroke-width:2;stroke-linejoin:miter"
         id="path933" />
    </g>
    <g
       id="patch_31">
      <path
         d="m 436.46737,426.36082 -30.76158,17.76021 v 35.52041 l 30.76158,17.76021 30.76158,-17.76021 v -35.52041 z"
         clip-path="url(#p2163858d41)"
         style="fill:#ff0000;stroke:#000000;stroke-width:2;stroke-linejoin:miter"
         id="path936" />
    </g>
    <g
       id="patch_32">
      <path
         d="m 467.22895,373.08021 -30.76158,17.7602 v 35.52041 l 30.76158,17.76021 30.76158,-17.76021 v -35.52041 z"
         clip-path="url(#p2163858d41)"
         style="fill:#ffffff;stroke:#000000;stroke-width:2;stroke-linejoin:miter"
         id="path939" />
    </g>
    <g
       id="patch_33">
      <path
         d="m 497.99053,319.79959 -30.76158,17.7602 v 35.52042 l 30.76158,17.7602 30.76158,-17.7602 v -35.52042 z"
         clip-path="url(#p2163858d41)"
         style="fill:#ff0000;stroke:#000000;stroke-width:2;stroke-linejoin:miter"
         id="path942" />
    </g>
    <g
       id="patch_34">
      <path
         d="m 528.75211,266.51897 -30.76158,17.76021 v 35.52041 l 30.76158,17.7602 30.76157,-17.7602 v -35.52041 z"
         clip-path="url(#p2163858d41)"
         style="fill:#ffffff;stroke:#000000;stroke-width:2;stroke-linejoin:miter"
         id="path945" />
    </g>
    <g
       id="patch_35">
      <path
         d="m 559.51368,213.23835 -30.76157,17.76021 v 35.52041 l 30.76157,17.76021 30.76158,-17.76021 v -35.52041 z"
         clip-path="url(#p2163858d41)"
         style="fill:#ffffff;stroke:#000000;stroke-width:2;stroke-linejoin:miter"
         id="path948" />
    </g>
    <g
       id="patch_36">
      <path
         d="m 590.27526,159.95774 -30.76158,17.7602 v 35.52041 l 30.76158,17.76021 30.76158,-17.76021 v -35.52041 z"
         clip-path="url(#p2163858d41)"
         style="fill:#ffffff;stroke:#000000;stroke-width:2;stroke-linejoin:miter"
         id="path951" />
    </g>
    <g
       id="patch_37">
      <path
         d="m 621.03684,106.67712 -30.76158,17.76021 v 35.52041 l 30.76158,17.7602 30.76158,-17.7602 v -35.52041 z"
         clip-path="url(#p2163858d41)"
         style="fill:#0000ff;stroke:#000000;stroke-width:2;stroke-linejoin:miter"
         id="path954" />
    </g>
    <g
       id="patch_38">
      <path
         d="M 651.79842,53.396502 621.03684,71.156708 V 106.67712 L 651.79842,124.43733 682.56,106.67712 V 71.156708 Z"
         clip-path="url(#p2163858d41)"
         style="fill:#ff0000;stroke:#000000;stroke-width:2;stroke-linejoin:miter"
         id="path957" />
    </g>
    <g
       id="patch_39">
      <path
         d="m 405.70579,586.20267 -30.76158,17.76021 v 35.52041 l 30.76158,17.76021 30.76158,-17.76021 v -35.52041 z"
         clip-path="url(#p2163858d41)"
         style="fill:#ffffff;stroke:#000000;stroke-width:2;stroke-linejoin:miter"
         id="path960" />
    </g>
    <g
       id="patch_40">
      <path
         d="m 436.46737,532.92206 -30.76158,17.7602 v 35.52041 l 30.76158,17.76021 30.76158,-17.76021 v -35.52041 z"
         clip-path="url(#p2163858d41)"
         style="fill:#ffffff;stroke:#000000;stroke-width:2;stroke-linejoin:miter"
         id="path963" />
    </g>
    <g
       id="patch_41">
      <path
         d="m 467.22895,479.64144 -30.76158,17.76021 v 35.52041 l 30.76158,17.7602 30.76158,-17.7602 v -35.52041 z"
         clip-path="url(#p2163858d41)"
         style="fill:#ffffff;stroke:#000000;stroke-width:2;stroke-linejoin:miter"
         id="path966" />
    </g>
    <g
       id="patch_42">
      <path
         d="m 497.99053,426.36082 -30.76158,17.76021 v 35.52041 l 30.76158,17.76021 30.76158,-17.76021 v -35.52041 z"
         clip-path="url(#p2163858d41)"
         style="fill:#ffffff;stroke:#000000;stroke-width:2;stroke-linejoin:miter"
         id="path969" />
    </g>
    <g
       id="patch_43">
      <path
         d="m 528.75211,373.08021 -30.76158,17.7602 v 35.52041 l 30.76158,17.76021 30.76157,-17.76021 v -35.52041 z"
         clip-path="url(#p2163858d41)"
         style="fill:#ffffff;stroke:#000000;stroke-width:2;stroke-linejoin:miter"
         id="path972" />
    </g>
    <g
       id="patch_44">
      <path
         d="m 559.51368,319.79959 -30.76157,17.7602 v 35.52042 l 30.76157,17.7602 30.76158,-17.7602 v -35.52042 z"
         clip-path="url(#p2163858d41)"
         style="fill:#ffffff;stroke:#000000;stroke-width:2;stroke-linejoin:miter"
         id="path975" />
    </g>
    <g
       id="patch_45">
      <path
         d="m 590.27526,266.51897 -30.76158,17.76021 v 35.52041 l 30.76158,17.7602 30.76158,-17.7602 v -35.52041 z"
         clip-path="url(#p2163858d41)"
         style="fill:#ffffff;stroke:#000000;stroke-width:2;stroke-linejoin:miter"
         id="path978" />
    </g>
    <g
       id="patch_46">
      <path
         d="m 621.03684,213.23835 -30.76158,17.76021 v 35.52041 l 30.76158,17.76021 30.76158,-17.76021 v -35.52041 z"
         clip-path="url(#p2163858d41)"
         style="fill:#ffffff;stroke:#000000;stroke-width:2;stroke-linejoin:miter"
         id="path981" />
    </g>
    <g
       id="patch_47">
      <path
         d="m 651.79842,159.95774 -30.76158,17.7602 v 35.52041 l 30.76158,17.76021 30.76158,-17.76021 v -35.52041 z"
         clip-path="url(#p2163858d41)"
         style="fill:#ffffff;stroke:#000000;stroke-width:2;stroke-linejoin:miter"
         id="path984" />
    </g>
    <g
       id="patch_48">
      <path
         d="m 682.56,106.67712 -30.76158,17.76021 v 35.52041 l 30.76158,17.7602 30.76158,-17.7602 v -35.52041 z"
         clip-path="url(#p2163858d41)"
         style="fill:#0000ff;stroke:#000000;stroke-width:2;stroke-linejoin:miter"
         id="path987" />
    </g>
    <g
       id="patch_49">
      <path
         d="M 713.32158,53.396502 682.56,71.156708 v 35.520412 l 30.76158,17.76021 30.76158,-17.76021 V 71.156708 Z"
         clip-path="url(#p2163858d41)"
         style="fill:#ff0000;stroke:#000000;stroke-width:2;stroke-linejoin:miter"
         id="path990" />
    </g>
    <g
       id="patch_50">
      <path
         d="m 467.22895,586.20267 -30.76158,17.76021 v 35.52041 l 30.76158,17.76021 30.76158,-17.76021 v -35.52041 z"
         clip-path="url(#p2163858d41)"
         style="fill:#ffffff;stroke:#000000;stroke-width:2;stroke-linejoin:miter"
         id="path993" />
    </g>
    <g
       id="patch_51">
      <path
         d="m 497.99053,532.92206 -30.76158,17.7602 v 35.52041 l 30.76158,17.76021 30.76158,-17.76021 v -35.52041 z"
         clip-path="url(#p2163858d41)"
         style="fill:#ffffff;stroke:#000000;stroke-width:2;stroke-linejoin:miter"
         id="path996" />
    </g>
    <g
       id="patch_52">
      <path
         d="m 528.75211,479.64144 -30.76158,17.76021 v 35.52041 l 30.76158,17.7602 30.76157,-17.7602 v -35.52041 z"
         clip-path="url(#p2163858d41)"
         style="fill:#ffffff;stroke:#000000;stroke-width:2;stroke-linejoin:miter"
         id="path999" />
    </g>
    <g
       id="patch_53">
      <path
         d="m 559.51368,426.36082 -30.76157,17.76021 v 35.52041 l 30.76157,17.76021 30.76158,-17.76021 v -35.52041 z"
         clip-path="url(#p2163858d41)"
         style="fill:#ffffff;stroke:#000000;stroke-width:2;stroke-linejoin:miter"
         id="path1002" />
    </g>
    <g
       id="patch_54">
      <path
         d="m 590.27526,373.08021 -30.76158,17.7602 v 35.52041 l 30.76158,17.76021 30.76158,-17.76021 v -35.52041 z"
         clip-path="url(#p2163858d41)"
         style="fill:#ffffff;stroke:#000000;stroke-width:2;stroke-linejoin:miter"
         id="path1005" />
    </g>
    <g
       id="patch_55">
      <path
         d="m 621.03684,319.79959 -30.76158,17.7602 v 35.52042 l 30.76158,17.7602 30.76158,-17.7602 v -35.52042 z"
         clip-path="url(#p2163858d41)"
         style="fill:#ffffff;stroke:#000000;stroke-width:2;stroke-linejoin:miter"
         id="path1008" />
    </g>
    <g
       id="patch_56">
      <path
         d="m 651.79842,266.51897 -30.76158,17.76021 v 35.52041 l 30.76158,17.7602 30.76158,-17.7602 v -35.52041 z"
         clip-path="url(#p2163858d41)"
         style="fill:#ffffff;stroke:#000000;stroke-width:2;stroke-linejoin:miter"
         id="path1011" />
    </g>
    <g
       id="patch_57">
      <path
         d="m 682.56,213.23835 -30.76158,17.76021 v 35.52041 l 30.76158,17.76021 30.76158,-17.76021 v -35.52041 z"
         clip-path="url(#p2163858d41)"
         style="fill:#ffffff;stroke:#000000;stroke-width:2;stroke-linejoin:miter"
         id="path1014" />
    </g>
    <g
       id="patch_58">
      <path
         d="M 713.32158,159.95774 682.56,177.71794 v 35.52041 l 30.76158,17.76021 30.76158,-17.76021 v -35.52041 z"
         clip-path="url(#p2163858d41)"
         style="fill:#ffffff;stroke:#000000;stroke-width:2;stroke-linejoin:miter"
         id="path1017" />
    </g>
    <g
       id="patch_59">
      <path
         d="m 744.08316,106.67712 -30.76158,17.76021 v 35.52041 l 30.76158,17.7602 30.76158,-17.7602 v -35.52041 z"
         clip-path="url(#p2163858d41)"
         style="fill:#0000ff;stroke:#000000;stroke-width:2;stroke-linejoin:miter"
         id="path1020" />
    </g>
    <g
       id="patch_60">
      <path
         d="m 774.84474,53.396502 -30.76158,17.760206 v 35.520412 l 30.76158,17.76021 30.76157,-17.76021 V 71.156708 Z"
         clip-path="url(#p2163858d41)"
         style="fill:#ff0000;stroke:#000000;stroke-width:2;stroke-linejoin:miter"
         id="path1023" />
    </g>
    <g
       id="patch_61">
      <path
         d="m 528.75211,586.20267 -30.76158,17.76021 v 35.52041 l 30.76158,17.76021 30.76157,-17.76021 v -35.52041 z"
         clip-path="url(#p2163858d41)"
         style="fill:#ffffff;stroke:#000000;stroke-width:2;stroke-linejoin:miter"
         id="path1026" />
    </g>
    <g
       id="patch_62">
      <path
         d="m 559.51368,532.92206 -30.76157,17.7602 v 35.52041 l 30.76157,17.76021 30.76158,-17.76021 v -35.52041 z"
         clip-path="url(#p2163858d41)"
         style="fill:#ffffff;stroke:#000000;stroke-width:2;stroke-linejoin:miter"
         id="path1029" />
    </g>
    <g
       id="patch_63">
      <path
         d="m 590.27526,479.64144 -30.76158,17.76021 v 35.52041 l 30.76158,17.7602 30.76158,-17.7602 v -35.52041 z"
         clip-path="url(#p2163858d41)"
         style="fill:#ffffff;stroke:#000000;stroke-width:2;stroke-linejoin:miter"
         id="path1032" />
    </g>
    <g
       id="patch_64">
      <path
         d="m 621.03684,426.36082 -30.76158,17.76021 v 35.52041 l 30.76158,17.76021 30.76158,-17.76021 v -35.52041 z"
         clip-path="url(#p2163858d41)"
         style="fill:#ffffff;stroke:#000000;stroke-width:2;stroke-linejoin:miter"
         id="path1035" />
    </g>
    <g
       id="patch_65">
      <path
         d="m 651.79842,373.08021 -30.76158,17.7602 v 35.52041 l 30.76158,17.76021 30.76158,-17.76021 v -35.52041 z"
         clip-path="url(#p2163858d41)"
         style="fill:#ffffff;stroke:#000000;stroke-width:2;stroke-linejoin:miter"
         id="path1038" />
    </g>
    <g
       id="patch_66">
      <path
         d="m 682.56,319.79959 -30.76158,17.7602 v 35.52042 l 30.76158,17.7602 30.76158,-17.7602 v -35.52042 z"
         clip-path="url(#p2163858d41)"
         style="fill:#ffffff;stroke:#000000;stroke-width:2;stroke-linejoin:miter"
         id="path1041" />
    </g>
    <g
       id="patch_67">
      <path
         d="M 713.32158,266.51897 682.56,284.27918 v 35.52041 l 30.76158,17.7602 30.76158,-17.7602 v -35.52041 z"
         clip-path="url(#p2163858d41)"
         style="fill:#ffffff;stroke:#000000;stroke-width:2;stroke-linejoin:miter"
         id="path1044" />
    </g>
    <g
       id="patch_68">
      <path
         d="m 744.08316,213.23835 -30.76158,17.76021 v 35.52041 l 30.76158,17.76021 30.76158,-17.76021 v -35.52041 z"
         clip-path="url(#p2163858d41)"
         style="fill:#ffffff;stroke:#000000;stroke-width:2;stroke-linejoin:miter"
         id="path1047" />
    </g>
    <g
       id="patch_69">
      <path
         d="m 774.84474,159.95774 -30.76158,17.7602 v 35.52041 l 30.76158,17.76021 30.76157,-17.76021 v -35.52041 z"
         clip-path="url(#p2163858d41)"
         style="fill:#ffffff;stroke:#000000;stroke-width:2;stroke-linejoin:miter"
         id="path1050" />
    </g>
    <g
       id="patch_70">
      <path
         d="m 805.60631,106.67712 -30.76157,17.76021 v 35.52041 l 30.76157,17.7602 30.76158,-17.7602 v -35.52041 z"
         clip-path="url(#p2163858d41)"
         style="fill:#0000ff;stroke:#000000;stroke-width:2;stroke-linejoin:miter"
         id="path1053" />
    </g>
    <g
       id="patch_71">
      <path
         d="m 836.36789,53.396502 -30.76158,17.760206 v 35.520412 l 30.76158,17.76021 30.76158,-17.76021 V 71.156708 Z"
         clip-path="url(#p2163858d41)"
         style="fill:#ff0000;stroke:#000000;stroke-width:2;stroke-linejoin:miter"
         id="path1056" />
    </g>
    <g
       id="patch_72">
      <path
         d="m 590.27526,586.20267 -30.76158,17.76021 v 35.52041 l 30.76158,17.76021 30.76158,-17.76021 v -35.52041 z"
         clip-path="url(#p2163858d41)"
         style="fill:#ffffff;stroke:#000000;stroke-width:2;stroke-linejoin:miter"
         id="path1059" />
    </g>
    <g
       id="patch_73">
      <path
         d="m 621.03684,532.92206 -30.76158,17.7602 v 35.52041 l 30.76158,17.76021 30.76158,-17.76021 v -35.52041 z"
         clip-path="url(#p2163858d41)"
         style="fill:#ffffff;stroke:#000000;stroke-width:2;stroke-linejoin:miter"
         id="path1062" />
    </g>
    <g
       id="patch_74">
      <path
         d="m 651.79842,479.64144 -30.76158,17.76021 v 35.52041 l 30.76158,17.7602 30.76158,-17.7602 v -35.52041 z"
         clip-path="url(#p2163858d41)"
         style="fill:#ffffff;stroke:#000000;stroke-width:2;stroke-linejoin:miter"
         id="path1065" />
    </g>
    <g
       id="patch_75">
      <path
         d="m 682.56,426.36082 -30.76158,17.76021 v 35.52041 l 30.76158,17.76021 30.76158,-17.76021 v -35.52041 z"
         clip-path="url(#p2163858d41)"
         style="fill:#ffffff;stroke:#000000;stroke-width:2;stroke-linejoin:miter"
         id="path1068" />
    </g>
    <g
       id="patch_76">
      <path
         d="M 713.32158,373.08021 682.56,390.84041 v 35.52041 l 30.76158,17.76021 30.76158,-17.76021 v -35.52041 z"
         clip-path="url(#p2163858d41)"
         style="fill:#ffffff;stroke:#000000;stroke-width:2;stroke-linejoin:miter"
         id="path1071" />
    </g>
    <g
       id="patch_77">
      <path
         d="m 744.08316,319.79959 -30.76158,17.7602 v 35.52042 l 30.76158,17.7602 30.76158,-17.7602 v -35.52042 z"
         clip-path="url(#p2163858d41)"
         style="fill:#ffffff;stroke:#000000;stroke-width:2;stroke-linejoin:miter"
         id="path1074" />
    </g>
    <g
       id="patch_78">
      <path
         d="m 774.84474,266.51897 -30.76158,17.76021 v 35.52041 l 30.76158,17.7602 30.76157,-17.7602 v -35.52041 z"
         clip-path="url(#p2163858d41)"
         style="fill:#ffffff;stroke:#000000;stroke-width:2;stroke-linejoin:miter"
         id="path1077" />
    </g>
    <g
       id="patch_79">
      <path
         d="m 805.60631,213.23835 -30.76157,17.76021 v 35.52041 l 30.76157,17.76021 30.76158,-17.76021 v -35.52041 z"
         clip-path="url(#p2163858d41)"
         style="fill:#ffffff;stroke:#000000;stroke-width:2;stroke-linejoin:miter"
         id="path1080" />
    </g>
    <g
       id="patch_80">
      <path
         d="m 836.36789,159.95774 -30.76158,17.7602 v 35.52041 l 30.76158,17.76021 30.76158,-17.76021 v -35.52041 z"
         clip-path="url(#p2163858d41)"
         style="fill:#ffffff;stroke:#000000;stroke-width:2;stroke-linejoin:miter"
         id="path1083" />
    </g>
    <g
       id="patch_81">
      <path
         d="m 867.12947,106.67712 -30.76158,17.76021 v 35.52041 l 30.76158,17.7602 30.76158,-17.7602 v -35.52041 z"
         clip-path="url(#p2163858d41)"
         style="fill:#0000ff;stroke:#000000;stroke-width:2;stroke-linejoin:miter"
         id="path1086" />
    </g>
    <g
       id="patch_82">
      <path
         d="m 897.89105,53.396502 -30.76158,17.760206 v 35.520412 l 30.76158,17.76021 30.76158,-17.76021 V 71.156708 Z"
         clip-path="url(#p2163858d41)"
         style="fill:#ff0000;stroke:#000000;stroke-width:2;stroke-linejoin:miter"
         id="path1089" />
    </g>
    <g
       id="patch_83">
      <path
         d="m 651.79842,586.20267 -30.76158,17.76021 v 35.52041 L 651.79842,657.2435 682.56,639.48329 v -35.52041 z"
         clip-path="url(#p2163858d41)"
         style="fill:#ffffff;stroke:#000000;stroke-width:2;stroke-linejoin:miter"
         id="path1092" />
    </g>
    <g
       id="patch_84">
      <path
         d="m 682.56,532.92206 -30.76158,17.7602 v 35.52041 l 30.76158,17.76021 30.76158,-17.76021 v -35.52041 z"
         clip-path="url(#p2163858d41)"
         style="fill:#ffffff;stroke:#000000;stroke-width:2;stroke-linejoin:miter"
         id="path1095" />
    </g>
    <g
       id="patch_85">
      <path
         d="M 713.32158,479.64144 682.56,497.40165 v 35.52041 l 30.76158,17.7602 30.76158,-17.7602 v -35.52041 z"
         clip-path="url(#p2163858d41)"
         style="fill:#ffffff;stroke:#000000;stroke-width:2;stroke-linejoin:miter"
         id="path1098" />
    </g>
    <g
       id="patch_86">
      <path
         d="m 744.08316,426.36082 -30.76158,17.76021 v 35.52041 l 30.76158,17.76021 30.76158,-17.76021 v -35.52041 z"
         clip-path="url(#p2163858d41)"
         style="fill:#ffffff;stroke:#000000;stroke-width:2;stroke-linejoin:miter"
         id="path1101" />
    </g>
    <g
       id="patch_87">
      <path
         d="m 774.84474,373.08021 -30.76158,17.7602 v 35.52041 l 30.76158,17.76021 30.76157,-17.76021 v -35.52041 z"
         clip-path="url(#p2163858d41)"
         style="fill:#ffffff;stroke:#000000;stroke-width:2;stroke-linejoin:miter"
         id="path1104" />
    </g>
    <g
       id="patch_88">
      <path
         d="m 805.60631,319.79959 -30.76157,17.7602 v 35.52042 l 30.76157,17.7602 30.76158,-17.7602 v -35.52042 z"
         clip-path="url(#p2163858d41)"
         style="fill:#ffffff;stroke:#000000;stroke-width:2;stroke-linejoin:miter"
         id="path1107" />
    </g>
    <g
       id="patch_89">
      <path
         d="m 836.36789,266.51897 -30.76158,17.76021 v 35.52041 l 30.76158,17.7602 30.76158,-17.7602 v -35.52041 z"
         clip-path="url(#p2163858d41)"
         style="fill:#ffffff;stroke:#000000;stroke-width:2;stroke-linejoin:miter"
         id="path1110" />
    </g>
    <g
       id="patch_90">
      <path
         d="m 867.12947,213.23835 -30.76158,17.76021 v 35.52041 l 30.76158,17.76021 30.76158,-17.76021 v -35.52041 z"
         clip-path="url(#p2163858d41)"
         style="fill:#ffffff;stroke:#000000;stroke-width:2;stroke-linejoin:miter"
         id="path1113" />
    </g>
    <g
       id="patch_91">
      <path
         d="m 897.89105,159.95774 -30.76158,17.7602 v 35.52041 l 30.76158,17.76021 30.76158,-17.76021 v -35.52041 z"
         clip-path="url(#p2163858d41)"
         style="fill:#ffffff;stroke:#000000;stroke-width:2;stroke-linejoin:miter"
         id="path1116" />
    </g>
    <g
       id="patch_92">
      <path
         d="m 928.65263,106.67712 -30.76158,17.76021 v 35.52041 l 30.76158,17.7602 30.76158,-17.7602 v -35.52041 z"
         clip-path="url(#p2163858d41)"
         style="fill:#0000ff;stroke:#000000;stroke-width:2;stroke-linejoin:miter"
         id="path1119" />
    </g>
    <g
       id="patch_93">
      <path
         d="m 959.41421,53.396502 -30.76158,17.760206 v 35.520412 l 30.76158,17.76021 30.76158,-17.76021 V 71.156708 Z"
         clip-path="url(#p2163858d41)"
         style="fill:#ff0000;stroke:#000000;stroke-width:2;stroke-linejoin:miter"
         id="path1122" />
    </g>
    <g
       id="patch_94">
      <path
         d="M 713.32158,586.20267 682.56,603.96288 v 35.52041 l 30.76158,17.76021 30.76158,-17.76021 v -35.52041 z"
         clip-path="url(#p2163858d41)"
         style="fill:#ffffff;stroke:#000000;stroke-width:2;stroke-linejoin:miter"
         id="path1125" />
    </g>
    <g
       id="patch_95">
      <path
         d="m 744.08316,532.92206 -30.76158,17.7602 v 35.52041 l 30.76158,17.76021 30.76158,-17.76021 v -35.52041 z"
         clip-path="url(#p2163858d41)"
         style="fill:#ffffff;stroke:#000000;stroke-width:2;stroke-linejoin:miter"
         id="path1128" />
    </g>
    <g
       id="patch_96">
      <path
         d="m 774.84474,479.64144 -30.76158,17.76021 v 35.52041 l 30.76158,17.7602 30.76157,-17.7602 v -35.52041 z"
         clip-path="url(#p2163858d41)"
         style="fill:#ffffff;stroke:#000000;stroke-width:2;stroke-linejoin:miter"
         id="path1131" />
    </g>
    <g
       id="patch_97">
      <path
         d="m 805.60631,426.36082 -30.76157,17.76021 v 35.52041 l 30.76157,17.76021 30.76158,-17.76021 v -35.52041 z"
         clip-path="url(#p2163858d41)"
         style="fill:#ffffff;stroke:#000000;stroke-width:2;stroke-linejoin:miter"
         id="path1134" />
    </g>
    <g
       id="patch_98">
      <path
         d="m 836.36789,373.08021 -30.76158,17.7602 v 35.52041 l 30.76158,17.76021 30.76158,-17.76021 v -35.52041 z"
         clip-path="url(#p2163858d41)"
         style="fill:#ffffff;stroke:#000000;stroke-width:2;stroke-linejoin:miter"
         id="path1137" />
    </g>
    <g
       id="patch_99">
      <path
         d="m 867.12947,319.79959 -30.76158,17.7602 v 35.52042 l 30.76158,17.7602 30.76158,-17.7602 v -35.52042 z"
         clip-path="url(#p2163858d41)"
         style="fill:#ffffff;stroke:#000000;stroke-width:2;stroke-linejoin:miter"
         id="path1140" />
    </g>
    <g
       id="patch_100">
      <path
         d="m 897.89105,266.51897 -30.76158,17.76021 v 35.52041 l 30.76158,17.7602 30.76158,-17.7602 v -35.52041 z"
         clip-path="url(#p2163858d41)"
         style="fill:#ffffff;stroke:#000000;stroke-width:2;stroke-linejoin:miter"
         id="path1143" />
    </g>
    <g
       id="patch_101">
      <path
         d="m 928.65263,213.23835 -30.76158,17.76021 v 35.52041 l 30.76158,17.76021 30.76158,-17.76021 v -35.52041 z"
         clip-path="url(#p2163858d41)"
         style="fill:#ffffff;stroke:#000000;stroke-width:2;stroke-linejoin:miter"
         id="path1146" />
    </g>
    <g
       id="patch_102">
      <path
         d="m 959.41421,159.95774 -30.76158,17.7602 v 35.52041 l 30.76158,17.76021 30.76158,-17.76021 v -35.52041 z"
         clip-path="url(#p2163858d41)"
         style="fill:#ffffff;stroke:#000000;stroke-width:2;stroke-linejoin:miter"
         id="path1149" />
    </g>
    <g
       id="patch_103">
      <path
         d="m 990.17579,106.67712 -30.76158,17.76021 v 35.52041 l 30.76158,17.7602 30.76161,-17.7602 v -35.52041 z"
         clip-path="url(#p2163858d41)"
         style="fill:#0000ff;stroke:#000000;stroke-width:2;stroke-linejoin:miter"
         id="path1152" />
    </g>
    <g
       id="patch_104">
      <path
         d="m 1020.9374,53.396502 -30.76161,17.760206 v 35.520412 l 30.76161,17.76021 30.7615,-17.76021 V 71.156708 Z"
         clip-path="url(#p2163858d41)"
         style="fill:#ff0000;stroke:#000000;stroke-width:2;stroke-linejoin:miter"
         id="path1155" />
    </g>
    <g
       id="patch_105">
      <path
         d="m 774.84474,586.20267 -30.76158,17.76021 v 35.52041 l 30.76158,17.76021 30.76157,-17.76021 v -35.52041 z"
         clip-path="url(#p2163858d41)"
         style="fill:#ffffff;stroke:#000000;stroke-width:2;stroke-linejoin:miter"
         id="path1158" />
    </g>
    <g
       id="patch_106">
      <path
         d="m 805.60631,532.92206 -30.76157,17.7602 v 35.52041 l 30.76157,17.76021 30.76158,-17.76021 v -35.52041 z"
         clip-path="url(#p2163858d41)"
         style="fill:#ffffff;stroke:#000000;stroke-width:2;stroke-linejoin:miter"
         id="path1161" />
    </g>
    <g
       id="patch_107">
      <path
         d="m 836.36789,479.64144 -30.76158,17.76021 v 35.52041 l 30.76158,17.7602 30.76158,-17.7602 v -35.52041 z"
         clip-path="url(#p2163858d41)"
         style="fill:#ffffff;stroke:#000000;stroke-width:2;stroke-linejoin:miter"
         id="path1164" />
    </g>
    <g
       id="patch_108">
      <path
         d="m 867.12947,426.36082 -30.76158,17.76021 v 35.52041 l 30.76158,17.76021 30.76158,-17.76021 v -35.52041 z"
         clip-path="url(#p2163858d41)"
         style="fill:#ffffff;stroke:#000000;stroke-width:2;stroke-linejoin:miter"
         id="path1167" />
    </g>
    <g
       id="patch_109">
      <path
         d="m 897.89105,373.08021 -30.76158,17.7602 v 35.52041 l 30.76158,17.76021 30.76158,-17.76021 v -35.52041 z"
         clip-path="url(#p2163858d41)"
         style="fill:#ffffff;stroke:#000000;stroke-width:2;stroke-linejoin:miter"
         id="path1170" />
    </g>
    <g
       id="patch_110">
      <path
         d="m 928.65263,319.79959 -30.76158,17.7602 v 35.52042 l 30.76158,17.7602 30.76158,-17.7602 v -35.52042 z"
         clip-path="url(#p2163858d41)"
         style="fill:#ffffff;stroke:#000000;stroke-width:2;stroke-linejoin:miter"
         id="path1173" />
    </g>
    <g
       id="patch_111">
      <path
         d="m 959.41421,266.51897 -30.76158,17.76021 v 35.52041 l 30.76158,17.7602 30.76158,-17.7602 v -35.52041 z"
         clip-path="url(#p2163858d41)"
         style="fill:#ffffff;stroke:#000000;stroke-width:2;stroke-linejoin:miter"
         id="path1176" />
    </g>
    <g
       id="patch_112">
      <path
         d="m 990.17579,213.23835 -30.76158,17.76021 v 35.52041 l 30.76158,17.76021 30.76161,-17.76021 v -35.52041 z"
         clip-path="url(#p2163858d41)"
         style="fill:#ffffff;stroke:#000000;stroke-width:2;stroke-linejoin:miter"
         id="path1179" />
    </g>
    <g
       id="patch_113">
      <path
         d="m 1020.9374,159.95774 -30.76161,17.7602 v 35.52041 l 30.76161,17.76021 30.7615,-17.76021 v -35.52041 z"
         clip-path="url(#p2163858d41)"
         style="fill:#ffffff;stroke:#000000;stroke-width:2;stroke-linejoin:miter"
         id="path1182" />
    </g>
    <g
       id="patch_114">
      <path
         d="m 1051.6989,106.67712 -30.7615,17.76021 v 35.52041 l 30.7615,17.7602 30.7616,-17.7602 v -35.52041 z"
         clip-path="url(#p2163858d41)"
         style="fill:#0000ff;stroke:#000000;stroke-width:2;stroke-linejoin:miter"
         id="path1185" />
    </g>
    <g
       id="patch_115">
      <path
         d="m 1082.4605,53.396502 -30.7616,17.760206 v 35.520412 l 30.7616,17.76021 30.7616,-17.76021 V 71.156708 Z"
         clip-path="url(#p2163858d41)"
         style="fill:#ff0000;stroke:#000000;stroke-width:2;stroke-linejoin:miter"
         id="path1188" />
    </g>
    <g
       id="patch_116">
      <path
         d="m 836.36789,586.20267 -30.76158,17.76021 v 35.52041 l 30.76158,17.76021 30.76158,-17.76021 v -35.52041 z"
         clip-path="url(#p2163858d41)"
         style="fill:#ffffff;stroke:#000000;stroke-width:2;stroke-linejoin:miter"
         id="path1191" />
    </g>
    <g
       id="patch_117">
      <path
         d="m 867.12947,532.92206 -30.76158,17.7602 v 35.52041 l 30.76158,17.76021 30.76158,-17.76021 v -35.52041 z"
         clip-path="url(#p2163858d41)"
         style="fill:#ffffff;stroke:#000000;stroke-width:2;stroke-linejoin:miter"
         id="path1194" />
    </g>
    <g
       id="patch_118">
      <path
         d="m 897.89105,479.64144 -30.76158,17.76021 v 35.52041 l 30.76158,17.7602 30.76158,-17.7602 v -35.52041 z"
         clip-path="url(#p2163858d41)"
         style="fill:#ffffff;stroke:#000000;stroke-width:2;stroke-linejoin:miter"
         id="path1197" />
    </g>
    <g
       id="patch_119">
      <path
         d="m 928.65263,426.36082 -30.76158,17.76021 v 35.52041 l 30.76158,17.76021 30.76158,-17.76021 v -35.52041 z"
         clip-path="url(#p2163858d41)"
         style="fill:#ffffff;stroke:#000000;stroke-width:2;stroke-linejoin:miter"
         id="path1200" />
    </g>
    <g
       id="patch_120">
      <path
         d="m 959.41421,373.08021 -30.76158,17.7602 v 35.52041 l 30.76158,17.76021 30.76158,-17.76021 v -35.52041 z"
         clip-path="url(#p2163858d41)"
         style="fill:#ffffff;stroke:#000000;stroke-width:2;stroke-linejoin:miter"
         id="path1203" />
    </g>
    <g
       id="patch_121">
      <path
         d="m 990.17579,319.79959 -30.76158,17.7602 v 35.52042 l 30.76158,17.7602 30.76161,-17.7602 v -35.52042 z"
         clip-path="url(#p2163858d41)"
         style="fill:#ffffff;stroke:#000000;stroke-width:2;stroke-linejoin:miter"
         id="path1206" />
    </g>
    <g
       id="patch_122">
      <path
         d="m 1020.9374,266.51897 -30.76161,17.76021 v 35.52041 l 30.76161,17.7602 30.7615,-17.7602 v -35.52041 z"
         clip-path="url(#p2163858d41)"
         style="fill:#ffffff;stroke:#000000;stroke-width:2;stroke-linejoin:miter"
         id="path1209" />
    </g>
    <g
       id="patch_123">
      <path
         d="m 1051.6989,213.23835 -30.7615,17.76021 v 35.52041 l 30.7615,17.76021 30.7616,-17.76021 v -35.52041 z"
         clip-path="url(#p2163858d41)"
         style="fill:#ffffff;stroke:#000000;stroke-width:2;stroke-linejoin:miter"
         id="path1212" />
    </g>
    <g
       id="patch_124">
      <path
         d="m 1082.4605,159.95774 -30.7616,17.7602 v 35.52041 l 30.7616,17.76021 30.7616,-17.76021 v -35.52041 z"
         clip-path="url(#p2163858d41)"
         style="fill:#ffffff;stroke:#000000;stroke-width:2;stroke-linejoin:miter"
         id="path1215" />
    </g>
    <g
       id="patch_125">
      <path
         d="m 1113.2221,106.67712 -30.7616,17.76021 v 35.52041 l 30.7616,17.7602 30.7616,-17.7602 v -35.52041 z"
         clip-path="url(#p2163858d41)"
         style="fill:#0000ff;stroke:#000000;stroke-width:2;stroke-linejoin:miter"
         id="path1218" />
    </g>
    <g
       id="patch_126">
      <path
         d="m 1143.9837,53.396502 -30.7616,17.760206 v 35.520412 l 30.7616,17.76021 30.7616,-17.76021 V 71.156708 Z"
         clip-path="url(#p2163858d41)"
         style="fill:#0000ff;stroke:#000000;stroke-width:2;stroke-linejoin:miter"
         id="path1221" />
    </g>
  </g>
  <defs
     id="defs1229">
    <clipPath
       id="p2163858d41">
      <rect
         x="90.399609"
         y="10.8"
         width="1184.320781"
         height="687.6"
         id="rect1226" />
    </clipPath>
  </defs>
  <text
     xml:space="preserve"
     style="font-style:normal;font-variant:normal;font-weight:bold;font-stretch:normal;font-size:48px;font-family:sans-serif;-inkscape-font-specification:'sans-serif Bold';fill:#000000;stroke:#000000;stroke-width:1.60157;fill-opacity:1"
     x="513.44849"
     y="102.37112"
     id="text2076"><tspan
       sodipodi:role="line"
       id="tspan2074"
       style="font-style:normal;font-variant:normal;font-weight:bold;font-stretch:normal;font-size:48px;font-family:sans-serif;-inkscape-font-specification:'sans-serif Bold';stroke-width:1.60157;fill:#000000;fill-opacity:1"
       x="513.44849"
       y="102.37112">A</tspan></text>
</svg>
