<?xml version="1.0" encoding="UTF-8" standalone="no"?>
<svg
   width="1365.12pt"
   height="709.2pt"
   viewBox="0 0 1365.12 709.2"
   version="1.1"
   id="svg393"
   sodipodi:docname="board_winning_move.svg"
   inkscape:version="1.2.1 (9c6d41e410, 2022-07-14, custom)"
   xmlns:inkscape="http://www.inkscape.org/namespaces/inkscape"
   xmlns:sodipodi="http://sodipodi.sourceforge.net/DTD/sodipodi-0.dtd"
   xmlns="http://www.w3.org/2000/svg"
   xmlns:svg="http://www.w3.org/2000/svg"
   xmlns:rdf="http://www.w3.org/1999/02/22-rdf-syntax-ns#"
   xmlns:cc="http://creativecommons.org/ns#"
   xmlns:dc="http://purl.org/dc/elements/1.1/">
  <sodipodi:namedview
     id="namedview395"
     pagecolor="#ffffff"
     bordercolor="#000000"
     borderopacity="0.25"
     inkscape:showpageshadow="2"
     inkscape:pageopacity="0.0"
     inkscape:pagecheckerboard="0"
     inkscape:deskcolor="#d1d1d1"
     inkscape:document-units="pt"
     showgrid="false"
     inkscape:zoom="0.74553886"
     inkscape:cx="1018.7262"
     inkscape:cy="472.14172"
     inkscape:window-width="1896"
     inkscape:window-height="1027"
     inkscape:window-x="12"
     inkscape:window-y="41"
     inkscape:window-maximized="1"
     inkscape:current-layer="svg393" />
  <metadata
     id="metadata2">
    <rdf:RDF>
      <cc:Work>
        <dc:type
           rdf:resource="http://purl.org/dc/dcmitype/StillImage" />
        <dc:date>2022-11-23T11:18:41.662866</dc:date>
        <dc:format>image/svg+xml</dc:format>
        <dc:creator>
          <cc:Agent>
            <dc:title>Matplotlib v3.5.2, https://matplotlib.org/</dc:title>
          </cc:Agent>
        </dc:creator>
      </cc:Work>
    </rdf:RDF>
  </metadata>
  <defs
     id="defs6">
    <style
       type="text/css"
       id="style4">*{stroke-linejoin: round; stroke-linecap: butt}</style>
  </defs>
  <g
     id="axes_1">
    <g
       id="patch_2">
      <path
         d="M 682.56,358.72127 144.23237,667.14545 497.99053,42.054545 Z"
         clip-path="url(#p05136f1e1b)"
         style="opacity:0.7;fill:#ff0000;stroke:#ff0000;stroke-linejoin:miter"
         id="path11" />
    </g>
    <g
       id="patch_3">
      <path
         d="M 682.56,358.72127 1220.8876,42.054545 H 497.99053 Z"
         clip-path="url(#p05136f1e1b)"
         style="opacity:0.7;fill:#0000ff;stroke:#0000ff;stroke-linejoin:miter"
         id="path14" />
    </g>
    <g
       id="patch_4">
      <path
         d="M 682.56,358.72127 1220.8876,42.054545 867.12947,667.14545 Z"
         clip-path="url(#p05136f1e1b)"
         style="opacity:0.7;fill:#ff0000;stroke:#ff0000;stroke-linejoin:miter"
         id="path17" />
    </g>
    <g
       id="patch_5">
      <path
         d="M 682.56,358.72127 144.23237,667.14545 h 722.8971 z"
         clip-path="url(#p05136f1e1b)"
         style="opacity:0.7;fill:#0000ff;stroke:#0000ff;stroke-linejoin:miter"
         id="path20" />
    </g>
    <g
       id="patch_6">
      <path
         d="m 221.13632,585.48267 -30.76158,17.76021 v 35.52041 l 30.76158,17.76021 30.76158,-17.76021 v -35.52041 z"
         clip-path="url(#p05136f1e1b)"
         style="fill:#ffffff;stroke:#000000;stroke-width:2;stroke-linejoin:miter"
         id="path23" />
    </g>
    <g
       id="patch_7">
      <path
         d="m 251.8979,532.20206 -30.76158,17.7602 v 35.52041 l 30.76158,17.76021 30.76158,-17.76021 v -35.52041 z"
         clip-path="url(#p05136f1e1b)"
         style="fill:#ffffff;stroke:#000000;stroke-width:2;stroke-linejoin:miter"
         id="path26" />
    </g>
    <g
       id="patch_8">
      <path
         d="m 282.65948,478.92144 -30.76158,17.76021 v 35.52041 l 30.76158,17.7602 30.76158,-17.7602 v -35.52041 z"
         clip-path="url(#p05136f1e1b)"
         style="fill:#ffffff;stroke:#000000;stroke-width:2;stroke-linejoin:miter"
         id="path29" />
    </g>
    <g
       id="patch_9">
      <path
         d="m 313.42106,425.64082 -30.76158,17.76021 v 35.52041 l 30.76158,17.76021 30.76157,-17.76021 v -35.52041 z"
         clip-path="url(#p05136f1e1b)"
         style="fill:#ffffff;stroke:#000000;stroke-width:2;stroke-linejoin:miter"
         id="path32" />
    </g>
    <g
       id="patch_10">
      <path
         d="m 344.18263,372.36021 -30.76157,17.7602 v 35.52041 l 30.76157,17.76021 30.76158,-17.76021 v -35.52041 z"
         clip-path="url(#p05136f1e1b)"
         style="fill:#ffffff;stroke:#000000;stroke-width:2;stroke-linejoin:miter"
         id="path35" />
    </g>
    <g
       id="patch_11">
      <path
         d="m 374.94421,319.07959 -30.76158,17.7602 v 35.52042 l 30.76158,17.7602 30.76158,-17.7602 v -35.52042 z"
         clip-path="url(#p05136f1e1b)"
         style="fill:#ffffff;stroke:#000000;stroke-width:2;stroke-linejoin:miter"
         id="path38" />
    </g>
    <g
       id="patch_12">
      <path
         d="m 405.70579,265.79897 -30.76158,17.76021 v 35.52041 l 30.76158,17.7602 30.76158,-17.7602 v -35.52041 z"
         clip-path="url(#p05136f1e1b)"
         style="fill:#ffffff;stroke:#000000;stroke-width:2;stroke-linejoin:miter"
         id="path41" />
    </g>
    <g
       id="patch_13">
      <path
         d="m 436.46737,212.51835 -30.76158,17.76021 v 35.52041 l 30.76158,17.76021 30.76158,-17.76021 v -35.52041 z"
         clip-path="url(#p05136f1e1b)"
         style="fill:#ffffff;stroke:#000000;stroke-width:2;stroke-linejoin:miter"
         id="path44" />
    </g>
    <g
       id="patch_14">
      <path
         d="m 467.22895,159.23774 -30.76158,17.7602 v 35.52041 l 30.76158,17.76021 30.76158,-17.76021 v -35.52041 z"
         clip-path="url(#p05136f1e1b)"
         style="fill:#ffffff;stroke:#000000;stroke-width:2;stroke-linejoin:miter"
         id="path47" />
    </g>
    <g
       id="patch_15">
      <path
         d="m 497.99053,105.95712 -30.76158,17.76021 v 35.52041 l 30.76158,17.7602 30.76158,-17.7602 v -35.52041 z"
         clip-path="url(#p05136f1e1b)"
         style="fill:#0000ff;stroke:#000000;stroke-width:2;stroke-linejoin:miter"
         id="path50" />
    </g>
    <g
       id="patch_16">
      <path
         d="m 528.75211,52.676502 -30.76158,17.760206 v 35.520412 l 30.76158,17.76021 30.76157,-17.76021 V 70.436708 Z"
         clip-path="url(#p05136f1e1b)"
         style="fill:#ffffff;stroke:#000000;stroke-width:2;stroke-linejoin:miter"
         id="path53" />
    </g>
    <g
       id="patch_17">
      <path
         d="m 282.65948,585.48267 -30.76158,17.76021 v 35.52041 l 30.76158,17.76021 30.76158,-17.76021 v -35.52041 z"
         clip-path="url(#p05136f1e1b)"
         style="fill:#ffffff;stroke:#000000;stroke-width:2;stroke-linejoin:miter"
         id="path56" />
    </g>
    <g
       id="patch_18">
      <path
         d="m 313.42106,532.20206 -30.76158,17.7602 v 35.52041 l 30.76158,17.76021 30.76157,-17.76021 v -35.52041 z"
         clip-path="url(#p05136f1e1b)"
         style="fill:#ffffff;stroke:#000000;stroke-width:2;stroke-linejoin:miter"
         id="path59" />
    </g>
    <g
       id="patch_19">
      <path
         d="m 344.18263,478.92144 -30.76157,17.76021 v 35.52041 l 30.76157,17.7602 30.76158,-17.7602 v -35.52041 z"
         clip-path="url(#p05136f1e1b)"
         style="fill:#ff0000;stroke:#000000;stroke-width:2;stroke-linejoin:miter"
         id="path62" />
    </g>
    <g
       id="patch_20">
      <path
         d="m 374.94421,425.64082 -30.76158,17.76021 v 35.52041 l 30.76158,17.76021 30.76158,-17.76021 v -35.52041 z"
         clip-path="url(#p05136f1e1b)"
         style="fill:#ffffff;stroke:#000000;stroke-width:2;stroke-linejoin:miter"
         id="path65" />
    </g>
    <g
       id="patch_21">
      <path
         d="m 405.70579,372.36021 -30.76158,17.7602 v 35.52041 l 30.76158,17.76021 30.76158,-17.76021 v -35.52041 z"
         clip-path="url(#p05136f1e1b)"
         style="fill:#ffffff;stroke:#000000;stroke-width:2;stroke-linejoin:miter"
         id="path68" />
    </g>
    <g
       id="patch_22">
      <path
         d="m 436.46737,319.07959 -30.76158,17.7602 v 35.52042 l 30.76158,17.7602 30.76158,-17.7602 v -35.52042 z"
         clip-path="url(#p05136f1e1b)"
         style="fill:#ffffff;stroke:#000000;stroke-width:2;stroke-linejoin:miter"
         id="path71" />
    </g>
    <g
       id="patch_23">
      <path
         d="m 467.22895,265.79897 -30.76158,17.76021 v 35.52041 l 30.76158,17.7602 30.76158,-17.7602 v -35.52041 z"
         clip-path="url(#p05136f1e1b)"
         style="fill:#ffffff;stroke:#000000;stroke-width:2;stroke-linejoin:miter"
         id="path74" />
    </g>
    <g
       id="patch_24">
      <path
         d="m 497.99053,212.51835 -30.76158,17.76021 v 35.52041 l 30.76158,17.76021 30.76158,-17.76021 v -35.52041 z"
         clip-path="url(#p05136f1e1b)"
         style="fill:#ffffff;stroke:#000000;stroke-width:2;stroke-linejoin:miter"
         id="path77" />
    </g>
    <g
       id="patch_25">
      <path
         d="m 528.75211,159.23774 -30.76158,17.7602 v 35.52041 l 30.76158,17.76021 30.76157,-17.76021 v -35.52041 z"
         clip-path="url(#p05136f1e1b)"
         style="fill:#ffffff;stroke:#000000;stroke-width:2;stroke-linejoin:miter"
         id="path80" />
    </g>
    <g
       id="patch_26">
      <path
         d="m 559.51368,105.95712 -30.76157,17.76021 v 35.52041 l 30.76157,17.7602 30.76158,-17.7602 v -35.52041 z"
         clip-path="url(#p05136f1e1b)"
         style="fill:#0000ff;stroke:#000000;stroke-width:2;stroke-linejoin:miter"
         id="path83" />
    </g>
    <g
       id="patch_27">
      <path
         d="m 590.27526,52.676502 -30.76158,17.760206 v 35.520412 l 30.76158,17.76021 30.76158,-17.76021 V 70.436708 Z"
         clip-path="url(#p05136f1e1b)"
         style="fill:#ff0000;stroke:#000000;stroke-width:2;stroke-linejoin:miter"
         id="path86" />
    </g>
    <g
       id="patch_28">
      <path
         d="m 344.18263,585.48267 -30.76157,17.76021 v 35.52041 l 30.76157,17.76021 30.76158,-17.76021 v -35.52041 z"
         clip-path="url(#p05136f1e1b)"
         style="fill:#ffffff;stroke:#000000;stroke-width:2;stroke-linejoin:miter"
         id="path89" />
    </g>
    <g
       id="patch_29">
      <path
         d="m 374.94421,532.20206 -30.76158,17.7602 v 35.52041 l 30.76158,17.76021 30.76158,-17.76021 v -35.52041 z"
         clip-path="url(#p05136f1e1b)"
         style="fill:#ffffff;stroke:#000000;stroke-width:2;stroke-linejoin:miter"
         id="path92" />
    </g>
    <g
       id="patch_30">
      <path
         d="m 405.70579,478.92144 -30.76158,17.76021 v 35.52041 l 30.76158,17.7602 30.76158,-17.7602 v -35.52041 z"
         clip-path="url(#p05136f1e1b)"
         style="fill:#ffffff;stroke:#000000;stroke-width:2;stroke-linejoin:miter"
         id="path95" />
    </g>
    <g
       id="patch_31">
      <path
         d="m 436.46737,425.64082 -30.76158,17.76021 v 35.52041 l 30.76158,17.76021 30.76158,-17.76021 v -35.52041 z"
         clip-path="url(#p05136f1e1b)"
         style="fill:#ff0000;stroke:#000000;stroke-width:2;stroke-linejoin:miter"
         id="path98" />
    </g>
    <g
       id="patch_32">
      <path
         d="m 467.22895,372.36021 -30.76158,17.7602 v 35.52041 l 30.76158,17.76021 30.76158,-17.76021 v -35.52041 z"
         clip-path="url(#p05136f1e1b)"
         style="fill:#ffffff;stroke:#000000;stroke-width:2;stroke-linejoin:miter"
         id="path101" />
    </g>
    <g
       id="patch_33">
      <path
         d="m 497.99053,319.07959 -30.76158,17.7602 v 35.52042 l 30.76158,17.7602 30.76158,-17.7602 v -35.52042 z"
         clip-path="url(#p05136f1e1b)"
         style="fill:#ff0000;stroke:#000000;stroke-width:2;stroke-linejoin:miter"
         id="path104" />
    </g>
    <g
       id="patch_34">
      <path
         d="m 528.75211,265.79897 -30.76158,17.76021 v 35.52041 l 30.76158,17.7602 30.76157,-17.7602 v -35.52041 z"
         clip-path="url(#p05136f1e1b)"
         style="fill:#ffffff;stroke:#000000;stroke-width:2;stroke-linejoin:miter"
         id="path107" />
    </g>
    <g
       id="patch_35">
      <path
         d="m 559.51368,212.51835 -30.76157,17.76021 v 35.52041 l 30.76157,17.76021 30.76158,-17.76021 v -35.52041 z"
         clip-path="url(#p05136f1e1b)"
         style="fill:#ffffff;stroke:#000000;stroke-width:2;stroke-linejoin:miter"
         id="path110" />
    </g>
    <g
       id="patch_36">
      <path
         d="m 590.27526,159.23774 -30.76158,17.7602 v 35.52041 l 30.76158,17.76021 30.76158,-17.76021 v -35.52041 z"
         clip-path="url(#p05136f1e1b)"
         style="fill:#ffffff;stroke:#000000;stroke-width:2;stroke-linejoin:miter"
         id="path113" />
    </g>
    <g
       id="patch_37">
      <path
         d="m 621.03684,105.95712 -30.76158,17.76021 v 35.52041 l 30.76158,17.7602 30.76158,-17.7602 v -35.52041 z"
         clip-path="url(#p05136f1e1b)"
         style="fill:#0000ff;stroke:#000000;stroke-width:2;stroke-linejoin:miter"
         id="path116" />
    </g>
    <g
       id="patch_38">
      <path
         d="M 651.79842,52.676502 621.03684,70.436708 V 105.95712 L 651.79842,123.71733 682.56,105.95712 V 70.436708 Z"
         clip-path="url(#p05136f1e1b)"
         style="fill:#ff0000;stroke:#000000;stroke-width:2;stroke-linejoin:miter"
         id="path119" />
    </g>
    <g
       id="patch_39">
      <path
         d="m 405.70579,585.48267 -30.76158,17.76021 v 35.52041 l 30.76158,17.76021 30.76158,-17.76021 v -35.52041 z"
         clip-path="url(#p05136f1e1b)"
         style="fill:#ffffff;stroke:#000000;stroke-width:2;stroke-linejoin:miter"
         id="path122" />
    </g>
    <g
       id="patch_40">
      <path
         d="m 436.46737,532.20206 -30.76158,17.7602 v 35.52041 l 30.76158,17.76021 30.76158,-17.76021 v -35.52041 z"
         clip-path="url(#p05136f1e1b)"
         style="fill:#ffffff;stroke:#000000;stroke-width:2;stroke-linejoin:miter"
         id="path125" />
    </g>
    <g
       id="patch_41">
      <path
         d="m 467.22895,478.92144 -30.76158,17.76021 v 35.52041 l 30.76158,17.7602 30.76158,-17.7602 v -35.52041 z"
         clip-path="url(#p05136f1e1b)"
         style="fill:#ffffff;stroke:#000000;stroke-width:2;stroke-linejoin:miter"
         id="path128" />
    </g>
    <g
       id="patch_42">
      <path
         d="m 497.99053,425.64082 -30.76158,17.76021 v 35.52041 l 30.76158,17.76021 30.76158,-17.76021 v -35.52041 z"
         clip-path="url(#p05136f1e1b)"
         style="fill:#ffffff;stroke:#000000;stroke-width:2;stroke-linejoin:miter"
         id="path131" />
    </g>
    <g
       id="patch_43">
      <path
         d="m 528.75211,372.36021 -30.76158,17.7602 v 35.52041 l 30.76158,17.76021 30.76157,-17.76021 v -35.52041 z"
         clip-path="url(#p05136f1e1b)"
         style="fill:#ffffff;stroke:#000000;stroke-width:2;stroke-linejoin:miter"
         id="path134" />
    </g>
    <g
       id="patch_44">
      <path
         d="m 559.51368,319.07959 -30.76157,17.7602 v 35.52042 l 30.76157,17.7602 30.76158,-17.7602 v -35.52042 z"
         clip-path="url(#p05136f1e1b)"
         style="fill:#ffffff;stroke:#000000;stroke-width:2;stroke-linejoin:miter"
         id="path137" />
    </g>
    <g
       id="patch_45">
      <path
         d="m 590.27526,265.79897 -30.76158,17.76021 v 35.52041 l 30.76158,17.7602 30.76158,-17.7602 v -35.52041 z"
         clip-path="url(#p05136f1e1b)"
         style="fill:#ffffff;stroke:#000000;stroke-width:2;stroke-linejoin:miter"
         id="path140" />
    </g>
    <g
       id="patch_46">
      <path
         d="m 621.03684,212.51835 -30.76158,17.76021 v 35.52041 l 30.76158,17.76021 30.76158,-17.76021 v -35.52041 z"
         clip-path="url(#p05136f1e1b)"
         style="fill:#ffffff;stroke:#000000;stroke-width:2;stroke-linejoin:miter"
         id="path143" />
    </g>
    <g
       id="patch_47">
      <path
         d="m 651.79842,159.23774 -30.76158,17.7602 v 35.52041 l 30.76158,17.76021 30.76158,-17.76021 v -35.52041 z"
         clip-path="url(#p05136f1e1b)"
         style="fill:#ffffff;stroke:#000000;stroke-width:2;stroke-linejoin:miter"
         id="path146" />
    </g>
    <g
       id="patch_48">
      <path
         d="m 682.56,105.95712 -30.76158,17.76021 v 35.52041 l 30.76158,17.7602 30.76158,-17.7602 v -35.52041 z"
         clip-path="url(#p05136f1e1b)"
         style="fill:#0000ff;stroke:#000000;stroke-width:2;stroke-linejoin:miter"
         id="path149" />
    </g>
    <g
       id="patch_49">
      <path
         d="M 713.32158,52.676502 682.56,70.436708 v 35.520412 l 30.76158,17.76021 30.76158,-17.76021 V 70.436708 Z"
         clip-path="url(#p05136f1e1b)"
         style="fill:#ff0000;stroke:#000000;stroke-width:2;stroke-linejoin:miter"
         id="path152" />
    </g>
    <g
       id="patch_50">
      <path
         d="m 467.22895,585.48267 -30.76158,17.76021 v 35.52041 l 30.76158,17.76021 30.76158,-17.76021 v -35.52041 z"
         clip-path="url(#p05136f1e1b)"
         style="fill:#ffffff;stroke:#000000;stroke-width:2;stroke-linejoin:miter"
         id="path155" />
    </g>
    <g
       id="patch_51">
      <path
         d="m 497.99053,532.20206 -30.76158,17.7602 v 35.52041 l 30.76158,17.76021 30.76158,-17.76021 v -35.52041 z"
         clip-path="url(#p05136f1e1b)"
         style="fill:#ffffff;stroke:#000000;stroke-width:2;stroke-linejoin:miter"
         id="path158" />
    </g>
    <g
       id="patch_52">
      <path
         d="m 528.75211,478.92144 -30.76158,17.76021 v 35.52041 l 30.76158,17.7602 30.76157,-17.7602 v -35.52041 z"
         clip-path="url(#p05136f1e1b)"
         style="fill:#ffffff;stroke:#000000;stroke-width:2;stroke-linejoin:miter"
         id="path161" />
    </g>
    <g
       id="patch_53">
      <path
         d="m 559.51368,425.64082 -30.76157,17.76021 v 35.52041 l 30.76157,17.76021 30.76158,-17.76021 v -35.52041 z"
         clip-path="url(#p05136f1e1b)"
         style="fill:#ffffff;stroke:#000000;stroke-width:2;stroke-linejoin:miter"
         id="path164" />
    </g>
    <g
       id="patch_54">
      <path
         d="m 590.27526,372.36021 -30.76158,17.7602 v 35.52041 l 30.76158,17.76021 30.76158,-17.76021 v -35.52041 z"
         clip-path="url(#p05136f1e1b)"
         style="fill:#ffffff;stroke:#000000;stroke-width:2;stroke-linejoin:miter"
         id="path167" />
    </g>
    <g
       id="patch_55">
      <path
         d="m 621.03684,319.07959 -30.76158,17.7602 v 35.52042 l 30.76158,17.7602 30.76158,-17.7602 v -35.52042 z"
         clip-path="url(#p05136f1e1b)"
         style="fill:#ffffff;stroke:#000000;stroke-width:2;stroke-linejoin:miter"
         id="path170" />
    </g>
    <g
       id="patch_56">
      <path
         d="m 651.79842,265.79897 -30.76158,17.76021 v 35.52041 l 30.76158,17.7602 30.76158,-17.7602 v -35.52041 z"
         clip-path="url(#p05136f1e1b)"
         style="fill:#ffffff;stroke:#000000;stroke-width:2;stroke-linejoin:miter"
         id="path173" />
    </g>
    <g
       id="patch_57">
      <path
         d="m 682.56,212.51835 -30.76158,17.76021 v 35.52041 l 30.76158,17.76021 30.76158,-17.76021 v -35.52041 z"
         clip-path="url(#p05136f1e1b)"
         style="fill:#ffffff;stroke:#000000;stroke-width:2;stroke-linejoin:miter"
         id="path176" />
    </g>
    <g
       id="patch_58">
      <path
         d="M 713.32158,159.23774 682.56,176.99794 v 35.52041 l 30.76158,17.76021 30.76158,-17.76021 v -35.52041 z"
         clip-path="url(#p05136f1e1b)"
         style="fill:#ffffff;stroke:#000000;stroke-width:2;stroke-linejoin:miter"
         id="path179" />
    </g>
    <g
       id="patch_59">
      <path
         d="m 744.08316,105.95712 -30.76158,17.76021 v 35.52041 l 30.76158,17.7602 30.76158,-17.7602 v -35.52041 z"
         clip-path="url(#p05136f1e1b)"
         style="fill:#0000ff;stroke:#000000;stroke-width:2;stroke-linejoin:miter"
         id="path182" />
    </g>
    <g
       id="patch_60">
      <path
         d="m 774.84474,52.676502 -30.76158,17.760206 v 35.520412 l 30.76158,17.76021 30.76157,-17.76021 V 70.436708 Z"
         clip-path="url(#p05136f1e1b)"
         style="fill:#ff0000;stroke:#000000;stroke-width:2;stroke-linejoin:miter"
         id="path185" />
    </g>
    <g
       id="patch_61">
      <path
         d="m 528.75211,585.48267 -30.76158,17.76021 v 35.52041 l 30.76158,17.76021 30.76157,-17.76021 v -35.52041 z"
         clip-path="url(#p05136f1e1b)"
         style="fill:#ffffff;stroke:#000000;stroke-width:2;stroke-linejoin:miter"
         id="path188" />
    </g>
    <g
       id="patch_62">
      <path
         d="m 559.51368,532.20206 -30.76157,17.7602 v 35.52041 l 30.76157,17.76021 30.76158,-17.76021 v -35.52041 z"
         clip-path="url(#p05136f1e1b)"
         style="fill:#ffffff;stroke:#000000;stroke-width:2;stroke-linejoin:miter"
         id="path191" />
    </g>
    <g
       id="patch_63">
      <path
         d="m 590.27526,478.92144 -30.76158,17.76021 v 35.52041 l 30.76158,17.7602 30.76158,-17.7602 v -35.52041 z"
         clip-path="url(#p05136f1e1b)"
         style="fill:#ffffff;stroke:#000000;stroke-width:2;stroke-linejoin:miter"
         id="path194" />
    </g>
    <g
       id="patch_64">
      <path
         d="m 621.03684,425.64082 -30.76158,17.76021 v 35.52041 l 30.76158,17.76021 30.76158,-17.76021 v -35.52041 z"
         clip-path="url(#p05136f1e1b)"
         style="fill:#ffffff;stroke:#000000;stroke-width:2;stroke-linejoin:miter"
         id="path197" />
    </g>
    <g
       id="patch_65">
      <path
         d="m 651.79842,372.36021 -30.76158,17.7602 v 35.52041 l 30.76158,17.76021 30.76158,-17.76021 v -35.52041 z"
         clip-path="url(#p05136f1e1b)"
         style="fill:#ffffff;stroke:#000000;stroke-width:2;stroke-linejoin:miter"
         id="path200" />
    </g>
    <g
       id="patch_66">
      <path
         d="m 682.56,319.07959 -30.76158,17.7602 v 35.52042 l 30.76158,17.7602 30.76158,-17.7602 v -35.52042 z"
         clip-path="url(#p05136f1e1b)"
         style="fill:#ffffff;stroke:#000000;stroke-width:2;stroke-linejoin:miter"
         id="path203" />
    </g>
    <g
       id="patch_67">
      <path
         d="M 713.32158,265.79897 682.56,283.55918 v 35.52041 l 30.76158,17.7602 30.76158,-17.7602 v -35.52041 z"
         clip-path="url(#p05136f1e1b)"
         style="fill:#ffffff;stroke:#000000;stroke-width:2;stroke-linejoin:miter"
         id="path206" />
    </g>
    <g
       id="patch_68">
      <path
         d="m 744.08316,212.51835 -30.76158,17.76021 v 35.52041 l 30.76158,17.76021 30.76158,-17.76021 v -35.52041 z"
         clip-path="url(#p05136f1e1b)"
         style="fill:#ffffff;stroke:#000000;stroke-width:2;stroke-linejoin:miter"
         id="path209" />
    </g>
    <g
       id="patch_69">
      <path
         d="m 774.84474,159.23774 -30.76158,17.7602 v 35.52041 l 30.76158,17.76021 30.76157,-17.76021 v -35.52041 z"
         clip-path="url(#p05136f1e1b)"
         style="fill:#ffffff;stroke:#000000;stroke-width:2;stroke-linejoin:miter"
         id="path212" />
    </g>
    <g
       id="patch_70">
      <path
         d="m 805.60631,105.95712 -30.76157,17.76021 v 35.52041 l 30.76157,17.7602 30.76158,-17.7602 v -35.52041 z"
         clip-path="url(#p05136f1e1b)"
         style="fill:#0000ff;stroke:#000000;stroke-width:2;stroke-linejoin:miter"
         id="path215" />
    </g>
    <g
       id="patch_71">
      <path
         d="m 836.36789,52.676502 -30.76158,17.760206 v 35.520412 l 30.76158,17.76021 30.76158,-17.76021 V 70.436708 Z"
         clip-path="url(#p05136f1e1b)"
         style="fill:#ff0000;stroke:#000000;stroke-width:2;stroke-linejoin:miter"
         id="path218" />
    </g>
    <g
       id="patch_72">
      <path
         d="m 590.27526,585.48267 -30.76158,17.76021 v 35.52041 l 30.76158,17.76021 30.76158,-17.76021 v -35.52041 z"
         clip-path="url(#p05136f1e1b)"
         style="fill:#ffffff;stroke:#000000;stroke-width:2;stroke-linejoin:miter"
         id="path221" />
    </g>
    <g
       id="patch_73">
      <path
         d="m 621.03684,532.20206 -30.76158,17.7602 v 35.52041 l 30.76158,17.76021 30.76158,-17.76021 v -35.52041 z"
         clip-path="url(#p05136f1e1b)"
         style="fill:#ffffff;stroke:#000000;stroke-width:2;stroke-linejoin:miter"
         id="path224" />
    </g>
    <g
       id="patch_74">
      <path
         d="m 651.79842,478.92144 -30.76158,17.76021 v 35.52041 l 30.76158,17.7602 30.76158,-17.7602 v -35.52041 z"
         clip-path="url(#p05136f1e1b)"
         style="fill:#ffffff;stroke:#000000;stroke-width:2;stroke-linejoin:miter"
         id="path227" />
    </g>
    <g
       id="patch_75">
      <path
         d="m 682.56,425.64082 -30.76158,17.76021 v 35.52041 l 30.76158,17.76021 30.76158,-17.76021 v -35.52041 z"
         clip-path="url(#p05136f1e1b)"
         style="fill:#ffffff;stroke:#000000;stroke-width:2;stroke-linejoin:miter"
         id="path230" />
    </g>
    <g
       id="patch_76">
      <path
         d="M 713.32158,372.36021 682.56,390.12041 v 35.52041 l 30.76158,17.76021 30.76158,-17.76021 v -35.52041 z"
         clip-path="url(#p05136f1e1b)"
         style="fill:#ffffff;stroke:#000000;stroke-width:2;stroke-linejoin:miter"
         id="path233" />
    </g>
    <g
       id="patch_77">
      <path
         d="m 744.08316,319.07959 -30.76158,17.7602 v 35.52042 l 30.76158,17.7602 30.76158,-17.7602 v -35.52042 z"
         clip-path="url(#p05136f1e1b)"
         style="fill:#ffffff;stroke:#000000;stroke-width:2;stroke-linejoin:miter"
         id="path236" />
    </g>
    <g
       id="patch_78">
      <path
         d="m 774.84474,265.79897 -30.76158,17.76021 v 35.52041 l 30.76158,17.7602 30.76157,-17.7602 v -35.52041 z"
         clip-path="url(#p05136f1e1b)"
         style="fill:#ffffff;stroke:#000000;stroke-width:2;stroke-linejoin:miter"
         id="path239" />
    </g>
    <g
       id="patch_79">
      <path
         d="m 805.60631,212.51835 -30.76157,17.76021 v 35.52041 l 30.76157,17.76021 30.76158,-17.76021 v -35.52041 z"
         clip-path="url(#p05136f1e1b)"
         style="fill:#ffffff;stroke:#000000;stroke-width:2;stroke-linejoin:miter"
         id="path242" />
    </g>
    <g
       id="patch_80">
      <path
         d="m 836.36789,159.23774 -30.76158,17.7602 v 35.52041 l 30.76158,17.76021 30.76158,-17.76021 v -35.52041 z"
         clip-path="url(#p05136f1e1b)"
         style="fill:#ffffff;stroke:#000000;stroke-width:2;stroke-linejoin:miter"
         id="path245" />
    </g>
    <g
       id="patch_81">
      <path
         d="m 867.12947,105.95712 -30.76158,17.76021 v 35.52041 l 30.76158,17.7602 30.76158,-17.7602 v -35.52041 z"
         clip-path="url(#p05136f1e1b)"
         style="fill:#0000ff;stroke:#000000;stroke-width:2;stroke-linejoin:miter"
         id="path248" />
    </g>
    <g
       id="patch_82">
      <path
         d="m 897.89105,52.676502 -30.76158,17.760206 v 35.520412 l 30.76158,17.76021 30.76158,-17.76021 V 70.436708 Z"
         clip-path="url(#p05136f1e1b)"
         style="fill:#ff0000;stroke:#000000;stroke-width:2;stroke-linejoin:miter"
         id="path251" />
    </g>
    <g
       id="patch_83">
      <path
         d="m 651.79842,585.48267 -30.76158,17.76021 v 35.52041 L 651.79842,656.5235 682.56,638.76329 v -35.52041 z"
         clip-path="url(#p05136f1e1b)"
         style="fill:#ffffff;stroke:#000000;stroke-width:2;stroke-linejoin:miter"
         id="path254" />
    </g>
    <g
       id="patch_84">
      <path
         d="m 682.56,532.20206 -30.76158,17.7602 v 35.52041 l 30.76158,17.76021 30.76158,-17.76021 v -35.52041 z"
         clip-path="url(#p05136f1e1b)"
         style="fill:#ffffff;stroke:#000000;stroke-width:2;stroke-linejoin:miter"
         id="path257" />
    </g>
    <g
       id="patch_85">
      <path
         d="M 713.32158,478.92144 682.56,496.68165 v 35.52041 l 30.76158,17.7602 30.76158,-17.7602 v -35.52041 z"
         clip-path="url(#p05136f1e1b)"
         style="fill:#ffffff;stroke:#000000;stroke-width:2;stroke-linejoin:miter"
         id="path260" />
    </g>
    <g
       id="patch_86">
      <path
         d="m 744.08316,425.64082 -30.76158,17.76021 v 35.52041 l 30.76158,17.76021 30.76158,-17.76021 v -35.52041 z"
         clip-path="url(#p05136f1e1b)"
         style="fill:#ffffff;stroke:#000000;stroke-width:2;stroke-linejoin:miter"
         id="path263" />
    </g>
    <g
       id="patch_87">
      <path
         d="m 774.84474,372.36021 -30.76158,17.7602 v 35.52041 l 30.76158,17.76021 30.76157,-17.76021 v -35.52041 z"
         clip-path="url(#p05136f1e1b)"
         style="fill:#ffffff;stroke:#000000;stroke-width:2;stroke-linejoin:miter"
         id="path266" />
    </g>
    <g
       id="patch_88">
      <path
         d="m 805.60631,319.07959 -30.76157,17.7602 v 35.52042 l 30.76157,17.7602 30.76158,-17.7602 v -35.52042 z"
         clip-path="url(#p05136f1e1b)"
         style="fill:#ffffff;stroke:#000000;stroke-width:2;stroke-linejoin:miter"
         id="path269" />
    </g>
    <g
       id="patch_89">
      <path
         d="m 836.36789,265.79897 -30.76158,17.76021 v 35.52041 l 30.76158,17.7602 30.76158,-17.7602 v -35.52041 z"
         clip-path="url(#p05136f1e1b)"
         style="fill:#ffffff;stroke:#000000;stroke-width:2;stroke-linejoin:miter"
         id="path272" />
    </g>
    <g
       id="patch_90">
      <path
         d="m 867.12947,212.51835 -30.76158,17.76021 v 35.52041 l 30.76158,17.76021 30.76158,-17.76021 v -35.52041 z"
         clip-path="url(#p05136f1e1b)"
         style="fill:#ffffff;stroke:#000000;stroke-width:2;stroke-linejoin:miter"
         id="path275" />
    </g>
    <g
       id="patch_91">
      <path
         d="m 897.89105,159.23774 -30.76158,17.7602 v 35.52041 l 30.76158,17.76021 30.76158,-17.76021 v -35.52041 z"
         clip-path="url(#p05136f1e1b)"
         style="fill:#ffffff;stroke:#000000;stroke-width:2;stroke-linejoin:miter"
         id="path278" />
    </g>
    <g
       id="patch_92">
      <path
         d="m 928.65263,105.95712 -30.76158,17.76021 v 35.52041 l 30.76158,17.7602 30.76158,-17.7602 v -35.52041 z"
         clip-path="url(#p05136f1e1b)"
         style="fill:#0000ff;stroke:#000000;stroke-width:2;stroke-linejoin:miter"
         id="path281" />
    </g>
    <g
       id="patch_93">
      <path
         d="m 959.41421,52.676502 -30.76158,17.760206 v 35.520412 l 30.76158,17.76021 30.76158,-17.76021 V 70.436708 Z"
         clip-path="url(#p05136f1e1b)"
         style="fill:#ff0000;stroke:#000000;stroke-width:2;stroke-linejoin:miter"
         id="path284" />
    </g>
    <g
       id="patch_94">
      <path
         d="M 713.32158,585.48267 682.56,603.24288 v 35.52041 l 30.76158,17.76021 30.76158,-17.76021 v -35.52041 z"
         clip-path="url(#p05136f1e1b)"
         style="fill:#ffffff;stroke:#000000;stroke-width:2;stroke-linejoin:miter"
         id="path287" />
    </g>
    <g
       id="patch_95">
      <path
         d="m 744.08316,532.20206 -30.76158,17.7602 v 35.52041 l 30.76158,17.76021 30.76158,-17.76021 v -35.52041 z"
         clip-path="url(#p05136f1e1b)"
         style="fill:#ffffff;stroke:#000000;stroke-width:2;stroke-linejoin:miter"
         id="path290" />
    </g>
    <g
       id="patch_96">
      <path
         d="m 774.84474,478.92144 -30.76158,17.76021 v 35.52041 l 30.76158,17.7602 30.76157,-17.7602 v -35.52041 z"
         clip-path="url(#p05136f1e1b)"
         style="fill:#ffffff;stroke:#000000;stroke-width:2;stroke-linejoin:miter"
         id="path293" />
    </g>
    <g
       id="patch_97">
      <path
         d="m 805.60631,425.64082 -30.76157,17.76021 v 35.52041 l 30.76157,17.76021 30.76158,-17.76021 v -35.52041 z"
         clip-path="url(#p05136f1e1b)"
         style="fill:#ffffff;stroke:#000000;stroke-width:2;stroke-linejoin:miter"
         id="path296" />
    </g>
    <g
       id="patch_98">
      <path
         d="m 836.36789,372.36021 -30.76158,17.7602 v 35.52041 l 30.76158,17.76021 30.76158,-17.76021 v -35.52041 z"
         clip-path="url(#p05136f1e1b)"
         style="fill:#ffffff;stroke:#000000;stroke-width:2;stroke-linejoin:miter"
         id="path299" />
    </g>
    <g
       id="patch_99">
      <path
         d="m 867.12947,319.07959 -30.76158,17.7602 v 35.52042 l 30.76158,17.7602 30.76158,-17.7602 v -35.52042 z"
         clip-path="url(#p05136f1e1b)"
         style="fill:#ffffff;stroke:#000000;stroke-width:2;stroke-linejoin:miter"
         id="path302" />
    </g>
    <g
       id="patch_100">
      <path
         d="m 897.89105,265.79897 -30.76158,17.76021 v 35.52041 l 30.76158,17.7602 30.76158,-17.7602 v -35.52041 z"
         clip-path="url(#p05136f1e1b)"
         style="fill:#ffffff;stroke:#000000;stroke-width:2;stroke-linejoin:miter"
         id="path305" />
    </g>
    <g
       id="patch_101">
      <path
         d="m 928.65263,212.51835 -30.76158,17.76021 v 35.52041 l 30.76158,17.76021 30.76158,-17.76021 v -35.52041 z"
         clip-path="url(#p05136f1e1b)"
         style="fill:#ffffff;stroke:#000000;stroke-width:2;stroke-linejoin:miter"
         id="path308" />
    </g>
    <g
       id="patch_102">
      <path
         d="m 959.41421,159.23774 -30.76158,17.7602 v 35.52041 l 30.76158,17.76021 30.76158,-17.76021 v -35.52041 z"
         clip-path="url(#p05136f1e1b)"
         style="fill:#ffffff;stroke:#000000;stroke-width:2;stroke-linejoin:miter"
         id="path311" />
    </g>
    <g
       id="patch_103">
      <path
         d="m 990.17579,105.95712 -30.76158,17.76021 v 35.52041 l 30.76158,17.7602 30.76161,-17.7602 v -35.52041 z"
         clip-path="url(#p05136f1e1b)"
         style="fill:#0000ff;stroke:#000000;stroke-width:2;stroke-linejoin:miter"
         id="path314" />
    </g>
    <g
       id="patch_104">
      <path
         d="m 1020.9374,52.676502 -30.76161,17.760206 v 35.520412 l 30.76161,17.76021 30.7615,-17.76021 V 70.436708 Z"
         clip-path="url(#p05136f1e1b)"
         style="fill:#ff0000;stroke:#000000;stroke-width:2;stroke-linejoin:miter"
         id="path317" />
    </g>
    <g
       id="patch_105">
      <path
         d="m 774.84474,585.48267 -30.76158,17.76021 v 35.52041 l 30.76158,17.76021 30.76157,-17.76021 v -35.52041 z"
         clip-path="url(#p05136f1e1b)"
         style="fill:#ffffff;stroke:#000000;stroke-width:2;stroke-linejoin:miter"
         id="path320" />
    </g>
    <g
       id="patch_106">
      <path
         d="m 805.60631,532.20206 -30.76157,17.7602 v 35.52041 l 30.76157,17.76021 30.76158,-17.76021 v -35.52041 z"
         clip-path="url(#p05136f1e1b)"
         style="fill:#ffffff;stroke:#000000;stroke-width:2;stroke-linejoin:miter"
         id="path323" />
    </g>
    <g
       id="patch_107">
      <path
         d="m 836.36789,478.92144 -30.76158,17.76021 v 35.52041 l 30.76158,17.7602 30.76158,-17.7602 v -35.52041 z"
         clip-path="url(#p05136f1e1b)"
         style="fill:#ffffff;stroke:#000000;stroke-width:2;stroke-linejoin:miter"
         id="path326" />
    </g>
    <g
       id="patch_108">
      <path
         d="m 867.12947,425.64082 -30.76158,17.76021 v 35.52041 l 30.76158,17.76021 30.76158,-17.76021 v -35.52041 z"
         clip-path="url(#p05136f1e1b)"
         style="fill:#ffffff;stroke:#000000;stroke-width:2;stroke-linejoin:miter"
         id="path329" />
    </g>
    <g
       id="patch_109">
      <path
         d="m 897.89105,372.36021 -30.76158,17.7602 v 35.52041 l 30.76158,17.76021 30.76158,-17.76021 v -35.52041 z"
         clip-path="url(#p05136f1e1b)"
         style="fill:#ffffff;stroke:#000000;stroke-width:2;stroke-linejoin:miter"
         id="path332" />
    </g>
    <g
       id="patch_110">
      <path
         d="m 928.65263,319.07959 -30.76158,17.7602 v 35.52042 l 30.76158,17.7602 30.76158,-17.7602 v -35.52042 z"
         clip-path="url(#p05136f1e1b)"
         style="fill:#ffffff;stroke:#000000;stroke-width:2;stroke-linejoin:miter"
         id="path335" />
    </g>
    <g
       id="patch_111">
      <path
         d="m 959.41421,265.79897 -30.76158,17.76021 v 35.52041 l 30.76158,17.7602 30.76158,-17.7602 v -35.52041 z"
         clip-path="url(#p05136f1e1b)"
         style="fill:#ffffff;stroke:#000000;stroke-width:2;stroke-linejoin:miter"
         id="path338" />
    </g>
    <g
       id="patch_112">
      <path
         d="m 990.17579,212.51835 -30.76158,17.76021 v 35.52041 l 30.76158,17.76021 30.76161,-17.76021 v -35.52041 z"
         clip-path="url(#p05136f1e1b)"
         style="fill:#ffffff;stroke:#000000;stroke-width:2;stroke-linejoin:miter"
         id="path341" />
    </g>
    <g
       id="patch_113">
      <path
         d="m 1020.9374,159.23774 -30.76161,17.7602 v 35.52041 l 30.76161,17.76021 30.7615,-17.76021 v -35.52041 z"
         clip-path="url(#p05136f1e1b)"
         style="fill:#ffffff;stroke:#000000;stroke-width:2;stroke-linejoin:miter"
         id="path344" />
    </g>
    <g
       id="patch_114">
      <path
         d="m 1051.6989,105.95712 -30.7615,17.76021 v 35.52041 l 30.7615,17.7602 30.7616,-17.7602 v -35.52041 z"
         clip-path="url(#p05136f1e1b)"
         style="fill:#0000ff;stroke:#000000;stroke-width:2;stroke-linejoin:miter"
         id="path347" />
    </g>
    <g
       id="patch_115">
      <path
         d="m 1082.4605,52.676502 -30.7616,17.760206 v 35.520412 l 30.7616,17.76021 30.7616,-17.76021 V 70.436708 Z"
         clip-path="url(#p05136f1e1b)"
         style="fill:#ff0000;stroke:#000000;stroke-width:2;stroke-linejoin:miter"
         id="path350" />
    </g>
    <g
       id="patch_116">
      <path
         d="m 836.36789,585.48267 -30.76158,17.76021 v 35.52041 l 30.76158,17.76021 30.76158,-17.76021 v -35.52041 z"
         clip-path="url(#p05136f1e1b)"
         style="fill:#ffffff;stroke:#000000;stroke-width:2;stroke-linejoin:miter"
         id="path353" />
    </g>
    <g
       id="patch_117">
      <path
         d="m 867.12947,532.20206 -30.76158,17.7602 v 35.52041 l 30.76158,17.76021 30.76158,-17.76021 v -35.52041 z"
         clip-path="url(#p05136f1e1b)"
         style="fill:#ffffff;stroke:#000000;stroke-width:2;stroke-linejoin:miter"
         id="path356" />
    </g>
    <g
       id="patch_118">
      <path
         d="m 897.89105,478.92144 -30.76158,17.76021 v 35.52041 l 30.76158,17.7602 30.76158,-17.7602 v -35.52041 z"
         clip-path="url(#p05136f1e1b)"
         style="fill:#ffffff;stroke:#000000;stroke-width:2;stroke-linejoin:miter"
         id="path359" />
    </g>
    <g
       id="patch_119">
      <path
         d="m 928.65263,425.64082 -30.76158,17.76021 v 35.52041 l 30.76158,17.76021 30.76158,-17.76021 v -35.52041 z"
         clip-path="url(#p05136f1e1b)"
         style="fill:#ffffff;stroke:#000000;stroke-width:2;stroke-linejoin:miter"
         id="path362" />
    </g>
    <g
       id="patch_120">
      <path
         d="m 959.41421,372.36021 -30.76158,17.7602 v 35.52041 l 30.76158,17.76021 30.76158,-17.76021 v -35.52041 z"
         clip-path="url(#p05136f1e1b)"
         style="fill:#ffffff;stroke:#000000;stroke-width:2;stroke-linejoin:miter"
         id="path365" />
    </g>
    <g
       id="patch_121">
      <path
         d="m 990.17579,319.07959 -30.76158,17.7602 v 35.52042 l 30.76158,17.7602 30.76161,-17.7602 v -35.52042 z"
         clip-path="url(#p05136f1e1b)"
         style="fill:#ffffff;stroke:#000000;stroke-width:2;stroke-linejoin:miter"
         id="path368" />
    </g>
    <g
       id="patch_122">
      <path
         d="m 1020.9374,265.79897 -30.76161,17.76021 v 35.52041 l 30.76161,17.7602 30.7615,-17.7602 v -35.52041 z"
         clip-path="url(#p05136f1e1b)"
         style="fill:#ffffff;stroke:#000000;stroke-width:2;stroke-linejoin:miter"
         id="path371" />
    </g>
    <g
       id="patch_123">
      <path
         d="m 1051.6989,212.51835 -30.7615,17.76021 v 35.52041 l 30.7615,17.76021 30.7616,-17.76021 v -35.52041 z"
         clip-path="url(#p05136f1e1b)"
         style="fill:#ffffff;stroke:#000000;stroke-width:2;stroke-linejoin:miter"
         id="path374" />
    </g>
    <g
       id="patch_124">
      <path
         d="m 1082.4605,159.23774 -30.7616,17.7602 v 35.52041 l 30.7616,17.76021 30.7616,-17.76021 v -35.52041 z"
         clip-path="url(#p05136f1e1b)"
         style="fill:#ffffff;stroke:#000000;stroke-width:2;stroke-linejoin:miter"
         id="path377" />
    </g>
    <g
       id="patch_125">
      <path
         d="m 1113.2221,105.95712 -30.7616,17.76021 v 35.52041 l 30.7616,17.7602 30.7616,-17.7602 v -35.52041 z"
         clip-path="url(#p05136f1e1b)"
         style="fill:#0000ff;stroke:#000000;stroke-width:2;stroke-linejoin:miter"
         id="path380" />
    </g>
    <g
       id="patch_126">
      <path
         d="m 1143.9837,52.676502 -30.7616,17.760206 v 35.520412 l 30.7616,17.76021 30.7616,-17.76021 V 70.436708 Z"
         clip-path="url(#p05136f1e1b)"
         style="fill:#ff0000;stroke:#000000;stroke-width:2;stroke-linejoin:miter"
         id="path383" />
    </g>
  </g>
  <defs
     id="defs391">
    <clipPath
       id="p05136f1e1b">
      <rect
         x="90.399609"
         y="10.8"
         width="1184.320781"
         height="687.6"
         id="rect388" />
    </clipPath>
  </defs>
  <text
     xml:space="preserve"
     style="font-weight:bold;font-size:48px;font-family:sans-serif;-inkscape-font-specification:'sans-serif Bold';fill:#000000;stroke:#000000;stroke-width:1.60157"
     x="511.96365"
     y="101.99242"
     id="text985"><tspan
       sodipodi:role="line"
       id="tspan983"
       style="stroke-width:1.60157"
       x="511.96365"
       y="101.99242">A</tspan></text>
  <text
     xml:space="preserve"
     style="font-weight:bold;font-size:48px;font-family:sans-serif;-inkscape-font-specification:'sans-serif Bold';fill:#ffffff;stroke:#ffffff;stroke-width:1.60157;stroke-linecap:butt;stroke-linejoin:round;fill-opacity:1;stroke-opacity:1"
     x="1128.2708"
     y="103.94355"
     id="text985-3"><tspan
       sodipodi:role="line"
       id="tspan983-6"
       style="stroke-width:1.60157;fill:#ffffff;fill-opacity:1;stroke:#ffffff;stroke-opacity:1"
       x="1128.2708"
       y="103.94355">B</tspan></text>
</svg>
