<?xml version="1.0" encoding="utf-8" standalone="no"?>
<!DOCTYPE svg PUBLIC "-//W3C//DTD SVG 1.1//EN"
  "http://www.w3.org/Graphics/SVG/1.1/DTD/svg11.dtd">
<svg xmlns:xlink="http://www.w3.org/1999/xlink" width="460.8pt" height="345.6pt" viewBox="0 0 460.8 345.6" xmlns="http://www.w3.org/2000/svg" version="1.1">
 <metadata>
  <rdf:RDF xmlns:dc="http://purl.org/dc/elements/1.1/" xmlns:cc="http://creativecommons.org/ns#" xmlns:rdf="http://www.w3.org/1999/02/22-rdf-syntax-ns#">
   <cc:Work>
    <dc:type rdf:resource="http://purl.org/dc/dcmitype/StillImage"/>
    <dc:date>2023-03-14T03:17:42.225736</dc:date>
    <dc:format>image/svg+xml</dc:format>
    <dc:creator>
     <cc:Agent>
      <dc:title>Matplotlib v3.5.2, https://matplotlib.org/</dc:title>
     </cc:Agent>
    </dc:creator>
   </cc:Work>
  </rdf:RDF>
 </metadata>
 <defs>
  <style type="text/css">*{stroke-linejoin: round; stroke-linecap: butt}</style>
 </defs>
 <g id="figure_1">
  <g id="patch_1">
   <path d="M 0 345.6 
L 460.8 345.6 
L 460.8 0 
L 0 0 
z
" style="fill: #ffffff"/>
  </g>
  <g id="axes_1">
   <g id="patch_2">
    <path d="M 50.87 303.64 
L 448.392286 303.64 
L 448.392286 10.8 
L 50.87 10.8 
z
" style="fill: #ffffff"/>
   </g>
   <g id="PathCollection_1">
    <defs>
     <path id="md810e8ca33" d="M -3 3 
L 3 -3 
M -3 -3 
L 3 3 
" style="stroke: #ff0000; stroke-width: 1.5"/>
    </defs>
    <g clip-path="url(#p0cf206db62)">
     <use xlink:href="#md810e8ca33" x="54.907038" y="301.647891" style="fill: #ff0000; stroke: #ff0000; stroke-width: 1.5"/>
     <use xlink:href="#md810e8ca33" x="68.225" y="206.425088" style="fill: #ff0000; stroke: #ff0000; stroke-width: 1.5"/>
     <use xlink:href="#md810e8ca33" x="90.018029" y="168.176599" style="fill: #ff0000; stroke: #ff0000; stroke-width: 1.5"/>
     <use xlink:href="#md810e8ca33" x="117.864678" y="161.005007" style="fill: #ff0000; stroke: #ff0000; stroke-width: 1.5"/>
     <use xlink:href="#md810e8ca33" x="150.554221" y="154.630259" style="fill: #ff0000; stroke: #ff0000; stroke-width: 1.5"/>
     <use xlink:href="#md810e8ca33" x="189.297384" y="143.474449" style="fill: #ff0000; stroke: #ff0000; stroke-width: 1.5"/>
     <use xlink:href="#md810e8ca33" x="240.147786" y="152.239728" style="fill: #ff0000; stroke: #ff0000; stroke-width: 1.5"/>
    </g>
   </g>
   <g id="matplotlib.axis_1">
    <g id="xtick_1">
     <g id="line2d_1">
      <defs>
       <path id="m3918b30fa8" d="M 0 0 
L 0 3.5 
" style="stroke: #000000; stroke-width: 0.8"/>
      </defs>
      <g>
       <use xlink:href="#m3918b30fa8" x="54.907038" y="303.64" style="stroke: #000000; stroke-width: 0.8"/>
      </g>
     </g>
     <g id="text_1">
      <!-- 0 -->
      <g transform="translate(51.725788 318.238437)scale(0.1 -0.1)">
       <defs>
        <path id="DejaVuSans-30" d="M 2034 4250 
Q 1547 4250 1301 3770 
Q 1056 3291 1056 2328 
Q 1056 1369 1301 889 
Q 1547 409 2034 409 
Q 2525 409 2770 889 
Q 3016 1369 3016 2328 
Q 3016 3291 2770 3770 
Q 2525 4250 2034 4250 
z
M 2034 4750 
Q 2819 4750 3233 4129 
Q 3647 3509 3647 2328 
Q 3647 1150 3233 529 
Q 2819 -91 2034 -91 
Q 1250 -91 836 529 
Q 422 1150 422 2328 
Q 422 3509 836 4129 
Q 1250 4750 2034 4750 
z
" transform="scale(0.015625)"/>
       </defs>
       <use xlink:href="#DejaVuSans-30"/>
      </g>
     </g>
    </g>
    <g id="xtick_2">
     <g id="line2d_2">
      <g>
       <use xlink:href="#m3918b30fa8" x="135.647798" y="303.64" style="stroke: #000000; stroke-width: 0.8"/>
      </g>
     </g>
     <g id="text_2">
      <!-- 20 -->
      <g transform="translate(129.285298 318.238437)scale(0.1 -0.1)">
       <defs>
        <path id="DejaVuSans-32" d="M 1228 531 
L 3431 531 
L 3431 0 
L 469 0 
L 469 531 
Q 828 903 1448 1529 
Q 2069 2156 2228 2338 
Q 2531 2678 2651 2914 
Q 2772 3150 2772 3378 
Q 2772 3750 2511 3984 
Q 2250 4219 1831 4219 
Q 1534 4219 1204 4116 
Q 875 4013 500 3803 
L 500 4441 
Q 881 4594 1212 4672 
Q 1544 4750 1819 4750 
Q 2544 4750 2975 4387 
Q 3406 4025 3406 3419 
Q 3406 3131 3298 2873 
Q 3191 2616 2906 2266 
Q 2828 2175 2409 1742 
Q 1991 1309 1228 531 
z
" transform="scale(0.015625)"/>
       </defs>
       <use xlink:href="#DejaVuSans-32"/>
       <use xlink:href="#DejaVuSans-30" x="63.623047"/>
      </g>
     </g>
    </g>
    <g id="xtick_3">
     <g id="line2d_3">
      <g>
       <use xlink:href="#m3918b30fa8" x="216.388557" y="303.64" style="stroke: #000000; stroke-width: 0.8"/>
      </g>
     </g>
     <g id="text_3">
      <!-- 40 -->
      <g transform="translate(210.026057 318.238437)scale(0.1 -0.1)">
       <defs>
        <path id="DejaVuSans-34" d="M 2419 4116 
L 825 1625 
L 2419 1625 
L 2419 4116 
z
M 2253 4666 
L 3047 4666 
L 3047 1625 
L 3713 1625 
L 3713 1100 
L 3047 1100 
L 3047 0 
L 2419 0 
L 2419 1100 
L 313 1100 
L 313 1709 
L 2253 4666 
z
" transform="scale(0.015625)"/>
       </defs>
       <use xlink:href="#DejaVuSans-34"/>
       <use xlink:href="#DejaVuSans-30" x="63.623047"/>
      </g>
     </g>
    </g>
    <g id="xtick_4">
     <g id="line2d_4">
      <g>
       <use xlink:href="#m3918b30fa8" x="297.129317" y="303.64" style="stroke: #000000; stroke-width: 0.8"/>
      </g>
     </g>
     <g id="text_4">
      <!-- 60 -->
      <g transform="translate(290.766817 318.238437)scale(0.1 -0.1)">
       <defs>
        <path id="DejaVuSans-36" d="M 2113 2584 
Q 1688 2584 1439 2293 
Q 1191 2003 1191 1497 
Q 1191 994 1439 701 
Q 1688 409 2113 409 
Q 2538 409 2786 701 
Q 3034 994 3034 1497 
Q 3034 2003 2786 2293 
Q 2538 2584 2113 2584 
z
M 3366 4563 
L 3366 3988 
Q 3128 4100 2886 4159 
Q 2644 4219 2406 4219 
Q 1781 4219 1451 3797 
Q 1122 3375 1075 2522 
Q 1259 2794 1537 2939 
Q 1816 3084 2150 3084 
Q 2853 3084 3261 2657 
Q 3669 2231 3669 1497 
Q 3669 778 3244 343 
Q 2819 -91 2113 -91 
Q 1303 -91 875 529 
Q 447 1150 447 2328 
Q 447 3434 972 4092 
Q 1497 4750 2381 4750 
Q 2619 4750 2861 4703 
Q 3103 4656 3366 4563 
z
" transform="scale(0.015625)"/>
       </defs>
       <use xlink:href="#DejaVuSans-36"/>
       <use xlink:href="#DejaVuSans-30" x="63.623047"/>
      </g>
     </g>
    </g>
    <g id="xtick_5">
     <g id="line2d_5">
      <g>
       <use xlink:href="#m3918b30fa8" x="377.870077" y="303.64" style="stroke: #000000; stroke-width: 0.8"/>
      </g>
     </g>
     <g id="text_5">
      <!-- 80 -->
      <g transform="translate(371.507577 318.238437)scale(0.1 -0.1)">
       <defs>
        <path id="DejaVuSans-38" d="M 2034 2216 
Q 1584 2216 1326 1975 
Q 1069 1734 1069 1313 
Q 1069 891 1326 650 
Q 1584 409 2034 409 
Q 2484 409 2743 651 
Q 3003 894 3003 1313 
Q 3003 1734 2745 1975 
Q 2488 2216 2034 2216 
z
M 1403 2484 
Q 997 2584 770 2862 
Q 544 3141 544 3541 
Q 544 4100 942 4425 
Q 1341 4750 2034 4750 
Q 2731 4750 3128 4425 
Q 3525 4100 3525 3541 
Q 3525 3141 3298 2862 
Q 3072 2584 2669 2484 
Q 3125 2378 3379 2068 
Q 3634 1759 3634 1313 
Q 3634 634 3220 271 
Q 2806 -91 2034 -91 
Q 1263 -91 848 271 
Q 434 634 434 1313 
Q 434 1759 690 2068 
Q 947 2378 1403 2484 
z
M 1172 3481 
Q 1172 3119 1398 2916 
Q 1625 2713 2034 2713 
Q 2441 2713 2670 2916 
Q 2900 3119 2900 3481 
Q 2900 3844 2670 4047 
Q 2441 4250 2034 4250 
Q 1625 4250 1398 4047 
Q 1172 3844 1172 3481 
z
" transform="scale(0.015625)"/>
       </defs>
       <use xlink:href="#DejaVuSans-38"/>
       <use xlink:href="#DejaVuSans-30" x="63.623047"/>
      </g>
     </g>
    </g>
    <g id="text_6">
     <!-- game frame (millions) -->
     <g transform="translate(194.280362 331.916562)scale(0.1 -0.1)">
      <defs>
       <path id="DejaVuSans-67" d="M 2906 1791 
Q 2906 2416 2648 2759 
Q 2391 3103 1925 3103 
Q 1463 3103 1205 2759 
Q 947 2416 947 1791 
Q 947 1169 1205 825 
Q 1463 481 1925 481 
Q 2391 481 2648 825 
Q 2906 1169 2906 1791 
z
M 3481 434 
Q 3481 -459 3084 -895 
Q 2688 -1331 1869 -1331 
Q 1566 -1331 1297 -1286 
Q 1028 -1241 775 -1147 
L 775 -588 
Q 1028 -725 1275 -790 
Q 1522 -856 1778 -856 
Q 2344 -856 2625 -561 
Q 2906 -266 2906 331 
L 2906 616 
Q 2728 306 2450 153 
Q 2172 0 1784 0 
Q 1141 0 747 490 
Q 353 981 353 1791 
Q 353 2603 747 3093 
Q 1141 3584 1784 3584 
Q 2172 3584 2450 3431 
Q 2728 3278 2906 2969 
L 2906 3500 
L 3481 3500 
L 3481 434 
z
" transform="scale(0.015625)"/>
       <path id="DejaVuSans-61" d="M 2194 1759 
Q 1497 1759 1228 1600 
Q 959 1441 959 1056 
Q 959 750 1161 570 
Q 1363 391 1709 391 
Q 2188 391 2477 730 
Q 2766 1069 2766 1631 
L 2766 1759 
L 2194 1759 
z
M 3341 1997 
L 3341 0 
L 2766 0 
L 2766 531 
Q 2569 213 2275 61 
Q 1981 -91 1556 -91 
Q 1019 -91 701 211 
Q 384 513 384 1019 
Q 384 1609 779 1909 
Q 1175 2209 1959 2209 
L 2766 2209 
L 2766 2266 
Q 2766 2663 2505 2880 
Q 2244 3097 1772 3097 
Q 1472 3097 1187 3025 
Q 903 2953 641 2809 
L 641 3341 
Q 956 3463 1253 3523 
Q 1550 3584 1831 3584 
Q 2591 3584 2966 3190 
Q 3341 2797 3341 1997 
z
" transform="scale(0.015625)"/>
       <path id="DejaVuSans-6d" d="M 3328 2828 
Q 3544 3216 3844 3400 
Q 4144 3584 4550 3584 
Q 5097 3584 5394 3201 
Q 5691 2819 5691 2113 
L 5691 0 
L 5113 0 
L 5113 2094 
Q 5113 2597 4934 2840 
Q 4756 3084 4391 3084 
Q 3944 3084 3684 2787 
Q 3425 2491 3425 1978 
L 3425 0 
L 2847 0 
L 2847 2094 
Q 2847 2600 2669 2842 
Q 2491 3084 2119 3084 
Q 1678 3084 1418 2786 
Q 1159 2488 1159 1978 
L 1159 0 
L 581 0 
L 581 3500 
L 1159 3500 
L 1159 2956 
Q 1356 3278 1631 3431 
Q 1906 3584 2284 3584 
Q 2666 3584 2933 3390 
Q 3200 3197 3328 2828 
z
" transform="scale(0.015625)"/>
       <path id="DejaVuSans-65" d="M 3597 1894 
L 3597 1613 
L 953 1613 
Q 991 1019 1311 708 
Q 1631 397 2203 397 
Q 2534 397 2845 478 
Q 3156 559 3463 722 
L 3463 178 
Q 3153 47 2828 -22 
Q 2503 -91 2169 -91 
Q 1331 -91 842 396 
Q 353 884 353 1716 
Q 353 2575 817 3079 
Q 1281 3584 2069 3584 
Q 2775 3584 3186 3129 
Q 3597 2675 3597 1894 
z
M 3022 2063 
Q 3016 2534 2758 2815 
Q 2500 3097 2075 3097 
Q 1594 3097 1305 2825 
Q 1016 2553 972 2059 
L 3022 2063 
z
" transform="scale(0.015625)"/>
       <path id="DejaVuSans-20" transform="scale(0.015625)"/>
       <path id="DejaVuSans-66" d="M 2375 4863 
L 2375 4384 
L 1825 4384 
Q 1516 4384 1395 4259 
Q 1275 4134 1275 3809 
L 1275 3500 
L 2222 3500 
L 2222 3053 
L 1275 3053 
L 1275 0 
L 697 0 
L 697 3053 
L 147 3053 
L 147 3500 
L 697 3500 
L 697 3744 
Q 697 4328 969 4595 
Q 1241 4863 1831 4863 
L 2375 4863 
z
" transform="scale(0.015625)"/>
       <path id="DejaVuSans-72" d="M 2631 2963 
Q 2534 3019 2420 3045 
Q 2306 3072 2169 3072 
Q 1681 3072 1420 2755 
Q 1159 2438 1159 1844 
L 1159 0 
L 581 0 
L 581 3500 
L 1159 3500 
L 1159 2956 
Q 1341 3275 1631 3429 
Q 1922 3584 2338 3584 
Q 2397 3584 2469 3576 
Q 2541 3569 2628 3553 
L 2631 2963 
z
" transform="scale(0.015625)"/>
       <path id="DejaVuSans-28" d="M 1984 4856 
Q 1566 4138 1362 3434 
Q 1159 2731 1159 2009 
Q 1159 1288 1364 580 
Q 1569 -128 1984 -844 
L 1484 -844 
Q 1016 -109 783 600 
Q 550 1309 550 2009 
Q 550 2706 781 3412 
Q 1013 4119 1484 4856 
L 1984 4856 
z
" transform="scale(0.015625)"/>
       <path id="DejaVuSans-69" d="M 603 3500 
L 1178 3500 
L 1178 0 
L 603 0 
L 603 3500 
z
M 603 4863 
L 1178 4863 
L 1178 4134 
L 603 4134 
L 603 4863 
z
" transform="scale(0.015625)"/>
       <path id="DejaVuSans-6c" d="M 603 4863 
L 1178 4863 
L 1178 0 
L 603 0 
L 603 4863 
z
" transform="scale(0.015625)"/>
       <path id="DejaVuSans-6f" d="M 1959 3097 
Q 1497 3097 1228 2736 
Q 959 2375 959 1747 
Q 959 1119 1226 758 
Q 1494 397 1959 397 
Q 2419 397 2687 759 
Q 2956 1122 2956 1747 
Q 2956 2369 2687 2733 
Q 2419 3097 1959 3097 
z
M 1959 3584 
Q 2709 3584 3137 3096 
Q 3566 2609 3566 1747 
Q 3566 888 3137 398 
Q 2709 -91 1959 -91 
Q 1206 -91 779 398 
Q 353 888 353 1747 
Q 353 2609 779 3096 
Q 1206 3584 1959 3584 
z
" transform="scale(0.015625)"/>
       <path id="DejaVuSans-6e" d="M 3513 2113 
L 3513 0 
L 2938 0 
L 2938 2094 
Q 2938 2591 2744 2837 
Q 2550 3084 2163 3084 
Q 1697 3084 1428 2787 
Q 1159 2491 1159 1978 
L 1159 0 
L 581 0 
L 581 3500 
L 1159 3500 
L 1159 2956 
Q 1366 3272 1645 3428 
Q 1925 3584 2291 3584 
Q 2894 3584 3203 3211 
Q 3513 2838 3513 2113 
z
" transform="scale(0.015625)"/>
       <path id="DejaVuSans-73" d="M 2834 3397 
L 2834 2853 
Q 2591 2978 2328 3040 
Q 2066 3103 1784 3103 
Q 1356 3103 1142 2972 
Q 928 2841 928 2578 
Q 928 2378 1081 2264 
Q 1234 2150 1697 2047 
L 1894 2003 
Q 2506 1872 2764 1633 
Q 3022 1394 3022 966 
Q 3022 478 2636 193 
Q 2250 -91 1575 -91 
Q 1294 -91 989 -36 
Q 684 19 347 128 
L 347 722 
Q 666 556 975 473 
Q 1284 391 1588 391 
Q 1994 391 2212 530 
Q 2431 669 2431 922 
Q 2431 1156 2273 1281 
Q 2116 1406 1581 1522 
L 1381 1569 
Q 847 1681 609 1914 
Q 372 2147 372 2553 
Q 372 3047 722 3315 
Q 1072 3584 1716 3584 
Q 2034 3584 2315 3537 
Q 2597 3491 2834 3397 
z
" transform="scale(0.015625)"/>
       <path id="DejaVuSans-29" d="M 513 4856 
L 1013 4856 
Q 1481 4119 1714 3412 
Q 1947 2706 1947 2009 
Q 1947 1309 1714 600 
Q 1481 -109 1013 -844 
L 513 -844 
Q 928 -128 1133 580 
Q 1338 1288 1338 2009 
Q 1338 2731 1133 3434 
Q 928 4138 513 4856 
z
" transform="scale(0.015625)"/>
      </defs>
      <use xlink:href="#DejaVuSans-67"/>
      <use xlink:href="#DejaVuSans-61" x="63.476562"/>
      <use xlink:href="#DejaVuSans-6d" x="124.755859"/>
      <use xlink:href="#DejaVuSans-65" x="222.167969"/>
      <use xlink:href="#DejaVuSans-20" x="283.691406"/>
      <use xlink:href="#DejaVuSans-66" x="315.478516"/>
      <use xlink:href="#DejaVuSans-72" x="350.683594"/>
      <use xlink:href="#DejaVuSans-61" x="391.796875"/>
      <use xlink:href="#DejaVuSans-6d" x="453.076172"/>
      <use xlink:href="#DejaVuSans-65" x="550.488281"/>
      <use xlink:href="#DejaVuSans-20" x="612.011719"/>
      <use xlink:href="#DejaVuSans-28" x="643.798828"/>
      <use xlink:href="#DejaVuSans-6d" x="682.8125"/>
      <use xlink:href="#DejaVuSans-69" x="780.224609"/>
      <use xlink:href="#DejaVuSans-6c" x="808.007812"/>
      <use xlink:href="#DejaVuSans-6c" x="835.791016"/>
      <use xlink:href="#DejaVuSans-69" x="863.574219"/>
      <use xlink:href="#DejaVuSans-6f" x="891.357422"/>
      <use xlink:href="#DejaVuSans-6e" x="952.539062"/>
      <use xlink:href="#DejaVuSans-73" x="1015.917969"/>
      <use xlink:href="#DejaVuSans-29" x="1068.017578"/>
     </g>
    </g>
   </g>
   <g id="matplotlib.axis_2">
    <g id="ytick_1">
     <g id="line2d_6">
      <defs>
       <path id="m08c10ee490" d="M 0 0 
L -3.5 0 
" style="stroke: #000000; stroke-width: 0.8"/>
      </defs>
      <g>
       <use xlink:href="#m08c10ee490" x="50.87" y="284.914177" style="stroke: #000000; stroke-width: 0.8"/>
      </g>
     </g>
     <g id="text_7">
      <!-- 0 -->
      <g transform="translate(37.5075 288.713396)scale(0.1 -0.1)">
       <use xlink:href="#DejaVuSans-30"/>
      </g>
     </g>
    </g>
    <g id="ytick_2">
     <g id="line2d_7">
      <g>
       <use xlink:href="#m08c10ee490" x="50.87" y="245.072" style="stroke: #000000; stroke-width: 0.8"/>
      </g>
     </g>
     <g id="text_8">
      <!-- 100 -->
      <g transform="translate(24.7825 248.871219)scale(0.1 -0.1)">
       <defs>
        <path id="DejaVuSans-31" d="M 794 531 
L 1825 531 
L 1825 4091 
L 703 3866 
L 703 4441 
L 1819 4666 
L 2450 4666 
L 2450 531 
L 3481 531 
L 3481 0 
L 794 0 
L 794 531 
z
" transform="scale(0.015625)"/>
       </defs>
       <use xlink:href="#DejaVuSans-31"/>
       <use xlink:href="#DejaVuSans-30" x="63.623047"/>
       <use xlink:href="#DejaVuSans-30" x="127.246094"/>
      </g>
     </g>
    </g>
    <g id="ytick_3">
     <g id="line2d_8">
      <g>
       <use xlink:href="#m08c10ee490" x="50.87" y="205.229823" style="stroke: #000000; stroke-width: 0.8"/>
      </g>
     </g>
     <g id="text_9">
      <!-- 200 -->
      <g transform="translate(24.7825 209.029042)scale(0.1 -0.1)">
       <use xlink:href="#DejaVuSans-32"/>
       <use xlink:href="#DejaVuSans-30" x="63.623047"/>
       <use xlink:href="#DejaVuSans-30" x="127.246094"/>
      </g>
     </g>
    </g>
    <g id="ytick_4">
     <g id="line2d_9">
      <g>
       <use xlink:href="#m08c10ee490" x="50.87" y="165.387646" style="stroke: #000000; stroke-width: 0.8"/>
      </g>
     </g>
     <g id="text_10">
      <!-- 300 -->
      <g transform="translate(24.7825 169.186865)scale(0.1 -0.1)">
       <defs>
        <path id="DejaVuSans-33" d="M 2597 2516 
Q 3050 2419 3304 2112 
Q 3559 1806 3559 1356 
Q 3559 666 3084 287 
Q 2609 -91 1734 -91 
Q 1441 -91 1130 -33 
Q 819 25 488 141 
L 488 750 
Q 750 597 1062 519 
Q 1375 441 1716 441 
Q 2309 441 2620 675 
Q 2931 909 2931 1356 
Q 2931 1769 2642 2001 
Q 2353 2234 1838 2234 
L 1294 2234 
L 1294 2753 
L 1863 2753 
Q 2328 2753 2575 2939 
Q 2822 3125 2822 3475 
Q 2822 3834 2567 4026 
Q 2313 4219 1838 4219 
Q 1578 4219 1281 4162 
Q 984 4106 628 3988 
L 628 4550 
Q 988 4650 1302 4700 
Q 1616 4750 1894 4750 
Q 2613 4750 3031 4423 
Q 3450 4097 3450 3541 
Q 3450 3153 3228 2886 
Q 3006 2619 2597 2516 
z
" transform="scale(0.015625)"/>
       </defs>
       <use xlink:href="#DejaVuSans-33"/>
       <use xlink:href="#DejaVuSans-30" x="63.623047"/>
       <use xlink:href="#DejaVuSans-30" x="127.246094"/>
      </g>
     </g>
    </g>
    <g id="ytick_5">
     <g id="line2d_10">
      <g>
       <use xlink:href="#m08c10ee490" x="50.87" y="125.545469" style="stroke: #000000; stroke-width: 0.8"/>
      </g>
     </g>
     <g id="text_11">
      <!-- 400 -->
      <g transform="translate(24.7825 129.344688)scale(0.1 -0.1)">
       <use xlink:href="#DejaVuSans-34"/>
       <use xlink:href="#DejaVuSans-30" x="63.623047"/>
       <use xlink:href="#DejaVuSans-30" x="127.246094"/>
      </g>
     </g>
    </g>
    <g id="ytick_6">
     <g id="line2d_11">
      <g>
       <use xlink:href="#m08c10ee490" x="50.87" y="85.703293" style="stroke: #000000; stroke-width: 0.8"/>
      </g>
     </g>
     <g id="text_12">
      <!-- 500 -->
      <g transform="translate(24.7825 89.502511)scale(0.1 -0.1)">
       <defs>
        <path id="DejaVuSans-35" d="M 691 4666 
L 3169 4666 
L 3169 4134 
L 1269 4134 
L 1269 2991 
Q 1406 3038 1543 3061 
Q 1681 3084 1819 3084 
Q 2600 3084 3056 2656 
Q 3513 2228 3513 1497 
Q 3513 744 3044 326 
Q 2575 -91 1722 -91 
Q 1428 -91 1123 -41 
Q 819 9 494 109 
L 494 744 
Q 775 591 1075 516 
Q 1375 441 1709 441 
Q 2250 441 2565 725 
Q 2881 1009 2881 1497 
Q 2881 1984 2565 2268 
Q 2250 2553 1709 2553 
Q 1456 2553 1204 2497 
Q 953 2441 691 2322 
L 691 4666 
z
" transform="scale(0.015625)"/>
       </defs>
       <use xlink:href="#DejaVuSans-35"/>
       <use xlink:href="#DejaVuSans-30" x="63.623047"/>
       <use xlink:href="#DejaVuSans-30" x="127.246094"/>
      </g>
     </g>
    </g>
    <g id="ytick_7">
     <g id="line2d_12">
      <g>
       <use xlink:href="#m08c10ee490" x="50.87" y="45.861116" style="stroke: #000000; stroke-width: 0.8"/>
      </g>
     </g>
     <g id="text_13">
      <!-- 600 -->
      <g transform="translate(24.7825 49.660334)scale(0.1 -0.1)">
       <use xlink:href="#DejaVuSans-36"/>
       <use xlink:href="#DejaVuSans-30" x="63.623047"/>
       <use xlink:href="#DejaVuSans-30" x="127.246094"/>
      </g>
     </g>
    </g>
    <g id="text_14">
     <!-- elo -->
     <g transform="translate(18.702813 164.745)rotate(-90)scale(0.1 -0.1)">
      <use xlink:href="#DejaVuSans-65"/>
      <use xlink:href="#DejaVuSans-6c" x="61.523438"/>
      <use xlink:href="#DejaVuSans-6f" x="89.306641"/>
     </g>
    </g>
   </g>
   <g id="line2d_13">
    <path d="M 54.907038 301.647891 
L 56.117762 193.675592 
L 57.328486 143.076027 
L 58.53921 141.48234 
L 59.749933 125.147048 
L 60.960657 110.405442 
L 62.171381 86.898558 
L 63.382105 86.898558 
L 64.592829 84.906449 
L 65.803553 90.882776 
L 67.014276 70.961687 
" clip-path="url(#p0cf206db62)" style="fill: none; stroke: #1f77b4; stroke-width: 1.5; stroke-linecap: square"/>
   </g>
   <g id="line2d_14">
    <path d="M 68.225 206.425088 
L 69.435724 157.020789 
L 70.646448 125.943891 
L 71.857172 115.584925 
L 73.067896 100.444898 
L 74.278619 84.906449 
L 75.489343 71.360109 
L 76.700067 58.21219 
L 77.910791 44.267429 
L 79.121515 20.760544 
L 80.332239 39.486367 
L 81.542962 31.916354 
L 82.753686 30.721088 
L 83.96441 15.182639 
L 85.175134 17.971592 
L 86.385858 14.385796 
L 87.596582 12.792109 
L 88.807306 18.768435 
" clip-path="url(#p0cf206db62)" style="fill: none; stroke: #1f77b4; stroke-width: 1.5; stroke-linecap: square"/>
   </g>
   <g id="line2d_15">
    <path d="M 90.018029 168.176599 
L 91.228753 144.669714 
L 92.439477 125.147048 
L 93.650201 119.569143 
L 94.860925 99.249633 
L 96.071649 93.273306 
L 97.282372 96.062259 
L 98.493096 91.679619 
L 99.70382 83.312762 
L 100.914544 75.344327 
L 102.125268 73.750639 
L 103.335992 77.734857 
L 104.546715 76.539592 
L 105.757439 62.196408 
L 106.968163 49.04849 
L 108.178887 57.415347 
L 109.389611 61.001143 
L 110.600335 71.758531 
L 111.811058 69.766422 
L 113.021782 35.900571 
L 114.232506 53.431129 
L 115.44323 39.087946 
L 116.653954 20.362122 
" clip-path="url(#p0cf206db62)" style="fill: none; stroke: #1f77b4; stroke-width: 1.5; stroke-linecap: square"/>
   </g>
   <g id="line2d_16">
    <path d="M 117.864678 161.005007 
L 119.075402 139.888653 
L 120.286125 134.310748 
L 121.496849 123.553361 
L 122.707573 121.959673 
L 123.918297 104.030694 
L 125.129021 108.811755 
L 126.339745 99.648054 
L 127.550468 84.906449 
L 128.761192 94.07015 
L 129.971916 102.437007 
L 131.18264 100.046476 
L 132.393364 90.484354 
L 133.604088 85.703293 
L 134.814811 74.547483 
L 136.025535 80.125388 
L 137.236259 79.328544 
L 138.446983 66.579048 
L 139.657707 64.188517 
L 140.868431 74.149061 
L 142.079154 68.172735 
L 143.289878 58.21219 
L 144.500602 61.797986 
L 145.711326 71.758531 
L 146.92205 69.368 
L 148.132774 68.172735 
L 149.343498 42.27532 
" clip-path="url(#p0cf206db62)" style="fill: none; stroke: #1f77b4; stroke-width: 1.5; stroke-linecap: square"/>
   </g>
   <g id="line2d_17">
    <path d="M 150.554221 154.630259 
L 151.764945 134.70917 
L 152.975669 127.936 
L 154.186393 116.78019 
L 155.397117 120.764408 
L 156.607841 113.194395 
L 157.818564 104.030694 
L 159.029288 110.00702 
L 160.240012 100.046476 
L 161.450736 94.468571 
L 162.66146 97.655946 
L 163.872184 100.84332 
L 165.082907 89.289088 
L 166.293631 94.07015 
L 167.504355 88.890667 
L 168.715079 80.922231 
L 169.925803 86.898558 
L 171.136527 90.882776 
L 172.34725 81.719075 
L 173.557974 84.508027 
L 174.768698 85.304871 
L 175.979422 74.945905 
L 177.190146 76.14117 
L 178.40087 72.156952 
L 179.611594 71.360109 
L 180.822317 87.29698 
L 182.033041 73.750639 
L 183.243765 67.375891 
L 184.454489 88.093823 
L 185.665213 73.352218 
L 186.875937 68.172735 
L 188.08666 71.360109 
" clip-path="url(#p0cf206db62)" style="fill: none; stroke: #1f77b4; stroke-width: 1.5; stroke-linecap: square"/>
   </g>
   <g id="line2d_18">
    <path d="M 189.297384 143.474449 
L 190.508108 144.669714 
L 191.718832 127.139156 
L 194.14028 151.841306 
L 195.351003 133.513905 
L 202.615346 135.904435 
L 203.82607 123.154939 
L 220.776204 121.561252 
L 230.461995 98.851211 
L 236.515614 66.180626 
L 237.726338 70.961687 
" clip-path="url(#p0cf206db62)" style="fill: none; stroke: #1f77b4; stroke-width: 1.5; stroke-linecap: square"/>
   </g>
   <g id="line2d_19">
    <path d="M 240.147786 152.239728 
L 241.358509 147.060245 
L 243.779957 119.569143 
L 244.990681 120.764408 
L 247.412129 127.139156 
L 248.622852 119.569143 
L 249.833576 113.991238 
L 251.0443 119.569143 
L 252.255024 109.608599 
L 253.465748 121.561252 
L 254.676472 112.397551 
L 255.887195 111.202286 
L 257.097919 114.38966 
L 258.308643 119.170721 
L 259.519367 113.194395 
L 260.730091 106.022803 
L 261.940815 116.78019 
L 263.151538 102.437007 
L 264.362262 108.413333 
L 265.572986 108.014912 
L 266.78371 99.648054 
L 267.994434 95.265415 
L 269.205158 100.444898 
L 270.415882 97.257524 
L 271.626605 104.030694 
L 272.837329 88.492245 
L 274.048053 94.468571 
L 275.258777 90.484354 
L 276.469501 90.484354 
L 277.680225 97.257524 
L 278.890948 87.695401 
L 280.101672 84.109605 
L 281.312396 96.859102 
L 282.52312 90.085932 
L 283.733844 85.304871 
L 284.944568 91.281197 
L 286.155291 79.328544 
L 287.366015 80.52381 
L 288.576739 70.961687 
L 289.787463 81.320653 
L 290.998187 82.91434 
L 292.208911 86.101714 
L 293.419634 82.117497 
L 294.630358 68.969578 
L 295.841082 84.906449 
L 297.051806 88.093823 
L 298.26253 74.547483 
L 299.473254 81.320653 
L 300.683978 69.368 
L 301.894701 76.938014 
L 303.105425 74.945905 
L 304.316149 84.508027 
L 305.526873 85.304871 
L 306.737597 72.953796 
L 307.948321 74.945905 
L 309.159044 76.539592 
L 310.369768 70.164844 
L 311.580492 70.961687 
L 312.791216 79.328544 
L 314.00194 72.156952 
L 315.212664 68.969578 
L 316.423387 70.961687 
L 317.634111 68.969578 
L 318.844835 83.312762 
L 320.055559 75.344327 
L 321.266283 56.618503 
L 322.477007 69.368 
L 323.68773 68.571156 
L 324.898454 64.586939 
L 326.109178 63.391673 
L 327.319902 66.180626 
L 328.530626 56.220082 
L 329.74135 70.961687 
L 330.952074 68.571156 
L 332.162797 67.375891 
L 333.373521 67.774313 
L 334.584245 59.009034 
L 335.794969 60.602721 
L 337.005693 52.235864 
L 338.216417 72.953796 
L 339.42714 51.040599 
L 340.637864 51.43902 
L 341.848588 67.375891 
L 343.059312 52.634286 
L 344.270036 53.829551 
L 345.48076 56.618503 
L 346.691483 53.032707 
L 347.902207 52.634286 
L 349.112931 55.82166 
L 350.323655 74.149061 
L 351.534379 51.837442 
L 352.745103 70.164844 
L 353.955826 61.797986 
L 355.16655 58.610612 
L 356.377274 69.766422 
L 357.587998 53.032707 
L 358.798722 56.618503 
L 360.009446 47.056381 
L 361.22017 57.415347 
L 362.430893 50.243755 
L 363.641617 41.080054 
L 364.852341 41.478476 
L 366.063065 48.251646 
L 367.273789 54.227973 
L 368.484513 53.829551 
L 369.695236 36.298993 
L 372.116684 47.056381 
L 373.327408 47.454803 
L 374.538132 52.235864 
L 375.748856 53.032707 
L 376.959579 44.66585 
L 378.170303 27.932136 
L 379.381027 46.259537 
L 380.591751 51.837442 
L 381.802475 46.657959 
L 383.013199 51.837442 
L 384.223922 48.650068 
L 385.434646 43.072163 
L 386.64537 38.291102 
L 387.856094 54.626395 
L 389.066818 50.243755 
L 390.277542 36.697415 
L 391.488266 40.283211 
L 392.698989 52.235864 
L 395.120437 31.916354 
L 396.331161 38.689524 
L 397.541885 43.072163 
L 398.752609 32.314776 
L 399.963332 49.04849 
L 401.174056 38.291102 
L 402.38478 52.235864 
L 404.806228 42.27532 
L 406.016952 47.056381 
L 407.227675 40.681633 
L 408.438399 52.634286 
L 409.649123 54.227973 
L 410.859847 39.486367 
L 412.070571 36.697415 
L 413.281295 47.454803 
L 414.492018 41.080054 
L 415.702742 50.243755 
L 416.913466 46.657959 
L 418.12419 34.705306 
L 419.334914 55.024816 
L 420.545638 50.642177 
L 421.756362 27.932136 
L 422.967085 44.267429 
L 424.177809 41.876898 
L 425.388533 31.11951 
L 426.599257 36.697415 
L 429.020705 46.259537 
L 430.231428 27.932136 
L 431.442152 28.72898 
L 432.652876 56.220082 
L 433.8636 51.837442 
L 435.074324 46.657959 
L 436.285048 24.744762 
L 437.495771 37.89268 
L 438.706495 37.095837 
L 439.917219 45.462694 
L 441.127943 39.884789 
L 442.338667 43.470585 
L 443.549391 30.322667 
L 444.760115 41.876898 
L 445.970838 47.454803 
L 447.181562 49.446912 
L 448.392286 47.454803 
L 448.392286 47.454803 
" clip-path="url(#p0cf206db62)" style="fill: none; stroke: #1f77b4; stroke-width: 1.5; stroke-linecap: square"/>
   </g>
   <g id="LineCollection_1">
    <path d="M 68.225 303.64 
L 68.225 10.8 
" clip-path="url(#p0cf206db62)" style="fill: none; stroke-dasharray: 5.55,2.4; stroke-dashoffset: 0; stroke: #000000; stroke-width: 1.5"/>
    <path d="M 90.018029 303.64 
L 90.018029 10.8 
" clip-path="url(#p0cf206db62)" style="fill: none; stroke-dasharray: 5.55,2.4; stroke-dashoffset: 0; stroke: #000000; stroke-width: 1.5"/>
    <path d="M 117.864678 303.64 
L 117.864678 10.8 
" clip-path="url(#p0cf206db62)" style="fill: none; stroke-dasharray: 5.55,2.4; stroke-dashoffset: 0; stroke: #000000; stroke-width: 1.5"/>
    <path d="M 150.554221 303.64 
L 150.554221 10.8 
" clip-path="url(#p0cf206db62)" style="fill: none; stroke-dasharray: 5.55,2.4; stroke-dashoffset: 0; stroke: #000000; stroke-width: 1.5"/>
    <path d="M 189.297384 303.64 
L 189.297384 10.8 
" clip-path="url(#p0cf206db62)" style="fill: none; stroke-dasharray: 5.55,2.4; stroke-dashoffset: 0; stroke: #000000; stroke-width: 1.5"/>
    <path d="M 240.147786 303.64 
L 240.147786 10.8 
" clip-path="url(#p0cf206db62)" style="fill: none; stroke-dasharray: 5.55,2.4; stroke-dashoffset: 0; stroke: #000000; stroke-width: 1.5"/>
   </g>
   <g id="LineCollection_2">
    <path d="M 50.87 284.914177 
L 448.392286 284.914177 
" clip-path="url(#p0cf206db62)" style="fill: none; stroke-dasharray: 5.55,2.4; stroke-dashoffset: 0; stroke: #000000; stroke-width: 1.5"/>
   </g>
   <g id="patch_3">
    <path d="M 50.87 303.64 
L 50.87 10.8 
" style="fill: none; stroke: #000000; stroke-width: 0.8; stroke-linejoin: miter; stroke-linecap: square"/>
   </g>
   <g id="patch_4">
    <path d="M 448.392286 303.64 
L 448.392286 10.8 
" style="fill: none; stroke: #000000; stroke-width: 0.8; stroke-linejoin: miter; stroke-linecap: square"/>
   </g>
   <g id="patch_5">
    <path d="M 50.87 303.64 
L 448.392286 303.64 
" style="fill: none; stroke: #000000; stroke-width: 0.8; stroke-linejoin: miter; stroke-linecap: square"/>
   </g>
   <g id="patch_6">
    <path d="M 50.87 10.8 
L 448.392286 10.8 
" style="fill: none; stroke: #000000; stroke-width: 0.8; stroke-linejoin: miter; stroke-linecap: square"/>
   </g>
  </g>
 </g>
 <defs>
  <clipPath id="p0cf206db62">
   <rect x="50.87" y="10.8" width="397.522286" height="292.84"/>
  </clipPath>
 </defs>
</svg>
