<?xml version="1.0" encoding="UTF-8" standalone="no"?>
<svg
   width="688.32pt"
   height="371.52pt"
   viewBox="0 0 688.32 371.52"
   version="1.1"
   id="svg1361"
   sodipodi:docname="gnn_cnn_transfer_elo.svg"
   inkscape:version="1.2.2 (b0a8486541, 2022-12-01)"
   xmlns:inkscape="http://www.inkscape.org/namespaces/inkscape"
   xmlns:sodipodi="http://sodipodi.sourceforge.net/DTD/sodipodi-0.dtd"
   xmlns:xlink="http://www.w3.org/1999/xlink"
   xmlns="http://www.w3.org/2000/svg"
   xmlns:svg="http://www.w3.org/2000/svg"
   xmlns:rdf="http://www.w3.org/1999/02/22-rdf-syntax-ns#"
   xmlns:cc="http://creativecommons.org/ns#"
   xmlns:dc="http://purl.org/dc/elements/1.1/">
  <sodipodi:namedview
     id="namedview1363"
     pagecolor="#ffffff"
     bordercolor="#000000"
     borderopacity="0.25"
     inkscape:showpageshadow="2"
     inkscape:pageopacity="0.0"
     inkscape:pagecheckerboard="0"
     inkscape:deskcolor="#d1d1d1"
     inkscape:document-units="pt"
     showgrid="false"
     inkscape:zoom="1.6912304"
     inkscape:cx="442.57719"
     inkscape:cy="228.2362"
     inkscape:window-width="1896"
     inkscape:window-height="1027"
     inkscape:window-x="12"
     inkscape:window-y="41"
     inkscape:window-maximized="1"
     inkscape:current-layer="svg1361" />
  <metadata
     id="metadata1079">
    <rdf:RDF>
      <cc:Work>
        <dc:type
           rdf:resource="http://purl.org/dc/dcmitype/StillImage" />
        <dc:date>2023-02-16T21:12:51.264603</dc:date>
        <dc:format>image/svg+xml</dc:format>
        <dc:creator>
          <cc:Agent>
            <dc:title>Matplotlib v3.5.2, https://matplotlib.org/</dc:title>
          </cc:Agent>
        </dc:creator>
      </cc:Work>
    </rdf:RDF>
  </metadata>
  <defs
     id="defs1083">
    <marker
       style="overflow:visible"
       id="marker3291"
       refX="0"
       refY="0"
       orient="auto-start-reverse"
       inkscape:stockid="TriangleStart"
       markerWidth="4.9916334"
       markerHeight="5.6666179"
       viewBox="0 0 4.9916334 5.6666178"
       inkscape:isstock="true"
       inkscape:collect="always"
       preserveAspectRatio="xMidYMid">
      <path
         transform="scale(0.5)"
         style="fill:context-stroke;fill-rule:evenodd;stroke:context-stroke;stroke-width:1pt"
         d="M 5.77,0 -2.88,5 V -5 Z"
         id="path3289" />
    </marker>
    <marker
       style="overflow:visible"
       id="TriangleStart"
       refX="0"
       refY="0"
       orient="auto-start-reverse"
       inkscape:stockid="TriangleStart"
       markerWidth="4.9916334"
       markerHeight="5.6666179"
       viewBox="0 0 4.9916334 5.6666178"
       inkscape:isstock="true"
       inkscape:collect="always"
       preserveAspectRatio="xMidYMid">
      <path
         transform="scale(0.5)"
         style="fill:context-stroke;fill-rule:evenodd;stroke:context-stroke;stroke-width:1pt"
         d="M 5.77,0 -2.88,5 V -5 Z"
         id="path135" />
    </marker>
    <style
       type="text/css"
       id="style1081">*{stroke-linejoin: round; stroke-linecap: butt}</style>
  </defs>
  <g
     id="patch_3">
    <path
       d="m 110.28764,311.91827 h 16.7225 V 156.15029 h -16.7225 z"
       clip-path="url(#p83d2af2f53)"
       style="fill:#ff8c00"
       id="path1091" />
  </g>
  <g
     id="patch_4">
    <path
       d="m 166.02933,311.91827 h 16.72251 V 97.41367 h -16.72251 z"
       clip-path="url(#p83d2af2f53)"
       style="fill:#ff8c00"
       id="path1094" />
  </g>
  <g
     id="patch_5">
    <path
       d="m 221.77102,311.91827 h 16.72251 V 103.45639 h -16.72251 z"
       clip-path="url(#p83d2af2f53)"
       style="fill:#ff8c00"
       id="path1097" />
  </g>
  <g
     id="patch_6">
    <path
       d="m 277.51272,311.91827 h 16.7225 V 61.906085 h -16.7225 z"
       clip-path="url(#p83d2af2f53)"
       style="fill:#ff8c00"
       id="path1100" />
  </g>
  <g
     id="patch_7">
    <path
       d="m 333.25441,311.91827 h 16.72251 V 78.549767 h -16.72251 z"
       clip-path="url(#p83d2af2f53)"
       style="fill:#ff8c00"
       id="path1103" />
  </g>
  <g
     id="patch_8">
    <path
       d="m 388.9961,311.91827 h 16.72251 V 157.09249 H 388.9961 Z"
       clip-path="url(#p83d2af2f53)"
       style="fill:#ff8c00"
       id="path1106" />
  </g>
  <g
     id="patch_9">
    <path
       d="M 444.73779,311.91827 H 461.4603 V 223.13756 H 444.73779 Z"
       clip-path="url(#p83d2af2f53)"
       style="fill:#ff8c00"
       id="path1109" />
  </g>
  <g
     id="patch_10">
    <path
       d="m 500.47949,311.91827 h 16.7225 v -34.29231 h -16.7225 z"
       clip-path="url(#p83d2af2f53)"
       style="fill:#ff8c00"
       id="path1112" />
  </g>
  <g
     id="patch_11">
    <path
       d="m 556.22118,311.91827 h 16.72251 v 5.73133 h -16.72251 z"
       clip-path="url(#p83d2af2f53)"
       style="fill:#ff8c00"
       id="path1115" />
  </g>
  <g
     id="patch_12">
    <path
       d="m 132.58431,311.91827 h 16.72251 V 112.21506 h -16.72251 z"
       clip-path="url(#p83d2af2f53)"
       style="fill:#0000ff"
       id="path1118" />
  </g>
  <g
     id="patch_13">
    <path
       d="m 188.32601,311.91827 h 16.7225 V 100.80585 h -16.7225 z"
       clip-path="url(#p83d2af2f53)"
       style="fill:#0000ff"
       id="path1121" />
  </g>
  <g
     id="patch_14">
    <path
       d="m 244.0677,311.91827 h 16.72251 V 121.03936 H 244.0677 Z"
       clip-path="url(#p83d2af2f53)"
       style="fill:#0000ff"
       id="path1124" />
  </g>
  <g
     id="patch_15">
    <path
       d="M 299.80939,311.91827 H 316.5319 V 107.12284 h -16.72251 z"
       clip-path="url(#p83d2af2f53)"
       style="fill:#0000ff"
       id="path1127" />
  </g>
  <g
     id="patch_16">
    <path
       d="m 355.55108,311.91827 h 16.72251 V 106.6937 h -16.72251 z"
       clip-path="url(#p83d2af2f53)"
       style="fill:#0000ff"
       id="path1130" />
  </g>
  <g
     id="patch_17">
    <path
       d="m 411.29278,311.91827 h 16.7225 V 80.761947 h -16.7225 z"
       clip-path="url(#p83d2af2f53)"
       style="fill:#0000ff"
       id="path1133" />
  </g>
  <g
     id="patch_18">
    <path
       d="m 467.03447,311.91827 h 16.72251 V 72.494306 h -16.72251 z"
       clip-path="url(#p83d2af2f53)"
       style="fill:#0000ff"
       id="path1136" />
  </g>
  <g
     id="patch_19">
    <path
       d="m 522.77616,311.91827 h 16.72251 V 57.5856 h -16.72251 z"
       clip-path="url(#p83d2af2f53)"
       style="fill:#0000ff"
       id="path1139" />
  </g>
  <g
     id="patch_20">
    <path
       d="m 578.51786,311.91827 h 16.7225 V 87.426972 h -16.7225 z"
       clip-path="url(#p83d2af2f53)"
       style="fill:#0000ff"
       id="path1142" />
  </g>
  <g
     id="matplotlib.axis_2">
    <g
       id="ytick_1">
      <g
         id="line2d_5">
        <defs
           id="defs1206">
          <path
             id="m854515bf79"
             d="M 0,0 H -3.5"
             style="stroke:#000000;stroke-width:0.8" />
        </defs>
        <g
           id="g1210">
          <use
             xlink:href="#m854515bf79"
             x="86.040001"
             y="311.91827"
             style="stroke:#000000;stroke-width:0.8"
             id="use1208" />
        </g>
      </g>
      <g
         id="text_5">
        <!-- 0 -->
        <g
           transform="matrix(0.1,0,0,-0.1,72.6775,315.71749)"
           id="g1218">
          <defs
             id="defs1214">
            <path
               id="DejaVuSans-30"
               d="m 2034,4250 q -487,0 -733,-480 -245,-479 -245,-1442 0,-959 245,-1439 246,-480 733,-480 491,0 736,480 246,480 246,1439 0,963 -246,1442 -245,480 -736,480 z m 0,500 q 785,0 1199,-621 414,-620 414,-1801 0,-1178 -414,-1799 -414,-620 -1199,-620 -784,0 -1198,620 -414,621 -414,1799 0,1181 414,1801 414,621 1198,621 z"
               transform="scale(0.015625)" />
          </defs>
          <use
             xlink:href="#DejaVuSans-30"
             id="use1216" />
        </g>
      </g>
    </g>
    <g
       id="ytick_2">
      <g
         id="line2d_6">
        <g
           id="g1224">
          <use
             xlink:href="#m854515bf79"
             x="86.040001"
             y="265.69968"
             style="stroke:#000000;stroke-width:0.8"
             id="use1222" />
        </g>
      </g>
      <g
         id="text_6">
        <!-- 100 -->
        <g
           transform="matrix(0.1,0,0,-0.1,59.9525,269.49888)"
           id="g1236">
          <defs
             id="defs1228">
            <path
               id="DejaVuSans-31"
               d="M 794,531 H 1825 V 4091 L 703,3866 v 575 l 1116,225 h 631 V 531 H 3481 V 0 H 794 Z"
               transform="scale(0.015625)" />
          </defs>
          <use
             xlink:href="#DejaVuSans-31"
             id="use1230" />
          <use
             xlink:href="#DejaVuSans-30"
             x="63.623047"
             id="use1232" />
          <use
             xlink:href="#DejaVuSans-30"
             x="127.24609"
             id="use1234" />
        </g>
      </g>
    </g>
    <g
       id="ytick_3">
      <g
         id="line2d_7">
        <g
           id="g1242">
          <use
             xlink:href="#m854515bf79"
             x="86.040001"
             y="219.48106"
             style="stroke:#000000;stroke-width:0.8"
             id="use1240" />
        </g>
      </g>
      <g
         id="text_7">
        <!-- 200 -->
        <g
           transform="matrix(0.1,0,0,-0.1,59.9525,223.28028)"
           id="g1251">
          <path
             id="use1245"
             d="M 19.1875,8.296875 H 53.609375 V 0 H 7.328125 v 8.296875 q 5.609375,5.8125 15.296875,15.59375 9.703125,9.796875 12.1875,12.640625 4.734375,5.3125 6.609375,9 1.890625,3.6875 1.890625,7.25 0,5.8125 -4.078125,9.46875 -4.078125,3.671875 -10.625,3.671875 -4.640625,0 -9.796875,-1.609375 -5.140625,-1.609375 -11,-4.890625 v 9.96875 Q 13.765625,71.78125 18.9375,73 q 5.1875,1.21875 9.484375,1.21875 11.328125,0 18.0625,-5.671875 6.734375,-5.65625 6.734375,-15.125 0,-4.5 -1.6875,-8.53125 Q 49.859375,40.875 45.40625,35.40625 44.1875,33.984375 37.640625,27.21875 31.109375,20.453125 19.1875,8.296875 Z"
             style="stroke-width:0.015625" />
          <use
             xlink:href="#DejaVuSans-30"
             x="63.623047"
             id="use1247" />
          <use
             xlink:href="#DejaVuSans-30"
             x="127.24609"
             id="use1249" />
        </g>
      </g>
    </g>
    <g
       id="ytick_4">
      <g
         id="line2d_8">
        <g
           id="g1257">
          <use
             xlink:href="#m854515bf79"
             x="86.040001"
             y="173.26245"
             style="stroke:#000000;stroke-width:0.8"
             id="use1255" />
        </g>
      </g>
      <g
         id="text_8">
        <!-- 300 -->
        <g
           transform="matrix(0.1,0,0,-0.1,59.9525,177.06167)"
           id="g1269">
          <defs
             id="defs1261">
            <path
               id="DejaVuSans-33"
               d="m 2597,2516 q 453,-97 707,-404 255,-306 255,-756 0,-690 -475,-1069 -475,-378 -1350,-378 -293,0 -604,58 -311,58 -642,174 v 609 q 262,-153 574,-231 313,-78 654,-78 593,0 904,234 311,234 311,681 0,413 -289,645 -289,233 -804,233 h -544 v 519 h 569 q 465,0 712,186 247,186 247,536 0,359 -255,551 -254,193 -729,193 -260,0 -557,-57 -297,-56 -653,-174 v 562 q 360,100 674,150 314,50 592,50 719,0 1137,-327 419,-326 419,-882 0,-388 -222,-655 -222,-267 -631,-370 z"
               transform="scale(0.015625)" />
          </defs>
          <use
             xlink:href="#DejaVuSans-33"
             id="use1263" />
          <use
             xlink:href="#DejaVuSans-30"
             x="63.623047"
             id="use1265" />
          <use
             xlink:href="#DejaVuSans-30"
             x="127.24609"
             id="use1267" />
        </g>
      </g>
    </g>
    <g
       id="ytick_5">
      <g
         id="line2d_9">
        <g
           id="g1275">
          <use
             xlink:href="#m854515bf79"
             x="86.040001"
             y="127.04385"
             style="stroke:#000000;stroke-width:0.8"
             id="use1273" />
        </g>
      </g>
      <g
         id="text_9">
        <!-- 400 -->
        <g
           transform="matrix(0.1,0,0,-0.1,59.9525,130.84306)"
           id="g1284">
          <path
             id="use1278"
             d="M 37.796875,64.3125 12.890625,25.390625 h 24.90625 z m -2.59375,8.59375 h 12.40625 V 25.390625 h 10.40625 V 17.1875 H 47.609375 V 0 h -9.8125 V 17.1875 H 4.890625 v 9.515625 z"
             style="stroke-width:0.015625" />
          <use
             xlink:href="#DejaVuSans-30"
             x="63.623047"
             id="use1280" />
          <use
             xlink:href="#DejaVuSans-30"
             x="127.24609"
             id="use1282" />
        </g>
      </g>
    </g>
    <g
       id="ytick_6">
      <g
         id="line2d_10">
        <g
           id="g1290">
          <use
             xlink:href="#m854515bf79"
             x="86.040001"
             y="80.825241"
             style="stroke:#000000;stroke-width:0.8"
             id="use1288" />
        </g>
      </g>
      <g
         id="text_10">
        <!-- 500 -->
        <g
           transform="matrix(0.1,0,0,-0.1,59.9525,84.624459)"
           id="g1302">
          <defs
             id="defs1294">
            <path
               id="DejaVuSans-35"
               d="M 691,4666 H 3169 V 4134 H 1269 V 2991 q 137,47 274,70 138,23 276,23 781,0 1237,-428 457,-428 457,-1159 Q 3513,744 3044,326 2575,-91 1722,-91 1428,-91 1123,-41 819,9 494,109 v 635 q 281,-153 581,-228 300,-75 634,-75 541,0 856,284 316,284 316,772 0,487 -316,771 -315,285 -856,285 -253,0 -505,-56 -251,-56 -513,-175 z"
               transform="scale(0.015625)" />
          </defs>
          <use
             xlink:href="#DejaVuSans-35"
             id="use1296" />
          <use
             xlink:href="#DejaVuSans-30"
             x="63.623047"
             id="use1298" />
          <use
             xlink:href="#DejaVuSans-30"
             x="127.24609"
             id="use1300" />
        </g>
      </g>
    </g>
  </g>
  <g
     id="legend_1">
    <g
       id="patch_25">
      <path
         d="M 561.46456,81.93865 H 612.488 q 2,0 2,-2 V 51.5824 q 0,-2 -2,-2 h -51.02344 q -2,0 -2,2 v 28.35625 q 0,2 2,2 z"
         style="opacity:0.8;fill:#ffffff;stroke:#cccccc;stroke-linejoin:miter"
         id="path1319" />
    </g>
    <g
       id="patch_26">
      <path
         d="m 563.46456,61.180837 h 20 v -7 h -20 z"
         style="fill:#ff8c00"
         id="path1322" />
    </g>
    <g
       id="text_11">
      <!-- cnn -->
      <g
         transform="matrix(0.1,0,0,-0.1,591.46456,61.180837)"
         id="g1335">
        <defs
           id="defs1327">
          <path
             id="DejaVuSans-63"
             d="m 3122,3366 v -538 q -244,135 -489,202 -245,67 -495,67 -560,0 -870,-355 -309,-354 -309,-995 0,-641 309,-996 310,-354 870,-354 250,0 495,67 245,67 489,202 V 134 Q 2881,22 2623,-34 2366,-91 2075,-91 1284,-91 818,406 353,903 353,1747 q 0,856 470,1346 471,491 1290,491 265,0 518,-55 253,-54 491,-163 z"
             transform="scale(0.015625)" />
          <path
             id="DejaVuSans-6e"
             d="M 3513,2113 V 0 h -575 v 2094 q 0,497 -194,743 -194,247 -581,247 -466,0 -735,-297 -269,-296 -269,-809 V 0 H 581 v 3500 h 578 v -544 q 207,316 486,472 280,156 646,156 603,0 912,-373 310,-373 310,-1098 z"
             transform="scale(0.015625)" />
        </defs>
        <use
           xlink:href="#DejaVuSans-63"
           id="use1329" />
        <use
           xlink:href="#DejaVuSans-6e"
           x="54.980469"
           id="use1331" />
        <use
           xlink:href="#DejaVuSans-6e"
           x="118.35938"
           id="use1333" />
      </g>
    </g>
    <g
       id="patch_27">
      <path
         d="m 563.46456,75.858963 h 20 v -7 h -20 z"
         style="fill:#0000ff"
         id="path1338" />
    </g>
    <g
       id="text_12">
      <!-- gnn -->
      <g
         transform="matrix(0.1,0,0,-0.1,591.46456,75.858963)"
         id="g1350">
        <defs
           id="defs1342">
          <path
             id="DejaVuSans-67"
             d="m 2906,1791 q 0,625 -258,968 -257,344 -723,344 -462,0 -720,-344 -258,-343 -258,-968 0,-622 258,-966 258,-344 720,-344 466,0 723,344 258,344 258,966 z M 3481,434 q 0,-893 -397,-1329 -396,-436 -1215,-436 -303,0 -572,45 -269,45 -522,139 v 559 q 253,-137 500,-202 247,-66 503,-66 566,0 847,295 281,295 281,892 V 616 Q 2728,306 2450,153 2172,0 1784,0 1141,0 747,490 353,981 353,1791 q 0,812 394,1302 394,491 1037,491 388,0 666,-153 278,-153 456,-462 v 531 h 575 z"
             transform="scale(0.015625)" />
        </defs>
        <use
           xlink:href="#DejaVuSans-67"
           id="use1344" />
        <use
           xlink:href="#DejaVuSans-6e"
           x="63.476562"
           id="use1346" />
        <use
           xlink:href="#DejaVuSans-6e"
           x="126.85547"
           id="use1348" />
      </g>
    </g>
  </g>
  <defs
     id="defs1359">
    <clipPath
       id="p83d2af2f53">
      <rect
         x="86.04"
         y="44.5824"
         width="533.448"
         height="286.0704"
         id="rect1356" />
    </clipPath>
  </defs>
  <path
     style="fill:none;stroke:#000000;stroke-width:1.38181;stroke-dasharray:none;stroke-dashoffset:0;marker-end:url(#TriangleStart)"
     d="M 85.481266,312.04163 623.77364,311.64255"
     id="path2111" />
  <text
     xml:space="preserve"
     style="font-style:normal;font-variant:normal;font-weight:normal;font-stretch:normal;font-size:11px;font-family:sans-serif;-inkscape-font-specification:sans-serif;fill:#000000;fill-opacity:1;stroke:none;stroke-width:1.377;stroke-dasharray:none;stroke-dashoffset:0"
     x="-186.34052"
     y="50.923901"
     id="text3267"
     transform="rotate(-91.247622)"><tspan
       sodipodi:role="line"
       id="tspan3265"
       style="font-size:11px;stroke-width:1.377"
       x="-186.34052"
       y="50.923901">elo</tspan></text>
  <path
     style="fill:none;fill-opacity:1;stroke:#000000;stroke-width:1.37785;stroke-dasharray:none;stroke-dashoffset:0;stroke-opacity:1;marker-end:url(#marker3291)"
     d="M 85.619661,311.26539 86.835355,49.398879"
     id="path3281"
     sodipodi:nodetypes="cc" />
  <text
     xml:space="preserve"
     style="font-style:normal;font-variant:normal;font-weight:normal;font-stretch:normal;font-size:11px;font-family:sans-serif;-inkscape-font-specification:sans-serif;fill:none;fill-opacity:1;stroke:#000000;stroke-width:1.377;stroke-dasharray:none;stroke-dashoffset:0;stroke-opacity:1"
     x="325.46375"
     y="342.94589"
     id="text3397"><tspan
       sodipodi:role="line"
       id="tspan3395"
       style="fill:#000000;fill-opacity:1;stroke:none;stroke-width:1.377"
       x="325.46375"
       y="342.94589">Hex size</tspan></text>
  <text
     xml:space="preserve"
     style="font-style:normal;font-variant:normal;font-weight:normal;font-stretch:normal;font-size:11px;font-family:sans-serif;-inkscape-font-specification:sans-serif;fill:none;fill-opacity:1;stroke:#000000;stroke-width:1.377;stroke-dasharray:none;stroke-dashoffset:0;stroke-opacity:1"
     x="125.96998"
     y="327.66196"
     id="text4443"><tspan
       sodipodi:role="line"
       id="tspan4441"
       style="fill:#000000;fill-opacity:1;stroke:none;stroke-width:1.377"
       x="125.96998"
       y="327.66196">5</tspan></text>
  <text
     xml:space="preserve"
     style="font-style:normal;font-variant:normal;font-weight:normal;font-stretch:normal;font-size:11px;font-family:sans-serif;-inkscape-font-specification:sans-serif;fill:none;fill-opacity:1;stroke:#000000;stroke-width:1.377;stroke-linecap:butt;stroke-linejoin:round;stroke-dasharray:none;stroke-dashoffset:0;stroke-opacity:1"
     x="180.56189"
     y="327.77194"
     id="text4443-6"><tspan
       sodipodi:role="line"
       id="tspan4441-3"
       style="fill:#000000;fill-opacity:1;stroke:none;stroke-width:1.377"
       x="180.56189"
       y="327.77194">6</tspan></text>
  <text
     xml:space="preserve"
     style="font-style:normal;font-variant:normal;font-weight:normal;font-stretch:normal;font-size:11px;font-family:sans-serif;-inkscape-font-specification:sans-serif;fill:none;fill-opacity:1;stroke:#000000;stroke-width:1.377;stroke-linecap:butt;stroke-linejoin:round;stroke-dasharray:none;stroke-dashoffset:0;stroke-opacity:1"
     x="235.55144"
     y="327.66196"
     id="text4443-2"><tspan
       sodipodi:role="line"
       id="tspan4441-0"
       style="fill:#000000;fill-opacity:1;stroke:none;stroke-width:1.377"
       x="235.55144"
       y="327.66196">7</tspan></text>
  <text
     xml:space="preserve"
     style="font-style:normal;font-variant:normal;font-weight:normal;font-stretch:normal;font-size:11px;font-family:sans-serif;-inkscape-font-specification:sans-serif;fill:none;fill-opacity:1;stroke:#000000;stroke-width:1.377;stroke-linecap:butt;stroke-linejoin:round;stroke-dasharray:none;stroke-dashoffset:0;stroke-opacity:1"
     x="291.42792"
     y="327.77194"
     id="text4443-61"><tspan
       sodipodi:role="line"
       id="tspan4441-5"
       style="fill:#000000;fill-opacity:1;stroke:none;stroke-width:1.377"
       x="291.42792"
       y="327.77194">8</tspan></text>
  <text
     xml:space="preserve"
     style="font-style:normal;font-variant:normal;font-weight:normal;font-stretch:normal;font-size:11px;font-family:sans-serif;-inkscape-font-specification:sans-serif;fill:none;fill-opacity:1;stroke:#000000;stroke-width:1.377;stroke-linecap:butt;stroke-linejoin:round;stroke-dasharray:none;stroke-dashoffset:0;stroke-opacity:1"
     x="348.6348"
     y="327.77194"
     id="text4443-5"><tspan
       sodipodi:role="line"
       id="tspan4441-4"
       style="fill:#000000;fill-opacity:1;stroke:none;stroke-width:1.377"
       x="348.6348"
       y="327.77194">9</tspan></text>
  <text
     xml:space="preserve"
     style="font-style:normal;font-variant:normal;font-weight:normal;font-stretch:normal;font-size:11px;font-family:sans-serif;-inkscape-font-specification:sans-serif;fill:none;fill-opacity:1;stroke:#000000;stroke-width:1.377;stroke-linecap:butt;stroke-linejoin:round;stroke-dasharray:none;stroke-dashoffset:0;stroke-opacity:1"
     x="402.73743"
     y="327.78296"
     id="text4443-7"><tspan
       sodipodi:role="line"
       id="tspan4441-6"
       style="fill:#000000;fill-opacity:1;stroke:none;stroke-width:1.377"
       x="402.73743"
       y="327.78296">10</tspan></text>
  <text
     xml:space="preserve"
     style="font-style:normal;font-variant:normal;font-weight:normal;font-stretch:normal;font-size:11px;font-family:sans-serif;-inkscape-font-specification:sans-serif;fill:none;fill-opacity:1;stroke:#000000;stroke-width:1.377;stroke-linecap:butt;stroke-linejoin:round;stroke-dasharray:none;stroke-dashoffset:0;stroke-opacity:1"
     x="458.88776"
     y="327.66196"
     id="text4443-56"><tspan
       sodipodi:role="line"
       id="tspan4441-9"
       style="fill:#000000;fill-opacity:1;stroke:none;stroke-width:1.377"
       x="458.88776"
       y="327.66196">11</tspan></text>
  <text
     xml:space="preserve"
     style="font-style:normal;font-variant:normal;font-weight:normal;font-stretch:normal;font-size:11px;font-family:sans-serif;-inkscape-font-specification:sans-serif;fill:none;fill-opacity:1;stroke:#000000;stroke-width:1.377;stroke-linecap:butt;stroke-linejoin:round;stroke-dasharray:none;stroke-dashoffset:0;stroke-opacity:1"
     x="513.81195"
     y="327.77194"
     id="text4443-3"><tspan
       sodipodi:role="line"
       id="tspan4441-7"
       style="fill:#000000;fill-opacity:1;stroke:none;stroke-width:1.377"
       x="513.81195"
       y="327.77194">12</tspan></text>
  <text
     xml:space="preserve"
     style="font-style:normal;font-variant:normal;font-weight:normal;font-stretch:normal;font-size:11px;font-family:sans-serif;-inkscape-font-specification:sans-serif;fill:none;fill-opacity:1;stroke:#000000;stroke-width:1.377;stroke-linecap:butt;stroke-linejoin:round;stroke-dasharray:none;stroke-dashoffset:0;stroke-opacity:1"
     x="568.59302"
     y="327.77194"
     id="text4443-4"><tspan
       sodipodi:role="line"
       id="tspan4441-52"
       style="fill:#000000;fill-opacity:1;stroke:none;stroke-width:1.377"
       x="568.59302"
       y="327.77194">13</tspan></text>
  <text
     xml:space="preserve"
     style="font-style:normal;font-variant:normal;font-weight:normal;font-stretch:normal;font-size:6px;font-family:sans-serif;-inkscape-font-specification:sans-serif;text-align:center;text-anchor:middle;fill:#000000;fill-opacity:1;stroke:none;stroke-width:1.377;stroke-dasharray:none;stroke-dashoffset:0;stroke-opacity:1"
     x="640.77393"
     y="312.34521"
     id="text4829"><tspan
       sodipodi:role="line"
       id="tspan4827"
       style="font-size:6px;text-align:center;text-anchor:middle;stroke-width:1.377"
       x="640.77393"
       y="312.34521">random</tspan><tspan
       sodipodi:role="line"
       style="font-size:6px;text-align:center;text-anchor:middle;stroke-width:1.377"
       x="640.77393"
       y="319.84521"
       id="tspan4843">player performance</tspan></text>
</svg>
