<?xml version="1.0" encoding="UTF-8" standalone="no"?>
<svg
   width="552.24pt"
   height="294.48pt"
   viewBox="0 0 552.24 294.48"
   version="1.1"
   id="svg30095"
   sodipodi:docname="GNN_CNN_transfer.svg"
   inkscape:version="1.2.2 (b0a8486541, 2022-12-01)"
   xmlns:inkscape="http://www.inkscape.org/namespaces/inkscape"
   xmlns:sodipodi="http://sodipodi.sourceforge.net/DTD/sodipodi-0.dtd"
   xmlns:xlink="http://www.w3.org/1999/xlink"
   xmlns="http://www.w3.org/2000/svg"
   xmlns:svg="http://www.w3.org/2000/svg"
   xmlns:rdf="http://www.w3.org/1999/02/22-rdf-syntax-ns#"
   xmlns:cc="http://creativecommons.org/ns#"
   xmlns:dc="http://purl.org/dc/elements/1.1/">
  <sodipodi:namedview
     id="namedview30097"
     pagecolor="#ffffff"
     bordercolor="#000000"
     borderopacity="0.25"
     inkscape:showpageshadow="2"
     inkscape:pageopacity="0.0"
     inkscape:pagecheckerboard="0"
     inkscape:deskcolor="#d1d1d1"
     inkscape:document-units="pt"
     showgrid="false"
     inkscape:zoom="1.8429488"
     inkscape:cx="280.8"
     inkscape:cy="196.42434"
     inkscape:window-width="1896"
     inkscape:window-height="1027"
     inkscape:window-x="12"
     inkscape:window-y="41"
     inkscape:window-maximized="1"
     inkscape:current-layer="svg30095" />
  <metadata
     id="metadata29735">
    <rdf:RDF>
      <cc:Work>
        <dc:type
           rdf:resource="http://purl.org/dc/dcmitype/StillImage" />
        <dc:date>2023-02-16T22:15:54.633991</dc:date>
        <dc:format>image/svg+xml</dc:format>
        <dc:creator>
          <cc:Agent>
            <dc:title>Matplotlib v3.5.2, https://matplotlib.org/</dc:title>
          </cc:Agent>
        </dc:creator>
      </cc:Work>
    </rdf:RDF>
  </metadata>
  <defs
     id="defs29739">
    <style
       type="text/css"
       id="style29737">*{stroke-linejoin: round; stroke-linecap: butt}</style>
  </defs>
  <path
     d="M 0,294.48 H 552.24 V 0 H 0 Z"
     style="fill:#ffffff"
     id="path29741" />
  <path
     d="M 69.03,262.0872 H 497.016 V 35.3376 H 69.03 Z"
     style="fill:#ffffff"
     id="path29744" />
  <path
     d="M 88.483909,262.0872 H 123.85465 V 125.3176 H 88.483909 Z"
     clip-path="url(#p122a98e36c)"
     style="fill:#ff8c00"
     id="path29747" />
  <path
     d="m 132.69734,262.0872 h 35.37074 v -107.976 h -35.37074 z"
     clip-path="url(#p122a98e36c)"
     style="fill:#ff8c00"
     id="path29750" />
  <path
     d="m 176.91077,262.0872 h 35.37074 v -98.33529 h -35.37074 z"
     clip-path="url(#p122a98e36c)"
     style="fill:#ff8c00"
     id="path29753" />
  <path
     d="m 221.1242,262.0872 h 35.37074 v -80.982 H 221.1242 Z"
     clip-path="url(#p122a98e36c)"
     style="fill:#ff8c00"
     id="path29756" />
  <path
     d="m 265.33763,262.0872 h 35.37074 v -89.98 h -35.37074 z"
     clip-path="url(#p122a98e36c)"
     style="fill:#ff8c00"
     id="path29759" />
  <path
     d="M 309.55106,262.0872 H 344.9218 V 104.0496 h -35.37074 z"
     clip-path="url(#p122a98e36c)"
     style="fill:#ff8c00"
     id="path29762" />
  <path
     d="m 353.76449,262.0872 h 35.37074 V 66.5852 h -35.37074 z"
     clip-path="url(#p122a98e36c)"
     style="fill:#ff8c00"
     id="path29765" />
  <path
     d="m 397.97792,262.0872 h 35.37074 V 55.825354 h -35.37074 z"
     clip-path="url(#p122a98e36c)"
     style="fill:#ff8c00"
     id="path29768" />
  <path
     d="m 442.19135,262.0872 h 35.37074 V 59.187244 h -35.37074 z"
     clip-path="url(#p122a98e36c)"
     style="fill:#ff8c00"
     id="path29771" />
  <path
     d="M 88.483909,125.3176 H 123.85465 V 46.1352 H 88.483909 Z"
     clip-path="url(#p122a98e36c)"
     style="fill:#0000ff"
     id="path29774" />
  <path
     d="m 132.69734,154.1112 h 35.37074 V 46.1352 h -35.37074 z"
     clip-path="url(#p122a98e36c)"
     style="fill:#0000ff"
     id="path29777" />
  <path
     d="m 176.91077,163.75191 h 35.37074 V 46.1352 h -35.37074 z"
     clip-path="url(#p122a98e36c)"
     style="fill:#0000ff"
     id="path29780" />
  <path
     d="m 221.1242,181.1052 h 35.37074 V 46.1352 H 221.1242 Z"
     clip-path="url(#p122a98e36c)"
     style="fill:#0000ff"
     id="path29783" />
  <path
     d="m 265.33763,172.1072 h 35.37074 V 46.1352 h -35.37074 z"
     clip-path="url(#p122a98e36c)"
     style="fill:#0000ff"
     id="path29786" />
  <path
     d="M 309.55106,104.0496 H 344.9218 V 46.1352 h -35.37074 z"
     clip-path="url(#p122a98e36c)"
     style="fill:#0000ff"
     id="path29789" />
  <path
     d="m 353.76449,66.5852 h 35.37074 v -20.45 h -35.37074 z"
     clip-path="url(#p122a98e36c)"
     style="fill:#0000ff"
     id="path29792" />
  <path
     d="m 397.97792,55.825354 h 35.37074 V 46.1352 h -35.37074 z"
     clip-path="url(#p122a98e36c)"
     style="fill:#0000ff"
     id="path29795" />
  <path
     d="m 442.19135,59.187244 h 35.37074 V 46.1352 h -35.37074 z"
     clip-path="url(#p122a98e36c)"
     style="fill:#0000ff"
     id="path29798" />
  <g
     id="xtick_1">
    <g
       id="line2d_1">
      <defs
         id="defs29802">
        <path
           id="mdbd8ba7d8e"
           d="M 0,0 V 3.5"
           style="stroke:#000000;stroke-width:0.8" />
      </defs>
      <g
         id="g29806">
        <use
           xlink:href="#mdbd8ba7d8e"
           x="106.16928"
           y="262.08719"
           style="stroke:#000000;stroke-width:0.8"
           id="use29804" />
      </g>
    </g>
    <g
       id="text_1">
      <!-- 5 -->
      <g
         transform="matrix(0.1,0,0,-0.1,102.98803,276.68564)"
         id="g29814">
        <defs
           id="defs29810">
          <path
             id="DejaVuSans-35"
             d="M 691,4666 H 3169 V 4134 H 1269 V 2991 q 137,47 274,70 138,23 276,23 781,0 1237,-428 457,-428 457,-1159 Q 3513,744 3044,326 2575,-91 1722,-91 1428,-91 1123,-41 819,9 494,109 v 635 q 281,-153 581,-228 300,-75 634,-75 541,0 856,284 316,284 316,772 0,487 -316,771 -315,285 -856,285 -253,0 -505,-56 -251,-56 -513,-175 z"
             transform="scale(0.015625)" />
        </defs>
        <use
           xlink:href="#DejaVuSans-35"
           id="use29812" />
      </g>
    </g>
  </g>
  <g
     id="xtick_2">
    <g
       id="line2d_2">
      <g
         id="g29820">
        <use
           xlink:href="#mdbd8ba7d8e"
           x="150.38271"
           y="262.08719"
           style="stroke:#000000;stroke-width:0.8"
           id="use29818" />
      </g>
    </g>
    <g
       id="text_2">
      <!-- 6 -->
      <g
         transform="matrix(0.1,0,0,-0.1,147.20146,276.68564)"
         id="g29828">
        <defs
           id="defs29824">
          <path
             id="DejaVuSans-36"
             d="m 2113,2584 q -425,0 -674,-291 -248,-290 -248,-796 0,-503 248,-796 249,-292 674,-292 425,0 673,292 248,293 248,796 0,506 -248,796 -248,291 -673,291 z m 1253,1979 v -575 q -238,112 -480,171 -242,60 -480,60 -625,0 -955,-422 -329,-422 -376,-1275 184,272 462,417 279,145 613,145 703,0 1111,-427 408,-426 408,-1160 0,-719 -425,-1154 -425,-434 -1131,-434 -810,0 -1238,620 -428,621 -428,1799 0,1106 525,1764 525,658 1409,658 238,0 480,-47 242,-47 505,-140 z"
             transform="scale(0.015625)" />
        </defs>
        <use
           xlink:href="#DejaVuSans-36"
           id="use29826" />
      </g>
    </g>
  </g>
  <g
     id="line2d_3">
    <g
       id="g29834">
      <use
         xlink:href="#mdbd8ba7d8e"
         x="194.59615"
         y="262.08719"
         style="stroke:#000000;stroke-width:0.8"
         id="use29832" />
    </g>
  </g>
  <g
     id="xtick_4">
    <g
       id="line2d_4">
      <g
         id="g29848">
        <use
           xlink:href="#mdbd8ba7d8e"
           x="238.80957"
           y="262.08719"
           style="stroke:#000000;stroke-width:0.8"
           id="use29846" />
      </g>
    </g>
    <g
       id="text_4">
      <!-- 8 -->
      <g
         transform="matrix(0.1,0,0,-0.1,235.62832,276.68564)"
         id="g29856">
        <defs
           id="defs29852">
          <path
             id="DejaVuSans-38"
             d="m 2034,2216 q -450,0 -708,-241 -257,-241 -257,-662 0,-422 257,-663 258,-241 708,-241 450,0 709,242 260,243 260,662 0,421 -258,662 -257,241 -711,241 z m -631,268 q -406,100 -633,378 -226,279 -226,679 0,559 398,884 399,325 1092,325 697,0 1094,-325 397,-325 397,-884 0,-400 -227,-679 -226,-278 -629,-378 456,-106 710,-416 255,-309 255,-755 Q 3634,634 3220,271 2806,-91 2034,-91 1263,-91 848,271 434,634 434,1313 q 0,446 256,755 257,310 713,416 z m -231,997 q 0,-362 226,-565 227,-203 636,-203 407,0 636,203 230,203 230,565 0,363 -230,566 -229,203 -636,203 -409,0 -636,-203 -226,-203 -226,-566 z"
             transform="scale(0.015625)" />
        </defs>
        <use
           xlink:href="#DejaVuSans-38"
           id="use29854" />
      </g>
    </g>
  </g>
  <g
     id="xtick_5">
    <g
       id="line2d_5">
      <g
         id="g29862">
        <use
           xlink:href="#mdbd8ba7d8e"
           x="283.02301"
           y="262.08719"
           style="stroke:#000000;stroke-width:0.8"
           id="use29860" />
      </g>
    </g>
    <g
       id="text_5">
      <!-- 9 -->
      <g
         transform="matrix(0.1,0,0,-0.1,279.84175,276.68564)"
         id="g29870">
        <defs
           id="defs29866">
          <path
             id="DejaVuSans-39"
             d="m 703,97 v 575 q 238,-113 481,-172 244,-59 479,-59 625,0 954,420 330,420 377,1277 -181,-269 -460,-413 -278,-144 -615,-144 -700,0 -1108,423 -408,424 -408,1159 0,718 425,1152 425,435 1131,435 810,0 1236,-621 427,-620 427,-1801 Q 3622,1225 3098,567 2575,-91 1691,-91 1453,-91 1209,-44 966,3 703,97 Z m 1256,1978 q 425,0 673,290 249,291 249,798 0,503 -249,795 -248,292 -673,292 -425,0 -673,-292 -248,-292 -248,-795 0,-507 248,-798 248,-290 673,-290 z"
             transform="scale(0.015625)" />
        </defs>
        <use
           xlink:href="#DejaVuSans-39"
           id="use29868" />
      </g>
    </g>
  </g>
  <g
     id="xtick_6">
    <g
       id="line2d_6">
      <g
         id="g29876">
        <use
           xlink:href="#mdbd8ba7d8e"
           x="327.23642"
           y="262.08719"
           style="stroke:#000000;stroke-width:0.8"
           id="use29874" />
      </g>
    </g>
    <g
       id="text_6">
      <!-- 10 -->
      <g
         transform="matrix(0.1,0,0,-0.1,320.87393,276.68564)"
         id="g29887">
        <defs
           id="defs29881">
          <path
             id="DejaVuSans-31"
             d="M 794,531 H 1825 V 4091 L 703,3866 v 575 l 1116,225 h 631 V 531 H 3481 V 0 H 794 Z"
             transform="scale(0.015625)" />
          <path
             id="DejaVuSans-30"
             d="m 2034,4250 q -487,0 -733,-480 -245,-479 -245,-1442 0,-959 245,-1439 246,-480 733,-480 491,0 736,480 246,480 246,1439 0,963 -246,1442 -245,480 -736,480 z m 0,500 q 785,0 1199,-621 414,-620 414,-1801 0,-1178 -414,-1799 -414,-620 -1199,-620 -784,0 -1198,620 -414,621 -414,1799 0,1181 414,1801 414,621 1198,621 z"
             transform="scale(0.015625)" />
        </defs>
        <use
           xlink:href="#DejaVuSans-31"
           id="use29883" />
        <use
           xlink:href="#DejaVuSans-30"
           x="63.623047"
           id="use29885" />
      </g>
    </g>
  </g>
  <g
     id="xtick_7">
    <g
       id="line2d_7">
      <g
         id="g29893">
        <use
           xlink:href="#mdbd8ba7d8e"
           x="371.44986"
           y="262.08719"
           style="stroke:#000000;stroke-width:0.8"
           id="use29891" />
      </g>
    </g>
    <g
       id="text_7">
      <!-- 11 -->
      <g
         transform="matrix(0.1,0,0,-0.1,365.08736,276.68564)"
         id="g29900">
        <use
           xlink:href="#DejaVuSans-31"
           id="use29896" />
        <use
           xlink:href="#DejaVuSans-31"
           x="63.623047"
           id="use29898" />
      </g>
    </g>
  </g>
  <g
     id="xtick_8">
    <g
       id="line2d_8">
      <g
         id="g29906">
        <use
           xlink:href="#mdbd8ba7d8e"
           x="415.6633"
           y="262.08719"
           style="stroke:#000000;stroke-width:0.8"
           id="use29904" />
      </g>
    </g>
    <g
       id="text_8">
      <!-- 12 -->
      <g
         transform="matrix(0.1,0,0,-0.1,409.30079,276.68564)"
         id="g29916">
        <defs
           id="defs29910">
          <path
             id="DejaVuSans-32"
             d="M 1228,531 H 3431 V 0 H 469 v 531 q 359,372 979,998 621,627 780,809 303,340 423,576 121,236 121,464 0,372 -261,606 -261,235 -680,235 -297,0 -627,-103 -329,-103 -704,-313 v 638 q 381,153 712,231 332,78 607,78 725,0 1156,-363 431,-362 431,-968 0,-288 -108,-546 -107,-257 -392,-607 -78,-91 -497,-524 Q 1991,1309 1228,531 Z"
             transform="scale(0.015625)" />
        </defs>
        <use
           xlink:href="#DejaVuSans-31"
           id="use29912" />
        <use
           xlink:href="#DejaVuSans-32"
           x="63.623047"
           id="use29914" />
      </g>
    </g>
  </g>
  <g
     id="xtick_9">
    <g
       id="line2d_9">
      <g
         id="g29922">
        <use
           xlink:href="#mdbd8ba7d8e"
           x="459.87671"
           y="262.08719"
           style="stroke:#000000;stroke-width:0.8"
           id="use29920" />
      </g>
    </g>
    <g
       id="text_9">
      <!-- 13 -->
      <g
         transform="matrix(0.1,0,0,-0.1,453.51422,276.68564)"
         id="g29932">
        <defs
           id="defs29926">
          <path
             id="DejaVuSans-33"
             d="m 2597,2516 q 453,-97 707,-404 255,-306 255,-756 0,-690 -475,-1069 -475,-378 -1350,-378 -293,0 -604,58 -311,58 -642,174 v 609 q 262,-153 574,-231 313,-78 654,-78 593,0 904,234 311,234 311,681 0,413 -289,645 -289,233 -804,233 h -544 v 519 h 569 q 465,0 712,186 247,186 247,536 0,359 -255,551 -254,193 -729,193 -260,0 -557,-57 -297,-56 -653,-174 v 562 q 360,100 674,150 314,50 592,50 719,0 1137,-327 419,-326 419,-882 0,-388 -222,-655 -222,-267 -631,-370 z"
             transform="scale(0.015625)" />
        </defs>
        <use
           xlink:href="#DejaVuSans-31"
           id="use29928" />
        <use
           xlink:href="#DejaVuSans-33"
           x="63.623047"
           id="use29930" />
      </g>
    </g>
  </g>
  <g
     id="text_10">
    <!-- Hex size -->
    <g
       transform="matrix(0.1,0,0,-0.1,262.03081,290.36376)"
       id="g29961">
      <defs
         id="defs29943">
        <path
           id="DejaVuSans-48"
           d="m 628,4666 h 631 V 2753 h 2294 v 1913 h 631 V 0 H 3553 V 2222 H 1259 V 0 H 628 Z"
           transform="scale(0.015625)" />
        <path
           id="DejaVuSans-65"
           d="M 3597,1894 V 1613 H 953 q 38,-594 358,-905 320,-311 892,-311 331,0 642,81 311,81 618,244 V 178 Q 3153,47 2828,-22 2503,-91 2169,-91 1331,-91 842,396 353,884 353,1716 q 0,859 464,1363 464,505 1252,505 706,0 1117,-455 411,-454 411,-1235 z m -575,169 q -6,471 -264,752 -258,282 -683,282 -481,0 -770,-272 -289,-272 -333,-766 z"
           transform="scale(0.015625)" />
        <path
           id="DejaVuSans-78"
           d="M 3513,3500 2247,1797 3578,0 H 2900 L 1881,1375 863,0 H 184 L 1544,1831 300,3500 h 678 l 928,-1247 928,1247 z"
           transform="scale(0.015625)" />
        <path
           id="DejaVuSans-20"
           transform="scale(0.015625)"
           d="" />
        <path
           id="DejaVuSans-73"
           d="m 2834,3397 v -544 q -243,125 -506,187 -262,63 -544,63 -428,0 -642,-131 -214,-131 -214,-394 0,-200 153,-314 153,-114 616,-217 l 197,-44 q 612,-131 870,-370 258,-239 258,-667 0,-488 -386,-773 Q 2250,-91 1575,-91 1294,-91 989,-36 684,19 347,128 v 594 q 319,-166 628,-249 309,-82 613,-82 406,0 624,139 219,139 219,392 0,234 -158,359 -157,125 -692,241 l -200,47 q -534,112 -772,345 -237,233 -237,639 0,494 350,762 350,269 994,269 318,0 599,-47 282,-46 519,-140 z"
           transform="scale(0.015625)" />
        <path
           id="DejaVuSans-69"
           d="m 603,3500 h 575 V 0 H 603 Z m 0,1363 h 575 V 4134 H 603 Z"
           transform="scale(0.015625)" />
        <path
           id="DejaVuSans-7a"
           d="M 353,3500 H 3084 V 2975 L 922,459 H 3084 V 0 H 275 V 525 L 2438,3041 H 353 Z"
           transform="scale(0.015625)" />
      </defs>
      <use
         xlink:href="#DejaVuSans-48"
         id="use29945" />
      <use
         xlink:href="#DejaVuSans-65"
         x="75.195312"
         id="use29947" />
      <use
         xlink:href="#DejaVuSans-78"
         x="134.96875"
         id="use29949" />
      <use
         xlink:href="#DejaVuSans-20"
         x="194.14844"
         id="use29951" />
      <use
         xlink:href="#DejaVuSans-73"
         x="225.93555"
         id="use29953" />
      <use
         xlink:href="#DejaVuSans-69"
         x="278.03516"
         id="use29955" />
      <use
         xlink:href="#DejaVuSans-7a"
         x="305.81836"
         id="use29957" />
      <use
         xlink:href="#DejaVuSans-65"
         x="358.30859"
         id="use29959" />
    </g>
  </g>
  <g
     id="ytick_1">
    <g
       id="line2d_10">
      <defs
         id="defs29966">
        <path
           id="ma8bd168507"
           d="M 0,0 H -3.5"
           style="stroke:#000000;stroke-width:0.8" />
      </defs>
      <g
         id="g29970">
        <use
           xlink:href="#ma8bd168507"
           x="69.029999"
           y="262.08719"
           style="stroke:#000000;stroke-width:0.8"
           id="use29968" />
      </g>
    </g>
    <g
       id="text_11">
      <!-- 0 -->
      <g
         transform="matrix(0.1,0,0,-0.1,55.6675,265.88642)"
         id="g29975">
        <use
           xlink:href="#DejaVuSans-30"
           id="use29973" />
      </g>
    </g>
  </g>
  <g
     id="ytick_2">
    <g
       id="line2d_11">
      <g
         id="g29981">
        <use
           xlink:href="#ma8bd168507"
           x="69.029999"
           y="154.11121"
           style="stroke:#000000;stroke-width:0.8"
           id="use29979" />
      </g>
    </g>
    <g
       id="text_12">
      <!-- 50 -->
      <g
         transform="matrix(0.1,0,0,-0.1,49.305,157.91042)"
         id="g29988">
        <use
           xlink:href="#DejaVuSans-35"
           id="use29984" />
        <use
           xlink:href="#DejaVuSans-30"
           x="63.623047"
           id="use29986" />
      </g>
    </g>
  </g>
  <g
     id="ytick_3">
    <g
       id="line2d_12">
      <g
         id="g29994">
        <use
           xlink:href="#ma8bd168507"
           x="69.029999"
           y="46.135201"
           style="stroke:#000000;stroke-width:0.8"
           id="use29992" />
      </g>
    </g>
    <g
       id="text_13">
      <!-- 100 -->
      <g
         transform="matrix(0.1,0,0,-0.1,42.9425,49.934419)"
         id="g30003">
        <use
           xlink:href="#DejaVuSans-31"
           id="use29997" />
        <use
           xlink:href="#DejaVuSans-30"
           x="63.623047"
           id="use29999" />
        <use
           xlink:href="#DejaVuSans-30"
           x="127.24609"
           id="use30001" />
      </g>
    </g>
  </g>
  <g
     id="text_14">
    <!-- Win percent -->
    <g
       transform="matrix(0,-0.1,-0.1,0,36.862812,178.83896)"
       id="g30037">
      <defs
         id="defs30013">
        <path
           id="DejaVuSans-57"
           d="m 213,4666 h 637 l 981,-3944 978,3944 h 710 l 981,-3944 978,3944 h 641 L 4947,0 H 4153 L 3169,4050 2175,0 h -794 z"
           transform="scale(0.015625)" />
        <path
           id="DejaVuSans-6e"
           d="M 3513,2113 V 0 h -575 v 2094 q 0,497 -194,743 -194,247 -581,247 -466,0 -735,-297 -269,-296 -269,-809 V 0 H 581 v 3500 h 578 v -544 q 207,316 486,472 280,156 646,156 603,0 912,-373 310,-373 310,-1098 z"
           transform="scale(0.015625)" />
        <path
           id="DejaVuSans-70"
           d="M 1159,525 V -1331 H 581 v 4831 h 578 v -531 q 182,312 458,463 277,152 661,152 638,0 1036,-506 399,-506 399,-1331 0,-825 -399,-1332 -398,-506 -1036,-506 -384,0 -661,152 -276,152 -458,464 z m 1957,1222 q 0,634 -261,995 -261,361 -717,361 -457,0 -718,-361 -261,-361 -261,-995 0,-634 261,-995 261,-361 718,-361 456,0 717,361 261,361 261,995 z"
           transform="scale(0.015625)" />
        <path
           id="DejaVuSans-72"
           d="m 2631,2963 q -97,56 -211,82 -114,27 -251,27 -488,0 -749,-317 -261,-317 -261,-911 V 0 H 581 v 3500 h 578 v -544 q 182,319 472,473 291,155 707,155 59,0 131,-8 72,-7 159,-23 z"
           transform="scale(0.015625)" />
        <path
           id="DejaVuSans-63"
           d="m 3122,3366 v -538 q -244,135 -489,202 -245,67 -495,67 -560,0 -870,-355 -309,-354 -309,-995 0,-641 309,-996 310,-354 870,-354 250,0 495,67 245,67 489,202 V 134 Q 2881,22 2623,-34 2366,-91 2075,-91 1284,-91 818,406 353,903 353,1747 q 0,856 470,1346 471,491 1290,491 265,0 518,-55 253,-54 491,-163 z"
           transform="scale(0.015625)" />
        <path
           id="DejaVuSans-74"
           d="M 1172,4494 V 3500 H 2356 V 3053 H 1172 V 1153 q 0,-428 117,-550 117,-122 477,-122 h 590 V 0 H 1766 Q 1100,0 847,248 594,497 594,1153 V 3053 H 172 v 447 h 422 v 994 z"
           transform="scale(0.015625)" />
      </defs>
      <use
         xlink:href="#DejaVuSans-57"
         id="use30015" />
      <use
         xlink:href="#DejaVuSans-69"
         x="96.626953"
         id="use30017" />
      <use
         xlink:href="#DejaVuSans-6e"
         x="124.41016"
         id="use30019" />
      <use
         xlink:href="#DejaVuSans-20"
         x="187.78906"
         id="use30021" />
      <use
         xlink:href="#DejaVuSans-70"
         x="219.57617"
         id="use30023" />
      <use
         xlink:href="#DejaVuSans-65"
         x="283.05273"
         id="use30025" />
      <use
         xlink:href="#DejaVuSans-72"
         x="344.57617"
         id="use30027" />
      <use
         xlink:href="#DejaVuSans-63"
         x="383.43945"
         id="use30029" />
      <use
         xlink:href="#DejaVuSans-65"
         x="438.41992"
         id="use30031" />
      <use
         xlink:href="#DejaVuSans-6e"
         x="499.94336"
         id="use30033" />
      <use
         xlink:href="#DejaVuSans-74"
         x="563.32227"
         id="use30035" />
    </g>
  </g>
  <path
     d="M 69.03,262.0872 V 35.3376"
     style="fill:none;stroke:#000000;stroke-width:0.8;stroke-linecap:square;stroke-linejoin:miter"
     id="path30041" />
  <path
     d="M 497.016,262.0872 V 35.3376"
     style="fill:none;stroke:#000000;stroke-width:0.8;stroke-linecap:square;stroke-linejoin:miter"
     id="path30044" />
  <path
     d="M 69.03,262.0872 H 497.016"
     style="fill:none;stroke:#000000;stroke-width:0.8;stroke-linecap:square;stroke-linejoin:miter"
     id="path30047" />
  <path
     d="M 69.03,35.3376 H 497.016"
     style="fill:none;stroke:#000000;stroke-width:0.8;stroke-linecap:square;stroke-linejoin:miter"
     id="path30050" />
  <g
     id="patch_25">
    <path
       d="m 76.03,72.69385 h 54.71094 q 2,0 2,-2 V 42.3376 q 0,-2 -2,-2 H 76.03 q -2,0 -2,2 v 28.35625 q 0,2 2,2 z"
       style="opacity:0.8;fill:#ffffff;stroke:#cccccc;stroke-linejoin:miter"
       id="path30053" />
  </g>
  <g
     id="patch_26">
    <path
       d="m 78.03,51.936038 h 20 v -7 h -20 z"
       style="fill:#ff8c00"
       id="path30056" />
  </g>
  <g
     id="text_15">
    <!-- GNN -->
    <g
       transform="matrix(0.1,0,0,-0.1,106.03,51.936038)"
       id="g30069">
      <defs
         id="defs30061">
        <path
           id="DejaVuSans-47"
           d="M 3809,666 V 1919 H 2778 v 519 H 4434 V 434 Q 4069,175 3628,42 3188,-91 2688,-91 1594,-91 976,548 359,1188 359,2328 q 0,1144 617,1783 618,639 1712,639 456,0 867,-113 411,-112 758,-331 v -672 q -350,297 -744,447 -394,150 -828,150 -857,0 -1287,-478 -429,-478 -429,-1425 0,-944 429,-1422 430,-478 1287,-478 334,0 596,58 263,58 472,180 z"
           transform="scale(0.015625)" />
        <path
           id="DejaVuSans-4e"
           d="m 628,4666 h 850 L 3547,763 v 3903 h 612 V 0 H 3309 L 1241,3903 V 0 H 628 Z"
           transform="scale(0.015625)" />
      </defs>
      <use
         xlink:href="#DejaVuSans-47"
         id="use30063" />
      <use
         xlink:href="#DejaVuSans-4e"
         x="77.490234"
         id="use30065" />
      <use
         xlink:href="#DejaVuSans-4e"
         x="152.29492"
         id="use30067" />
    </g>
  </g>
  <g
     id="patch_27">
    <path
       d="m 78.03,66.614163 h 20 v -7 h -20 z"
       style="fill:#0000ff"
       id="path30072" />
  </g>
  <g
     id="text_16">
    <!-- CNN -->
    <g
       transform="matrix(0.1,0,0,-0.1,106.03,66.614163)"
       id="g30084">
      <defs
         id="defs30076">
        <path
           id="DejaVuSans-43"
           d="m 4122,4306 v -665 q -319,297 -680,443 -361,147 -767,147 -800,0 -1225,-489 -425,-489 -425,-1414 0,-922 425,-1411 425,-489 1225,-489 406,0 767,147 361,147 680,444 V 359 Q 3791,134 3420,21 3050,-91 2638,-91 1578,-91 968,557 359,1206 359,2328 q 0,1125 609,1773 610,649 1670,649 418,0 788,-111 371,-111 696,-333 z"
           transform="scale(0.015625)" />
      </defs>
      <use
         xlink:href="#DejaVuSans-43"
         id="use30078" />
      <use
         xlink:href="#DejaVuSans-4e"
         x="69.824219"
         id="use30080" />
      <use
         xlink:href="#DejaVuSans-4e"
         x="144.62891"
         id="use30082" />
    </g>
  </g>
  <defs
     id="defs30093">
    <clipPath
       id="p122a98e36c">
      <rect
         x="69.03"
         y="35.3376"
         width="427.986"
         height="226.7496"
         id="rect30090" />
    </clipPath>
  </defs>
  <text
     xml:space="preserve"
     style="font-size:10px;font-family:sans-serif;-inkscape-font-specification:sans-serif;text-align:center;text-anchor:middle;fill:none;stroke:#000000;stroke-width:0.810705"
     x="194.69635"
     y="276.49744"
     id="text30868"><tspan
       sodipodi:role="line"
       id="tspan30866"
       style="font-size:10px;stroke-width:0.810709"
       x="194.69635"
       y="276.49744">7</tspan></text>
</svg>
