<?xml version="1.0" encoding="UTF-8" standalone="no"?>
<svg
   width="628pt"
   height="367.20001pt"
   viewBox="0 0 628.00002 367.2"
   version="1.1"
   id="svg8319"
   sodipodi:docname="interesting_endgame2.svg"
   inkscape:version="1.2.1 (9c6d41e410, 2022-07-14, custom)"
   xmlns:inkscape="http://www.inkscape.org/namespaces/inkscape"
   xmlns:sodipodi="http://sodipodi.sourceforge.net/DTD/sodipodi-0.dtd"
   xmlns="http://www.w3.org/2000/svg"
   xmlns:svg="http://www.w3.org/2000/svg"
   xmlns:rdf="http://www.w3.org/1999/02/22-rdf-syntax-ns#"
   xmlns:cc="http://creativecommons.org/ns#"
   xmlns:dc="http://purl.org/dc/elements/1.1/">
  <sodipodi:namedview
     id="namedview8321"
     pagecolor="#ffffff"
     bordercolor="#000000"
     borderopacity="0.25"
     inkscape:showpageshadow="2"
     inkscape:pageopacity="0.0"
     inkscape:pagecheckerboard="0"
     inkscape:deskcolor="#d1d1d1"
     inkscape:document-units="pt"
     showgrid="false"
     inkscape:zoom="0.92110828"
     inkscape:cx="432.63101"
     inkscape:cy="299.63904"
     inkscape:window-width="1896"
     inkscape:window-height="1027"
     inkscape:window-x="12"
     inkscape:window-y="41"
     inkscape:window-maximized="1"
     inkscape:current-layer="svg8319" />
  <metadata
     id="metadata7928">
    <rdf:RDF>
      <cc:Work>
        <dc:type
           rdf:resource="http://purl.org/dc/dcmitype/StillImage" />
        <dc:date>2022-11-23T11:38:11.827998</dc:date>
        <dc:format>image/svg+xml</dc:format>
        <dc:creator>
          <cc:Agent>
            <dc:title>Matplotlib v3.5.2, https://matplotlib.org/</dc:title>
          </cc:Agent>
        </dc:creator>
      </cc:Work>
    </rdf:RDF>
  </metadata>
  <defs
     id="defs7932">
    <style
       type="text/css"
       id="style7930">*{stroke-linejoin: round; stroke-linecap: butt}</style>
  </defs>
  <g
     id="axes_1"
     transform="translate(-38.043591,-169.77465)">
    <g
       id="patch_2">
      <path
         d="M 352.8,356.98022 41.890909,535.10945 246.2026,174.09055 Z"
         clip-path="url(#pb55eeb3d9a)"
         style="opacity:0.7;fill:#ff0000;stroke:#ff0000;stroke-linejoin:miter"
         id="path7937" />
    </g>
    <g
       id="patch_3">
      <path
         d="M 352.8,356.98022 663.70909,174.09055 H 246.2026 Z"
         clip-path="url(#pb55eeb3d9a)"
         style="opacity:0.7;fill:#0000ff;stroke:#0000ff;stroke-linejoin:miter"
         id="path7940" />
    </g>
    <g
       id="patch_4">
      <path
         d="M 352.8,356.98022 663.70909,174.09055 459.3974,535.10945 Z"
         clip-path="url(#pb55eeb3d9a)"
         style="opacity:0.7;fill:#ff0000;stroke:#ff0000;stroke-linejoin:miter"
         id="path7943" />
    </g>
    <g
       id="patch_5">
      <path
         d="M 352.8,356.98022 41.890909,535.10945 H 459.3974 Z"
         clip-path="url(#pb55eeb3d9a)"
         style="opacity:0.7;fill:#0000ff;stroke:#0000ff;stroke-linejoin:miter"
         id="path7946" />
    </g>
    <g
       id="patch_6">
      <path
         d="M 86.306494,487.94542 68.54026,498.20276 v 20.51468 l 17.766234,10.25734 17.766236,-10.25734 v -20.51468 z"
         clip-path="url(#pb55eeb3d9a)"
         style="fill:#0000ff;stroke:#000000;stroke-width:2;stroke-linejoin:miter"
         id="path7949" />
    </g>
    <g
       id="patch_7">
      <path
         d="m 104.07273,457.1734 -17.766236,10.25734 v 20.51468 l 17.766236,10.25734 17.76623,-10.25734 v -20.51468 z"
         clip-path="url(#pb55eeb3d9a)"
         style="fill:#ff0000;stroke:#000000;stroke-width:2;stroke-linejoin:miter"
         id="path7952" />
    </g>
    <g
       id="patch_8">
      <path
         d="m 121.83896,426.40138 -17.76623,10.25734 v 20.51468 l 17.76623,10.25734 17.76623,-10.25734 v -20.51468 z"
         clip-path="url(#pb55eeb3d9a)"
         style="fill:#ffffff;stroke:#000000;stroke-width:2;stroke-linejoin:miter"
         id="path7955" />
    </g>
    <g
       id="patch_9">
      <path
         d="m 139.60519,395.62936 -17.76623,10.25734 v 20.51468 l 17.76623,10.25734 17.76624,-10.25734 V 405.8867 Z"
         clip-path="url(#pb55eeb3d9a)"
         style="fill:#ffffff;stroke:#000000;stroke-width:2;stroke-linejoin:miter"
         id="path7958" />
    </g>
    <g
       id="patch_10">
      <path
         d="m 157.37143,364.85734 -17.76624,10.25734 v 20.51468 l 17.76624,10.25734 17.76623,-10.25734 v -20.51468 z"
         clip-path="url(#pb55eeb3d9a)"
         style="fill:#ffffff;stroke:#000000;stroke-width:2;stroke-linejoin:miter"
         id="path7961" />
    </g>
    <g
       id="patch_11">
      <path
         d="m 175.13766,334.08532 -17.76623,10.25734 v 20.51468 l 17.76623,10.25734 17.76624,-10.25734 v -20.51468 z"
         clip-path="url(#pb55eeb3d9a)"
         style="fill:#ffffff;stroke:#000000;stroke-width:2;stroke-linejoin:miter"
         id="path7964" />
    </g>
    <g
       id="patch_12">
      <path
         d="m 192.9039,303.3133 -17.76624,10.25734 v 20.51468 l 17.76624,10.25734 17.76623,-10.25734 v -20.51468 z"
         clip-path="url(#pb55eeb3d9a)"
         style="fill:#ffffff;stroke:#000000;stroke-width:2;stroke-linejoin:miter"
         id="path7967" />
    </g>
    <g
       id="patch_13">
      <path
         d="m 210.67013,272.54128 -17.76623,10.25734 v 20.51468 l 17.76623,10.25734 17.76623,-10.25734 v -20.51468 z"
         clip-path="url(#pb55eeb3d9a)"
         style="fill:#0000ff;stroke:#000000;stroke-width:2;stroke-linejoin:miter"
         id="path7970" />
    </g>
    <g
       id="patch_14">
      <path
         d="m 228.43636,241.76926 -17.76623,10.25734 v 20.51468 l 17.76623,10.25734 17.76624,-10.25734 V 252.0266 Z"
         clip-path="url(#pb55eeb3d9a)"
         style="fill:#0000ff;stroke:#000000;stroke-width:2;stroke-linejoin:miter"
         id="path7973" />
    </g>
    <g
       id="patch_15">
      <path
         d="m 246.2026,210.99724 -17.76624,10.25734 v 20.51468 l 17.76624,10.25734 17.76623,-10.25734 v -20.51468 z"
         clip-path="url(#pb55eeb3d9a)"
         style="fill:#0000ff;stroke:#000000;stroke-width:2;stroke-linejoin:miter"
         id="path7976" />
    </g>
    <g
       id="patch_16">
      <path
         d="m 263.96883,180.22522 -17.76623,10.25734 v 20.51468 l 17.76623,10.25734 17.76624,-10.25734 v -20.51468 z"
         clip-path="url(#pb55eeb3d9a)"
         style="fill:#ff0000;stroke:#000000;stroke-width:2;stroke-linejoin:miter"
         id="path7979" />
    </g>
    <g
       id="patch_17">
      <path
         d="m 121.83896,487.94542 -17.76623,10.25734 v 20.51468 l 17.76623,10.25734 17.76623,-10.25734 v -20.51468 z"
         clip-path="url(#pb55eeb3d9a)"
         style="fill:#0000ff;stroke:#000000;stroke-width:2;stroke-linejoin:miter"
         id="path7982" />
    </g>
    <g
       id="patch_18">
      <path
         d="m 139.60519,457.1734 -17.76623,10.25734 v 20.51468 l 17.76623,10.25734 17.76624,-10.25734 v -20.51468 z"
         clip-path="url(#pb55eeb3d9a)"
         style="fill:#0000ff;stroke:#000000;stroke-width:2;stroke-linejoin:miter"
         id="path7985" />
    </g>
    <g
       id="patch_19">
      <path
         d="m 157.37143,426.40138 -17.76624,10.25734 v 20.51468 l 17.76624,10.25734 17.76623,-10.25734 v -20.51468 z"
         clip-path="url(#pb55eeb3d9a)"
         style="fill:#ffffff;stroke:#000000;stroke-width:2;stroke-linejoin:miter"
         id="path7988" />
    </g>
    <g
       id="patch_20">
      <path
         d="m 175.13766,395.62936 -17.76623,10.25734 v 20.51468 l 17.76623,10.25734 17.76624,-10.25734 V 405.8867 Z"
         clip-path="url(#pb55eeb3d9a)"
         style="fill:#ffffff;stroke:#000000;stroke-width:2;stroke-linejoin:miter"
         id="path7991" />
    </g>
    <g
       id="patch_21">
      <path
         d="m 192.9039,364.85734 -17.76624,10.25734 v 20.51468 l 17.76624,10.25734 17.76623,-10.25734 v -20.51468 z"
         clip-path="url(#pb55eeb3d9a)"
         style="fill:#ffffff;stroke:#000000;stroke-width:2;stroke-linejoin:miter"
         id="path7994" />
    </g>
    <g
       id="patch_22">
      <path
         d="m 210.67013,334.08532 -17.76623,10.25734 v 20.51468 l 17.76623,10.25734 17.76623,-10.25734 v -20.51468 z"
         clip-path="url(#pb55eeb3d9a)"
         style="fill:#ffffff;stroke:#000000;stroke-width:2;stroke-linejoin:miter"
         id="path7997" />
    </g>
    <g
       id="patch_23">
      <path
         d="m 228.43636,303.3133 -17.76623,10.25734 v 20.51468 l 17.76623,10.25734 17.76624,-10.25734 v -20.51468 z"
         clip-path="url(#pb55eeb3d9a)"
         style="fill:#ffffff;stroke:#000000;stroke-width:2;stroke-linejoin:miter"
         id="path8000" />
    </g>
    <g
       id="patch_24">
      <path
         d="m 246.2026,272.54128 -17.76624,10.25734 v 20.51468 l 17.76624,10.25734 17.76623,-10.25734 v -20.51468 z"
         clip-path="url(#pb55eeb3d9a)"
         style="fill:#ff0000;stroke:#000000;stroke-width:2;stroke-linejoin:miter"
         id="path8003" />
    </g>
    <g
       id="patch_25">
      <path
         d="M 263.96883,241.76926 246.2026,252.0266 v 20.51468 l 17.76623,10.25734 17.76624,-10.25734 V 252.0266 Z"
         clip-path="url(#pb55eeb3d9a)"
         style="fill:#0000ff;stroke:#000000;stroke-width:2;stroke-linejoin:miter"
         id="path8006" />
    </g>
    <g
       id="patch_26">
      <path
         d="m 281.73507,210.99724 -17.76624,10.25734 v 20.51468 l 17.76624,10.25734 17.76623,-10.25734 v -20.51468 z"
         clip-path="url(#pb55eeb3d9a)"
         style="fill:#0000ff;stroke:#000000;stroke-width:2;stroke-linejoin:miter"
         id="path8009" />
    </g>
    <g
       id="patch_27">
      <path
         d="m 299.5013,180.22522 -17.76623,10.25734 v 20.51468 l 17.76623,10.25734 17.76623,-10.25734 v -20.51468 z"
         clip-path="url(#pb55eeb3d9a)"
         style="fill:#ff0000;stroke:#000000;stroke-width:2;stroke-linejoin:miter"
         id="path8012" />
    </g>
    <g
       id="patch_28">
      <path
         d="m 157.37143,487.94542 -17.76624,10.25734 v 20.51468 l 17.76624,10.25734 17.76623,-10.25734 v -20.51468 z"
         clip-path="url(#pb55eeb3d9a)"
         style="fill:#0000ff;stroke:#000000;stroke-width:2;stroke-linejoin:miter"
         id="path8015" />
    </g>
    <g
       id="patch_29">
      <path
         d="m 175.13766,457.1734 -17.76623,10.25734 v 20.51468 l 17.76623,10.25734 17.76624,-10.25734 v -20.51468 z"
         clip-path="url(#pb55eeb3d9a)"
         style="fill:#ff0000;stroke:#000000;stroke-width:2;stroke-linejoin:miter"
         id="path8018" />
    </g>
    <g
       id="patch_30">
      <path
         d="m 192.9039,426.40138 -17.76624,10.25734 v 20.51468 l 17.76624,10.25734 17.76623,-10.25734 v -20.51468 z"
         clip-path="url(#pb55eeb3d9a)"
         style="fill:#ffffff;stroke:#000000;stroke-width:2;stroke-linejoin:miter"
         id="path8021" />
    </g>
    <g
       id="patch_31">
      <path
         d="M 210.67013,395.62936 192.9039,405.8867 v 20.51468 l 17.76623,10.25734 17.76623,-10.25734 V 405.8867 Z"
         clip-path="url(#pb55eeb3d9a)"
         style="fill:#ffffff;stroke:#000000;stroke-width:2;stroke-linejoin:miter"
         id="path8024" />
    </g>
    <g
       id="patch_32">
      <path
         d="m 228.43636,364.85734 -17.76623,10.25734 v 20.51468 l 17.76623,10.25734 17.76624,-10.25734 v -20.51468 z"
         clip-path="url(#pb55eeb3d9a)"
         style="fill:#ffffff;stroke:#000000;stroke-width:2;stroke-linejoin:miter"
         id="path8027" />
    </g>
    <g
       id="patch_33">
      <path
         d="m 246.2026,334.08532 -17.76624,10.25734 v 20.51468 l 17.76624,10.25734 17.76623,-10.25734 v -20.51468 z"
         clip-path="url(#pb55eeb3d9a)"
         style="fill:#ffffff;stroke:#000000;stroke-width:2;stroke-linejoin:miter"
         id="path8030" />
    </g>
    <g
       id="patch_34">
      <path
         d="m 263.96883,303.3133 -17.76623,10.25734 v 20.51468 l 17.76623,10.25734 17.76624,-10.25734 v -20.51468 z"
         clip-path="url(#pb55eeb3d9a)"
         style="fill:#0000ff;stroke:#000000;stroke-width:2;stroke-linejoin:miter"
         id="path8033" />
    </g>
    <g
       id="patch_35">
      <path
         d="m 281.73507,272.54128 -17.76624,10.25734 v 20.51468 l 17.76624,10.25734 17.76623,-10.25734 v -20.51468 z"
         clip-path="url(#pb55eeb3d9a)"
         style="fill:#ff0000;stroke:#000000;stroke-width:2;stroke-linejoin:miter"
         id="path8036" />
    </g>
    <g
       id="patch_36">
      <path
         d="m 299.5013,241.76926 -17.76623,10.25734 v 20.51468 l 17.76623,10.25734 17.76623,-10.25734 V 252.0266 Z"
         clip-path="url(#pb55eeb3d9a)"
         style="fill:#0000ff;stroke:#000000;stroke-width:2;stroke-linejoin:miter"
         id="path8039" />
    </g>
    <g
       id="patch_37">
      <path
         d="m 317.26753,210.99724 -17.76623,10.25734 v 20.51468 l 17.76623,10.25734 17.76624,-10.25734 v -20.51468 z"
         clip-path="url(#pb55eeb3d9a)"
         style="fill:#0000ff;stroke:#000000;stroke-width:2;stroke-linejoin:miter"
         id="path8042" />
    </g>
    <g
       id="patch_38">
      <path
         d="m 335.03377,180.22522 -17.76624,10.25734 v 20.51468 L 335.03377,221.25458 352.8,210.99724 v -20.51468 z"
         clip-path="url(#pb55eeb3d9a)"
         style="fill:#ff0000;stroke:#000000;stroke-width:2;stroke-linejoin:miter"
         id="path8045" />
    </g>
    <g
       id="patch_39">
      <path
         d="m 192.9039,487.94542 -17.76624,10.25734 v 20.51468 l 17.76624,10.25734 17.76623,-10.25734 v -20.51468 z"
         clip-path="url(#pb55eeb3d9a)"
         style="fill:#0000ff;stroke:#000000;stroke-width:2;stroke-linejoin:miter"
         id="path8048" />
    </g>
    <g
       id="patch_40">
      <path
         d="m 210.67013,457.1734 -17.76623,10.25734 v 20.51468 l 17.76623,10.25734 17.76623,-10.25734 v -20.51468 z"
         clip-path="url(#pb55eeb3d9a)"
         style="fill:#0000ff;stroke:#000000;stroke-width:2;stroke-linejoin:miter"
         id="path8051" />
    </g>
    <g
       id="patch_41">
      <path
         d="m 228.43636,426.40138 -17.76623,10.25734 v 20.51468 l 17.76623,10.25734 17.76624,-10.25734 v -20.51468 z"
         clip-path="url(#pb55eeb3d9a)"
         style="fill:#ffffff;stroke:#000000;stroke-width:2;stroke-linejoin:miter"
         id="path8054" />
    </g>
    <g
       id="patch_42">
      <path
         d="m 246.2026,395.62936 -17.76624,10.25734 v 20.51468 l 17.76624,10.25734 17.76623,-10.25734 V 405.8867 Z"
         clip-path="url(#pb55eeb3d9a)"
         style="fill:#ffffff;stroke:#000000;stroke-width:2;stroke-linejoin:miter"
         id="path8057" />
    </g>
    <g
       id="patch_43">
      <path
         d="m 263.96883,364.85734 -17.76623,10.25734 v 20.51468 l 17.76623,10.25734 17.76624,-10.25734 v -20.51468 z"
         clip-path="url(#pb55eeb3d9a)"
         style="fill:#ffffff;stroke:#000000;stroke-width:2;stroke-linejoin:miter"
         id="path8060" />
    </g>
    <g
       id="patch_44">
      <path
         d="m 281.73507,334.08532 -17.76624,10.25734 v 20.51468 l 17.76624,10.25734 17.76623,-10.25734 v -20.51468 z"
         clip-path="url(#pb55eeb3d9a)"
         style="fill:#0000ff;stroke:#000000;stroke-width:2;stroke-linejoin:miter"
         id="path8063" />
    </g>
    <g
       id="patch_45">
      <path
         d="m 299.5013,303.3133 -17.76623,10.25734 v 20.51468 l 17.76623,10.25734 17.76623,-10.25734 v -20.51468 z"
         clip-path="url(#pb55eeb3d9a)"
         style="fill:#0000ff;stroke:#000000;stroke-width:2;stroke-linejoin:miter"
         id="path8066" />
    </g>
    <g
       id="patch_46">
      <path
         d="m 317.26753,272.54128 -17.76623,10.25734 v 20.51468 l 17.76623,10.25734 17.76624,-10.25734 v -20.51468 z"
         clip-path="url(#pb55eeb3d9a)"
         style="fill:#ff0000;stroke:#000000;stroke-width:2;stroke-linejoin:miter"
         id="path8069" />
    </g>
    <g
       id="patch_47">
      <path
         d="m 335.03377,241.76926 -17.76624,10.25734 v 20.51468 L 335.03377,282.79862 352.8,272.54128 V 252.0266 Z"
         clip-path="url(#pb55eeb3d9a)"
         style="fill:#0000ff;stroke:#000000;stroke-width:2;stroke-linejoin:miter"
         id="path8072" />
    </g>
    <g
       id="patch_48">
      <path
         d="m 352.8,210.99724 -17.76623,10.25734 v 20.51468 L 352.8,252.0266 370.56623,241.76926 v -20.51468 z"
         clip-path="url(#pb55eeb3d9a)"
         style="fill:#0000ff;stroke:#000000;stroke-width:2;stroke-linejoin:miter"
         id="path8075" />
    </g>
    <g
       id="patch_49">
      <path
         d="M 370.56623,180.22522 352.8,190.48256 v 20.51468 l 17.76623,10.25734 17.76624,-10.25734 v -20.51468 z"
         clip-path="url(#pb55eeb3d9a)"
         style="fill:#ff0000;stroke:#000000;stroke-width:2;stroke-linejoin:miter"
         id="path8078" />
    </g>
    <g
       id="patch_50">
      <path
         d="m 228.43636,487.94542 -17.76623,10.25734 v 20.51468 l 17.76623,10.25734 17.76624,-10.25734 v -20.51468 z"
         clip-path="url(#pb55eeb3d9a)"
         style="fill:#0000ff;stroke:#000000;stroke-width:2;stroke-linejoin:miter"
         id="path8081" />
    </g>
    <g
       id="patch_51">
      <path
         d="m 246.2026,457.1734 -17.76624,10.25734 v 20.51468 l 17.76624,10.25734 17.76623,-10.25734 v -20.51468 z"
         clip-path="url(#pb55eeb3d9a)"
         style="fill:#ff0000;stroke:#000000;stroke-width:2;stroke-linejoin:miter"
         id="path8084" />
    </g>
    <g
       id="patch_52">
      <path
         d="m 263.96883,426.40138 -17.76623,10.25734 v 20.51468 l 17.76623,10.25734 17.76624,-10.25734 v -20.51468 z"
         clip-path="url(#pb55eeb3d9a)"
         style="fill:#0000ff;stroke:#000000;stroke-width:2;stroke-linejoin:miter"
         id="path8087" />
    </g>
    <g
       id="patch_53">
      <path
         d="m 281.73507,395.62936 -17.76624,10.25734 v 20.51468 l 17.76624,10.25734 17.76623,-10.25734 V 405.8867 Z"
         clip-path="url(#pb55eeb3d9a)"
         style="fill:#ff0000;stroke:#000000;stroke-width:2;stroke-linejoin:miter"
         id="path8090" />
    </g>
    <g
       id="patch_54">
      <path
         d="m 299.5013,364.85734 -17.76623,10.25734 v 20.51468 l 17.76623,10.25734 17.76623,-10.25734 v -20.51468 z"
         clip-path="url(#pb55eeb3d9a)"
         style="fill:#0000ff;stroke:#000000;stroke-width:2;stroke-linejoin:miter"
         id="path8093" />
    </g>
    <g
       id="patch_55">
      <path
         d="m 317.26753,334.08532 -17.76623,10.25734 v 20.51468 l 17.76623,10.25734 17.76624,-10.25734 v -20.51468 z"
         clip-path="url(#pb55eeb3d9a)"
         style="fill:#0000ff;stroke:#000000;stroke-width:2;stroke-linejoin:miter"
         id="path8096" />
    </g>
    <g
       id="patch_56">
      <path
         d="m 335.03377,303.3133 -17.76624,10.25734 v 20.51468 L 335.03377,344.34266 352.8,334.08532 v -20.51468 z"
         clip-path="url(#pb55eeb3d9a)"
         style="fill:#0000ff;stroke:#000000;stroke-width:2;stroke-linejoin:miter"
         id="path8099" />
    </g>
    <g
       id="patch_57">
      <path
         d="m 352.8,272.54128 -17.76623,10.25734 V 303.3133 L 352.8,313.57064 370.56623,303.3133 v -20.51468 z"
         clip-path="url(#pb55eeb3d9a)"
         style="fill:#ff0000;stroke:#000000;stroke-width:2;stroke-linejoin:miter"
         id="path8102" />
    </g>
    <g
       id="patch_58">
      <path
         d="M 370.56623,241.76926 352.8,252.0266 v 20.51468 l 17.76623,10.25734 17.76624,-10.25734 V 252.0266 Z"
         clip-path="url(#pb55eeb3d9a)"
         style="fill:#0000ff;stroke:#000000;stroke-width:2;stroke-linejoin:miter"
         id="path8105" />
    </g>
    <g
       id="patch_59">
      <path
         d="m 388.33247,210.99724 -17.76624,10.25734 v 20.51468 l 17.76624,10.25734 17.76623,-10.25734 v -20.51468 z"
         clip-path="url(#pb55eeb3d9a)"
         style="fill:#ff0000;stroke:#000000;stroke-width:2;stroke-linejoin:miter"
         id="path8108" />
    </g>
    <g
       id="patch_60">
      <path
         d="m 406.0987,180.22522 -17.76623,10.25734 v 20.51468 l 17.76623,10.25734 17.76623,-10.25734 v -20.51468 z"
         clip-path="url(#pb55eeb3d9a)"
         style="fill:#0000ff;stroke:#000000;stroke-width:2;stroke-linejoin:miter"
         id="path8111" />
    </g>
    <g
       id="patch_61">
      <path
         d="m 263.96883,487.94542 -17.76623,10.25734 v 20.51468 l 17.76623,10.25734 17.76624,-10.25734 v -20.51468 z"
         clip-path="url(#pb55eeb3d9a)"
         style="fill:#0000ff;stroke:#000000;stroke-width:2;stroke-linejoin:miter"
         id="path8114" />
    </g>
    <g
       id="patch_62">
      <path
         d="m 281.73507,457.1734 -17.76624,10.25734 v 20.51468 l 17.76624,10.25734 17.76623,-10.25734 v -20.51468 z"
         clip-path="url(#pb55eeb3d9a)"
         style="fill:#ff0000;stroke:#000000;stroke-width:2;stroke-linejoin:miter"
         id="path8117" />
    </g>
    <g
       id="patch_63">
      <path
         d="m 299.5013,426.40138 -17.76623,10.25734 v 20.51468 l 17.76623,10.25734 17.76623,-10.25734 v -20.51468 z"
         clip-path="url(#pb55eeb3d9a)"
         style="fill:#0000ff;stroke:#000000;stroke-width:2;stroke-linejoin:miter"
         id="path8120" />
    </g>
    <g
       id="patch_64">
      <path
         d="M 317.26753,395.62936 299.5013,405.8867 v 20.51468 l 17.76623,10.25734 17.76624,-10.25734 V 405.8867 Z"
         clip-path="url(#pb55eeb3d9a)"
         style="fill:#ff0000;stroke:#000000;stroke-width:2;stroke-linejoin:miter"
         id="path8123" />
    </g>
    <g
       id="patch_65">
      <path
         d="m 335.03377,364.85734 -17.76624,10.25734 v 20.51468 L 335.03377,405.8867 352.8,395.62936 v -20.51468 z"
         clip-path="url(#pb55eeb3d9a)"
         style="fill:#ff0000;stroke:#000000;stroke-width:2;stroke-linejoin:miter"
         id="path8126" />
    </g>
    <g
       id="patch_66">
      <path
         d="m 352.8,334.08532 -17.76623,10.25734 v 20.51468 L 352.8,375.11468 370.56623,364.85734 v -20.51468 z"
         clip-path="url(#pb55eeb3d9a)"
         style="fill:#ff0000;stroke:#000000;stroke-width:2;stroke-linejoin:miter"
         id="path8129" />
    </g>
    <g
       id="patch_67">
      <path
         d="M 370.56623,303.3133 352.8,313.57064 v 20.51468 l 17.76623,10.25734 17.76624,-10.25734 v -20.51468 z"
         clip-path="url(#pb55eeb3d9a)"
         style="fill:#0000ff;stroke:#000000;stroke-width:2;stroke-linejoin:miter"
         id="path8132" />
    </g>
    <g
       id="patch_68">
      <path
         d="m 388.33247,272.54128 -17.76624,10.25734 v 20.51468 l 17.76624,10.25734 17.76623,-10.25734 v -20.51468 z"
         clip-path="url(#pb55eeb3d9a)"
         style="fill:#ff0000;stroke:#000000;stroke-width:2;stroke-linejoin:miter"
         id="path8135" />
    </g>
    <g
       id="patch_69">
      <path
         d="m 406.0987,241.76926 -17.76623,10.25734 v 20.51468 l 17.76623,10.25734 17.76623,-10.25734 V 252.0266 Z"
         clip-path="url(#pb55eeb3d9a)"
         style="fill:#ff0000;stroke:#000000;stroke-width:2;stroke-linejoin:miter"
         id="path8138" />
    </g>
    <g
       id="patch_70">
      <path
         d="m 423.86493,210.99724 -17.76623,10.25734 v 20.51468 l 17.76623,10.25734 17.76624,-10.25734 v -20.51468 z"
         clip-path="url(#pb55eeb3d9a)"
         style="fill:#0000ff;stroke:#000000;stroke-width:2;stroke-linejoin:miter"
         id="path8141" />
    </g>
    <g
       id="patch_71">
      <path
         d="m 441.63117,180.22522 -17.76624,10.25734 v 20.51468 l 17.76624,10.25734 17.76623,-10.25734 v -20.51468 z"
         clip-path="url(#pb55eeb3d9a)"
         style="fill:#0000ff;stroke:#000000;stroke-width:2;stroke-linejoin:miter"
         id="path8144" />
    </g>
    <g
       id="patch_72">
      <path
         d="m 299.5013,487.94542 -17.76623,10.25734 v 20.51468 l 17.76623,10.25734 17.76623,-10.25734 v -20.51468 z"
         clip-path="url(#pb55eeb3d9a)"
         style="fill:#0000ff;stroke:#000000;stroke-width:2;stroke-linejoin:miter"
         id="path8147" />
    </g>
    <g
       id="patch_73">
      <path
         d="m 317.26753,457.1734 -17.76623,10.25734 v 20.51468 l 17.76623,10.25734 17.76624,-10.25734 v -20.51468 z"
         clip-path="url(#pb55eeb3d9a)"
         style="fill:#ff0000;stroke:#000000;stroke-width:2;stroke-linejoin:miter"
         id="path8150" />
    </g>
    <g
       id="patch_74">
      <path
         d="m 335.03377,426.40138 -17.76624,10.25734 V 457.1734 L 335.03377,467.43074 352.8,457.1734 v -20.51468 z"
         clip-path="url(#pb55eeb3d9a)"
         style="fill:#0000ff;stroke:#000000;stroke-width:2;stroke-linejoin:miter"
         id="path8153" />
    </g>
    <g
       id="patch_75">
      <path
         d="m 352.8,395.62936 -17.76623,10.25734 v 20.51468 L 352.8,436.65872 370.56623,426.40138 V 405.8867 Z"
         clip-path="url(#pb55eeb3d9a)"
         style="fill:#0000ff;stroke:#000000;stroke-width:2;stroke-linejoin:miter"
         id="path8156" />
    </g>
    <g
       id="patch_76">
      <path
         d="M 370.56623,364.85734 352.8,375.11468 v 20.51468 l 17.76623,10.25734 17.76624,-10.25734 v -20.51468 z"
         clip-path="url(#pb55eeb3d9a)"
         style="fill:#0000ff;stroke:#000000;stroke-width:2;stroke-linejoin:miter"
         id="path8159" />
    </g>
    <g
       id="patch_77">
      <path
         d="m 388.33247,334.08532 -17.76624,10.25734 v 20.51468 l 17.76624,10.25734 17.76623,-10.25734 v -20.51468 z"
         clip-path="url(#pb55eeb3d9a)"
         style="fill:#ff0000;stroke:#000000;stroke-width:2;stroke-linejoin:miter"
         id="path8162" />
    </g>
    <g
       id="patch_78">
      <path
         d="m 406.0987,303.3133 -17.76623,10.25734 v 20.51468 l 17.76623,10.25734 17.76623,-10.25734 v -20.51468 z"
         clip-path="url(#pb55eeb3d9a)"
         style="fill:#0000ff;stroke:#000000;stroke-width:2;stroke-linejoin:miter"
         id="path8165" />
    </g>
    <g
       id="patch_79">
      <path
         d="m 423.86493,272.54128 -17.76623,10.25734 v 20.51468 l 17.76623,10.25734 17.76624,-10.25734 v -20.51468 z"
         clip-path="url(#pb55eeb3d9a)"
         style="fill:#0000ff;stroke:#000000;stroke-width:2;stroke-linejoin:miter"
         id="path8168" />
    </g>
    <g
       id="patch_80">
      <path
         d="m 441.63117,241.76926 -17.76624,10.25734 v 20.51468 l 17.76624,10.25734 17.76623,-10.25734 V 252.0266 Z"
         clip-path="url(#pb55eeb3d9a)"
         style="fill:#0000ff;stroke:#000000;stroke-width:2;stroke-linejoin:miter"
         id="path8171" />
    </g>
    <g
       id="patch_81">
      <path
         d="m 459.3974,210.99724 -17.76623,10.25734 v 20.51468 l 17.76623,10.25734 17.76624,-10.25734 v -20.51468 z"
         clip-path="url(#pb55eeb3d9a)"
         style="fill:#0000ff;stroke:#000000;stroke-width:2;stroke-linejoin:miter"
         id="path8174" />
    </g>
    <g
       id="patch_82">
      <path
         d="m 477.16364,180.22522 -17.76624,10.25734 v 20.51468 l 17.76624,10.25734 17.76623,-10.25734 v -20.51468 z"
         clip-path="url(#pb55eeb3d9a)"
         style="fill:#0000ff;stroke:#000000;stroke-width:2;stroke-linejoin:miter"
         id="path8177" />
    </g>
    <g
       id="patch_83">
      <path
         d="m 335.03377,487.94542 -17.76624,10.25734 v 20.51468 L 335.03377,528.97478 352.8,518.71744 v -20.51468 z"
         clip-path="url(#pb55eeb3d9a)"
         style="fill:#ff0000;stroke:#000000;stroke-width:2;stroke-linejoin:miter"
         id="path8180" />
    </g>
    <g
       id="patch_84">
      <path
         d="m 352.8,457.1734 -17.76623,10.25734 v 20.51468 L 352.8,498.20276 370.56623,487.94542 v -20.51468 z"
         clip-path="url(#pb55eeb3d9a)"
         style="fill:#0000ff;stroke:#000000;stroke-width:2;stroke-linejoin:miter"
         id="path8183" />
    </g>
    <g
       id="patch_85">
      <path
         d="M 370.56623,426.40138 352.8,436.65872 v 20.51468 l 17.76623,10.25734 17.76624,-10.25734 v -20.51468 z"
         clip-path="url(#pb55eeb3d9a)"
         style="fill:#0000ff;stroke:#000000;stroke-width:2;stroke-linejoin:miter"
         id="path8186" />
    </g>
    <g
       id="patch_86">
      <path
         d="m 388.33247,395.62936 -17.76624,10.25734 v 20.51468 l 17.76624,10.25734 17.76623,-10.25734 V 405.8867 Z"
         clip-path="url(#pb55eeb3d9a)"
         style="fill:#0000ff;stroke:#000000;stroke-width:2;stroke-linejoin:miter"
         id="path8189" />
    </g>
    <g
       id="patch_87">
      <path
         d="m 406.0987,364.85734 -17.76623,10.25734 v 20.51468 l 17.76623,10.25734 17.76623,-10.25734 v -20.51468 z"
         clip-path="url(#pb55eeb3d9a)"
         style="fill:#ff0000;stroke:#000000;stroke-width:2;stroke-linejoin:miter"
         id="path8192" />
    </g>
    <g
       id="patch_88">
      <path
         d="m 423.86493,334.08532 -17.76623,10.25734 v 20.51468 l 17.76623,10.25734 17.76624,-10.25734 v -20.51468 z"
         clip-path="url(#pb55eeb3d9a)"
         style="fill:#0000ff;stroke:#000000;stroke-width:2;stroke-linejoin:miter"
         id="path8195" />
    </g>
    <g
       id="patch_89">
      <path
         d="m 441.63117,303.3133 -17.76624,10.25734 v 20.51468 l 17.76624,10.25734 17.76623,-10.25734 v -20.51468 z"
         clip-path="url(#pb55eeb3d9a)"
         style="fill:#0000ff;stroke:#000000;stroke-width:2;stroke-linejoin:miter"
         id="path8198" />
    </g>
    <g
       id="patch_90">
      <path
         d="m 459.3974,272.54128 -17.76623,10.25734 v 20.51468 l 17.76623,10.25734 17.76624,-10.25734 v -20.51468 z"
         clip-path="url(#pb55eeb3d9a)"
         style="fill:#0000ff;stroke:#000000;stroke-width:2;stroke-linejoin:miter"
         id="path8201" />
    </g>
    <g
       id="patch_91">
      <path
         d="M 477.16364,241.76926 459.3974,252.0266 v 20.51468 l 17.76624,10.25734 17.76623,-10.25734 V 252.0266 Z"
         clip-path="url(#pb55eeb3d9a)"
         style="fill:#0000ff;stroke:#000000;stroke-width:2;stroke-linejoin:miter"
         id="path8204" />
    </g>
    <g
       id="patch_92">
      <path
         d="m 494.92987,210.99724 -17.76623,10.25734 v 20.51468 l 17.76623,10.25734 17.76623,-10.25734 v -20.51468 z"
         clip-path="url(#pb55eeb3d9a)"
         style="fill:#0000ff;stroke:#000000;stroke-width:2;stroke-linejoin:miter"
         id="path8207" />
    </g>
    <g
       id="patch_93">
      <path
         d="m 512.6961,180.22522 -17.76623,10.25734 v 20.51468 l 17.76623,10.25734 17.76624,-10.25734 v -20.51468 z"
         clip-path="url(#pb55eeb3d9a)"
         style="fill:#0000ff;stroke:#000000;stroke-width:2;stroke-linejoin:miter"
         id="path8210" />
    </g>
    <g
       id="patch_94">
      <path
         d="M 370.56623,487.94542 352.8,498.20276 v 20.51468 l 17.76623,10.25734 17.76624,-10.25734 v -20.51468 z"
         clip-path="url(#pb55eeb3d9a)"
         style="fill:#ff0000;stroke:#000000;stroke-width:2;stroke-linejoin:miter"
         id="path8213" />
    </g>
    <g
       id="patch_95">
      <path
         d="m 388.33247,457.1734 -17.76624,10.25734 v 20.51468 l 17.76624,10.25734 17.76623,-10.25734 v -20.51468 z"
         clip-path="url(#pb55eeb3d9a)"
         style="fill:#0000ff;stroke:#000000;stroke-width:2;stroke-linejoin:miter"
         id="path8216" />
    </g>
    <g
       id="patch_96">
      <path
         d="m 406.0987,426.40138 -17.76623,10.25734 v 20.51468 l 17.76623,10.25734 17.76623,-10.25734 v -20.51468 z"
         clip-path="url(#pb55eeb3d9a)"
         style="fill:#0000ff;stroke:#000000;stroke-width:2;stroke-linejoin:miter"
         id="path8219" />
    </g>
    <g
       id="patch_97">
      <path
         d="M 423.86493,395.62936 406.0987,405.8867 v 20.51468 l 17.76623,10.25734 17.76624,-10.25734 V 405.8867 Z"
         clip-path="url(#pb55eeb3d9a)"
         style="fill:#0000ff;stroke:#000000;stroke-width:2;stroke-linejoin:miter"
         id="path8222" />
    </g>
    <g
       id="patch_98">
      <path
         d="m 441.63117,364.85734 -17.76624,10.25734 v 20.51468 l 17.76624,10.25734 17.76623,-10.25734 v -20.51468 z"
         clip-path="url(#pb55eeb3d9a)"
         style="fill:#ff0000;stroke:#000000;stroke-width:2;stroke-linejoin:miter"
         id="path8225" />
    </g>
    <g
       id="patch_99">
      <path
         d="m 459.3974,334.08532 -17.76623,10.25734 v 20.51468 l 17.76623,10.25734 17.76624,-10.25734 v -20.51468 z"
         clip-path="url(#pb55eeb3d9a)"
         style="fill:#0000ff;stroke:#000000;stroke-width:2;stroke-linejoin:miter"
         id="path8228" />
    </g>
    <g
       id="patch_100">
      <path
         d="m 477.16364,303.3133 -17.76624,10.25734 v 20.51468 l 17.76624,10.25734 17.76623,-10.25734 v -20.51468 z"
         clip-path="url(#pb55eeb3d9a)"
         style="fill:#0000ff;stroke:#000000;stroke-width:2;stroke-linejoin:miter"
         id="path8231" />
    </g>
    <g
       id="patch_101">
      <path
         d="m 494.92987,272.54128 -17.76623,10.25734 v 20.51468 l 17.76623,10.25734 17.76623,-10.25734 v -20.51468 z"
         clip-path="url(#pb55eeb3d9a)"
         style="fill:#0000ff;stroke:#000000;stroke-width:2;stroke-linejoin:miter"
         id="path8234" />
    </g>
    <g
       id="patch_102">
      <path
         d="m 512.6961,241.76926 -17.76623,10.25734 v 20.51468 l 17.76623,10.25734 17.76624,-10.25734 V 252.0266 Z"
         clip-path="url(#pb55eeb3d9a)"
         style="fill:#ff0000;stroke:#000000;stroke-width:2;stroke-linejoin:miter"
         id="path8237" />
    </g>
    <g
       id="patch_103">
      <path
         d="m 530.46234,210.99724 -17.76624,10.25734 v 20.51468 l 17.76624,10.25734 17.76623,-10.25734 v -20.51468 z"
         clip-path="url(#pb55eeb3d9a)"
         style="fill:#ff0000;stroke:#000000;stroke-width:2;stroke-linejoin:miter"
         id="path8240" />
    </g>
    <g
       id="patch_104">
      <path
         d="m 548.22857,180.22522 -17.76623,10.25734 v 20.51468 l 17.76623,10.25734 17.76624,-10.25734 v -20.51468 z"
         clip-path="url(#pb55eeb3d9a)"
         style="fill:#ff0000;stroke:#000000;stroke-width:2;stroke-linejoin:miter"
         id="path8243" />
    </g>
    <g
       id="patch_105">
      <path
         d="m 406.0987,487.94542 -17.76623,10.25734 v 20.51468 l 17.76623,10.25734 17.76623,-10.25734 v -20.51468 z"
         clip-path="url(#pb55eeb3d9a)"
         style="fill:#ff0000;stroke:#000000;stroke-width:2;stroke-linejoin:miter"
         id="path8246" />
    </g>
    <g
       id="patch_106">
      <path
         d="m 423.86493,457.1734 -17.76623,10.25734 v 20.51468 l 17.76623,10.25734 17.76624,-10.25734 v -20.51468 z"
         clip-path="url(#pb55eeb3d9a)"
         style="fill:#0000ff;stroke:#000000;stroke-width:2;stroke-linejoin:miter"
         id="path8249" />
    </g>
    <g
       id="patch_107">
      <path
         d="m 441.63117,426.40138 -17.76624,10.25734 v 20.51468 l 17.76624,10.25734 17.76623,-10.25734 v -20.51468 z"
         clip-path="url(#pb55eeb3d9a)"
         style="fill:#0000ff;stroke:#000000;stroke-width:2;stroke-linejoin:miter"
         id="path8252" />
    </g>
    <g
       id="patch_108">
      <path
         d="m 459.3974,395.62936 -17.76623,10.25734 v 20.51468 l 17.76623,10.25734 17.76624,-10.25734 V 405.8867 Z"
         clip-path="url(#pb55eeb3d9a)"
         style="fill:#ff0000;stroke:#000000;stroke-width:2;stroke-linejoin:miter"
         id="path8255" />
    </g>
    <g
       id="patch_109">
      <path
         d="m 477.16364,364.85734 -17.76624,10.25734 v 20.51468 l 17.76624,10.25734 17.76623,-10.25734 v -20.51468 z"
         clip-path="url(#pb55eeb3d9a)"
         style="fill:#ff0000;stroke:#000000;stroke-width:2;stroke-linejoin:miter"
         id="path8258" />
    </g>
    <g
       id="patch_110">
      <path
         d="m 494.92987,334.08532 -17.76623,10.25734 v 20.51468 l 17.76623,10.25734 17.76623,-10.25734 v -20.51468 z"
         clip-path="url(#pb55eeb3d9a)"
         style="fill:#ff0000;stroke:#000000;stroke-width:2;stroke-linejoin:miter"
         id="path8261" />
    </g>
    <g
       id="patch_111">
      <path
         d="m 512.6961,303.3133 -17.76623,10.25734 v 20.51468 l 17.76623,10.25734 17.76624,-10.25734 v -20.51468 z"
         clip-path="url(#pb55eeb3d9a)"
         style="fill:#0000ff;stroke:#000000;stroke-width:2;stroke-linejoin:miter"
         id="path8264" />
    </g>
    <g
       id="patch_112">
      <path
         d="m 530.46234,272.54128 -17.76624,10.25734 v 20.51468 l 17.76624,10.25734 17.76623,-10.25734 v -20.51468 z"
         clip-path="url(#pb55eeb3d9a)"
         style="fill:#ff0000;stroke:#000000;stroke-width:2;stroke-linejoin:miter"
         id="path8267" />
    </g>
    <g
       id="patch_113">
      <path
         d="m 548.22857,241.76926 -17.76623,10.25734 v 20.51468 l 17.76623,10.25734 17.76624,-10.25734 V 252.0266 Z"
         clip-path="url(#pb55eeb3d9a)"
         style="fill:#0000ff;stroke:#000000;stroke-width:2;stroke-linejoin:miter"
         id="path8270" />
    </g>
    <g
       id="patch_114">
      <path
         d="m 565.99481,210.99724 -17.76624,10.25734 v 20.51468 l 17.76624,10.25734 17.76623,-10.25734 v -20.51468 z"
         clip-path="url(#pb55eeb3d9a)"
         style="fill:#0000ff;stroke:#000000;stroke-width:2;stroke-linejoin:miter"
         id="path8273" />
    </g>
    <g
       id="patch_115">
      <path
         d="m 583.76104,180.22522 -17.76623,10.25734 v 20.51468 l 17.76623,10.25734 17.76623,-10.25734 v -20.51468 z"
         clip-path="url(#pb55eeb3d9a)"
         style="fill:#0000ff;stroke:#000000;stroke-width:2;stroke-linejoin:miter"
         id="path8276" />
    </g>
    <g
       id="patch_116">
      <path
         d="m 441.63117,487.94542 -17.76624,10.25734 v 20.51468 l 17.76624,10.25734 17.76623,-10.25734 v -20.51468 z"
         clip-path="url(#pb55eeb3d9a)"
         style="fill:#ff0000;stroke:#000000;stroke-width:2;stroke-linejoin:miter"
         id="path8279" />
    </g>
    <g
       id="patch_117">
      <path
         d="m 459.3974,457.1734 -17.76623,10.25734 v 20.51468 l 17.76623,10.25734 17.76624,-10.25734 v -20.51468 z"
         clip-path="url(#pb55eeb3d9a)"
         style="fill:#0000ff;stroke:#000000;stroke-width:2;stroke-linejoin:miter"
         id="path8282" />
    </g>
    <g
       id="patch_118">
      <path
         d="m 477.16364,426.40138 -17.76624,10.25734 v 20.51468 l 17.76624,10.25734 17.76623,-10.25734 v -20.51468 z"
         clip-path="url(#pb55eeb3d9a)"
         style="fill:#ff0000;stroke:#000000;stroke-width:2;stroke-linejoin:miter"
         id="path8285" />
    </g>
    <g
       id="patch_119">
      <path
         d="m 494.92987,395.62936 -17.76623,10.25734 v 20.51468 l 17.76623,10.25734 17.76623,-10.25734 V 405.8867 Z"
         clip-path="url(#pb55eeb3d9a)"
         style="fill:#0000ff;stroke:#000000;stroke-width:2;stroke-linejoin:miter"
         id="path8288" />
    </g>
    <g
       id="patch_120">
      <path
         d="m 512.6961,364.85734 -17.76623,10.25734 v 20.51468 l 17.76623,10.25734 17.76624,-10.25734 v -20.51468 z"
         clip-path="url(#pb55eeb3d9a)"
         style="fill:#0000ff;stroke:#000000;stroke-width:2;stroke-linejoin:miter"
         id="path8291" />
    </g>
    <g
       id="patch_121">
      <path
         d="m 530.46234,334.08532 -17.76624,10.25734 v 20.51468 l 17.76624,10.25734 17.76623,-10.25734 v -20.51468 z"
         clip-path="url(#pb55eeb3d9a)"
         style="fill:#0000ff;stroke:#000000;stroke-width:2;stroke-linejoin:miter"
         id="path8294" />
    </g>
    <g
       id="patch_122">
      <path
         d="m 548.22857,303.3133 -17.76623,10.25734 v 20.51468 l 17.76623,10.25734 17.76624,-10.25734 v -20.51468 z"
         clip-path="url(#pb55eeb3d9a)"
         style="fill:#ff0000;stroke:#000000;stroke-width:2;stroke-linejoin:miter"
         id="path8297" />
    </g>
    <g
       id="patch_123">
      <path
         d="m 565.99481,272.54128 -17.76624,10.25734 v 20.51468 l 17.76624,10.25734 17.76623,-10.25734 v -20.51468 z"
         clip-path="url(#pb55eeb3d9a)"
         style="fill:#0000ff;stroke:#000000;stroke-width:2;stroke-linejoin:miter"
         id="path8300" />
    </g>
    <g
       id="patch_124">
      <path
         d="m 583.76104,241.76926 -17.76623,10.25734 v 20.51468 l 17.76623,10.25734 17.76623,-10.25734 V 252.0266 Z"
         clip-path="url(#pb55eeb3d9a)"
         style="fill:#0000ff;stroke:#000000;stroke-width:2;stroke-linejoin:miter"
         id="path8303" />
    </g>
    <g
       id="patch_125">
      <path
         d="m 601.52727,210.99724 -17.76623,10.25734 v 20.51468 l 17.76623,10.25734 17.76624,-10.25734 v -20.51468 z"
         clip-path="url(#pb55eeb3d9a)"
         style="fill:#0000ff;stroke:#000000;stroke-width:2;stroke-linejoin:miter"
         id="path8306" />
    </g>
    <g
       id="patch_126">
      <path
         d="m 619.29351,180.22522 -17.76624,10.25734 v 20.51468 l 17.76624,10.25734 17.76623,-10.25734 v -20.51468 z"
         clip-path="url(#pb55eeb3d9a)"
         style="fill:#0000ff;stroke:#000000;stroke-width:2;stroke-linejoin:miter"
         id="path8309" />
    </g>
  </g>
  <defs
     id="defs8317">
    <clipPath
       id="pb55eeb3d9a">
      <rect
         x="10.8"
         y="156.03961"
         width="684"
         height="397.12079"
         id="rect8314" />
    </clipPath>
  </defs>
</svg>
