<?xml version="1.0" encoding="utf-8" standalone="no"?>
<!DOCTYPE svg PUBLIC "-//W3C//DTD SVG 1.1//EN"
  "http://www.w3.org/Graphics/SVG/1.1/DTD/svg11.dtd">
<svg xmlns:xlink="http://www.w3.org/1999/xlink" width="650.88pt" height="709.2pt" viewBox="0 0 650.88 709.2" xmlns="http://www.w3.org/2000/svg" version="1.1">
 <metadata>
  <rdf:RDF xmlns:dc="http://purl.org/dc/elements/1.1/" xmlns:cc="http://creativecommons.org/ns#" xmlns:rdf="http://www.w3.org/1999/02/22-rdf-syntax-ns#">
   <cc:Work>
    <dc:type rdf:resource="http://purl.org/dc/dcmitype/StillImage"/>
    <dc:date>2023-01-19T01:50:29.750917</dc:date>
    <dc:format>image/svg+xml</dc:format>
    <dc:creator>
     <cc:Agent>
      <dc:title>Matplotlib v3.5.2, https://matplotlib.org/</dc:title>
     </cc:Agent>
    </dc:creator>
   </cc:Work>
  </rdf:RDF>
 </metadata>
 <defs>
  <style type="text/css">*{stroke-linejoin: round; stroke-linecap: butt}</style>
 </defs>
 <g id="figure_1">
  <g id="patch_1">
   <path d="M 0 709.2 
L 650.88 709.2 
L 650.88 0 
L 0 0 
z
" style="fill: #ffffff"/>
  </g>
  <g id="axes_1">
   <g id="patch_2">
    <path d="M 324.72 361.268424 
L 38.683636 523.808656 
L 223.765989 189.711344 
z
" clip-path="url(#p4200f284c1)" style="fill: #ff0000; opacity: 0.7; stroke: #ff0000; stroke-linejoin: miter"/>
   </g>
   <g id="patch_3">
    <path d="M 324.72 361.268424 
L 610.756364 189.711344 
L 223.765989 189.711344 
z
" clip-path="url(#p4200f284c1)" style="fill: #0000ff; opacity: 0.7; stroke: #0000ff; stroke-linejoin: miter"/>
   </g>
   <g id="patch_4">
    <path d="M 324.72 361.268424 
L 610.756364 189.711344 
L 425.674011 523.808656 
z
" clip-path="url(#p4200f284c1)" style="fill: #ff0000; opacity: 0.7; stroke: #ff0000; stroke-linejoin: miter"/>
   </g>
   <g id="patch_5">
    <path d="M 324.72 361.268424 
L 38.683636 523.808656 
L 425.674011 523.808656 
z
" clip-path="url(#p4200f284c1)" style="fill: #0000ff; opacity: 0.7; stroke: #0000ff; stroke-linejoin: miter"/>
   </g>
   <g id="patch_6">
    <path d="M 122.811979 434.474434 
L 89.160642 453.903042 
L 89.160642 492.760259 
L 122.811979 512.188867 
L 156.463316 492.760259 
L 156.463316 453.903042 
z
" clip-path="url(#p4200f284c1)" style="fill: #ffffff; stroke: #000000; stroke-width: 2; stroke-linejoin: miter"/>
   </g>
   <g id="patch_7">
    <path d="M 156.463316 376.188608 
L 122.811979 395.617217 
L 122.811979 434.474434 
L 156.463316 453.903042 
L 190.114652 434.474434 
L 190.114652 395.617217 
z
" clip-path="url(#p4200f284c1)" style="fill: #ffffff; stroke: #000000; stroke-width: 2; stroke-linejoin: miter"/>
   </g>
   <g id="patch_8">
    <path d="M 190.114652 317.902783 
L 156.463316 337.331392 
L 156.463316 376.188608 
L 190.114652 395.617217 
L 223.765989 376.188608 
L 223.765989 337.331392 
z
" clip-path="url(#p4200f284c1)" style="fill: #ff0000; stroke: #000000; stroke-width: 2; stroke-linejoin: miter"/>
   </g>
   <g id="patch_9">
    <path d="M 223.765989 259.616958 
L 190.114652 279.045566 
L 190.114652 317.902783 
L 223.765989 337.331392 
L 257.417326 317.902783 
L 257.417326 279.045566 
z
" clip-path="url(#p4200f284c1)" style="fill: #ffffff; stroke: #000000; stroke-width: 2; stroke-linejoin: miter"/>
   </g>
   <g id="patch_10">
    <path d="M 257.417326 201.331133 
L 223.765989 220.759741 
L 223.765989 259.616958 
L 257.417326 279.045566 
L 291.068663 259.616958 
L 291.068663 220.759741 
z
" clip-path="url(#p4200f284c1)" style="fill: #ffffff; stroke: #000000; stroke-width: 2; stroke-linejoin: miter"/>
   </g>
   <g id="patch_11">
    <path d="M 190.114652 434.474434 
L 156.463316 453.903042 
L 156.463316 492.760259 
L 190.114652 512.188867 
L 223.765989 492.760259 
L 223.765989 453.903042 
z
" clip-path="url(#p4200f284c1)" style="fill: #ffffff; stroke: #000000; stroke-width: 2; stroke-linejoin: miter"/>
   </g>
   <g id="patch_12">
    <path d="M 223.765989 376.188608 
L 190.114652 395.617217 
L 190.114652 434.474434 
L 223.765989 453.903042 
L 257.417326 434.474434 
L 257.417326 395.617217 
z
" clip-path="url(#p4200f284c1)" style="fill: #ffffff; stroke: #000000; stroke-width: 2; stroke-linejoin: miter"/>
   </g>
   <g id="patch_13">
    <path d="M 257.417326 317.902783 
L 223.765989 337.331392 
L 223.765989 376.188608 
L 257.417326 395.617217 
L 291.068663 376.188608 
L 291.068663 337.331392 
z
" clip-path="url(#p4200f284c1)" style="fill: #ff0000; stroke: #000000; stroke-width: 2; stroke-linejoin: miter"/>
   </g>
   <g id="patch_14">
    <path d="M 291.068663 259.616958 
L 257.417326 279.045566 
L 257.417326 317.902783 
L 291.068663 337.331392 
L 324.72 317.902783 
L 324.72 279.045566 
z
" clip-path="url(#p4200f284c1)" style="fill: #ffffff; stroke: #000000; stroke-width: 2; stroke-linejoin: miter"/>
   </g>
   <g id="patch_15">
    <path d="M 324.72 201.331133 
L 291.068663 220.759741 
L 291.068663 259.616958 
L 324.72 279.045566 
L 358.371337 259.616958 
L 358.371337 220.759741 
z
" clip-path="url(#p4200f284c1)" style="fill: #ffffff; stroke: #000000; stroke-width: 2; stroke-linejoin: miter"/>
   </g>
   <g id="patch_16">
    <path d="M 257.417326 434.474434 
L 223.765989 453.903042 
L 223.765989 492.760259 
L 257.417326 512.188867 
L 291.068663 492.760259 
L 291.068663 453.903042 
z
" clip-path="url(#p4200f284c1)" style="fill: #0000ff; stroke: #000000; stroke-width: 2; stroke-linejoin: miter"/>
   </g>
   <g id="patch_17">
    <path d="M 291.068663 376.188608 
L 257.417326 395.617217 
L 257.417326 434.474434 
L 291.068663 453.903042 
L 324.72 434.474434 
L 324.72 395.617217 
z
" clip-path="url(#p4200f284c1)" style="fill: #0000ff; stroke: #000000; stroke-width: 2; stroke-linejoin: miter"/>
   </g>
   <g id="patch_18">
    <path d="M 324.72 317.902783 
L 291.068663 337.331392 
L 291.068663 376.188608 
L 324.72 395.617217 
L 358.371337 376.188608 
L 358.371337 337.331392 
z
" clip-path="url(#p4200f284c1)" style="fill: #ff0000; stroke: #000000; stroke-width: 2; stroke-linejoin: miter"/>
   </g>
   <g id="patch_19">
    <path d="M 358.371337 259.616958 
L 324.72 279.045566 
L 324.72 317.902783 
L 358.371337 337.331392 
L 392.022674 317.902783 
L 392.022674 279.045566 
z
" clip-path="url(#p4200f284c1)" style="fill: #0000ff; stroke: #000000; stroke-width: 2; stroke-linejoin: miter"/>
   </g>
   <g id="patch_20">
    <path d="M 392.022674 201.331133 
L 358.371337 220.759741 
L 358.371337 259.616958 
L 392.022674 279.045566 
L 425.674011 259.616958 
L 425.674011 220.759741 
z
" clip-path="url(#p4200f284c1)" style="fill: #0000ff; stroke: #000000; stroke-width: 2; stroke-linejoin: miter"/>
   </g>
   <g id="patch_21">
    <path d="M 324.72 434.474434 
L 291.068663 453.903042 
L 291.068663 492.760259 
L 324.72 512.188867 
L 358.371337 492.760259 
L 358.371337 453.903042 
z
" clip-path="url(#p4200f284c1)" style="fill: #ffffff; stroke: #000000; stroke-width: 2; stroke-linejoin: miter"/>
   </g>
   <g id="patch_22">
    <path d="M 358.371337 376.188608 
L 324.72 395.617217 
L 324.72 434.474434 
L 358.371337 453.903042 
L 392.022674 434.474434 
L 392.022674 395.617217 
z
" clip-path="url(#p4200f284c1)" style="fill: #ffffff; stroke: #000000; stroke-width: 2; stroke-linejoin: miter"/>
   </g>
   <g id="patch_23">
    <path d="M 392.022674 317.902783 
L 358.371337 337.331392 
L 358.371337 376.188608 
L 392.022674 395.617217 
L 425.674011 376.188608 
L 425.674011 337.331392 
z
" clip-path="url(#p4200f284c1)" style="fill: #ff0000; stroke: #000000; stroke-width: 2; stroke-linejoin: miter"/>
   </g>
   <g id="patch_24">
    <path d="M 425.674011 259.616958 
L 392.022674 279.045566 
L 392.022674 317.902783 
L 425.674011 337.331392 
L 459.325348 317.902783 
L 459.325348 279.045566 
z
" clip-path="url(#p4200f284c1)" style="fill: #ffffff; stroke: #000000; stroke-width: 2; stroke-linejoin: miter"/>
   </g>
   <g id="patch_25">
    <path d="M 459.325348 201.331133 
L 425.674011 220.759741 
L 425.674011 259.616958 
L 459.325348 279.045566 
L 492.976684 259.616958 
L 492.976684 220.759741 
z
" clip-path="url(#p4200f284c1)" style="fill: #ffffff; stroke: #000000; stroke-width: 2; stroke-linejoin: miter"/>
   </g>
   <g id="patch_26">
    <path d="M 392.022674 434.474434 
L 358.371337 453.903042 
L 358.371337 492.760259 
L 392.022674 512.188867 
L 425.674011 492.760259 
L 425.674011 453.903042 
z
" clip-path="url(#p4200f284c1)" style="fill: #ffffff; stroke: #000000; stroke-width: 2; stroke-linejoin: miter"/>
   </g>
   <g id="patch_27">
    <path d="M 425.674011 376.188608 
L 392.022674 395.617217 
L 392.022674 434.474434 
L 425.674011 453.903042 
L 459.325348 434.474434 
L 459.325348 395.617217 
z
" clip-path="url(#p4200f284c1)" style="fill: #ffffff; stroke: #000000; stroke-width: 2; stroke-linejoin: miter"/>
   </g>
   <g id="patch_28">
    <path d="M 459.325348 317.902783 
L 425.674011 337.331392 
L 425.674011 376.188608 
L 459.325348 395.617217 
L 492.976684 376.188608 
L 492.976684 337.331392 
z
" clip-path="url(#p4200f284c1)" style="fill: #ff0000; stroke: #000000; stroke-width: 2; stroke-linejoin: miter"/>
   </g>
   <g id="patch_29">
    <path d="M 492.976684 259.616958 
L 459.325348 279.045566 
L 459.325348 317.902783 
L 492.976684 337.331392 
L 526.628021 317.902783 
L 526.628021 279.045566 
z
" clip-path="url(#p4200f284c1)" style="fill: #ffffff; stroke: #000000; stroke-width: 2; stroke-linejoin: miter"/>
   </g>
   <g id="patch_30">
    <path d="M 526.628021 201.331133 
L 492.976684 220.759741 
L 492.976684 259.616958 
L 526.628021 279.045566 
L 560.279358 259.616958 
L 560.279358 220.759741 
z
" clip-path="url(#p4200f284c1)" style="fill: #ffffff; stroke: #000000; stroke-width: 2; stroke-linejoin: miter"/>
   </g>
   <g id="text_1">
    <!-- Maker(Red) won the game -->
    <g transform="translate(246.119062 164.846479)scale(0.12 -0.12)">
     <defs>
      <path id="DejaVuSans-4d" d="M 628 4666 
L 1569 4666 
L 2759 1491 
L 3956 4666 
L 4897 4666 
L 4897 0 
L 4281 0 
L 4281 4097 
L 3078 897 
L 2444 897 
L 1241 4097 
L 1241 0 
L 628 0 
L 628 4666 
z
" transform="scale(0.015625)"/>
      <path id="DejaVuSans-61" d="M 2194 1759 
Q 1497 1759 1228 1600 
Q 959 1441 959 1056 
Q 959 750 1161 570 
Q 1363 391 1709 391 
Q 2188 391 2477 730 
Q 2766 1069 2766 1631 
L 2766 1759 
L 2194 1759 
z
M 3341 1997 
L 3341 0 
L 2766 0 
L 2766 531 
Q 2569 213 2275 61 
Q 1981 -91 1556 -91 
Q 1019 -91 701 211 
Q 384 513 384 1019 
Q 384 1609 779 1909 
Q 1175 2209 1959 2209 
L 2766 2209 
L 2766 2266 
Q 2766 2663 2505 2880 
Q 2244 3097 1772 3097 
Q 1472 3097 1187 3025 
Q 903 2953 641 2809 
L 641 3341 
Q 956 3463 1253 3523 
Q 1550 3584 1831 3584 
Q 2591 3584 2966 3190 
Q 3341 2797 3341 1997 
z
" transform="scale(0.015625)"/>
      <path id="DejaVuSans-6b" d="M 581 4863 
L 1159 4863 
L 1159 1991 
L 2875 3500 
L 3609 3500 
L 1753 1863 
L 3688 0 
L 2938 0 
L 1159 1709 
L 1159 0 
L 581 0 
L 581 4863 
z
" transform="scale(0.015625)"/>
      <path id="DejaVuSans-65" d="M 3597 1894 
L 3597 1613 
L 953 1613 
Q 991 1019 1311 708 
Q 1631 397 2203 397 
Q 2534 397 2845 478 
Q 3156 559 3463 722 
L 3463 178 
Q 3153 47 2828 -22 
Q 2503 -91 2169 -91 
Q 1331 -91 842 396 
Q 353 884 353 1716 
Q 353 2575 817 3079 
Q 1281 3584 2069 3584 
Q 2775 3584 3186 3129 
Q 3597 2675 3597 1894 
z
M 3022 2063 
Q 3016 2534 2758 2815 
Q 2500 3097 2075 3097 
Q 1594 3097 1305 2825 
Q 1016 2553 972 2059 
L 3022 2063 
z
" transform="scale(0.015625)"/>
      <path id="DejaVuSans-72" d="M 2631 2963 
Q 2534 3019 2420 3045 
Q 2306 3072 2169 3072 
Q 1681 3072 1420 2755 
Q 1159 2438 1159 1844 
L 1159 0 
L 581 0 
L 581 3500 
L 1159 3500 
L 1159 2956 
Q 1341 3275 1631 3429 
Q 1922 3584 2338 3584 
Q 2397 3584 2469 3576 
Q 2541 3569 2628 3553 
L 2631 2963 
z
" transform="scale(0.015625)"/>
      <path id="DejaVuSans-28" d="M 1984 4856 
Q 1566 4138 1362 3434 
Q 1159 2731 1159 2009 
Q 1159 1288 1364 580 
Q 1569 -128 1984 -844 
L 1484 -844 
Q 1016 -109 783 600 
Q 550 1309 550 2009 
Q 550 2706 781 3412 
Q 1013 4119 1484 4856 
L 1984 4856 
z
" transform="scale(0.015625)"/>
      <path id="DejaVuSans-52" d="M 2841 2188 
Q 3044 2119 3236 1894 
Q 3428 1669 3622 1275 
L 4263 0 
L 3584 0 
L 2988 1197 
Q 2756 1666 2539 1819 
Q 2322 1972 1947 1972 
L 1259 1972 
L 1259 0 
L 628 0 
L 628 4666 
L 2053 4666 
Q 2853 4666 3247 4331 
Q 3641 3997 3641 3322 
Q 3641 2881 3436 2590 
Q 3231 2300 2841 2188 
z
M 1259 4147 
L 1259 2491 
L 2053 2491 
Q 2509 2491 2742 2702 
Q 2975 2913 2975 3322 
Q 2975 3731 2742 3939 
Q 2509 4147 2053 4147 
L 1259 4147 
z
" transform="scale(0.015625)"/>
      <path id="DejaVuSans-64" d="M 2906 2969 
L 2906 4863 
L 3481 4863 
L 3481 0 
L 2906 0 
L 2906 525 
Q 2725 213 2448 61 
Q 2172 -91 1784 -91 
Q 1150 -91 751 415 
Q 353 922 353 1747 
Q 353 2572 751 3078 
Q 1150 3584 1784 3584 
Q 2172 3584 2448 3432 
Q 2725 3281 2906 2969 
z
M 947 1747 
Q 947 1113 1208 752 
Q 1469 391 1925 391 
Q 2381 391 2643 752 
Q 2906 1113 2906 1747 
Q 2906 2381 2643 2742 
Q 2381 3103 1925 3103 
Q 1469 3103 1208 2742 
Q 947 2381 947 1747 
z
" transform="scale(0.015625)"/>
      <path id="DejaVuSans-29" d="M 513 4856 
L 1013 4856 
Q 1481 4119 1714 3412 
Q 1947 2706 1947 2009 
Q 1947 1309 1714 600 
Q 1481 -109 1013 -844 
L 513 -844 
Q 928 -128 1133 580 
Q 1338 1288 1338 2009 
Q 1338 2731 1133 3434 
Q 928 4138 513 4856 
z
" transform="scale(0.015625)"/>
      <path id="DejaVuSans-20" transform="scale(0.015625)"/>
      <path id="DejaVuSans-77" d="M 269 3500 
L 844 3500 
L 1563 769 
L 2278 3500 
L 2956 3500 
L 3675 769 
L 4391 3500 
L 4966 3500 
L 4050 0 
L 3372 0 
L 2619 2869 
L 1863 0 
L 1184 0 
L 269 3500 
z
" transform="scale(0.015625)"/>
      <path id="DejaVuSans-6f" d="M 1959 3097 
Q 1497 3097 1228 2736 
Q 959 2375 959 1747 
Q 959 1119 1226 758 
Q 1494 397 1959 397 
Q 2419 397 2687 759 
Q 2956 1122 2956 1747 
Q 2956 2369 2687 2733 
Q 2419 3097 1959 3097 
z
M 1959 3584 
Q 2709 3584 3137 3096 
Q 3566 2609 3566 1747 
Q 3566 888 3137 398 
Q 2709 -91 1959 -91 
Q 1206 -91 779 398 
Q 353 888 353 1747 
Q 353 2609 779 3096 
Q 1206 3584 1959 3584 
z
" transform="scale(0.015625)"/>
      <path id="DejaVuSans-6e" d="M 3513 2113 
L 3513 0 
L 2938 0 
L 2938 2094 
Q 2938 2591 2744 2837 
Q 2550 3084 2163 3084 
Q 1697 3084 1428 2787 
Q 1159 2491 1159 1978 
L 1159 0 
L 581 0 
L 581 3500 
L 1159 3500 
L 1159 2956 
Q 1366 3272 1645 3428 
Q 1925 3584 2291 3584 
Q 2894 3584 3203 3211 
Q 3513 2838 3513 2113 
z
" transform="scale(0.015625)"/>
      <path id="DejaVuSans-74" d="M 1172 4494 
L 1172 3500 
L 2356 3500 
L 2356 3053 
L 1172 3053 
L 1172 1153 
Q 1172 725 1289 603 
Q 1406 481 1766 481 
L 2356 481 
L 2356 0 
L 1766 0 
Q 1100 0 847 248 
Q 594 497 594 1153 
L 594 3053 
L 172 3053 
L 172 3500 
L 594 3500 
L 594 4494 
L 1172 4494 
z
" transform="scale(0.015625)"/>
      <path id="DejaVuSans-68" d="M 3513 2113 
L 3513 0 
L 2938 0 
L 2938 2094 
Q 2938 2591 2744 2837 
Q 2550 3084 2163 3084 
Q 1697 3084 1428 2787 
Q 1159 2491 1159 1978 
L 1159 0 
L 581 0 
L 581 4863 
L 1159 4863 
L 1159 2956 
Q 1366 3272 1645 3428 
Q 1925 3584 2291 3584 
Q 2894 3584 3203 3211 
Q 3513 2838 3513 2113 
z
" transform="scale(0.015625)"/>
      <path id="DejaVuSans-67" d="M 2906 1791 
Q 2906 2416 2648 2759 
Q 2391 3103 1925 3103 
Q 1463 3103 1205 2759 
Q 947 2416 947 1791 
Q 947 1169 1205 825 
Q 1463 481 1925 481 
Q 2391 481 2648 825 
Q 2906 1169 2906 1791 
z
M 3481 434 
Q 3481 -459 3084 -895 
Q 2688 -1331 1869 -1331 
Q 1566 -1331 1297 -1286 
Q 1028 -1241 775 -1147 
L 775 -588 
Q 1028 -725 1275 -790 
Q 1522 -856 1778 -856 
Q 2344 -856 2625 -561 
Q 2906 -266 2906 331 
L 2906 616 
Q 2728 306 2450 153 
Q 2172 0 1784 0 
Q 1141 0 747 490 
Q 353 981 353 1791 
Q 353 2603 747 3093 
Q 1141 3584 1784 3584 
Q 2172 3584 2450 3431 
Q 2728 3278 2906 2969 
L 2906 3500 
L 3481 3500 
L 3481 434 
z
" transform="scale(0.015625)"/>
      <path id="DejaVuSans-6d" d="M 3328 2828 
Q 3544 3216 3844 3400 
Q 4144 3584 4550 3584 
Q 5097 3584 5394 3201 
Q 5691 2819 5691 2113 
L 5691 0 
L 5113 0 
L 5113 2094 
Q 5113 2597 4934 2840 
Q 4756 3084 4391 3084 
Q 3944 3084 3684 2787 
Q 3425 2491 3425 1978 
L 3425 0 
L 2847 0 
L 2847 2094 
Q 2847 2600 2669 2842 
Q 2491 3084 2119 3084 
Q 1678 3084 1418 2786 
Q 1159 2488 1159 1978 
L 1159 0 
L 581 0 
L 581 3500 
L 1159 3500 
L 1159 2956 
Q 1356 3278 1631 3431 
Q 1906 3584 2284 3584 
Q 2666 3584 2933 3390 
Q 3200 3197 3328 2828 
z
" transform="scale(0.015625)"/>
     </defs>
     <use xlink:href="#DejaVuSans-4d"/>
     <use xlink:href="#DejaVuSans-61" x="86.279297"/>
     <use xlink:href="#DejaVuSans-6b" x="147.558594"/>
     <use xlink:href="#DejaVuSans-65" x="201.84375"/>
     <use xlink:href="#DejaVuSans-72" x="263.367188"/>
     <use xlink:href="#DejaVuSans-28" x="304.480469"/>
     <use xlink:href="#DejaVuSans-52" x="343.494141"/>
     <use xlink:href="#DejaVuSans-65" x="408.476562"/>
     <use xlink:href="#DejaVuSans-64" x="470"/>
     <use xlink:href="#DejaVuSans-29" x="533.476562"/>
     <use xlink:href="#DejaVuSans-20" x="572.490234"/>
     <use xlink:href="#DejaVuSans-77" x="604.277344"/>
     <use xlink:href="#DejaVuSans-6f" x="686.064453"/>
     <use xlink:href="#DejaVuSans-6e" x="747.246094"/>
     <use xlink:href="#DejaVuSans-20" x="810.625"/>
     <use xlink:href="#DejaVuSans-74" x="842.412109"/>
     <use xlink:href="#DejaVuSans-68" x="881.621094"/>
     <use xlink:href="#DejaVuSans-65" x="945"/>
     <use xlink:href="#DejaVuSans-20" x="1006.523438"/>
     <use xlink:href="#DejaVuSans-67" x="1038.310547"/>
     <use xlink:href="#DejaVuSans-61" x="1101.787109"/>
     <use xlink:href="#DejaVuSans-6d" x="1163.066406"/>
     <use xlink:href="#DejaVuSans-65" x="1260.478516"/>
    </g>
   </g>
  </g>
 </g>
 <defs>
  <clipPath id="p4200f284c1">
   <rect x="10.8" y="170.846479" width="629.28" height="367.507043"/>
  </clipPath>
 </defs>
</svg>
