<?xml version="1.0" encoding="UTF-8" standalone="no"?>
<svg
   width="577pt"
   height="338pt"
   viewBox="0 0 577 337.99999"
   version="1.1"
   id="svg1640"
   sodipodi:docname="redwon.svg"
   inkscape:version="1.2.2 (732a01da63, 2022-12-09)"
   xmlns:inkscape="http://www.inkscape.org/namespaces/inkscape"
   xmlns:sodipodi="http://sodipodi.sourceforge.net/DTD/sodipodi-0.dtd"
   xmlns="http://www.w3.org/2000/svg"
   xmlns:svg="http://www.w3.org/2000/svg"
   xmlns:rdf="http://www.w3.org/1999/02/22-rdf-syntax-ns#"
   xmlns:cc="http://creativecommons.org/ns#"
   xmlns:dc="http://purl.org/dc/elements/1.1/">
  <sodipodi:namedview
     id="namedview1642"
     pagecolor="#ffffff"
     bordercolor="#000000"
     borderopacity="0.25"
     inkscape:showpageshadow="2"
     inkscape:pageopacity="0.0"
     inkscape:pagecheckerboard="0"
     inkscape:deskcolor="#d1d1d1"
     inkscape:document-units="pt"
     showgrid="false"
     inkscape:zoom="0.85025379"
     inkscape:cx="433.98807"
     inkscape:cy="191.11941"
     inkscape:window-width="1920"
     inkscape:window-height="991"
     inkscape:window-x="-9"
     inkscape:window-y="-9"
     inkscape:window-maximized="1"
     inkscape:current-layer="svg1640" />
  <metadata
     id="metadata1469">
    <rdf:RDF>
      <cc:Work>
        <dc:type
           rdf:resource="http://purl.org/dc/dcmitype/StillImage" />
        <dc:date>2023-01-19T01:50:29.750917</dc:date>
        <dc:format>image/svg+xml</dc:format>
        <dc:creator>
          <cc:Agent>
            <dc:title>Matplotlib v3.5.2, https://matplotlib.org/</dc:title>
          </cc:Agent>
        </dc:creator>
      </cc:Work>
    </rdf:RDF>
  </metadata>
  <defs
     id="defs1473">
    <style
       type="text/css"
       id="style1471">*{stroke-linejoin: round; stroke-linecap: butt}</style>
  </defs>
  <g
     id="g1954"
     transform="translate(-36.165672,-187.88508)">
    <g
       id="patch_2">
      <path
         d="M 324.72,361.26842 38.683636,523.80866 223.76599,189.71134 Z"
         clip-path="url(#p4200f284c1)"
         style="opacity:0.7;fill:#ff0000;stroke:#ff0000;stroke-linejoin:miter"
         id="path1478" />
    </g>
    <g
       id="patch_3">
      <path
         d="M 324.72,361.26842 610.75636,189.71134 H 223.76599 Z"
         clip-path="url(#p4200f284c1)"
         style="opacity:0.7;fill:#0000ff;stroke:#0000ff;stroke-linejoin:miter"
         id="path1481" />
    </g>
    <g
       id="patch_4">
      <path
         d="M 324.72,361.26842 610.75636,189.71134 425.67401,523.80866 Z"
         clip-path="url(#p4200f284c1)"
         style="opacity:0.7;fill:#ff0000;stroke:#ff0000;stroke-linejoin:miter"
         id="path1484" />
    </g>
    <g
       id="patch_5">
      <path
         d="M 324.72,361.26842 38.683636,523.80866 H 425.67401 Z"
         clip-path="url(#p4200f284c1)"
         style="opacity:0.7;fill:#0000ff;stroke:#0000ff;stroke-linejoin:miter"
         id="path1487" />
    </g>
    <g
       id="patch_6">
      <path
         d="m 122.81198,434.47443 -33.651338,19.42861 v 38.85722 l 33.651338,19.42861 33.65134,-19.42861 v -38.85722 z"
         clip-path="url(#p4200f284c1)"
         style="fill:#ffffff;stroke:#000000;stroke-width:2;stroke-linejoin:miter"
         id="path1490" />
    </g>
    <g
       id="patch_7">
      <path
         d="m 156.46332,376.18861 -33.65134,19.42861 v 38.85721 l 33.65134,19.42861 33.65133,-19.42861 v -38.85721 z"
         clip-path="url(#p4200f284c1)"
         style="fill:#ffffff;stroke:#000000;stroke-width:2;stroke-linejoin:miter"
         id="path1493" />
    </g>
    <g
       id="patch_8">
      <path
         d="m 190.11465,317.90278 -33.65133,19.42861 v 38.85722 l 33.65133,19.42861 33.65134,-19.42861 v -38.85722 z"
         clip-path="url(#p4200f284c1)"
         style="fill:#ff0000;stroke:#000000;stroke-width:2;stroke-linejoin:miter"
         id="path1496" />
    </g>
    <g
       id="patch_9">
      <path
         d="m 223.76599,259.61696 -33.65134,19.42861 v 38.85721 l 33.65134,19.42861 33.65134,-19.42861 v -38.85721 z"
         clip-path="url(#p4200f284c1)"
         style="fill:#ffffff;stroke:#000000;stroke-width:2;stroke-linejoin:miter"
         id="path1499" />
    </g>
    <g
       id="patch_10">
      <path
         d="m 257.41733,201.33113 -33.65134,19.42861 v 38.85722 l 33.65134,19.42861 33.65133,-19.42861 v -38.85722 z"
         clip-path="url(#p4200f284c1)"
         style="fill:#ffffff;stroke:#000000;stroke-width:2;stroke-linejoin:miter"
         id="path1502" />
    </g>
    <g
       id="patch_11">
      <path
         d="m 190.11465,434.47443 -33.65133,19.42861 v 38.85722 l 33.65133,19.42861 33.65134,-19.42861 v -38.85722 z"
         clip-path="url(#p4200f284c1)"
         style="fill:#ffffff;stroke:#000000;stroke-width:2;stroke-linejoin:miter"
         id="path1505" />
    </g>
    <g
       id="patch_12">
      <path
         d="m 223.76599,376.18861 -33.65134,19.42861 v 38.85721 l 33.65134,19.42861 33.65134,-19.42861 v -38.85721 z"
         clip-path="url(#p4200f284c1)"
         style="fill:#ffffff;stroke:#000000;stroke-width:2;stroke-linejoin:miter"
         id="path1508" />
    </g>
    <g
       id="patch_13">
      <path
         d="m 257.41733,317.90278 -33.65134,19.42861 v 38.85722 l 33.65134,19.42861 33.65133,-19.42861 v -38.85722 z"
         clip-path="url(#p4200f284c1)"
         style="fill:#ff0000;stroke:#000000;stroke-width:2;stroke-linejoin:miter"
         id="path1511" />
    </g>
    <g
       id="patch_14">
      <path
         d="m 291.06866,259.61696 -33.65133,19.42861 v 38.85721 l 33.65133,19.42861 33.65134,-19.42861 v -38.85721 z"
         clip-path="url(#p4200f284c1)"
         style="fill:#ffffff;stroke:#000000;stroke-width:2;stroke-linejoin:miter"
         id="path1514" />
    </g>
    <g
       id="patch_15">
      <path
         d="m 324.72,201.33113 -33.65134,19.42861 v 38.85722 l 33.65134,19.42861 33.65134,-19.42861 v -38.85722 z"
         clip-path="url(#p4200f284c1)"
         style="fill:#ffffff;stroke:#000000;stroke-width:2;stroke-linejoin:miter"
         id="path1517" />
    </g>
    <g
       id="patch_16">
      <path
         d="m 257.41733,434.47443 -33.65134,19.42861 v 38.85722 l 33.65134,19.42861 33.65133,-19.42861 v -38.85722 z"
         clip-path="url(#p4200f284c1)"
         style="fill:#0000ff;stroke:#000000;stroke-width:2;stroke-linejoin:miter"
         id="path1520" />
    </g>
    <g
       id="patch_17">
      <path
         d="m 291.06866,376.18861 -33.65133,19.42861 v 38.85721 l 33.65133,19.42861 33.65134,-19.42861 v -38.85721 z"
         clip-path="url(#p4200f284c1)"
         style="fill:#0000ff;stroke:#000000;stroke-width:2;stroke-linejoin:miter"
         id="path1523" />
    </g>
    <g
       id="patch_18">
      <path
         d="m 324.72,317.90278 -33.65134,19.42861 v 38.85722 l 33.65134,19.42861 33.65134,-19.42861 v -38.85722 z"
         clip-path="url(#p4200f284c1)"
         style="fill:#ff0000;stroke:#000000;stroke-width:2;stroke-linejoin:miter"
         id="path1526" />
    </g>
    <g
       id="patch_19">
      <path
         d="M 358.37134,259.61696 324.72,279.04557 v 38.85721 l 33.65134,19.42861 33.65133,-19.42861 v -38.85721 z"
         clip-path="url(#p4200f284c1)"
         style="fill:#0000ff;stroke:#000000;stroke-width:2;stroke-linejoin:miter"
         id="path1529" />
    </g>
    <g
       id="patch_20">
      <path
         d="m 392.02267,201.33113 -33.65133,19.42861 v 38.85722 l 33.65133,19.42861 33.65134,-19.42861 v -38.85722 z"
         clip-path="url(#p4200f284c1)"
         style="fill:#0000ff;stroke:#000000;stroke-width:2;stroke-linejoin:miter"
         id="path1532" />
    </g>
    <g
       id="patch_21">
      <path
         d="m 324.72,434.47443 -33.65134,19.42861 v 38.85722 l 33.65134,19.42861 33.65134,-19.42861 v -38.85722 z"
         clip-path="url(#p4200f284c1)"
         style="fill:#ffffff;stroke:#000000;stroke-width:2;stroke-linejoin:miter"
         id="path1535" />
    </g>
    <g
       id="patch_22">
      <path
         d="M 358.37134,376.18861 324.72,395.61722 v 38.85721 l 33.65134,19.42861 33.65133,-19.42861 v -38.85721 z"
         clip-path="url(#p4200f284c1)"
         style="fill:#ffffff;stroke:#000000;stroke-width:2;stroke-linejoin:miter"
         id="path1538" />
    </g>
    <g
       id="patch_23">
      <path
         d="m 392.02267,317.90278 -33.65133,19.42861 v 38.85722 l 33.65133,19.42861 33.65134,-19.42861 v -38.85722 z"
         clip-path="url(#p4200f284c1)"
         style="fill:#ff0000;stroke:#000000;stroke-width:2;stroke-linejoin:miter"
         id="path1541" />
    </g>
    <g
       id="patch_24">
      <path
         d="m 425.67401,259.61696 -33.65134,19.42861 v 38.85721 l 33.65134,19.42861 33.65134,-19.42861 v -38.85721 z"
         clip-path="url(#p4200f284c1)"
         style="fill:#ffffff;stroke:#000000;stroke-width:2;stroke-linejoin:miter"
         id="path1544" />
    </g>
    <g
       id="patch_25">
      <path
         d="m 459.32535,201.33113 -33.65134,19.42861 v 38.85722 l 33.65134,19.42861 33.65133,-19.42861 v -38.85722 z"
         clip-path="url(#p4200f284c1)"
         style="fill:#ffffff;stroke:#000000;stroke-width:2;stroke-linejoin:miter"
         id="path1547" />
    </g>
    <g
       id="patch_26">
      <path
         d="m 392.02267,434.47443 -33.65133,19.42861 v 38.85722 l 33.65133,19.42861 33.65134,-19.42861 v -38.85722 z"
         clip-path="url(#p4200f284c1)"
         style="fill:#ffffff;stroke:#000000;stroke-width:2;stroke-linejoin:miter"
         id="path1550" />
    </g>
    <g
       id="patch_27">
      <path
         d="m 425.67401,376.18861 -33.65134,19.42861 v 38.85721 l 33.65134,19.42861 33.65134,-19.42861 v -38.85721 z"
         clip-path="url(#p4200f284c1)"
         style="fill:#ffffff;stroke:#000000;stroke-width:2;stroke-linejoin:miter"
         id="path1553" />
    </g>
    <g
       id="patch_28">
      <path
         d="m 459.32535,317.90278 -33.65134,19.42861 v 38.85722 l 33.65134,19.42861 33.65133,-19.42861 v -38.85722 z"
         clip-path="url(#p4200f284c1)"
         style="fill:#ff0000;stroke:#000000;stroke-width:2;stroke-linejoin:miter"
         id="path1556" />
    </g>
    <g
       id="patch_29">
      <path
         d="m 492.97668,259.61696 -33.65133,19.42861 v 38.85721 l 33.65133,19.42861 33.65134,-19.42861 v -38.85721 z"
         clip-path="url(#p4200f284c1)"
         style="fill:#ffffff;stroke:#000000;stroke-width:2;stroke-linejoin:miter"
         id="path1559" />
    </g>
    <g
       id="patch_30">
      <path
         d="m 526.62802,201.33113 -33.65134,19.42861 v 38.85722 l 33.65134,19.42861 33.65134,-19.42861 v -38.85722 z"
         clip-path="url(#p4200f284c1)"
         style="fill:#ffffff;stroke:#000000;stroke-width:2;stroke-linejoin:miter"
         id="path1562" />
    </g>
  </g>
  <defs
     id="defs1638">
    <clipPath
       id="p4200f284c1">
      <rect
         x="10.8"
         y="170.84648"
         width="629.28003"
         height="367.50705"
         id="rect1635" />
    </clipPath>
  </defs>
</svg>
