<?xml version="1.0" encoding="UTF-8" standalone="no"?>
<svg
   viewBox="0 0 1236 762"
   height="762"
   width="1236"
   xml:space="preserve"
   version="1.1"
   id="svg2"
   sodipodi:docname="redwins.svg"
   inkscape:version="1.2.1 (9c6d41e410, 2022-07-14, custom)"
   xmlns:inkscape="http://www.inkscape.org/namespaces/inkscape"
   xmlns:sodipodi="http://sodipodi.sourceforge.net/DTD/sodipodi-0.dtd"
   xmlns="http://www.w3.org/2000/svg"
   xmlns:svg="http://www.w3.org/2000/svg"
   xmlns:rdf="http://www.w3.org/1999/02/22-rdf-syntax-ns#"
   xmlns:cc="http://creativecommons.org/ns#"
   xmlns:dc="http://purl.org/dc/elements/1.1/"><sodipodi:namedview
     id="namedview16"
     pagecolor="#ffffff"
     bordercolor="#000000"
     borderopacity="0.25"
     inkscape:showpageshadow="2"
     inkscape:pageopacity="0.0"
     inkscape:pagecheckerboard="0"
     inkscape:deskcolor="#d1d1d1"
     showgrid="false"
     inkscape:zoom="0.4905902"
     inkscape:cx="357.73238"
     inkscape:cy="679.79344"
     inkscape:window-width="1499"
     inkscape:window-height="1080"
     inkscape:window-x="210"
     inkscape:window-y="0"
     inkscape:window-maximized="1"
     inkscape:current-layer="svg2" /><metadata
     id="metadata8"><rdf:RDF><cc:Work
         rdf:about=""><dc:format>image/svg+xml</dc:format><dc:type
           rdf:resource="http://purl.org/dc/dcmitype/StillImage" /></cc:Work></rdf:RDF></metadata><defs
     id="defs6" /><g
     transform="matrix(1.0820821,0.62577812,0.62577812,-1.0820821,-89.411972,745.55234)"
     id="g10"><path
       id="path12"
       style="fill:none;stroke:#000000;stroke-width:0.72;stroke-linecap:round;stroke-linejoin:round;stroke-miterlimit:10;stroke-dasharray:none;stroke-opacity:1"
       d="M -42.969999,1134.05 H 730.97 V -62.050005 H -42.969998 Z M 643.07,505.55 625.43,536.03 h -35.16 l -17.58,-30.48 17.58,-30.42 h 35.22 z m 0,60.96 -17.64,30.48 h -35.16 l -17.58,-30.48 17.58,-30.48 h 35.22 z m 0,60.96 -17.64,30.42 h -35.16 l -17.58,-30.48 17.58,-30.42 h 35.22 z m 0,60.9 -17.64,30.48 h -35.16 l -17.58,-30.48 17.58,-30.48 h 35.22 z m 0,60.96 -17.64,30.48 -35.16,-0.06 -17.58,-30.42 17.58,-30.48 h 35.22 z m 0,60.9 -17.64,30.48 h -35.16 l -17.58,-30.48 17.58,-30.48 h 35.22 z m 0,60.96 -17.64,30.48 h -35.16 l -17.58,-30.48 17.58,-30.48 h 35.22 z m 0,60.9 -17.64,30.48 h -35.16 l -17.58,-30.48 17.58,-30.42 h 35.22 z m 0,60.96 -17.64,30.48 h -35.16 l -17.58,-30.48 17.58,-30.48 h 35.22 z m -105.54,-548.4 -17.64,30.42 h -35.16 l -17.58,-30.48 17.58,-30.42 h 35.16 z m 0,60.9 -17.64,30.48 h -35.16 l -17.58,-30.48 17.58,-30.48 h 35.16 z m 0,60.96 -17.64,30.42 h -35.16 l -17.58,-30.42 17.58,-30.48 h 35.16 z m 0,60.9 -17.64,30.48 h -35.16 l -17.58,-30.48 17.58,-30.48 h 35.16 z m 0,60.96 -17.64,30.48 h -35.16 l -17.58,-30.48 17.58,-30.48 h 35.16 z m 0,60.9 -17.64,30.48 h -35.16 l -17.58,-30.48 17.58,-30.42 h 35.16 z m 0,60.96 -17.64,30.48 h -35.16 l -17.58,-30.48 17.58,-30.48 h 35.16 z m 0,60.96 -17.64,30.42 h -35.16 l -17.58,-30.48 17.58,-30.42 h 35.16 z m 0,60.9 -17.64,30.48 h -35.16 l -17.58,-30.48 17.58,-30.48 h 35.16 z m 52.74,-457.02 -17.58,30.48 h -35.22 l -17.58,-30.48 17.64,-30.42 h 35.16 z m 0,60.96 -17.58,30.48 h -35.22 l -17.58,-30.48 17.64,-30.48 h 35.16 z m 0,60.96 -17.58,30.42 h -35.22 l -17.58,-30.48 17.64,-30.42 h 35.16 z m 0,60.9 -17.58,30.48 h -35.22 l -17.58,-30.48 17.64,-30.48 h 35.16 z m 0,60.96 -17.58,30.48 -35.22,-0.06 -17.58,-30.42 17.64,-30.48 h 35.16 z m 0,60.9 -17.58,30.48 h -35.22 l -17.58,-30.48 17.64,-30.48 h 35.16 z m 0,60.96 -17.58,30.48 h -35.22 l -17.58,-30.48 17.64,-30.48 h 35.16 z m 0,60.9 -17.58,30.48 h -35.22 l -17.58,-30.48 17.64,-30.42 h 35.16 z m 0,60.96 -17.58,30.48 h -35.22 l -17.58,-30.48 17.64,-30.48 h 35.16 z m -158.34,-578.88 -17.58,30.48 -35.16,-0.06 -17.58,-30.42 17.58,-30.48 h 35.16 z m 0,60.9 -17.58,30.48 h -35.16 l -17.58,-30.48 17.58,-30.48 h 35.16 z m 0,60.96 -17.58,30.48 h -35.16 l -17.58,-30.48 17.58,-30.48 h 35.16 z m 0,60.9 -17.58,30.48 h -35.16 l -17.58,-30.48 17.58,-30.42 h 35.16 z m 0,60.96 -17.58,30.48 h -35.16 l -17.58,-30.48 17.58,-30.48 h 35.16 z m 0,60.96 -17.58,30.42 h -35.16 l -17.58,-30.48 17.58,-30.42 h 35.16 z m 0,60.9 -17.58,30.48 h -35.16 l -17.58,-30.48 17.58,-30.48 h 35.16 z m 0,60.96 -17.58,30.42 h -35.16 l -17.58,-30.42 17.58,-30.48 h 35.16 z m 0,60.9 -17.58,30.48 h -35.16 l -17.58,-30.48 17.58,-30.42 h 35.16 z m 52.8,-456.96 -17.58,30.42 h -35.22 l -17.58,-30.42 17.58,-30.48 h 35.22 z m 0,60.9 -17.58,30.48 h -35.22 l -17.58,-30.48 17.58,-30.48 h 35.22 z m 0,60.96 -17.58,30.42 h -35.22 l -17.58,-30.42 17.58,-30.48 h 35.22 z m 0,60.9 -17.58,30.48 h -35.22 l -17.58,-30.48 17.58,-30.48 h 35.22 z m 0,60.96 -17.58,30.48 h -35.22 l -17.58,-30.48 17.58,-30.48 h 35.22 z m 0,60.9 -17.58,30.48 h -35.22 l -17.58,-30.48 17.58,-30.42 h 35.22 z m 0,60.96 -17.58,30.48 h -35.22 l -17.58,-30.48 17.58,-30.48 h 35.22 z m 0,60.96 -17.58,30.42 h -35.22 l -17.58,-30.48 17.58,-30.42 h 35.22 z m 0,60.9 -17.58,30.48 h -35.22 l -17.58,-30.48 17.58,-30.48 h 35.22 z M 326.39,322.73 308.81,353.21 h -35.16 l -17.58,-30.48 17.58,-30.48 h 35.16 z m 0,60.9 -17.58,30.48 h -35.16 l -17.58,-30.48 17.58,-30.42 h 35.16 z m 0,60.96 -17.58,30.48 h -35.16 l -17.58,-30.48 17.58,-30.48 h 35.16 z m 0,60.96 -17.58,30.42 h -35.16 l -17.58,-30.48 17.58,-30.42 h 35.16 z m 0,60.9 -17.58,30.48 h -35.16 l -17.58,-30.48 17.58,-30.48 h 35.16 z m 0,60.96 -17.58,30.42 h -35.16 l -17.58,-30.42 17.58,-30.48 h 35.16 z m 0,60.9 -17.58,30.48 h -35.16 l -17.58,-30.48 17.58,-30.48 h 35.16 z m 0,60.96 -17.58,30.48 h -35.16 l -17.58,-30.48 17.58,-30.48 h 35.16 z m 0,60.96 -17.58,30.42 h -35.16 l -17.58,-30.48 17.58,-30.42 h 35.16 z m 52.8,-457.02 -17.58,30.48 -35.22,-0.06 -17.58,-30.42 17.58,-30.48 h 35.22 z m 0,60.9 -17.58,30.48 h -35.22 l -17.58,-30.48 17.58,-30.48 h 35.22 z m 0,60.96 -17.58,30.48 h -35.22 l -17.58,-30.48 17.58,-30.48 h 35.22 z m 0,60.9 -17.58,30.48 h -35.22 l -17.58,-30.48 17.58,-30.42 h 35.22 z m 0,60.96 -17.58,30.48 h -35.22 l -17.58,-30.48 17.58,-30.48 h 35.22 z m 0,60.96 -17.58,30.42 h -35.22 l -17.58,-30.48 17.58,-30.42 h 35.22 z m 0,60.9 -17.58,30.48 h -35.22 l -17.58,-30.48 17.58,-30.48 h 35.22 z m 0,60.96 -17.58,30.42 h -35.22 l -17.58,-30.42 17.58,-30.48 h 35.22 z m 0,60.9 -17.58,30.48 h -35.22 l -17.58,-30.48 17.58,-30.42 h 35.22 z M 220.85,261.77 203.27,292.25 h -35.16 l -17.58,-30.48 17.58,-30.48 h 35.16 z m 0,60.96 -17.58,30.42 h -35.16 l -17.58,-30.48 17.58,-30.42 h 35.16 z m 0,60.9 -17.58,30.48 h -35.16 l -17.58,-30.48 17.58,-30.48 h 35.16 z m 0,60.96 -17.58,30.42 h -35.16 l -17.58,-30.42 17.58,-30.48 h 35.16 z m 0,60.9 -17.58,30.48 h -35.16 l -17.58,-30.48 17.58,-30.48 h 35.16 z m 0,60.96 -17.58,30.48 h -35.16 l -17.58,-30.48 17.58,-30.48 h 35.16 z m 0,60.9 -17.58,30.48 h -35.16 l -17.58,-30.48 17.58,-30.42 h 35.16 z m 0,60.96 -17.58,30.48 h -35.16 l -17.58,-30.48 17.58,-30.48 h 35.16 z m 0,60.96 -17.58,30.42 h -35.16 l -17.58,-30.42 17.58,-30.48 h 35.16 z m 52.8,-457.02 -17.58,30.48 h -35.22 l -17.58,-30.48 17.58,-30.48 h 35.22 z m 0,60.9 -17.58,30.48 h -35.22 l -17.58,-30.48 17.58,-30.42 h 35.22 z m 0,60.96 -17.58,30.48 h -35.22 l -17.58,-30.48 17.58,-30.48 h 35.22 z m 0,60.96 -17.58,30.42 h -35.22 l -17.58,-30.48 17.58,-30.42 h 35.22 z m 0,60.9 -17.58,30.48 h -35.22 l -17.58,-30.48 17.58,-30.48 h 35.22 z m 0,60.96 -17.58,30.42 h -35.22 l -17.58,-30.42 17.58,-30.48 h 35.22 z m 0,60.9 -17.58,30.48 h -35.22 l -17.58,-30.48 17.58,-30.48 h 35.22 z m 0,60.96 -17.58,30.48 h -35.22 l -17.58,-30.48 17.58,-30.48 h 35.22 z m 0,60.96 -17.58,30.42 h -35.22 l -17.58,-30.48 17.58,-30.42 h 35.22 z M 115.31,200.81 97.730002,231.29 h -35.16 l -17.64,-30.48 17.64,-30.48 h 35.16 z m 0,60.96 -17.579998,30.42 h -35.16 l -17.64,-30.42 17.64,-30.48 h 35.16 z m 0,60.9 -17.579998,30.48 h -35.16 l -17.64,-30.48 17.64,-30.48 h 35.16 z m 0,60.96 -17.579998,30.48 h -35.16 l -17.64,-30.48 17.64,-30.48 h 35.16 z m 0,60.9 -17.579998,30.48 h -35.16 l -17.64,-30.48 17.64,-30.42 h 35.16 z m 0,60.96 -17.579998,30.48 h -35.16 l -17.64,-30.48 17.64,-30.48 h 35.16 z m 0,60.96 -17.579998,30.42 h -35.16 l -17.64,-30.48 17.64,-30.42 h 35.16 z m 0,60.9 -17.579998,30.48 h -35.16 l -17.64,-30.48 17.64,-30.48 h 35.16 z m 0,60.96 -17.579998,30.48 h -35.16 l -17.64,-30.48 17.64,-30.48 h 35.16 z m 52.8,-457.02 -17.58,30.48 H 115.31 L 97.730002,231.29 115.31,200.81 h 35.22 z m 0,60.96 -17.58,30.42 H 115.31 L 97.730002,292.19 115.31,261.77 h 35.22 z m 0,60.9 -17.58,30.48 H 115.31 L 97.730002,353.15 115.31,322.67 h 35.22 z m 0,60.96 -17.58,30.42 H 115.31 L 97.730002,414.11 115.31,383.63 h 35.22 z m 0,60.9 -17.58,30.48 H 115.31 L 97.730002,475.01 115.31,444.53 h 35.22 z m 0,60.96 -17.58,30.48 H 115.31 L 97.730002,535.97 115.31,505.49 h 35.22 z m 0,60.9 -17.58,30.48 H 115.31 L 97.730002,596.87 115.31,566.45 h 35.22 z m 0,60.96 -17.58,30.48 H 115.31 L 97.730002,657.83 115.31,627.35 h 35.22 z m 0,60.96 -17.58,30.42 H 115.31 L 97.730002,718.79 115.31,688.31 h 35.22 z m 474.96,-335.1 -17.58,30.48 h -35.22 l -17.58,-30.48 17.58,-30.48 h 35.22 z m 0,60.96 -17.58,30.48 h -35.22 l -17.58,-30.48 17.58,-30.48 h 35.22 z m -52.8,-91.44 -17.58,30.48 h -35.16 l -17.64,-30.48 17.64,-30.48 h 35.16 z m 0,60.96 -17.58,30.48 h -35.16 l -17.64,-30.48 17.64,-30.48 h 35.16 z m -52.74,-91.44 -17.64,30.48 h -35.16 l -17.58,-30.48 17.58,-30.48 h 35.16 z m 0,60.96 -17.64,30.48 h -35.16 l -17.58,-30.48 17.58,-30.48 h 35.16 z m -52.8,-91.44 -17.58,30.48 h -35.22 l -17.58,-30.48 17.64,-30.42 h 35.16 z m 0,60.96 -17.58,30.48 h -35.22 l -17.58,-30.48 17.64,-30.48 h 35.16 z m -52.8,-91.44 -17.58,30.48 h -35.16 l -17.58,-30.48 17.58,-30.42 h 35.16 z m 0,60.96 -17.58,30.48 h -35.16 l -17.58,-30.48 17.58,-30.48 h 35.16 z m -52.74,-91.38 -17.58,30.42 h -35.22 l -17.58,-30.48 17.58,-30.42 h 35.22 z m 0,60.9 -17.58,30.48 h -35.22 l -17.58,-30.48 17.58,-30.48 h 35.22 z m -52.8,-91.38 -17.58,30.42 h -35.16 l -17.58,-30.48 17.58,-30.42 h 35.16 z m 0,60.9 -17.58,30.48 h -35.16 l -17.58,-30.48 17.58,-30.48 h 35.16 z m -52.74,-91.38 -17.58,30.42 h -35.22 l -17.58,-30.42 17.58,-30.48 h 35.22 z m 0,60.9 -17.58,30.48 h -35.22 l -17.58,-30.48 17.58,-30.48 h 35.22 z m -52.8,-91.38 -17.58,30.42 h -35.16 l -17.58,-30.42 17.58,-30.48 h 35.16 z m 0,60.9 -17.58,30.48 h -35.16 l -17.58,-30.48 17.58,-30.48 h 35.16 z m -52.74,-91.38 -17.58,30.48 H 115.31 L 97.730001,109.43 115.31,78.949995 h 35.22 z m 0,60.9 -17.58,30.48 H 115.31 L 97.730001,170.33 115.31,139.91 h 35.22 z M 115.31,78.949995 97.730001,109.43 h -35.16 l -17.58,-30.480005 17.58,-30.48 h 35.16 z m 0,60.960005 -17.579999,30.42 h -35.16 l -17.58,-30.48 17.58,-30.42 h 35.16 z" /><path
       id="path14"
       style="fill:none;stroke:#003fff;stroke-width:5.64;stroke-linecap:round;stroke-linejoin:round;stroke-miterlimit:10;stroke-dasharray:none;stroke-opacity:1"
       d="m 625.43,1023.53 h -35.16 l -17.58,-30.48 h -35.22 l -17.58,-30.48 h -35.16 l -17.58,-30.48 h -35.22 l -17.58,-30.48 h -35.16 l -17.58,-30.48 h -35.22 l -17.58,-30.48 h -35.16 l -17.58,-30.48 h -35.22 l -17.58,-30.48 h -35.16 l -17.58,-30.42 -35.22,-0.06 -17.579998,-30.42 h -35.16 M 625.49,353.21 h -35.22 l -17.58,-30.48 h -35.16 l -17.64,-30.48 h -35.16 l -17.58,-30.42 -35.22,-0.06 -17.58,-30.42 H 379.19 L 361.61,200.87 H 326.39 L 308.81,170.39 H 273.65 L 256.07,139.91 H 220.85 L 203.27,109.43 H 168.11 L 150.53,78.949995 H 115.31 L 97.730002,48.469994 h -35.16" /><path
       id="path16"
       style="fill:none;stroke:#dd0000;stroke-width:5.64;stroke-linecap:round;stroke-linejoin:round;stroke-miterlimit:10;stroke-dasharray:none;stroke-opacity:1"
       d="m 625.43,1023.53 17.64,-30.48 -17.58,-30.48 17.58,-30.48 -17.58,-30.42 17.58,-30.48 -17.64,-30.48 17.64,-30.48 -17.58,-30.48 17.58,-30.42 -17.58,-30.48 17.58,-30.48 -17.64,-30.48 17.64,-30.42 -17.58,-30.48 17.58,-30.48 -17.58,-30.48 17.58,-30.48 -17.58,-30.42 17.58,-30.48 -17.64,-30.48 17.64,-30.48 -17.64,-30.48 m -562.859999,365.58 -17.64,-30.48 17.64,-30.48 -17.64,-30.48 17.64,-30.48 -17.64,-30.48 17.64,-30.42 -17.64,-30.48 17.64,-30.48 -17.64,-30.48 17.64,-30.42 -17.64,-30.48 17.64,-30.48 -17.64,-30.48 17.64,-30.48 -17.64,-30.42 17.64,-30.48 -17.64,-30.48 17.64,-30.48 -17.58,-30.48 17.58,-30.42 -17.58,-30.480006 17.58,-30.48" /></g><path
     style="fill:#ff0000;stroke-width:2.03836"
     d="m 410.22018,82.906533 -15.7973,-9.446725 V 52.617115 31.774422 l 14.13902,-8.257636 c 7.77647,-4.541699 15.53348,-8.792737 17.23781,-9.446749 1.73511,-0.665823 10.75635,3.152783 20.49966,8.677314 l 17.40089,9.866427 0.0134,19.755502 0.0135,19.755501 -17.51767,10.310326 c -9.63472,5.670678 -18.1194,10.222086 -18.85484,10.114238 -0.73545,-0.107848 -8.44596,-4.447113 -17.13447,-9.642812 z"
     id="path324" /><path
     style="fill:#ff0000;stroke-width:2.03836"
     d="m 445.8915,147.48796 -16.81648,-10.11865 0.0473,-20.78317 0.0473,-20.783167 18.6235,-10.431589 18.62349,-10.431589 18.04346,10.431589 18.04345,10.431589 -0.53333,21.318927 -0.53333,21.31893 -16.30689,9.69288 c -8.96879,5.33109 -17.68279,9.64339 -19.36443,9.58289 -1.68165,-0.0605 -10.62496,-4.66338 -19.87402,-10.22864 z"
     id="path326" /><path
     style="fill:#ff0000;stroke-width:2.03836"
     d="m 409.69684,214.30393 -18.3315,-10.75407 -0.57877,-20.5573 -0.57877,-20.5573 18.56986,-10.62672 c 13.65917,-7.81654 19.50249,-10.15841 22.09659,-8.85581 1.93971,0.974 10.11899,5.43996 18.17619,9.92435 l 14.64944,8.15345 0.0137,21.73695 0.0136,21.73695 -13.75894,7.6476 c -7.56742,4.20618 -15.59965,8.83073 -17.84941,10.27678 -3.61207,2.32169 -6.23444,1.37144 -22.42197,-8.12488 z"
     id="path340" /><path
     style="fill:#ff0000;stroke-width:2.03836"
     d="m 446.91068,279.95473 -17.83566,-10.3998 V 248.9044 228.25387 l 18.44066,-10.77869 18.44067,-10.7787 18.24983,10.44358 18.24984,10.44358 v 21.09642 21.09642 l -18.07756,10.34499 c -9.94266,5.68974 -18.42734,10.3198 -18.85484,10.28902 -0.42751,-0.0308 -8.80333,-4.73587 -18.61294,-10.45576 z"
     id="path342" /><path
     style="fill:#ff0000;stroke-width:2.03836"
     d="m 484.6815,345.95487 -16.75533,-9.62528 -0.0229,-21.4028 -0.0229,-21.40279 18.13455,-10.44344 18.13454,-10.44343 18.0081,10.49703 18.00809,10.49702 0.57957,20.71942 0.57957,20.71942 -17.45858,10.31199 c -9.60223,5.67161 -18.57703,10.28639 -19.94401,10.25508 -1.36698,-0.0313 -10.02531,-4.38831 -19.24075,-9.68222 z"
     id="path344" /><path
     style="fill:#ff0000;stroke-width:2.03836"
     d="m 446.93568,412.09237 -17.81065,-10.53523 -0.025,-20.69948 -0.025,-20.69947 15.7973,-9.247 c 8.68851,-5.08585 17.24938,-9.79872 19.02415,-10.47304 1.91467,-0.72747 10.41079,3.00219 20.8932,9.1718 l 17.66635,10.39783 v 20.79597 20.79596 l -18.272,10.68011 c -10.04961,5.87406 -18.53428,10.60534 -18.85484,10.51394 -0.32057,-0.0914 -8.59764,-4.90702 -18.3935,-10.70139 z"
     id="path346" /><path
     style="fill:#ff0000;stroke-width:2.03836"
     d="m 484.62036,477.77334 -16.81648,-10.12163 v -21.09707 -21.09708 l 18.26792,-10.3866 18.26792,-10.3866 18.39545,10.66656 18.39545,10.66656 0.0271,20.63984 0.0271,20.63984 -18.09833,10.44516 c -9.95409,5.74485 -18.8974,10.37935 -19.87402,10.2989 -0.97663,-0.0804 -9.34311,-4.70099 -18.59217,-10.26788 z"
     id="path348" /><path
     style="fill:#ff0000;stroke-width:2.03836"
     d="m 561.0589,477.78145 -17.83566,-10.3065 v -20.80966 -20.80966 l 18.52806,-10.60121 18.52805,-10.60121 18.16245,10.59376 18.16244,10.59377 v 20.86305 20.86305 l -17.51767,10.31033 c -9.63472,5.67067 -18.1194,10.28793 -18.85484,10.26055 -0.73545,-0.0274 -9.36322,-4.68769 -19.17283,-10.35627 z"
     id="path350" /><path
     style="fill:#ff0000;stroke-width:2.03836"
     d="m 636.25052,477.51566 -18.06341,-10.43142 1.24693,-9.0973 c 0.68581,-5.00352 1.24692,-14.39258 1.24692,-20.86458 v -11.76727 l 16.8009,-9.69075 c 9.2405,-5.32991 17.73219,-9.69075 18.87042,-9.69075 1.13824,0 9.65997,4.37817 18.93718,9.72926 l 16.86766,9.72926 -0.57635,21.61161 -0.57635,21.61161 -16.30689,9.69289 c -8.96879,5.33108 -17.22415,9.67173 -18.34525,9.64587 -1.1211,-0.0259 -10.16689,-4.74115 -20.10176,-10.47843 z"
     id="path352" /><path
     style="fill:#ff0000;stroke-width:2.03836"
     d="m 674.18628,543.60954 -16.81814,-9.55893 0.51125,-21.29903 0.51125,-21.29904 16.98944,-9.78597 c 9.34418,-5.38228 17.83079,-9.78597 18.85913,-9.78597 1.02834,0 9.6422,4.357 19.14192,9.68222 l 17.27221,9.68221 0.0361,21.40279 0.0361,21.40279 -17.07703,9.68222 c -9.39237,5.32522 -18.32962,9.62674 -19.86057,9.55893 -1.53095,-0.0678 -10.35171,-4.42481 -19.60169,-9.68222 z"
     id="path354" /><path
     style="fill:#ff0000;stroke-width:2.03836"
     d="m 713.86908,610.2335 -17.90256,-10.3419 0.57649,-21.33548 0.57649,-21.33548 17.61359,-10.19164 17.61357,-10.19164 18.56734,10.55684 18.56732,10.55683 v 20.80845 20.80844 l -17.73039,10.04693 c -9.75173,5.52581 -18.2364,10.2525 -18.85484,10.50375 -0.61845,0.25124 -9.1806,-4.19705 -19.02701,-9.8851 z"
     id="path356" /><path
     style="fill:#ff0000;stroke-width:2.03836"
     d="m 789.35535,609.89137 -17.83566,-10.57712 v -20.68161 -20.68161 l 18.56733,-10.55683 18.56733,-10.55684 17.61358,10.19164 17.61358,10.19164 0.57661,21.34682 0.5766,21.34681 -18.14458,10.38335 c -9.97952,5.71084 -18.49435,10.33554 -18.92185,10.27712 -0.42751,-0.0584 -8.80333,-4.86594 -18.61294,-10.68337 z"
     id="path358" /><path
     style="fill:#ff0000;stroke-width:2.03836"
     d="m 864.77471,609.36375 -15.7973,-9.20521 v -21.21487 -21.21486 l 17.63265,-10.378 c 9.69795,-5.7079 18.25549,-10.11823 19.01674,-9.80073 0.76124,0.31749 8.44922,4.65592 17.08438,9.64094 l 15.7003,9.06369 -0.57449,21.26842 -0.57448,21.26842 -17.32607,9.91515 c -9.52934,5.45334 -17.7847,9.90326 -18.34525,9.88871 -0.56055,-0.0145 -8.12797,-4.16879 -16.81648,-9.23166 z"
     id="path360" /><path
     style="fill:#0000ff;stroke-width:2.03836"
     d="m 485.63954,738.62872 -17.83566,-10.24355 0.0571,-19.70955 0.0571,-19.70956 17.45156,-9.92623 c 19.76043,-11.2395 17.20861,-11.42231 41.90672,3.00216 l 13.90862,8.12307 -0.0128,18.76493 c -0.0147,21.25977 3.09242,17.14156 -24.61971,32.63234 l -13.07713,7.30994 z"
     id="path431" /><path
     style="fill:#0000ff;stroke-width:2.03836"
     d="m 522.33004,675.50248 -17.83566,-10.3065 0.0354,-20.72874 0.0354,-20.72874 18.47367,-10.1918 c 10.16052,-5.60549 19.36665,-9.94601 20.45806,-9.6456 1.09141,0.30041 9.30266,4.79841 18.24721,9.99555 l 16.26282,9.44934 -0.57537,21.51519 -0.57537,21.51518 -16.30689,9.69289 c -8.96879,5.33108 -17.22415,9.70342 -18.34525,9.71631 -1.1211,0.0128 -10.06441,-4.6145 -19.87402,-10.28308 z"
     id="path433" /><path
     style="fill:#0000ff;stroke-width:2.03836"
     d="m 561.0589,609.89137 -17.83566,-10.57712 v -20.75806 -20.75805 l 18.34525,-10.49818 18.34525,-10.49818 18.34525,10.49818 18.34525,10.49818 v 21.01997 21.01998 l -18.3292,10.42143 c -10.08105,5.7318 -18.56573,10.37364 -18.85484,10.31522 -0.2891,-0.0584 -8.55169,-4.86594 -18.3613,-10.68337 z"
     id="path435" /><path
     style="fill:#0000ff;stroke-width:2.03836"
     d="m 598.78589,543.67494 -16.79917,-9.62433 0.0397,-21.40279 0.0397,-21.40279 17.02817,-9.68221 c 9.36549,-5.32522 18.02567,-9.68222 19.24484,-9.68222 1.21918,0 10.07305,4.6404 19.67527,10.312 l 17.45858,10.312 -0.57957,20.66959 -0.57957,20.66959 -16.98943,9.78563 c -9.34419,5.3821 -18.05818,9.75959 -19.36443,9.72775 -1.30625,-0.0318 -9.93463,-4.38884 -19.17417,-9.68222 z"
     id="path437" /><path
     style="fill:#0000ff;stroke-width:2.03836"
     d="M 599.78776,412.41036 581.9521,402.11571 v -21.05397 -21.05396 l 17.51767,-10.31033 c 9.63473,-5.67068 18.01055,-10.31032 18.61294,-10.31032 0.6024,0 9.23017,4.65524 19.17283,10.34499 l 18.07756,10.34499 -0.007,20.74002 -0.007,20.74001 -17.66437,10.19181 c -9.7154,5.60549 -18.19708,10.36376 -18.84819,10.57393 -0.6511,0.21017 -9.20987,-4.25047 -19.01948,-9.91252 z"
     id="path439" /><path
     style="fill:#0000ff;stroke-width:2.03836"
     d="m 638.51845,346.62881 -17.78748,-10.29922 -0.025,-21.48372 -0.025,-21.48372 17.97965,-10.28742 17.97964,-10.28742 17.69168,10.35031 17.69167,10.35031 v 21.50175 21.50175 l -17.85884,10.21831 -17.85883,10.2183 z"
     id="path441" /><path
     style="fill:#0000ff;stroke-width:2.03836"
     d="M 599.78776,280.11205 581.9521,269.76041 v -21.01194 -21.01194 l 18.22867,-10.36428 18.22867,-10.36428 18.46183,10.56331 18.46183,10.56332 v 20.82094 20.82094 l -18.07756,10.34499 c -9.94266,5.68974 -18.42734,10.34437 -18.85484,10.3436 -0.4275,-7.6e-4 -8.80333,-4.65962 -18.61294,-10.35302 z"
     id="path443" /><path
     style="fill:#0000ff;stroke-width:2.03836"
     d="m 638.46319,214.62152 -17.78223,-10.29414 v -21.11327 -21.11326 l 7.64386,-4.76975 c 4.20412,-2.62337 12.25791,-7.3399 17.89731,-10.48119 l 10.25346,-5.71143 18.79319,10.68525 18.79318,10.68524 -0.0278,16.58685 c -0.0153,9.12277 -0.5752,18.62882 -1.24421,21.12456 -1.02667,3.83003 -12.23666,11.44963 -35.47189,24.1108 -0.58994,0.32146 -9.07462,-4.04788 -18.85484,-9.70966 z"
     id="path445" /><path
     style="fill:#0000ff;stroke-width:2.03836"
     d="m 674.1183,147.44708 -16.88612,-10.15954 0.57923,-20.59915 0.57923,-20.599162 18.05792,-10.593495 18.05792,-10.593494 18.12299,10.369443 18.12299,10.369443 -0.0571,21.483715 -0.0571,21.48372 -17.02817,9.68221 c -9.36549,5.32522 -18.28312,9.59978 -19.81696,9.49903 -1.53385,-0.10076 -10.38756,-4.75498 -19.67493,-10.34272 z"
     id="path447" /><path
     style="fill:#0000ff;stroke-width:2.03836"
     d="m 827.57462,148.13371 -16.30689,-9.69288 -0.51133,-21.31893 -0.51132,-21.318927 17.32351,-9.682215 c 9.52792,-5.325219 18.24463,-9.682216 19.37046,-9.682216 1.12582,0 9.84253,4.356997 19.37046,9.682216 l 17.32351,9.682215 -0.51133,21.318927 -0.51132,21.31893 -16.30689,9.69288 c -8.96879,5.33109 -17.68278,9.69289 -19.36443,9.69289 -1.68165,0 -10.39564,-4.3618 -19.36443,-9.69289 z"
     id="path449" /><path
     style="fill:#0000ff;stroke-width:2.03836"
     d="m 751.66297,148.23288 -16.79917,-9.62432 -0.0173,-21.48372 -0.0173,-21.483715 18.05136,-10.328458 18.05136,-10.328457 18.70916,11.035024 18.70917,11.035024 -0.57962,20.534182 -0.57961,20.53418 -17.32607,9.91481 c -9.52934,5.45315 -18.24334,9.89343 -19.36443,9.8673 -1.1211,-0.0261 -9.59799,-4.37847 -18.83754,-9.67185 z"
     id="path451" /><path
     style="fill:#0000ff;stroke-width:2.03836"
     d="M 867.32266,82.804705 849.99659,72.884721 V 52.891947 32.899173 l 9.17262,-5.359981 c 5.04495,-2.947989 12.97902,-7.48641 17.63127,-10.085381 l 8.45864,-4.725402 18.54964,10.705634 18.54965,10.705634 v 18.881439 18.881439 l -18.3292,10.421437 c -10.08105,5.731792 -18.56573,10.416771 -18.85484,10.411068 -0.2891,-0.0057 -8.32237,-4.474364 -17.85171,-9.930355 z"
     id="path453" /><path
     style="fill:none;stroke:#ffffff;stroke-opacity:1;stroke-width:7;stroke-dasharray:none"
     d="m 414.671,30.057242 57.81772,91.626158 v 0 l -45.04001,58.60886 80.90119,139.28828 -44.07085,66.09041 41.16558,68.51476 156.36684,-7.06988 70.71237,135.73633 159.31638,-2.60748 v 0"
     id="path621" /></svg>
