<?xml version="1.0" encoding="UTF-8" standalone="no"?>
<svg
   width="422.95361pt"
   height="231.72914pt"
   viewBox="0 0 422.9536 231.72915"
   version="1.1"
   id="svg346"
   sodipodi:docname="transfer_11x11.svg"
   inkscape:version="1.2.2 (b0a8486541, 2022-12-01)"
   xmlns:inkscape="http://www.inkscape.org/namespaces/inkscape"
   xmlns:sodipodi="http://sodipodi.sourceforge.net/DTD/sodipodi-0.dtd"
   xmlns:xlink="http://www.w3.org/1999/xlink"
   xmlns="http://www.w3.org/2000/svg"
   xmlns:svg="http://www.w3.org/2000/svg"
   xmlns:rdf="http://www.w3.org/1999/02/22-rdf-syntax-ns#"
   xmlns:cc="http://creativecommons.org/ns#"
   xmlns:dc="http://purl.org/dc/elements/1.1/">
  <sodipodi:namedview
     id="namedview348"
     pagecolor="#ffffff"
     bordercolor="#000000"
     borderopacity="0.25"
     inkscape:showpageshadow="2"
     inkscape:pageopacity="0.0"
     inkscape:pagecheckerboard="0"
     inkscape:deskcolor="#d1d1d1"
     inkscape:document-units="pt"
     showgrid="false"
     inkscape:zoom="2.0909256"
     inkscape:cx="302.97587"
     inkscape:cy="152.08576"
     inkscape:window-width="1896"
     inkscape:window-height="1027"
     inkscape:window-x="12"
     inkscape:window-y="41"
     inkscape:window-maximized="1"
     inkscape:current-layer="svg346" />
  <metadata
     id="metadata2">
    <rdf:RDF>
      <cc:Work>
        <dc:type
           rdf:resource="http://purl.org/dc/dcmitype/StillImage" />
        <dc:date>2023-03-06T13:17:44.206489</dc:date>
        <dc:format>image/svg+xml</dc:format>
        <dc:creator>
          <cc:Agent>
            <dc:title>Matplotlib v3.5.2, https://matplotlib.org/</dc:title>
          </cc:Agent>
        </dc:creator>
      </cc:Work>
    </rdf:RDF>
  </metadata>
  <defs
     id="defs6">
    <style
       type="text/css"
       id="style4">*{stroke-linejoin: round; stroke-linecap: butt}</style>
  </defs>
  <path
     d="M 39.765625,203.3104 H 422.55362 V 0.40000001 H 39.765625 Z"
     style="fill:#ffffff"
     id="path11" />
  <path
     d="M 79.139455,234.5328 H 114.83064 V 82.8868 H 79.139455 Z"
     clip-path="url(#p56fc70c031)"
     style="fill:#ff8c00"
     id="path14"
     transform="translate(-21.974375,-31.2224)" />
  <path
     d="m 123.75344,234.5328 h 35.69119 V 101.4064 h -35.69119 z"
     clip-path="url(#p56fc70c031)"
     style="fill:#ff8c00"
     id="path17"
     transform="translate(-21.974375,-31.2224)" />
  <path
     d="m 168.36743,234.5328 h 35.69118 V 84.3264 h -35.69118 z"
     clip-path="url(#p56fc70c031)"
     style="fill:#ff8c00"
     id="path20"
     transform="translate(-21.974375,-31.2224)" />
  <path
     d="m 212.98141,234.5328 h 35.69119 v -92.964 h -35.69119 z"
     clip-path="url(#p56fc70c031)"
     style="fill:#ff8c00"
     id="path23"
     transform="translate(-21.974375,-31.2224)" />
  <path
     d="m 257.5954,234.5328 h 35.69119 V 43.762338 H 257.5954 Z"
     clip-path="url(#p56fc70c031)"
     style="fill:#ff8c00"
     id="path26"
     transform="translate(-21.974375,-31.2224)" />
  <path
     d="m 302.20938,234.5328 h 35.69119 V 49.248316 h -35.69119 z"
     clip-path="url(#p56fc70c031)"
     style="fill:#ff8c00"
     id="path29"
     transform="translate(-21.974375,-31.2224)" />
  <path
     d="m 346.82337,234.5328 h 35.69119 V 49.106743 h -35.69119 z"
     clip-path="url(#p56fc70c031)"
     style="fill:#ff8c00"
     id="path32"
     transform="translate(-21.974375,-31.2224)" />
  <path
     d="m 391.43736,234.5328 h 35.69118 V 50.9472 h -35.69118 z"
     clip-path="url(#p56fc70c031)"
     style="fill:#ff8c00"
     id="path35"
     transform="translate(-21.974375,-31.2224)" />
  <path
     d="M 79.139455,82.8868 H 114.83064 V 41.2848 H 79.139455 Z"
     clip-path="url(#p56fc70c031)"
     style="fill:#0000ff"
     id="path38"
     transform="translate(-21.974375,-31.2224)" />
  <path
     d="m 123.75344,101.4064 h 35.69119 V 41.2848 h -35.69119 z"
     clip-path="url(#p56fc70c031)"
     style="fill:#0000ff"
     id="path41"
     transform="translate(-21.974375,-31.2224)" />
  <path
     d="m 168.36743,84.3264 h 35.69118 V 41.2848 h -35.69118 z"
     clip-path="url(#p56fc70c031)"
     style="fill:#0000ff"
     id="path44"
     transform="translate(-21.974375,-31.2224)" />
  <path
     d="M 212.98141,141.5688 H 248.6726 V 41.2848 h -35.69119 z"
     clip-path="url(#p56fc70c031)"
     style="fill:#0000ff"
     id="path47"
     transform="translate(-21.974375,-31.2224)" />
  <path
     d="m 257.5954,43.762338 h 35.69119 V 41.2848 H 257.5954 Z"
     clip-path="url(#p56fc70c031)"
     style="fill:#0000ff"
     id="path50"
     transform="translate(-21.974375,-31.2224)" />
  <path
     d="m 302.20938,49.248316 h 35.69119 V 41.2848 h -35.69119 z"
     clip-path="url(#p56fc70c031)"
     style="fill:#0000ff"
     id="path53"
     transform="translate(-21.974375,-31.2224)" />
  <path
     d="m 346.82337,49.106743 h 35.69119 V 41.2848 h -35.69119 z"
     clip-path="url(#p56fc70c031)"
     style="fill:#0000ff"
     id="path56"
     transform="translate(-21.974375,-31.2224)" />
  <path
     d="m 391.43736,50.9472 h 35.69118 v -9.6624 h -35.69118 z"
     clip-path="url(#p56fc70c031)"
     style="fill:#0000ff"
     id="path59"
     transform="translate(-21.974375,-31.2224)" />
  <g
     id="xtick_1"
     transform="translate(-21.974375,-31.2224)">
    <g
       id="line2d_1">
      <defs
         id="defs63">
        <path
           id="m6ef6c0fd73"
           d="M 0,0 V 3.5"
           style="stroke:#000000;stroke-width:0.8" />
      </defs>
      <g
         id="g67">
        <use
           xlink:href="#m6ef6c0fd73"
           x="96.985046"
           y="234.53281"
           style="stroke:#000000;stroke-width:0.8"
           id="use65" />
      </g>
    </g>
    <g
       id="text_1">
      <!-- 8 -->
      <g
         transform="matrix(0.1,0,0,-0.1,93.803799,249.13124)"
         id="g75">
        <defs
           id="defs71">
          <path
             id="DejaVuSans-38"
             d="m 2034,2216 q -450,0 -708,-241 -257,-241 -257,-662 0,-422 257,-663 258,-241 708,-241 450,0 709,242 260,243 260,662 0,421 -258,662 -257,241 -711,241 z m -631,268 q -406,100 -633,378 -226,279 -226,679 0,559 398,884 399,325 1092,325 697,0 1094,-325 397,-325 397,-884 0,-400 -227,-679 -226,-278 -629,-378 456,-106 710,-416 255,-309 255,-755 Q 3634,634 3220,271 2806,-91 2034,-91 1263,-91 848,271 434,634 434,1313 q 0,446 256,755 257,310 713,416 z m -231,997 q 0,-362 226,-565 227,-203 636,-203 407,0 636,203 230,203 230,565 0,363 -230,566 -229,203 -636,203 -409,0 -636,-203 -226,-203 -226,-566 z"
             transform="scale(0.015625)" />
        </defs>
        <use
           xlink:href="#DejaVuSans-38"
           id="use73" />
      </g>
    </g>
  </g>
  <g
     id="xtick_2"
     transform="translate(-21.974375,-31.2224)">
    <g
       id="line2d_2">
      <g
         id="g81">
        <use
           xlink:href="#m6ef6c0fd73"
           x="141.59903"
           y="234.53281"
           style="stroke:#000000;stroke-width:0.8"
           id="use79" />
      </g>
    </g>
    <g
       id="text_2">
      <!-- 9 -->
      <g
         transform="matrix(0.1,0,0,-0.1,138.41778,249.13124)"
         id="g89">
        <defs
           id="defs85">
          <path
             id="DejaVuSans-39"
             d="m 703,97 v 575 q 238,-113 481,-172 244,-59 479,-59 625,0 954,420 330,420 377,1277 -181,-269 -460,-413 -278,-144 -615,-144 -700,0 -1108,423 -408,424 -408,1159 0,718 425,1152 425,435 1131,435 810,0 1236,-621 427,-620 427,-1801 Q 3622,1225 3098,567 2575,-91 1691,-91 1453,-91 1209,-44 966,3 703,97 Z m 1256,1978 q 425,0 673,290 249,291 249,798 0,503 -249,795 -248,292 -673,292 -425,0 -673,-292 -248,-292 -248,-795 0,-507 248,-798 248,-290 673,-290 z"
             transform="scale(0.015625)" />
        </defs>
        <use
           xlink:href="#DejaVuSans-39"
           id="use87" />
      </g>
    </g>
  </g>
  <g
     id="xtick_3"
     transform="translate(-21.974375,-31.2224)">
    <g
       id="line2d_3">
      <g
         id="g95">
        <use
           xlink:href="#m6ef6c0fd73"
           x="186.21303"
           y="234.53281"
           style="stroke:#000000;stroke-width:0.8"
           id="use93" />
      </g>
    </g>
    <g
       id="text_3">
      <!-- 10 -->
      <g
         transform="matrix(0.1,0,0,-0.1,179.85052,249.13124)"
         id="g106">
        <defs
           id="defs100">
          <path
             id="DejaVuSans-31"
             d="M 794,531 H 1825 V 4091 L 703,3866 v 575 l 1116,225 h 631 V 531 H 3481 V 0 H 794 Z"
             transform="scale(0.015625)" />
          <path
             id="DejaVuSans-30"
             d="m 2034,4250 q -487,0 -733,-480 -245,-479 -245,-1442 0,-959 245,-1439 246,-480 733,-480 491,0 736,480 246,480 246,1439 0,963 -246,1442 -245,480 -736,480 z m 0,500 q 785,0 1199,-621 414,-620 414,-1801 0,-1178 -414,-1799 -414,-620 -1199,-620 -784,0 -1198,620 -414,621 -414,1799 0,1181 414,1801 414,621 1198,621 z"
             transform="scale(0.015625)" />
        </defs>
        <use
           xlink:href="#DejaVuSans-31"
           id="use102" />
        <use
           xlink:href="#DejaVuSans-30"
           x="63.623047"
           id="use104" />
      </g>
    </g>
  </g>
  <g
     id="line2d_4"
     transform="translate(-21.974375,-31.2224)">
    <g
       id="g112">
      <use
         xlink:href="#m6ef6c0fd73"
         x="230.82701"
         y="234.53281"
         style="stroke:#000000;stroke-width:0.8"
         id="use110" />
    </g>
  </g>
  <g
     id="xtick_5"
     transform="translate(-21.974375,-31.2224)">
    <g
       id="line2d_5">
      <g
         id="g125">
        <use
           xlink:href="#m6ef6c0fd73"
           x="275.44098"
           y="234.53281"
           style="stroke:#000000;stroke-width:0.8"
           id="use123" />
      </g>
    </g>
    <g
       id="text_5">
      <!-- 12 -->
      <g
         transform="matrix(0.1,0,0,-0.1,269.07849,249.13124)"
         id="g135">
        <defs
           id="defs129">
          <path
             id="DejaVuSans-32"
             d="M 1228,531 H 3431 V 0 H 469 v 531 q 359,372 979,998 621,627 780,809 303,340 423,576 121,236 121,464 0,372 -261,606 -261,235 -680,235 -297,0 -627,-103 -329,-103 -704,-313 v 638 q 381,153 712,231 332,78 607,78 725,0 1156,-363 431,-362 431,-968 0,-288 -108,-546 -107,-257 -392,-607 -78,-91 -497,-524 Q 1991,1309 1228,531 Z"
             transform="scale(0.015625)" />
        </defs>
        <use
           xlink:href="#DejaVuSans-31"
           id="use131" />
        <use
           xlink:href="#DejaVuSans-32"
           x="63.623047"
           id="use133" />
      </g>
    </g>
  </g>
  <g
     id="xtick_6"
     transform="translate(-21.974375,-31.2224)">
    <g
       id="line2d_6">
      <g
         id="g141">
        <use
           xlink:href="#m6ef6c0fd73"
           x="320.05499"
           y="234.53281"
           style="stroke:#000000;stroke-width:0.8"
           id="use139" />
      </g>
    </g>
    <g
       id="text_6">
      <!-- 13 -->
      <g
         transform="matrix(0.1,0,0,-0.1,313.69248,249.13124)"
         id="g151">
        <defs
           id="defs145">
          <path
             id="DejaVuSans-33"
             d="m 2597,2516 q 453,-97 707,-404 255,-306 255,-756 0,-690 -475,-1069 -475,-378 -1350,-378 -293,0 -604,58 -311,58 -642,174 v 609 q 262,-153 574,-231 313,-78 654,-78 593,0 904,234 311,234 311,681 0,413 -289,645 -289,233 -804,233 h -544 v 519 h 569 q 465,0 712,186 247,186 247,536 0,359 -255,551 -254,193 -729,193 -260,0 -557,-57 -297,-56 -653,-174 v 562 q 360,100 674,150 314,50 592,50 719,0 1137,-327 419,-326 419,-882 0,-388 -222,-655 -222,-267 -631,-370 z"
             transform="scale(0.015625)" />
        </defs>
        <use
           xlink:href="#DejaVuSans-31"
           id="use147" />
        <use
           xlink:href="#DejaVuSans-33"
           x="63.623047"
           id="use149" />
      </g>
    </g>
  </g>
  <g
     id="xtick_7"
     transform="translate(-21.974375,-31.2224)">
    <g
       id="line2d_7">
      <g
         id="g157">
        <use
           xlink:href="#m6ef6c0fd73"
           x="364.66898"
           y="234.53281"
           style="stroke:#000000;stroke-width:0.8"
           id="use155" />
      </g>
    </g>
    <g
       id="text_7">
      <!-- 14 -->
      <g
         transform="matrix(0.1,0,0,-0.1,358.30646,249.13124)"
         id="g167">
        <defs
           id="defs161">
          <path
             id="DejaVuSans-34"
             d="M 2419,4116 825,1625 h 1594 z m -166,550 h 794 V 1625 h 666 V 1100 H 3047 V 0 H 2419 V 1100 H 313 v 609 z"
             transform="scale(0.015625)" />
        </defs>
        <use
           xlink:href="#DejaVuSans-31"
           id="use163" />
        <use
           xlink:href="#DejaVuSans-34"
           x="63.623047"
           id="use165" />
      </g>
    </g>
  </g>
  <g
     id="xtick_8"
     transform="translate(-21.974375,-31.2224)">
    <g
       id="line2d_8">
      <g
         id="g173">
        <use
           xlink:href="#m6ef6c0fd73"
           x="409.28296"
           y="234.53281"
           style="stroke:#000000;stroke-width:0.8"
           id="use171" />
      </g>
    </g>
    <g
       id="text_8">
      <!-- 15 -->
      <g
         transform="matrix(0.1,0,0,-0.1,402.92045,249.13124)"
         id="g183">
        <defs
           id="defs177">
          <path
             id="DejaVuSans-35"
             d="M 691,4666 H 3169 V 4134 H 1269 V 2991 q 137,47 274,70 138,23 276,23 781,0 1237,-428 457,-428 457,-1159 Q 3513,744 3044,326 2575,-91 1722,-91 1428,-91 1123,-41 819,9 494,109 v 635 q 281,-153 581,-228 300,-75 634,-75 541,0 856,284 316,284 316,772 0,487 -316,771 -315,285 -856,285 -253,0 -505,-56 -251,-56 -513,-175 z"
             transform="scale(0.015625)" />
        </defs>
        <use
           xlink:href="#DejaVuSans-31"
           id="use179" />
        <use
           xlink:href="#DejaVuSans-35"
           x="63.623047"
           id="use181" />
      </g>
    </g>
  </g>
  <g
     id="text_9"
     transform="translate(-21.974375,-31.2224)">
    <!-- Hex size -->
    <g
       transform="matrix(0.1,0,0,-0.1,232.14181,262.80936)"
       id="g212">
      <defs
         id="defs194">
        <path
           id="DejaVuSans-48"
           d="m 628,4666 h 631 V 2753 h 2294 v 1913 h 631 V 0 H 3553 V 2222 H 1259 V 0 H 628 Z"
           transform="scale(0.015625)" />
        <path
           id="DejaVuSans-65"
           d="M 3597,1894 V 1613 H 953 q 38,-594 358,-905 320,-311 892,-311 331,0 642,81 311,81 618,244 V 178 Q 3153,47 2828,-22 2503,-91 2169,-91 1331,-91 842,396 353,884 353,1716 q 0,859 464,1363 464,505 1252,505 706,0 1117,-455 411,-454 411,-1235 z m -575,169 q -6,471 -264,752 -258,282 -683,282 -481,0 -770,-272 -289,-272 -333,-766 z"
           transform="scale(0.015625)" />
        <path
           id="DejaVuSans-78"
           d="M 3513,3500 2247,1797 3578,0 H 2900 L 1881,1375 863,0 H 184 L 1544,1831 300,3500 h 678 l 928,-1247 928,1247 z"
           transform="scale(0.015625)" />
        <path
           id="DejaVuSans-20"
           transform="scale(0.015625)"
           d="" />
        <path
           id="DejaVuSans-73"
           d="m 2834,3397 v -544 q -243,125 -506,187 -262,63 -544,63 -428,0 -642,-131 -214,-131 -214,-394 0,-200 153,-314 153,-114 616,-217 l 197,-44 q 612,-131 870,-370 258,-239 258,-667 0,-488 -386,-773 Q 2250,-91 1575,-91 1294,-91 989,-36 684,19 347,128 v 594 q 319,-166 628,-249 309,-82 613,-82 406,0 624,139 219,139 219,392 0,234 -158,359 -157,125 -692,241 l -200,47 q -534,112 -772,345 -237,233 -237,639 0,494 350,762 350,269 994,269 318,0 599,-47 282,-46 519,-140 z"
           transform="scale(0.015625)" />
        <path
           id="DejaVuSans-69"
           d="m 603,3500 h 575 V 0 H 603 Z m 0,1363 h 575 V 4134 H 603 Z"
           transform="scale(0.015625)" />
        <path
           id="DejaVuSans-7a"
           d="M 353,3500 H 3084 V 2975 L 922,459 H 3084 V 0 H 275 V 525 L 2438,3041 H 353 Z"
           transform="scale(0.015625)" />
      </defs>
      <use
         xlink:href="#DejaVuSans-48"
         id="use196" />
      <use
         xlink:href="#DejaVuSans-65"
         x="75.195312"
         id="use198" />
      <use
         xlink:href="#DejaVuSans-78"
         x="134.96875"
         id="use200" />
      <use
         xlink:href="#DejaVuSans-20"
         x="194.14844"
         id="use202" />
      <use
         xlink:href="#DejaVuSans-73"
         x="225.93555"
         id="use204" />
      <use
         xlink:href="#DejaVuSans-69"
         x="278.03516"
         id="use206" />
      <use
         xlink:href="#DejaVuSans-7a"
         x="305.81836"
         id="use208" />
      <use
         xlink:href="#DejaVuSans-65"
         x="358.30859"
         id="use210" />
    </g>
  </g>
  <g
     id="ytick_1"
     transform="translate(-21.974375,-31.2224)">
    <g
       id="line2d_9">
      <defs
         id="defs217">
        <path
           id="m810deec920"
           d="M 0,0 H -3.5"
           style="stroke:#000000;stroke-width:0.8" />
      </defs>
      <g
         id="g221">
        <use
           xlink:href="#m810deec920"
           x="61.740002"
           y="234.53281"
           style="stroke:#000000;stroke-width:0.8"
           id="use219" />
      </g>
    </g>
    <g
       id="text_10">
      <!-- 0 -->
      <g
         transform="matrix(0.1,0,0,-0.1,48.3775,238.33202)"
         id="g226">
        <use
           xlink:href="#DejaVuSans-30"
           id="use224" />
      </g>
    </g>
  </g>
  <g
     id="ytick_2"
     transform="translate(-21.974375,-31.2224)">
    <g
       id="line2d_10">
      <g
         id="g232">
        <use
           xlink:href="#m810deec920"
           x="61.740002"
           y="137.9088"
           style="stroke:#000000;stroke-width:0.8"
           id="use230" />
      </g>
    </g>
    <g
       id="text_11">
      <!-- 50 -->
      <g
         transform="matrix(0.1,0,0,-0.1,42.015,141.70802)"
         id="g239">
        <use
           xlink:href="#DejaVuSans-35"
           id="use235" />
        <use
           xlink:href="#DejaVuSans-30"
           x="63.623047"
           id="use237" />
      </g>
    </g>
  </g>
  <g
     id="ytick_3"
     transform="translate(-21.974375,-31.2224)">
    <g
       id="line2d_11">
      <g
         id="g245">
        <use
           xlink:href="#m810deec920"
           x="61.740002"
           y="41.284801"
           style="stroke:#000000;stroke-width:0.8"
           id="use243" />
      </g>
    </g>
    <g
       id="text_12">
      <!-- 100 -->
      <g
         transform="matrix(0.1,0,0,-0.1,35.6525,45.084019)"
         id="g254">
        <use
           xlink:href="#DejaVuSans-31"
           id="use248" />
        <use
           xlink:href="#DejaVuSans-30"
           x="63.623047"
           id="use250" />
        <use
           xlink:href="#DejaVuSans-30"
           x="127.24609"
           id="use252" />
      </g>
    </g>
  </g>
  <g
     id="text_13"
     transform="translate(-21.974375,-31.2224)">
    <!-- Win percent -->
    <g
       transform="matrix(0,-0.1,-0.1,0,29.572813,163.20416)"
       id="g288">
      <defs
         id="defs264">
        <path
           id="DejaVuSans-57"
           d="m 213,4666 h 637 l 981,-3944 978,3944 h 710 l 981,-3944 978,3944 h 641 L 4947,0 H 4153 L 3169,4050 2175,0 h -794 z"
           transform="scale(0.015625)" />
        <path
           id="DejaVuSans-6e"
           d="M 3513,2113 V 0 h -575 v 2094 q 0,497 -194,743 -194,247 -581,247 -466,0 -735,-297 -269,-296 -269,-809 V 0 H 581 v 3500 h 578 v -544 q 207,316 486,472 280,156 646,156 603,0 912,-373 310,-373 310,-1098 z"
           transform="scale(0.015625)" />
        <path
           id="DejaVuSans-70"
           d="M 1159,525 V -1331 H 581 v 4831 h 578 v -531 q 182,312 458,463 277,152 661,152 638,0 1036,-506 399,-506 399,-1331 0,-825 -399,-1332 -398,-506 -1036,-506 -384,0 -661,152 -276,152 -458,464 z m 1957,1222 q 0,634 -261,995 -261,361 -717,361 -457,0 -718,-361 -261,-361 -261,-995 0,-634 261,-995 261,-361 718,-361 456,0 717,361 261,361 261,995 z"
           transform="scale(0.015625)" />
        <path
           id="DejaVuSans-72"
           d="m 2631,2963 q -97,56 -211,82 -114,27 -251,27 -488,0 -749,-317 -261,-317 -261,-911 V 0 H 581 v 3500 h 578 v -544 q 182,319 472,473 291,155 707,155 59,0 131,-8 72,-7 159,-23 z"
           transform="scale(0.015625)" />
        <path
           id="DejaVuSans-63"
           d="m 3122,3366 v -538 q -244,135 -489,202 -245,67 -495,67 -560,0 -870,-355 -309,-354 -309,-995 0,-641 309,-996 310,-354 870,-354 250,0 495,67 245,67 489,202 V 134 Q 2881,22 2623,-34 2366,-91 2075,-91 1284,-91 818,406 353,903 353,1747 q 0,856 470,1346 471,491 1290,491 265,0 518,-55 253,-54 491,-163 z"
           transform="scale(0.015625)" />
        <path
           id="DejaVuSans-74"
           d="M 1172,4494 V 3500 H 2356 V 3053 H 1172 V 1153 q 0,-428 117,-550 117,-122 477,-122 h 590 V 0 H 1766 Q 1100,0 847,248 594,497 594,1153 V 3053 H 172 v 447 h 422 v 994 z"
           transform="scale(0.015625)" />
      </defs>
      <use
         xlink:href="#DejaVuSans-57"
         id="use266" />
      <use
         xlink:href="#DejaVuSans-69"
         x="96.626953"
         id="use268" />
      <use
         xlink:href="#DejaVuSans-6e"
         x="124.41016"
         id="use270" />
      <use
         xlink:href="#DejaVuSans-20"
         x="187.78906"
         id="use272" />
      <use
         xlink:href="#DejaVuSans-70"
         x="219.57617"
         id="use274" />
      <use
         xlink:href="#DejaVuSans-65"
         x="283.05273"
         id="use276" />
      <use
         xlink:href="#DejaVuSans-72"
         x="344.57617"
         id="use278" />
      <use
         xlink:href="#DejaVuSans-63"
         x="383.43945"
         id="use280" />
      <use
         xlink:href="#DejaVuSans-65"
         x="438.41992"
         id="use282" />
      <use
         xlink:href="#DejaVuSans-6e"
         x="499.94336"
         id="use284" />
      <use
         xlink:href="#DejaVuSans-74"
         x="563.32227"
         id="use286" />
    </g>
  </g>
  <path
     d="M 39.765625,203.3104 V 0.40000001"
     style="fill:none;stroke:#000000;stroke-width:0.8;stroke-linecap:square;stroke-linejoin:miter"
     id="path292" />
  <path
     d="M 422.55362,203.3104 V 0.40000001"
     style="fill:none;stroke:#000000;stroke-width:0.8;stroke-linecap:square;stroke-linejoin:miter"
     id="path295" />
  <path
     d="M 39.765625,203.3104 H 422.55362"
     style="fill:none;stroke:#000000;stroke-width:0.8;stroke-linecap:square;stroke-linejoin:miter"
     id="path298" />
  <path
     d="M 39.765625,0.40000001 H 422.55362"
     style="fill:none;stroke:#000000;stroke-width:0.8;stroke-linecap:square;stroke-linejoin:miter"
     id="path301" />
  <g
     id="patch_23"
     transform="translate(-21.974375,-31.2224)">
    <path
       d="m 68.74,68.97865 h 54.71094 q 2,0 2,-2 V 38.6224 q 0,-2 -2,-2 H 68.74 q -2,0 -2,2 v 28.35625 q 0,2 2,2 z"
       style="opacity:0.8;fill:#ffffff;stroke:#cccccc;stroke-linejoin:miter"
       id="path304" />
  </g>
  <g
     id="patch_24"
     transform="translate(-21.974375,-31.2224)">
    <path
       d="m 70.74,48.220837 h 20 v -7 h -20 z"
       style="fill:#ff8c00"
       id="path307" />
  </g>
  <g
     id="text_14"
     transform="translate(-21.974375,-31.2224)">
    <!-- GNN -->
    <g
       transform="matrix(0.1,0,0,-0.1,98.74,48.220837)"
       id="g320">
      <defs
         id="defs312">
        <path
           id="DejaVuSans-47"
           d="M 3809,666 V 1919 H 2778 v 519 H 4434 V 434 Q 4069,175 3628,42 3188,-91 2688,-91 1594,-91 976,548 359,1188 359,2328 q 0,1144 617,1783 618,639 1712,639 456,0 867,-113 411,-112 758,-331 v -672 q -350,297 -744,447 -394,150 -828,150 -857,0 -1287,-478 -429,-478 -429,-1425 0,-944 429,-1422 430,-478 1287,-478 334,0 596,58 263,58 472,180 z"
           transform="scale(0.015625)" />
        <path
           id="DejaVuSans-4e"
           d="m 628,4666 h 850 L 3547,763 v 3903 h 612 V 0 H 3309 L 1241,3903 V 0 H 628 Z"
           transform="scale(0.015625)" />
      </defs>
      <use
         xlink:href="#DejaVuSans-47"
         id="use314" />
      <use
         xlink:href="#DejaVuSans-4e"
         x="77.490234"
         id="use316" />
      <use
         xlink:href="#DejaVuSans-4e"
         x="152.29492"
         id="use318" />
    </g>
  </g>
  <g
     id="patch_25"
     transform="translate(-21.974375,-31.2224)">
    <path
       d="m 70.74,62.898962 h 20 v -7 h -20 z"
       style="fill:#0000ff"
       id="path323" />
  </g>
  <g
     id="text_15"
     transform="translate(-21.974375,-31.2224)">
    <!-- CNN -->
    <g
       transform="matrix(0.1,0,0,-0.1,98.74,62.898962)"
       id="g335">
      <defs
         id="defs327">
        <path
           id="DejaVuSans-43"
           d="m 4122,4306 v -665 q -319,297 -680,443 -361,147 -767,147 -800,0 -1225,-489 -425,-489 -425,-1414 0,-922 425,-1411 425,-489 1225,-489 406,0 767,147 361,147 680,444 V 359 Q 3791,134 3420,21 3050,-91 2638,-91 1578,-91 968,557 359,1206 359,2328 q 0,1125 609,1773 610,649 1670,649 418,0 788,-111 371,-111 696,-333 z"
           transform="scale(0.015625)" />
      </defs>
      <use
         xlink:href="#DejaVuSans-43"
         id="use329" />
      <use
         xlink:href="#DejaVuSans-4e"
         x="69.824219"
         id="use331" />
      <use
         xlink:href="#DejaVuSans-4e"
         x="144.62891"
         id="use333" />
    </g>
  </g>
  <defs
     id="defs344">
    <clipPath
       id="p56fc70c031">
      <rect
         x="61.740002"
         y="31.6224"
         width="382.78799"
         height="202.9104"
         id="rect341" />
    </clipPath>
  </defs>
  <text
     xml:space="preserve"
     style="font-style:normal;font-variant:normal;font-weight:bold;font-stretch:normal;font-size:11px;font-family:'Arimo Nerd Font';-inkscape-font-specification:'Arimo Nerd Font Bold';text-align:center;text-anchor:middle;fill:#000000;stroke-width:1.377"
     x="209.02786"
     y="217.68912"
     id="text1298"><tspan
       sodipodi:role="line"
       id="tspan1296"
       style="font-style:normal;font-variant:normal;font-weight:bold;font-stretch:normal;font-size:11px;font-family:'Arimo Nerd Font';-inkscape-font-specification:'Arimo Nerd Font Bold';stroke-width:1.377"
       x="209.02786"
       y="217.68912">11</tspan></text>
</svg>
