<?xml version="1.0" encoding="utf-8" standalone="no"?>
<!DOCTYPE svg PUBLIC "-//W3C//DTD SVG 1.1//EN"
  "http://www.w3.org/Graphics/SVG/1.1/DTD/svg11.dtd">
<svg xmlns:xlink="http://www.w3.org/1999/xlink" width="460.8pt" height="345.6pt" viewBox="0 0 460.8 345.6" xmlns="http://www.w3.org/2000/svg" version="1.1">
 <metadata>
  <rdf:RDF xmlns:dc="http://purl.org/dc/elements/1.1/" xmlns:cc="http://creativecommons.org/ns#" xmlns:rdf="http://www.w3.org/1999/02/22-rdf-syntax-ns#">
   <cc:Work>
    <dc:type rdf:resource="http://purl.org/dc/dcmitype/StillImage"/>
    <dc:date>2023-02-27T06:51:16.260490</dc:date>
    <dc:format>image/svg+xml</dc:format>
    <dc:creator>
     <cc:Agent>
      <dc:title>Matplotlib v3.5.2, https://matplotlib.org/</dc:title>
     </cc:Agent>
    </dc:creator>
   </cc:Work>
  </rdf:RDF>
 </metadata>
 <defs>
  <style type="text/css">*{stroke-linejoin: round; stroke-linecap: butt}</style>
 </defs>
 <g id="figure_1">
  <g id="patch_1">
   <path d="M 0 345.6 
L 460.8 345.6 
L 460.8 0 
L 0 0 
z
" style="fill: #ffffff"/>
  </g>
  <g id="axes_1">
   <g id="patch_2">
    <path d="M 57.6 307.584 
L 414.72 307.584 
L 414.72 41.472 
L 57.6 41.472 
z
" style="fill: #ffffff"/>
   </g>
   <g id="matplotlib.axis_1">
    <g id="xtick_1">
     <g id="line2d_1">
      <defs>
       <path id="mf74ac7c9e6" d="M 0 0 
L 0 3.5 
" style="stroke: #000000; stroke-width: 0.8"/>
      </defs>
      <g>
       <use xlink:href="#mf74ac7c9e6" x="73.776498" y="307.584" style="stroke: #000000; stroke-width: 0.8"/>
      </g>
     </g>
     <g id="text_1">
      <!-- 0 -->
      <g transform="translate(70.595248 322.182437)scale(0.1 -0.1)">
       <defs>
        <path id="DejaVuSans-30" d="M 2034 4250 
Q 1547 4250 1301 3770 
Q 1056 3291 1056 2328 
Q 1056 1369 1301 889 
Q 1547 409 2034 409 
Q 2525 409 2770 889 
Q 3016 1369 3016 2328 
Q 3016 3291 2770 3770 
Q 2525 4250 2034 4250 
z
M 2034 4750 
Q 2819 4750 3233 4129 
Q 3647 3509 3647 2328 
Q 3647 1150 3233 529 
Q 2819 -91 2034 -91 
Q 1250 -91 836 529 
Q 422 1150 422 2328 
Q 422 3509 836 4129 
Q 1250 4750 2034 4750 
z
" transform="scale(0.015625)"/>
       </defs>
       <use xlink:href="#DejaVuSans-30"/>
      </g>
     </g>
    </g>
    <g id="xtick_2">
     <g id="line2d_2">
      <g>
       <use xlink:href="#mf74ac7c9e6" x="152.356981" y="307.584" style="stroke: #000000; stroke-width: 0.8"/>
      </g>
     </g>
     <g id="text_2">
      <!-- 5 -->
      <g transform="translate(149.175731 322.182437)scale(0.1 -0.1)">
       <defs>
        <path id="DejaVuSans-35" d="M 691 4666 
L 3169 4666 
L 3169 4134 
L 1269 4134 
L 1269 2991 
Q 1406 3038 1543 3061 
Q 1681 3084 1819 3084 
Q 2600 3084 3056 2656 
Q 3513 2228 3513 1497 
Q 3513 744 3044 326 
Q 2575 -91 1722 -91 
Q 1428 -91 1123 -41 
Q 819 9 494 109 
L 494 744 
Q 775 591 1075 516 
Q 1375 441 1709 441 
Q 2250 441 2565 725 
Q 2881 1009 2881 1497 
Q 2881 1984 2565 2268 
Q 2250 2553 1709 2553 
Q 1456 2553 1204 2497 
Q 953 2441 691 2322 
L 691 4666 
z
" transform="scale(0.015625)"/>
       </defs>
       <use xlink:href="#DejaVuSans-35"/>
      </g>
     </g>
    </g>
    <g id="xtick_3">
     <g id="line2d_3">
      <g>
       <use xlink:href="#mf74ac7c9e6" x="230.937464" y="307.584" style="stroke: #000000; stroke-width: 0.8"/>
      </g>
     </g>
     <g id="text_3">
      <!-- 10 -->
      <g transform="translate(224.574964 322.182437)scale(0.1 -0.1)">
       <defs>
        <path id="DejaVuSans-31" d="M 794 531 
L 1825 531 
L 1825 4091 
L 703 3866 
L 703 4441 
L 1819 4666 
L 2450 4666 
L 2450 531 
L 3481 531 
L 3481 0 
L 794 0 
L 794 531 
z
" transform="scale(0.015625)"/>
       </defs>
       <use xlink:href="#DejaVuSans-31"/>
       <use xlink:href="#DejaVuSans-30" x="63.623047"/>
      </g>
     </g>
    </g>
    <g id="xtick_4">
     <g id="line2d_4">
      <g>
       <use xlink:href="#mf74ac7c9e6" x="309.517948" y="307.584" style="stroke: #000000; stroke-width: 0.8"/>
      </g>
     </g>
     <g id="text_4">
      <!-- 15 -->
      <g transform="translate(303.155448 322.182437)scale(0.1 -0.1)">
       <use xlink:href="#DejaVuSans-31"/>
       <use xlink:href="#DejaVuSans-35" x="63.623047"/>
      </g>
     </g>
    </g>
    <g id="xtick_5">
     <g id="line2d_5">
      <g>
       <use xlink:href="#mf74ac7c9e6" x="388.098431" y="307.584" style="stroke: #000000; stroke-width: 0.8"/>
      </g>
     </g>
     <g id="text_5">
      <!-- 20 -->
      <g transform="translate(381.735931 322.182437)scale(0.1 -0.1)">
       <defs>
        <path id="DejaVuSans-32" d="M 1228 531 
L 3431 531 
L 3431 0 
L 469 0 
L 469 531 
Q 828 903 1448 1529 
Q 2069 2156 2228 2338 
Q 2531 2678 2651 2914 
Q 2772 3150 2772 3378 
Q 2772 3750 2511 3984 
Q 2250 4219 1831 4219 
Q 1534 4219 1204 4116 
Q 875 4013 500 3803 
L 500 4441 
Q 881 4594 1212 4672 
Q 1544 4750 1819 4750 
Q 2544 4750 2975 4387 
Q 3406 4025 3406 3419 
Q 3406 3131 3298 2873 
Q 3191 2616 2906 2266 
Q 2828 2175 2409 1742 
Q 1991 1309 1228 531 
z
" transform="scale(0.015625)"/>
       </defs>
       <use xlink:href="#DejaVuSans-32"/>
       <use xlink:href="#DejaVuSans-30" x="63.623047"/>
      </g>
     </g>
    </g>
    <g id="text_6">
     <!-- runtime (hours) -->
     <g transform="translate(196.923281 335.860562)scale(0.1 -0.1)">
      <defs>
       <path id="DejaVuSans-72" d="M 2631 2963 
Q 2534 3019 2420 3045 
Q 2306 3072 2169 3072 
Q 1681 3072 1420 2755 
Q 1159 2438 1159 1844 
L 1159 0 
L 581 0 
L 581 3500 
L 1159 3500 
L 1159 2956 
Q 1341 3275 1631 3429 
Q 1922 3584 2338 3584 
Q 2397 3584 2469 3576 
Q 2541 3569 2628 3553 
L 2631 2963 
z
" transform="scale(0.015625)"/>
       <path id="DejaVuSans-75" d="M 544 1381 
L 544 3500 
L 1119 3500 
L 1119 1403 
Q 1119 906 1312 657 
Q 1506 409 1894 409 
Q 2359 409 2629 706 
Q 2900 1003 2900 1516 
L 2900 3500 
L 3475 3500 
L 3475 0 
L 2900 0 
L 2900 538 
Q 2691 219 2414 64 
Q 2138 -91 1772 -91 
Q 1169 -91 856 284 
Q 544 659 544 1381 
z
M 1991 3584 
L 1991 3584 
z
" transform="scale(0.015625)"/>
       <path id="DejaVuSans-6e" d="M 3513 2113 
L 3513 0 
L 2938 0 
L 2938 2094 
Q 2938 2591 2744 2837 
Q 2550 3084 2163 3084 
Q 1697 3084 1428 2787 
Q 1159 2491 1159 1978 
L 1159 0 
L 581 0 
L 581 3500 
L 1159 3500 
L 1159 2956 
Q 1366 3272 1645 3428 
Q 1925 3584 2291 3584 
Q 2894 3584 3203 3211 
Q 3513 2838 3513 2113 
z
" transform="scale(0.015625)"/>
       <path id="DejaVuSans-74" d="M 1172 4494 
L 1172 3500 
L 2356 3500 
L 2356 3053 
L 1172 3053 
L 1172 1153 
Q 1172 725 1289 603 
Q 1406 481 1766 481 
L 2356 481 
L 2356 0 
L 1766 0 
Q 1100 0 847 248 
Q 594 497 594 1153 
L 594 3053 
L 172 3053 
L 172 3500 
L 594 3500 
L 594 4494 
L 1172 4494 
z
" transform="scale(0.015625)"/>
       <path id="DejaVuSans-69" d="M 603 3500 
L 1178 3500 
L 1178 0 
L 603 0 
L 603 3500 
z
M 603 4863 
L 1178 4863 
L 1178 4134 
L 603 4134 
L 603 4863 
z
" transform="scale(0.015625)"/>
       <path id="DejaVuSans-6d" d="M 3328 2828 
Q 3544 3216 3844 3400 
Q 4144 3584 4550 3584 
Q 5097 3584 5394 3201 
Q 5691 2819 5691 2113 
L 5691 0 
L 5113 0 
L 5113 2094 
Q 5113 2597 4934 2840 
Q 4756 3084 4391 3084 
Q 3944 3084 3684 2787 
Q 3425 2491 3425 1978 
L 3425 0 
L 2847 0 
L 2847 2094 
Q 2847 2600 2669 2842 
Q 2491 3084 2119 3084 
Q 1678 3084 1418 2786 
Q 1159 2488 1159 1978 
L 1159 0 
L 581 0 
L 581 3500 
L 1159 3500 
L 1159 2956 
Q 1356 3278 1631 3431 
Q 1906 3584 2284 3584 
Q 2666 3584 2933 3390 
Q 3200 3197 3328 2828 
z
" transform="scale(0.015625)"/>
       <path id="DejaVuSans-65" d="M 3597 1894 
L 3597 1613 
L 953 1613 
Q 991 1019 1311 708 
Q 1631 397 2203 397 
Q 2534 397 2845 478 
Q 3156 559 3463 722 
L 3463 178 
Q 3153 47 2828 -22 
Q 2503 -91 2169 -91 
Q 1331 -91 842 396 
Q 353 884 353 1716 
Q 353 2575 817 3079 
Q 1281 3584 2069 3584 
Q 2775 3584 3186 3129 
Q 3597 2675 3597 1894 
z
M 3022 2063 
Q 3016 2534 2758 2815 
Q 2500 3097 2075 3097 
Q 1594 3097 1305 2825 
Q 1016 2553 972 2059 
L 3022 2063 
z
" transform="scale(0.015625)"/>
       <path id="DejaVuSans-20" transform="scale(0.015625)"/>
       <path id="DejaVuSans-28" d="M 1984 4856 
Q 1566 4138 1362 3434 
Q 1159 2731 1159 2009 
Q 1159 1288 1364 580 
Q 1569 -128 1984 -844 
L 1484 -844 
Q 1016 -109 783 600 
Q 550 1309 550 2009 
Q 550 2706 781 3412 
Q 1013 4119 1484 4856 
L 1984 4856 
z
" transform="scale(0.015625)"/>
       <path id="DejaVuSans-68" d="M 3513 2113 
L 3513 0 
L 2938 0 
L 2938 2094 
Q 2938 2591 2744 2837 
Q 2550 3084 2163 3084 
Q 1697 3084 1428 2787 
Q 1159 2491 1159 1978 
L 1159 0 
L 581 0 
L 581 4863 
L 1159 4863 
L 1159 2956 
Q 1366 3272 1645 3428 
Q 1925 3584 2291 3584 
Q 2894 3584 3203 3211 
Q 3513 2838 3513 2113 
z
" transform="scale(0.015625)"/>
       <path id="DejaVuSans-6f" d="M 1959 3097 
Q 1497 3097 1228 2736 
Q 959 2375 959 1747 
Q 959 1119 1226 758 
Q 1494 397 1959 397 
Q 2419 397 2687 759 
Q 2956 1122 2956 1747 
Q 2956 2369 2687 2733 
Q 2419 3097 1959 3097 
z
M 1959 3584 
Q 2709 3584 3137 3096 
Q 3566 2609 3566 1747 
Q 3566 888 3137 398 
Q 2709 -91 1959 -91 
Q 1206 -91 779 398 
Q 353 888 353 1747 
Q 353 2609 779 3096 
Q 1206 3584 1959 3584 
z
" transform="scale(0.015625)"/>
       <path id="DejaVuSans-73" d="M 2834 3397 
L 2834 2853 
Q 2591 2978 2328 3040 
Q 2066 3103 1784 3103 
Q 1356 3103 1142 2972 
Q 928 2841 928 2578 
Q 928 2378 1081 2264 
Q 1234 2150 1697 2047 
L 1894 2003 
Q 2506 1872 2764 1633 
Q 3022 1394 3022 966 
Q 3022 478 2636 193 
Q 2250 -91 1575 -91 
Q 1294 -91 989 -36 
Q 684 19 347 128 
L 347 722 
Q 666 556 975 473 
Q 1284 391 1588 391 
Q 1994 391 2212 530 
Q 2431 669 2431 922 
Q 2431 1156 2273 1281 
Q 2116 1406 1581 1522 
L 1381 1569 
Q 847 1681 609 1914 
Q 372 2147 372 2553 
Q 372 3047 722 3315 
Q 1072 3584 1716 3584 
Q 2034 3584 2315 3537 
Q 2597 3491 2834 3397 
z
" transform="scale(0.015625)"/>
       <path id="DejaVuSans-29" d="M 513 4856 
L 1013 4856 
Q 1481 4119 1714 3412 
Q 1947 2706 1947 2009 
Q 1947 1309 1714 600 
Q 1481 -109 1013 -844 
L 513 -844 
Q 928 -128 1133 580 
Q 1338 1288 1338 2009 
Q 1338 2731 1133 3434 
Q 928 4138 513 4856 
z
" transform="scale(0.015625)"/>
      </defs>
      <use xlink:href="#DejaVuSans-72"/>
      <use xlink:href="#DejaVuSans-75" x="41.113281"/>
      <use xlink:href="#DejaVuSans-6e" x="104.492188"/>
      <use xlink:href="#DejaVuSans-74" x="167.871094"/>
      <use xlink:href="#DejaVuSans-69" x="207.080078"/>
      <use xlink:href="#DejaVuSans-6d" x="234.863281"/>
      <use xlink:href="#DejaVuSans-65" x="332.275391"/>
      <use xlink:href="#DejaVuSans-20" x="393.798828"/>
      <use xlink:href="#DejaVuSans-28" x="425.585938"/>
      <use xlink:href="#DejaVuSans-68" x="464.599609"/>
      <use xlink:href="#DejaVuSans-6f" x="527.978516"/>
      <use xlink:href="#DejaVuSans-75" x="589.160156"/>
      <use xlink:href="#DejaVuSans-72" x="652.539062"/>
      <use xlink:href="#DejaVuSans-73" x="693.652344"/>
      <use xlink:href="#DejaVuSans-29" x="745.751953"/>
     </g>
    </g>
   </g>
   <g id="matplotlib.axis_2">
    <g id="ytick_1">
     <g id="line2d_6">
      <defs>
       <path id="m81eaece00a" d="M 0 0 
L -3.5 0 
" style="stroke: #000000; stroke-width: 0.8"/>
      </defs>
      <g>
       <use xlink:href="#m81eaece00a" x="57.6" y="295.488" style="stroke: #000000; stroke-width: 0.8"/>
      </g>
     </g>
     <g id="text_7">
      <!-- 0 -->
      <g transform="translate(44.2375 299.287219)scale(0.1 -0.1)">
       <use xlink:href="#DejaVuSans-30"/>
      </g>
     </g>
    </g>
    <g id="ytick_2">
     <g id="line2d_7">
      <g>
       <use xlink:href="#m81eaece00a" x="57.6" y="252.595843" style="stroke: #000000; stroke-width: 0.8"/>
      </g>
     </g>
     <g id="text_8">
      <!-- 5 -->
      <g transform="translate(44.2375 256.395062)scale(0.1 -0.1)">
       <use xlink:href="#DejaVuSans-35"/>
      </g>
     </g>
    </g>
    <g id="ytick_3">
     <g id="line2d_8">
      <g>
       <use xlink:href="#m81eaece00a" x="57.6" y="209.703686" style="stroke: #000000; stroke-width: 0.8"/>
      </g>
     </g>
     <g id="text_9">
      <!-- 10 -->
      <g transform="translate(37.875 213.502905)scale(0.1 -0.1)">
       <use xlink:href="#DejaVuSans-31"/>
       <use xlink:href="#DejaVuSans-30" x="63.623047"/>
      </g>
     </g>
    </g>
    <g id="ytick_4">
     <g id="line2d_9">
      <g>
       <use xlink:href="#m81eaece00a" x="57.6" y="166.811529" style="stroke: #000000; stroke-width: 0.8"/>
      </g>
     </g>
     <g id="text_10">
      <!-- 15 -->
      <g transform="translate(37.875 170.610748)scale(0.1 -0.1)">
       <use xlink:href="#DejaVuSans-31"/>
       <use xlink:href="#DejaVuSans-35" x="63.623047"/>
      </g>
     </g>
    </g>
    <g id="ytick_5">
     <g id="line2d_10">
      <g>
       <use xlink:href="#m81eaece00a" x="57.6" y="123.919373" style="stroke: #000000; stroke-width: 0.8"/>
      </g>
     </g>
     <g id="text_11">
      <!-- 20 -->
      <g transform="translate(37.875 127.718591)scale(0.1 -0.1)">
       <use xlink:href="#DejaVuSans-32"/>
       <use xlink:href="#DejaVuSans-30" x="63.623047"/>
      </g>
     </g>
    </g>
    <g id="ytick_6">
     <g id="line2d_11">
      <g>
       <use xlink:href="#m81eaece00a" x="57.6" y="81.027216" style="stroke: #000000; stroke-width: 0.8"/>
      </g>
     </g>
     <g id="text_12">
      <!-- 25 -->
      <g transform="translate(37.875 84.826434)scale(0.1 -0.1)">
       <use xlink:href="#DejaVuSans-32"/>
       <use xlink:href="#DejaVuSans-35" x="63.623047"/>
      </g>
     </g>
    </g>
    <g id="text_13">
     <!-- moves made (millions) -->
     <g transform="translate(31.795312 231.622531)rotate(-90)scale(0.1 -0.1)">
      <defs>
       <path id="DejaVuSans-76" d="M 191 3500 
L 800 3500 
L 1894 563 
L 2988 3500 
L 3597 3500 
L 2284 0 
L 1503 0 
L 191 3500 
z
" transform="scale(0.015625)"/>
       <path id="DejaVuSans-61" d="M 2194 1759 
Q 1497 1759 1228 1600 
Q 959 1441 959 1056 
Q 959 750 1161 570 
Q 1363 391 1709 391 
Q 2188 391 2477 730 
Q 2766 1069 2766 1631 
L 2766 1759 
L 2194 1759 
z
M 3341 1997 
L 3341 0 
L 2766 0 
L 2766 531 
Q 2569 213 2275 61 
Q 1981 -91 1556 -91 
Q 1019 -91 701 211 
Q 384 513 384 1019 
Q 384 1609 779 1909 
Q 1175 2209 1959 2209 
L 2766 2209 
L 2766 2266 
Q 2766 2663 2505 2880 
Q 2244 3097 1772 3097 
Q 1472 3097 1187 3025 
Q 903 2953 641 2809 
L 641 3341 
Q 956 3463 1253 3523 
Q 1550 3584 1831 3584 
Q 2591 3584 2966 3190 
Q 3341 2797 3341 1997 
z
" transform="scale(0.015625)"/>
       <path id="DejaVuSans-64" d="M 2906 2969 
L 2906 4863 
L 3481 4863 
L 3481 0 
L 2906 0 
L 2906 525 
Q 2725 213 2448 61 
Q 2172 -91 1784 -91 
Q 1150 -91 751 415 
Q 353 922 353 1747 
Q 353 2572 751 3078 
Q 1150 3584 1784 3584 
Q 2172 3584 2448 3432 
Q 2725 3281 2906 2969 
z
M 947 1747 
Q 947 1113 1208 752 
Q 1469 391 1925 391 
Q 2381 391 2643 752 
Q 2906 1113 2906 1747 
Q 2906 2381 2643 2742 
Q 2381 3103 1925 3103 
Q 1469 3103 1208 2742 
Q 947 2381 947 1747 
z
" transform="scale(0.015625)"/>
       <path id="DejaVuSans-6c" d="M 603 4863 
L 1178 4863 
L 1178 0 
L 603 0 
L 603 4863 
z
" transform="scale(0.015625)"/>
      </defs>
      <use xlink:href="#DejaVuSans-6d"/>
      <use xlink:href="#DejaVuSans-6f" x="97.412109"/>
      <use xlink:href="#DejaVuSans-76" x="158.59375"/>
      <use xlink:href="#DejaVuSans-65" x="217.773438"/>
      <use xlink:href="#DejaVuSans-73" x="279.296875"/>
      <use xlink:href="#DejaVuSans-20" x="331.396484"/>
      <use xlink:href="#DejaVuSans-6d" x="363.183594"/>
      <use xlink:href="#DejaVuSans-61" x="460.595703"/>
      <use xlink:href="#DejaVuSans-64" x="521.875"/>
      <use xlink:href="#DejaVuSans-65" x="585.351562"/>
      <use xlink:href="#DejaVuSans-20" x="646.875"/>
      <use xlink:href="#DejaVuSans-28" x="678.662109"/>
      <use xlink:href="#DejaVuSans-6d" x="717.675781"/>
      <use xlink:href="#DejaVuSans-69" x="815.087891"/>
      <use xlink:href="#DejaVuSans-6c" x="842.871094"/>
      <use xlink:href="#DejaVuSans-6c" x="870.654297"/>
      <use xlink:href="#DejaVuSans-69" x="898.4375"/>
      <use xlink:href="#DejaVuSans-6f" x="926.220703"/>
      <use xlink:href="#DejaVuSans-6e" x="987.402344"/>
      <use xlink:href="#DejaVuSans-73" x="1050.78125"/>
      <use xlink:href="#DejaVuSans-29" x="1102.880859"/>
     </g>
    </g>
   </g>
   <g id="line2d_12">
    <path d="M 73.832727 295.488 
L 74.225581 294.812706 
L 74.363137 294.648 
L 75.803953 292.720941 
L 86.425877 282.640941 
L 86.695684 282.476235 
L 88.64065 280.796235 
L 95.530509 274.906353 
L 95.730077 274.751529 
L 96.936018 273.697412 
L 104.635212 267.191529 
L 104.927006 267.076235 
L 107.118236 265.182118 
L 107.744594 264.622118 
L 108.088354 264.506824 
L 111.308101 261.871529 
L 111.530059 261.690353 
L 114.040152 259.483294 
L 114.392305 259.351529 
L 117.18405 256.913882 
L 117.495382 256.782118 
L 118.191493 256.172706 
L 119.509008 255.003294 
L 119.6747 254.871529 
L 120.272279 254.328 
L 120.584151 254.212706 
L 121.935422 253.026824 
L 123.418999 251.758588 
L 123.747278 251.643294 
L 126.816272 249.189176 
L 127.186848 249.073882 
L 130.151537 246.619765 
L 130.46383 246.488 
L 132.0498 245.088 
L 132.649627 244.577412 
L 133.286222 244.050353 
L 133.684434 243.918588 
L 134.428393 243.292706 
L 139.812531 238.895059 
L 140.173599 238.779765 
L 141.234165 237.857412 
L 141.516899 237.626824 
L 143.069008 236.325647 
L 143.427032 236.210353 
L 146.249719 233.756235 
L 146.639153 233.624471 
L 148.157944 232.306824 
L 152.659767 228.600941 
L 153.032059 228.485647 
L 155.872075 226.031529 
L 156.215784 225.916235 
L 159.030858 223.462118 
L 159.401958 223.346824 
L 162.248108 220.892706 
L 162.623226 220.760941 
L 165.474434 218.323294 
L 165.893631 218.191529 
L 168.726913 215.737412 
L 169.070912 215.622118 
L 172.118742 213.151529 
L 172.392195 212.937412 
L 174.816747 210.862118 
L 175.139256 210.631529 
L 175.174254 210.598588 
L 175.615077 210.483294 
L 176.259867 210.071529 
L 177.554441 209.528 
L 178.867261 208.473882 
L 179.433682 208.029176 
L 179.842318 207.897412 
L 183.027494 205.459765 
L 183.459284 205.328 
L 186.608188 202.873882 
L 187.047068 202.758588 
L 189.112232 201.160941 
L 190.291577 200.304471 
L 190.716222 200.189176 
L 193.791126 197.735059 
L 194.246832 197.619765 
L 195.893448 196.335059 
L 196.728017 195.791529 
L 197.701232 195.165647 
L 198.182767 195.050353 
L 201.186834 192.596235 
L 202.110264 192.464471 
L 202.695958 192.151529 
L 205.256919 190.010353 
L 205.644161 189.895059 
L 207.52033 188.445647 
L 207.774792 188.248 
L 208.478508 187.753882 
L 208.973886 187.572706 
L 209.269037 187.440941 
L 210.120433 187.325647 
L 210.793667 186.930353 
L 213.183753 184.871529 
L 213.635459 184.756235 
L 214.075949 184.360941 
L 215.730039 182.944471 
L 215.897538 182.812706 
L 216.460878 182.302118 
L 216.915587 182.186824 
L 219.742455 179.732706 
L 220.210237 179.600941 
L 223.063153 177.146824 
L 223.513274 177.031529 
L 226.374051 174.577412 
L 226.790741 174.462118 
L 229.164093 172.419765 
L 229.645956 172.008 
L 230.122598 171.892706 
L 232.950425 169.438588 
L 233.432732 169.323294 
L 236.268569 166.869176 
L 236.771071 166.737412 
L 238.631718 165.106824 
L 238.859669 164.925647 
L 239.597433 164.283294 
L 240.028397 164.168 
L 242.382909 162.109176 
L 243.853506 161.071529 
L 246.066325 159.144471 
L 246.515012 159.029176 
L 247.925583 157.810353 
L 249.34617 156.575059 
L 249.831359 156.459765 
L 252.494114 154.153882 
L 252.69102 154.005647 
L 253.173253 153.873882 
L 255.659069 151.716235 
L 255.995024 151.419765 
L 256.505913 151.304471 
L 259.228448 148.965647 
L 259.355758 148.850353 
L 259.861737 148.735059 
L 262.714296 146.280941 
L 263.200906 146.165647 
L 266.012085 143.711529 
L 266.441196 143.596235 
L 269.338589 141.142118 
L 269.866042 141.010353 
L 272.69148 138.556235 
L 273.217849 138.440941 
L 275.034459 136.975059 
L 275.29919 136.760941 
L 276.252309 135.986824 
L 276.793302 135.871529 
L 279.055458 134.026824 
L 279.782639 133.417412 
L 280.315824 133.302118 
L 283.203713 130.848 
L 283.713508 130.732706 
L 285.247173 129.415059 
L 285.421004 129.283294 
L 286.586489 128.278588 
L 287.211791 128.146824 
L 290.177986 125.692706 
L 290.726375 125.577412 
L 292.70605 123.930353 
L 292.923666 123.765647 
L 293.699396 123.123294 
L 294.135971 123.008 
L 297.076808 120.553882 
L 297.734761 120.438588 
L 300.126234 118.445647 
L 300.409802 118.231529 
L 300.691693 117.984471 
L 301.297275 117.869176 
L 304.258404 115.415059 
L 304.872157 115.283294 
L 307.732855 112.944471 
L 308.386061 112.730353 
L 311.37557 110.259765 
L 312.008006 110.144471 
L 314.947935 107.690353 
L 315.576918 107.575059 
L 318.50843 105.137412 
L 318.527151 105.120941 
L 319.080686 105.005647 
L 321.931755 102.650353 
L 322.739693 102.403294 
L 325.19276 100.295059 
L 325.562653 99.965647 
L 326.245055 99.850353 
L 329.089181 97.396235 
L 329.613644 97.280941 
L 332.486504 94.826824 
L 333.100969 94.711529 
L 334.973377 93.146824 
L 335.495182 92.735059 
L 336.149695 92.306824 
L 336.387523 92.257412 
L 337.917762 92.142118 
L 339.434662 91.368 
L 341.380819 89.688 
L 342.01153 89.556235 
L 342.775485 88.919373 
L 344.813917 87.233882 
L 344.996491 87.102118 
L 345.663146 87.003294 
L 348.683703 84.532706 
L 349.312801 84.417412 
L 350.951113 83.017412 
L 352.185095 81.963294 
L 352.848491 81.848 
L 355.799219 79.393882 
L 356.335593 79.278588 
L 357.701154 78.142118 
L 359.373342 76.824471 
L 360.039242 76.709176 
L 361.108661 75.836235 
L 361.622497 75.424471 
L 362.611078 74.568 
L 363.008135 74.238588 
L 363.654741 74.139765 
L 364.894852 73.151529 
L 365.154409 72.970353 
L 366.168879 72.196235 
L 367.165989 71.669176 
L 367.891205 71.553882 
L 369.406722 70.845647 
L 370.452339 70.285647 
L 371.831667 69.099765 
L 372.462746 68.984471 
L 373.340345 68.309176 
L 373.987884 67.979765 
L 374.525973 67.683294 
L 375.438872 67.222118 
L 375.969601 66.975059 
L 376.476254 66.760941 
L 376.951647 66.530353 
L 378.238147 66.415059 
L 383.144885 63.960941 
L 384.260868 63.845647 
L 385.546077 62.857412 
L 385.78198 62.676235 
L 386.95245 61.655059 
L 387.303312 61.375059 
L 387.940496 61.259765 
L 390.877377 58.805647 
L 391.480401 58.690353 
L 391.864936 58.360941 
L 394.348679 56.236235 
L 394.985896 56.120941 
L 397.888798 53.666824 
L 398.474221 53.568 
L 398.474221 53.568 
" clip-path="url(#pbceafed1e2)" style="fill: none; stroke: #0000ff; stroke-width: 1.5; stroke-linecap: square"/>
   </g>
   <g id="line2d_13">
    <path d="M 73.864851 295.488 
L 74.671285 294.895059 
L 77.67879 293.873882 
L 79.464043 293.280941 
L 82.86488 292.062118 
L 83.330304 291.913882 
L 87.219911 290.497412 
L 87.985028 290.233882 
L 95.264704 287.779765 
L 95.857771 287.615059 
L 113.195635 282.031529 
L 115.100136 281.175059 
L 116.622842 280.713882 
L 124.122717 278.688 
L 126.358513 277.650353 
L 126.669026 277.502118 
L 127.072721 277.403294 
L 130.565991 276.003294 
L 131.432843 275.871529 
L 133.868771 274.916235 
L 134.677855 274.784471 
L 137.682563 273.532706 
L 138.049151 273.384471 
L 140.477952 272.346824 
L 141.0429 272.215059 
L 157.71264 265.149176 
L 176.72618 256.913882 
L 177.337913 256.782118 
L 180.568916 255.332706 
L 192.504124 250.243294 
L 193.239248 249.913882 
L 213.972045 241.464471 
L 214.540828 241.349176 
L 219.299564 239.405647 
L 219.931705 239.158588 
L 239.958972 231.186824 
L 240.592998 231.055059 
L 242.980101 230.083294 
L 243.769999 229.770353 
L 246.600983 228.600941 
L 247.191438 228.485647 
L 260.080565 223.462118 
L 260.747377 223.346824 
L 279.986538 215.737412 
L 280.607076 215.622118 
L 286.830599 213.168 
L 287.492267 213.052706 
L 313.973162 202.873882 
L 314.709497 202.758588 
L 320.070419 200.551529 
L 320.595712 200.337412 
L 320.664135 200.304471 
L 321.328935 200.189176 
L 327.390088 197.735059 
L 328.067719 197.619765 
L 334.174868 195.165647 
L 334.894742 195.033882 
L 338.039262 193.765647 
L 360.953961 184.871529 
L 361.635304 184.756235 
L 365.590576 183.175059 
L 366.257471 182.928 
L 367.859054 182.302118 
L 368.658652 182.170353 
L 373.808265 180.210353 
L 374.556618 179.946824 
L 375.060432 179.732706 
L 375.834352 179.600941 
L 381.487802 177.459765 
L 382.002563 177.295059 
L 383.967117 176.702118 
L 386.961841 175.499765 
L 398.487273 171.283294 
L 398.487273 171.283294 
" clip-path="url(#pbceafed1e2)" style="fill: none; stroke: #ffa500; stroke-width: 1.5; stroke-linecap: square"/>
   </g>
   <g id="patch_3">
    <path d="M 57.6 307.584 
L 57.6 41.472 
" style="fill: none; stroke: #000000; stroke-width: 0.8; stroke-linejoin: miter; stroke-linecap: square"/>
   </g>
   <g id="patch_4">
    <path d="M 414.72 307.584 
L 414.72 41.472 
" style="fill: none; stroke: #000000; stroke-width: 0.8; stroke-linejoin: miter; stroke-linecap: square"/>
   </g>
   <g id="patch_5">
    <path d="M 57.6 307.584 
L 414.72 307.584 
" style="fill: none; stroke: #000000; stroke-width: 0.8; stroke-linejoin: miter; stroke-linecap: square"/>
   </g>
   <g id="patch_6">
    <path d="M 57.6 41.472 
L 414.72 41.472 
" style="fill: none; stroke: #000000; stroke-width: 0.8; stroke-linejoin: miter; stroke-linecap: square"/>
   </g>
  </g>
 </g>
 <defs>
  <clipPath id="pbceafed1e2">
   <rect x="57.6" y="41.472" width="357.12" height="266.112"/>
  </clipPath>
 </defs>
</svg>
