<?xml version="1.0" encoding="utf-8" standalone="no"?>
<!DOCTYPE svg PUBLIC "-//W3C//DTD SVG 1.1//EN"
  "http://www.w3.org/Graphics/SVG/1.1/DTD/svg11.dtd">
<svg xmlns:xlink="http://www.w3.org/1999/xlink" width="460.8pt" height="345.6pt" viewBox="0 0 460.8 345.6" xmlns="http://www.w3.org/2000/svg" version="1.1">
 <metadata>
  <rdf:RDF xmlns:dc="http://purl.org/dc/elements/1.1/" xmlns:cc="http://creativecommons.org/ns#" xmlns:rdf="http://www.w3.org/1999/02/22-rdf-syntax-ns#">
   <cc:Work>
    <dc:type rdf:resource="http://purl.org/dc/dcmitype/StillImage"/>
    <dc:date>2023-02-27T06:50:50.339446</dc:date>
    <dc:format>image/svg+xml</dc:format>
    <dc:creator>
     <cc:Agent>
      <dc:title>Matplotlib v3.5.2, https://matplotlib.org/</dc:title>
     </cc:Agent>
    </dc:creator>
   </cc:Work>
  </rdf:RDF>
 </metadata>
 <defs>
  <style type="text/css">*{stroke-linejoin: round; stroke-linecap: butt}</style>
 </defs>
 <g id="figure_1">
  <g id="patch_1">
   <path d="M 0 345.6 
L 460.8 345.6 
L 460.8 0 
L 0 0 
z
" style="fill: #ffffff"/>
  </g>
  <g id="axes_1">
   <g id="patch_2">
    <path d="M 57.6 307.584 
L 414.72 307.584 
L 414.72 41.472 
L 57.6 41.472 
z
" style="fill: #ffffff"/>
   </g>
   <g id="matplotlib.axis_1">
    <g id="xtick_1">
     <g id="line2d_1">
      <defs>
       <path id="m4c71d2dde9" d="M 0 0 
L 0 3.5 
" style="stroke: #000000; stroke-width: 0.8"/>
      </defs>
      <g>
       <use xlink:href="#m4c71d2dde9" x="73.354601" y="307.584" style="stroke: #000000; stroke-width: 0.8"/>
      </g>
     </g>
     <g id="text_1">
      <!-- 0 -->
      <g transform="translate(70.173351 322.182437)scale(0.1 -0.1)">
       <defs>
        <path id="DejaVuSans-30" d="M 2034 4250 
Q 1547 4250 1301 3770 
Q 1056 3291 1056 2328 
Q 1056 1369 1301 889 
Q 1547 409 2034 409 
Q 2525 409 2770 889 
Q 3016 1369 3016 2328 
Q 3016 3291 2770 3770 
Q 2525 4250 2034 4250 
z
M 2034 4750 
Q 2819 4750 3233 4129 
Q 3647 3509 3647 2328 
Q 3647 1150 3233 529 
Q 2819 -91 2034 -91 
Q 1250 -91 836 529 
Q 422 1150 422 2328 
Q 422 3509 836 4129 
Q 1250 4750 2034 4750 
z
" transform="scale(0.015625)"/>
       </defs>
       <use xlink:href="#DejaVuSans-30"/>
      </g>
     </g>
    </g>
    <g id="xtick_2">
     <g id="line2d_2">
      <g>
       <use xlink:href="#m4c71d2dde9" x="152.254504" y="307.584" style="stroke: #000000; stroke-width: 0.8"/>
      </g>
     </g>
     <g id="text_2">
      <!-- 5 -->
      <g transform="translate(149.073254 322.182437)scale(0.1 -0.1)">
       <defs>
        <path id="DejaVuSans-35" d="M 691 4666 
L 3169 4666 
L 3169 4134 
L 1269 4134 
L 1269 2991 
Q 1406 3038 1543 3061 
Q 1681 3084 1819 3084 
Q 2600 3084 3056 2656 
Q 3513 2228 3513 1497 
Q 3513 744 3044 326 
Q 2575 -91 1722 -91 
Q 1428 -91 1123 -41 
Q 819 9 494 109 
L 494 744 
Q 775 591 1075 516 
Q 1375 441 1709 441 
Q 2250 441 2565 725 
Q 2881 1009 2881 1497 
Q 2881 1984 2565 2268 
Q 2250 2553 1709 2553 
Q 1456 2553 1204 2497 
Q 953 2441 691 2322 
L 691 4666 
z
" transform="scale(0.015625)"/>
       </defs>
       <use xlink:href="#DejaVuSans-35"/>
      </g>
     </g>
    </g>
    <g id="xtick_3">
     <g id="line2d_3">
      <g>
       <use xlink:href="#m4c71d2dde9" x="231.154406" y="307.584" style="stroke: #000000; stroke-width: 0.8"/>
      </g>
     </g>
     <g id="text_3">
      <!-- 10 -->
      <g transform="translate(224.791906 322.182437)scale(0.1 -0.1)">
       <defs>
        <path id="DejaVuSans-31" d="M 794 531 
L 1825 531 
L 1825 4091 
L 703 3866 
L 703 4441 
L 1819 4666 
L 2450 4666 
L 2450 531 
L 3481 531 
L 3481 0 
L 794 0 
L 794 531 
z
" transform="scale(0.015625)"/>
       </defs>
       <use xlink:href="#DejaVuSans-31"/>
       <use xlink:href="#DejaVuSans-30" x="63.623047"/>
      </g>
     </g>
    </g>
    <g id="xtick_4">
     <g id="line2d_4">
      <g>
       <use xlink:href="#m4c71d2dde9" x="310.054309" y="307.584" style="stroke: #000000; stroke-width: 0.8"/>
      </g>
     </g>
     <g id="text_4">
      <!-- 15 -->
      <g transform="translate(303.691809 322.182437)scale(0.1 -0.1)">
       <use xlink:href="#DejaVuSans-31"/>
       <use xlink:href="#DejaVuSans-35" x="63.623047"/>
      </g>
     </g>
    </g>
    <g id="xtick_5">
     <g id="line2d_5">
      <g>
       <use xlink:href="#m4c71d2dde9" x="388.954211" y="307.584" style="stroke: #000000; stroke-width: 0.8"/>
      </g>
     </g>
     <g id="text_5">
      <!-- 20 -->
      <g transform="translate(382.591711 322.182437)scale(0.1 -0.1)">
       <defs>
        <path id="DejaVuSans-32" d="M 1228 531 
L 3431 531 
L 3431 0 
L 469 0 
L 469 531 
Q 828 903 1448 1529 
Q 2069 2156 2228 2338 
Q 2531 2678 2651 2914 
Q 2772 3150 2772 3378 
Q 2772 3750 2511 3984 
Q 2250 4219 1831 4219 
Q 1534 4219 1204 4116 
Q 875 4013 500 3803 
L 500 4441 
Q 881 4594 1212 4672 
Q 1544 4750 1819 4750 
Q 2544 4750 2975 4387 
Q 3406 4025 3406 3419 
Q 3406 3131 3298 2873 
Q 3191 2616 2906 2266 
Q 2828 2175 2409 1742 
Q 1991 1309 1228 531 
z
" transform="scale(0.015625)"/>
       </defs>
       <use xlink:href="#DejaVuSans-32"/>
       <use xlink:href="#DejaVuSans-30" x="63.623047"/>
      </g>
     </g>
    </g>
    <g id="text_6">
     <!-- runtime (hours) -->
     <g transform="translate(196.923281 335.860562)scale(0.1 -0.1)">
      <defs>
       <path id="DejaVuSans-72" d="M 2631 2963 
Q 2534 3019 2420 3045 
Q 2306 3072 2169 3072 
Q 1681 3072 1420 2755 
Q 1159 2438 1159 1844 
L 1159 0 
L 581 0 
L 581 3500 
L 1159 3500 
L 1159 2956 
Q 1341 3275 1631 3429 
Q 1922 3584 2338 3584 
Q 2397 3584 2469 3576 
Q 2541 3569 2628 3553 
L 2631 2963 
z
" transform="scale(0.015625)"/>
       <path id="DejaVuSans-75" d="M 544 1381 
L 544 3500 
L 1119 3500 
L 1119 1403 
Q 1119 906 1312 657 
Q 1506 409 1894 409 
Q 2359 409 2629 706 
Q 2900 1003 2900 1516 
L 2900 3500 
L 3475 3500 
L 3475 0 
L 2900 0 
L 2900 538 
Q 2691 219 2414 64 
Q 2138 -91 1772 -91 
Q 1169 -91 856 284 
Q 544 659 544 1381 
z
M 1991 3584 
L 1991 3584 
z
" transform="scale(0.015625)"/>
       <path id="DejaVuSans-6e" d="M 3513 2113 
L 3513 0 
L 2938 0 
L 2938 2094 
Q 2938 2591 2744 2837 
Q 2550 3084 2163 3084 
Q 1697 3084 1428 2787 
Q 1159 2491 1159 1978 
L 1159 0 
L 581 0 
L 581 3500 
L 1159 3500 
L 1159 2956 
Q 1366 3272 1645 3428 
Q 1925 3584 2291 3584 
Q 2894 3584 3203 3211 
Q 3513 2838 3513 2113 
z
" transform="scale(0.015625)"/>
       <path id="DejaVuSans-74" d="M 1172 4494 
L 1172 3500 
L 2356 3500 
L 2356 3053 
L 1172 3053 
L 1172 1153 
Q 1172 725 1289 603 
Q 1406 481 1766 481 
L 2356 481 
L 2356 0 
L 1766 0 
Q 1100 0 847 248 
Q 594 497 594 1153 
L 594 3053 
L 172 3053 
L 172 3500 
L 594 3500 
L 594 4494 
L 1172 4494 
z
" transform="scale(0.015625)"/>
       <path id="DejaVuSans-69" d="M 603 3500 
L 1178 3500 
L 1178 0 
L 603 0 
L 603 3500 
z
M 603 4863 
L 1178 4863 
L 1178 4134 
L 603 4134 
L 603 4863 
z
" transform="scale(0.015625)"/>
       <path id="DejaVuSans-6d" d="M 3328 2828 
Q 3544 3216 3844 3400 
Q 4144 3584 4550 3584 
Q 5097 3584 5394 3201 
Q 5691 2819 5691 2113 
L 5691 0 
L 5113 0 
L 5113 2094 
Q 5113 2597 4934 2840 
Q 4756 3084 4391 3084 
Q 3944 3084 3684 2787 
Q 3425 2491 3425 1978 
L 3425 0 
L 2847 0 
L 2847 2094 
Q 2847 2600 2669 2842 
Q 2491 3084 2119 3084 
Q 1678 3084 1418 2786 
Q 1159 2488 1159 1978 
L 1159 0 
L 581 0 
L 581 3500 
L 1159 3500 
L 1159 2956 
Q 1356 3278 1631 3431 
Q 1906 3584 2284 3584 
Q 2666 3584 2933 3390 
Q 3200 3197 3328 2828 
z
" transform="scale(0.015625)"/>
       <path id="DejaVuSans-65" d="M 3597 1894 
L 3597 1613 
L 953 1613 
Q 991 1019 1311 708 
Q 1631 397 2203 397 
Q 2534 397 2845 478 
Q 3156 559 3463 722 
L 3463 178 
Q 3153 47 2828 -22 
Q 2503 -91 2169 -91 
Q 1331 -91 842 396 
Q 353 884 353 1716 
Q 353 2575 817 3079 
Q 1281 3584 2069 3584 
Q 2775 3584 3186 3129 
Q 3597 2675 3597 1894 
z
M 3022 2063 
Q 3016 2534 2758 2815 
Q 2500 3097 2075 3097 
Q 1594 3097 1305 2825 
Q 1016 2553 972 2059 
L 3022 2063 
z
" transform="scale(0.015625)"/>
       <path id="DejaVuSans-20" transform="scale(0.015625)"/>
       <path id="DejaVuSans-28" d="M 1984 4856 
Q 1566 4138 1362 3434 
Q 1159 2731 1159 2009 
Q 1159 1288 1364 580 
Q 1569 -128 1984 -844 
L 1484 -844 
Q 1016 -109 783 600 
Q 550 1309 550 2009 
Q 550 2706 781 3412 
Q 1013 4119 1484 4856 
L 1984 4856 
z
" transform="scale(0.015625)"/>
       <path id="DejaVuSans-68" d="M 3513 2113 
L 3513 0 
L 2938 0 
L 2938 2094 
Q 2938 2591 2744 2837 
Q 2550 3084 2163 3084 
Q 1697 3084 1428 2787 
Q 1159 2491 1159 1978 
L 1159 0 
L 581 0 
L 581 4863 
L 1159 4863 
L 1159 2956 
Q 1366 3272 1645 3428 
Q 1925 3584 2291 3584 
Q 2894 3584 3203 3211 
Q 3513 2838 3513 2113 
z
" transform="scale(0.015625)"/>
       <path id="DejaVuSans-6f" d="M 1959 3097 
Q 1497 3097 1228 2736 
Q 959 2375 959 1747 
Q 959 1119 1226 758 
Q 1494 397 1959 397 
Q 2419 397 2687 759 
Q 2956 1122 2956 1747 
Q 2956 2369 2687 2733 
Q 2419 3097 1959 3097 
z
M 1959 3584 
Q 2709 3584 3137 3096 
Q 3566 2609 3566 1747 
Q 3566 888 3137 398 
Q 2709 -91 1959 -91 
Q 1206 -91 779 398 
Q 353 888 353 1747 
Q 353 2609 779 3096 
Q 1206 3584 1959 3584 
z
" transform="scale(0.015625)"/>
       <path id="DejaVuSans-73" d="M 2834 3397 
L 2834 2853 
Q 2591 2978 2328 3040 
Q 2066 3103 1784 3103 
Q 1356 3103 1142 2972 
Q 928 2841 928 2578 
Q 928 2378 1081 2264 
Q 1234 2150 1697 2047 
L 1894 2003 
Q 2506 1872 2764 1633 
Q 3022 1394 3022 966 
Q 3022 478 2636 193 
Q 2250 -91 1575 -91 
Q 1294 -91 989 -36 
Q 684 19 347 128 
L 347 722 
Q 666 556 975 473 
Q 1284 391 1588 391 
Q 1994 391 2212 530 
Q 2431 669 2431 922 
Q 2431 1156 2273 1281 
Q 2116 1406 1581 1522 
L 1381 1569 
Q 847 1681 609 1914 
Q 372 2147 372 2553 
Q 372 3047 722 3315 
Q 1072 3584 1716 3584 
Q 2034 3584 2315 3537 
Q 2597 3491 2834 3397 
z
" transform="scale(0.015625)"/>
       <path id="DejaVuSans-29" d="M 513 4856 
L 1013 4856 
Q 1481 4119 1714 3412 
Q 1947 2706 1947 2009 
Q 1947 1309 1714 600 
Q 1481 -109 1013 -844 
L 513 -844 
Q 928 -128 1133 580 
Q 1338 1288 1338 2009 
Q 1338 2731 1133 3434 
Q 928 4138 513 4856 
z
" transform="scale(0.015625)"/>
      </defs>
      <use xlink:href="#DejaVuSans-72"/>
      <use xlink:href="#DejaVuSans-75" x="41.113281"/>
      <use xlink:href="#DejaVuSans-6e" x="104.492188"/>
      <use xlink:href="#DejaVuSans-74" x="167.871094"/>
      <use xlink:href="#DejaVuSans-69" x="207.080078"/>
      <use xlink:href="#DejaVuSans-6d" x="234.863281"/>
      <use xlink:href="#DejaVuSans-65" x="332.275391"/>
      <use xlink:href="#DejaVuSans-20" x="393.798828"/>
      <use xlink:href="#DejaVuSans-28" x="425.585938"/>
      <use xlink:href="#DejaVuSans-68" x="464.599609"/>
      <use xlink:href="#DejaVuSans-6f" x="527.978516"/>
      <use xlink:href="#DejaVuSans-75" x="589.160156"/>
      <use xlink:href="#DejaVuSans-72" x="652.539062"/>
      <use xlink:href="#DejaVuSans-73" x="693.652344"/>
      <use xlink:href="#DejaVuSans-29" x="745.751953"/>
     </g>
    </g>
   </g>
   <g id="matplotlib.axis_2">
    <g id="ytick_1">
     <g id="line2d_6">
      <defs>
       <path id="me22d7b81fd" d="M 0 0 
L -3.5 0 
" style="stroke: #000000; stroke-width: 0.8"/>
      </defs>
      <g>
       <use xlink:href="#me22d7b81fd" x="57.6" y="303.22944" style="stroke: #000000; stroke-width: 0.8"/>
      </g>
     </g>
     <g id="text_7">
      <!-- 0.3 -->
      <g transform="translate(34.696875 307.028659)scale(0.1 -0.1)">
       <defs>
        <path id="DejaVuSans-2e" d="M 684 794 
L 1344 794 
L 1344 0 
L 684 0 
L 684 794 
z
" transform="scale(0.015625)"/>
        <path id="DejaVuSans-33" d="M 2597 2516 
Q 3050 2419 3304 2112 
Q 3559 1806 3559 1356 
Q 3559 666 3084 287 
Q 2609 -91 1734 -91 
Q 1441 -91 1130 -33 
Q 819 25 488 141 
L 488 750 
Q 750 597 1062 519 
Q 1375 441 1716 441 
Q 2309 441 2620 675 
Q 2931 909 2931 1356 
Q 2931 1769 2642 2001 
Q 2353 2234 1838 2234 
L 1294 2234 
L 1294 2753 
L 1863 2753 
Q 2328 2753 2575 2939 
Q 2822 3125 2822 3475 
Q 2822 3834 2567 4026 
Q 2313 4219 1838 4219 
Q 1578 4219 1281 4162 
Q 984 4106 628 3988 
L 628 4550 
Q 988 4650 1302 4700 
Q 1616 4750 1894 4750 
Q 2613 4750 3031 4423 
Q 3450 4097 3450 3541 
Q 3450 3153 3228 2886 
Q 3006 2619 2597 2516 
z
" transform="scale(0.015625)"/>
       </defs>
       <use xlink:href="#DejaVuSans-30"/>
       <use xlink:href="#DejaVuSans-2e" x="63.623047"/>
       <use xlink:href="#DejaVuSans-33" x="95.410156"/>
      </g>
     </g>
    </g>
    <g id="ytick_2">
     <g id="line2d_7">
      <g>
       <use xlink:href="#me22d7b81fd" x="57.6" y="267.10272" style="stroke: #000000; stroke-width: 0.8"/>
      </g>
     </g>
     <g id="text_8">
      <!-- 0.4 -->
      <g transform="translate(34.696875 270.901939)scale(0.1 -0.1)">
       <defs>
        <path id="DejaVuSans-34" d="M 2419 4116 
L 825 1625 
L 2419 1625 
L 2419 4116 
z
M 2253 4666 
L 3047 4666 
L 3047 1625 
L 3713 1625 
L 3713 1100 
L 3047 1100 
L 3047 0 
L 2419 0 
L 2419 1100 
L 313 1100 
L 313 1709 
L 2253 4666 
z
" transform="scale(0.015625)"/>
       </defs>
       <use xlink:href="#DejaVuSans-30"/>
       <use xlink:href="#DejaVuSans-2e" x="63.623047"/>
       <use xlink:href="#DejaVuSans-34" x="95.410156"/>
      </g>
     </g>
    </g>
    <g id="ytick_3">
     <g id="line2d_8">
      <g>
       <use xlink:href="#me22d7b81fd" x="57.6" y="230.976" style="stroke: #000000; stroke-width: 0.8"/>
      </g>
     </g>
     <g id="text_9">
      <!-- 0.5 -->
      <g transform="translate(34.696875 234.775219)scale(0.1 -0.1)">
       <use xlink:href="#DejaVuSans-30"/>
       <use xlink:href="#DejaVuSans-2e" x="63.623047"/>
       <use xlink:href="#DejaVuSans-35" x="95.410156"/>
      </g>
     </g>
    </g>
    <g id="ytick_4">
     <g id="line2d_9">
      <g>
       <use xlink:href="#me22d7b81fd" x="57.6" y="194.84928" style="stroke: #000000; stroke-width: 0.8"/>
      </g>
     </g>
     <g id="text_10">
      <!-- 0.6 -->
      <g transform="translate(34.696875 198.648499)scale(0.1 -0.1)">
       <defs>
        <path id="DejaVuSans-36" d="M 2113 2584 
Q 1688 2584 1439 2293 
Q 1191 2003 1191 1497 
Q 1191 994 1439 701 
Q 1688 409 2113 409 
Q 2538 409 2786 701 
Q 3034 994 3034 1497 
Q 3034 2003 2786 2293 
Q 2538 2584 2113 2584 
z
M 3366 4563 
L 3366 3988 
Q 3128 4100 2886 4159 
Q 2644 4219 2406 4219 
Q 1781 4219 1451 3797 
Q 1122 3375 1075 2522 
Q 1259 2794 1537 2939 
Q 1816 3084 2150 3084 
Q 2853 3084 3261 2657 
Q 3669 2231 3669 1497 
Q 3669 778 3244 343 
Q 2819 -91 2113 -91 
Q 1303 -91 875 529 
Q 447 1150 447 2328 
Q 447 3434 972 4092 
Q 1497 4750 2381 4750 
Q 2619 4750 2861 4703 
Q 3103 4656 3366 4563 
z
" transform="scale(0.015625)"/>
       </defs>
       <use xlink:href="#DejaVuSans-30"/>
       <use xlink:href="#DejaVuSans-2e" x="63.623047"/>
       <use xlink:href="#DejaVuSans-36" x="95.410156"/>
      </g>
     </g>
    </g>
    <g id="ytick_5">
     <g id="line2d_10">
      <g>
       <use xlink:href="#me22d7b81fd" x="57.6" y="158.72256" style="stroke: #000000; stroke-width: 0.8"/>
      </g>
     </g>
     <g id="text_11">
      <!-- 0.7 -->
      <g transform="translate(34.696875 162.521779)scale(0.1 -0.1)">
       <defs>
        <path id="DejaVuSans-37" d="M 525 4666 
L 3525 4666 
L 3525 4397 
L 1831 0 
L 1172 0 
L 2766 4134 
L 525 4134 
L 525 4666 
z
" transform="scale(0.015625)"/>
       </defs>
       <use xlink:href="#DejaVuSans-30"/>
       <use xlink:href="#DejaVuSans-2e" x="63.623047"/>
       <use xlink:href="#DejaVuSans-37" x="95.410156"/>
      </g>
     </g>
    </g>
    <g id="ytick_6">
     <g id="line2d_11">
      <g>
       <use xlink:href="#me22d7b81fd" x="57.6" y="122.59584" style="stroke: #000000; stroke-width: 0.8"/>
      </g>
     </g>
     <g id="text_12">
      <!-- 0.8 -->
      <g transform="translate(34.696875 126.395059)scale(0.1 -0.1)">
       <defs>
        <path id="DejaVuSans-38" d="M 2034 2216 
Q 1584 2216 1326 1975 
Q 1069 1734 1069 1313 
Q 1069 891 1326 650 
Q 1584 409 2034 409 
Q 2484 409 2743 651 
Q 3003 894 3003 1313 
Q 3003 1734 2745 1975 
Q 2488 2216 2034 2216 
z
M 1403 2484 
Q 997 2584 770 2862 
Q 544 3141 544 3541 
Q 544 4100 942 4425 
Q 1341 4750 2034 4750 
Q 2731 4750 3128 4425 
Q 3525 4100 3525 3541 
Q 3525 3141 3298 2862 
Q 3072 2584 2669 2484 
Q 3125 2378 3379 2068 
Q 3634 1759 3634 1313 
Q 3634 634 3220 271 
Q 2806 -91 2034 -91 
Q 1263 -91 848 271 
Q 434 634 434 1313 
Q 434 1759 690 2068 
Q 947 2378 1403 2484 
z
M 1172 3481 
Q 1172 3119 1398 2916 
Q 1625 2713 2034 2713 
Q 2441 2713 2670 2916 
Q 2900 3119 2900 3481 
Q 2900 3844 2670 4047 
Q 2441 4250 2034 4250 
Q 1625 4250 1398 4047 
Q 1172 3844 1172 3481 
z
" transform="scale(0.015625)"/>
       </defs>
       <use xlink:href="#DejaVuSans-30"/>
       <use xlink:href="#DejaVuSans-2e" x="63.623047"/>
       <use xlink:href="#DejaVuSans-38" x="95.410156"/>
      </g>
     </g>
    </g>
    <g id="ytick_7">
     <g id="line2d_12">
      <g>
       <use xlink:href="#me22d7b81fd" x="57.6" y="86.46912" style="stroke: #000000; stroke-width: 0.8"/>
      </g>
     </g>
     <g id="text_13">
      <!-- 0.9 -->
      <g transform="translate(34.696875 90.268339)scale(0.1 -0.1)">
       <defs>
        <path id="DejaVuSans-39" d="M 703 97 
L 703 672 
Q 941 559 1184 500 
Q 1428 441 1663 441 
Q 2288 441 2617 861 
Q 2947 1281 2994 2138 
Q 2813 1869 2534 1725 
Q 2256 1581 1919 1581 
Q 1219 1581 811 2004 
Q 403 2428 403 3163 
Q 403 3881 828 4315 
Q 1253 4750 1959 4750 
Q 2769 4750 3195 4129 
Q 3622 3509 3622 2328 
Q 3622 1225 3098 567 
Q 2575 -91 1691 -91 
Q 1453 -91 1209 -44 
Q 966 3 703 97 
z
M 1959 2075 
Q 2384 2075 2632 2365 
Q 2881 2656 2881 3163 
Q 2881 3666 2632 3958 
Q 2384 4250 1959 4250 
Q 1534 4250 1286 3958 
Q 1038 3666 1038 3163 
Q 1038 2656 1286 2365 
Q 1534 2075 1959 2075 
z
" transform="scale(0.015625)"/>
       </defs>
       <use xlink:href="#DejaVuSans-30"/>
       <use xlink:href="#DejaVuSans-2e" x="63.623047"/>
       <use xlink:href="#DejaVuSans-39" x="95.410156"/>
      </g>
     </g>
    </g>
    <g id="ytick_8">
     <g id="line2d_13">
      <g>
       <use xlink:href="#me22d7b81fd" x="57.6" y="50.3424" style="stroke: #000000; stroke-width: 0.8"/>
      </g>
     </g>
     <g id="text_14">
      <!-- 1.0 -->
      <g transform="translate(34.696875 54.141619)scale(0.1 -0.1)">
       <use xlink:href="#DejaVuSans-31"/>
       <use xlink:href="#DejaVuSans-2e" x="63.623047"/>
       <use xlink:href="#DejaVuSans-30" x="95.410156"/>
      </g>
     </g>
    </g>
    <g id="text_15">
     <!-- winrate vs random -->
     <g transform="translate(28.617187 221.4655)rotate(-90)scale(0.1 -0.1)">
      <defs>
       <path id="DejaVuSans-77" d="M 269 3500 
L 844 3500 
L 1563 769 
L 2278 3500 
L 2956 3500 
L 3675 769 
L 4391 3500 
L 4966 3500 
L 4050 0 
L 3372 0 
L 2619 2869 
L 1863 0 
L 1184 0 
L 269 3500 
z
" transform="scale(0.015625)"/>
       <path id="DejaVuSans-61" d="M 2194 1759 
Q 1497 1759 1228 1600 
Q 959 1441 959 1056 
Q 959 750 1161 570 
Q 1363 391 1709 391 
Q 2188 391 2477 730 
Q 2766 1069 2766 1631 
L 2766 1759 
L 2194 1759 
z
M 3341 1997 
L 3341 0 
L 2766 0 
L 2766 531 
Q 2569 213 2275 61 
Q 1981 -91 1556 -91 
Q 1019 -91 701 211 
Q 384 513 384 1019 
Q 384 1609 779 1909 
Q 1175 2209 1959 2209 
L 2766 2209 
L 2766 2266 
Q 2766 2663 2505 2880 
Q 2244 3097 1772 3097 
Q 1472 3097 1187 3025 
Q 903 2953 641 2809 
L 641 3341 
Q 956 3463 1253 3523 
Q 1550 3584 1831 3584 
Q 2591 3584 2966 3190 
Q 3341 2797 3341 1997 
z
" transform="scale(0.015625)"/>
       <path id="DejaVuSans-76" d="M 191 3500 
L 800 3500 
L 1894 563 
L 2988 3500 
L 3597 3500 
L 2284 0 
L 1503 0 
L 191 3500 
z
" transform="scale(0.015625)"/>
       <path id="DejaVuSans-64" d="M 2906 2969 
L 2906 4863 
L 3481 4863 
L 3481 0 
L 2906 0 
L 2906 525 
Q 2725 213 2448 61 
Q 2172 -91 1784 -91 
Q 1150 -91 751 415 
Q 353 922 353 1747 
Q 353 2572 751 3078 
Q 1150 3584 1784 3584 
Q 2172 3584 2448 3432 
Q 2725 3281 2906 2969 
z
M 947 1747 
Q 947 1113 1208 752 
Q 1469 391 1925 391 
Q 2381 391 2643 752 
Q 2906 1113 2906 1747 
Q 2906 2381 2643 2742 
Q 2381 3103 1925 3103 
Q 1469 3103 1208 2742 
Q 947 2381 947 1747 
z
" transform="scale(0.015625)"/>
      </defs>
      <use xlink:href="#DejaVuSans-77"/>
      <use xlink:href="#DejaVuSans-69" x="81.787109"/>
      <use xlink:href="#DejaVuSans-6e" x="109.570312"/>
      <use xlink:href="#DejaVuSans-72" x="172.949219"/>
      <use xlink:href="#DejaVuSans-61" x="214.0625"/>
      <use xlink:href="#DejaVuSans-74" x="275.341797"/>
      <use xlink:href="#DejaVuSans-65" x="314.550781"/>
      <use xlink:href="#DejaVuSans-20" x="376.074219"/>
      <use xlink:href="#DejaVuSans-76" x="407.861328"/>
      <use xlink:href="#DejaVuSans-73" x="467.041016"/>
      <use xlink:href="#DejaVuSans-20" x="519.140625"/>
      <use xlink:href="#DejaVuSans-72" x="550.927734"/>
      <use xlink:href="#DejaVuSans-61" x="592.041016"/>
      <use xlink:href="#DejaVuSans-6e" x="653.320312"/>
      <use xlink:href="#DejaVuSans-64" x="716.699219"/>
      <use xlink:href="#DejaVuSans-6f" x="780.175781"/>
      <use xlink:href="#DejaVuSans-6d" x="841.357422"/>
     </g>
    </g>
   </g>
   <g id="line2d_14">
    <path d="M 79.705733 213.2352 
L 82.556189 150.98112 
L 83.348056 139.0464 
L 84.061978 117.75744 
L 84.78231 109.37088 
L 85.540401 104.20992 
L 86.373936 97.75872 
L 87.126019 87.75936 
L 87.955687 80.34048 
L 88.755499 75.17952 
L 89.607405 73.24416 
L 90.391841 71.95392 
L 91.157974 70.01856 
L 91.910495 70.01856 
L 92.800083 69.05088 
L 93.555232 65.82528 
L 94.325842 64.8576 
L 95.225557 64.21248 
L 96.037066 65.82528 
L 96.826112 69.05088 
L 97.602455 70.66368 
L 98.534958 70.01856 
L 99.296547 69.05088 
L 100.079689 69.05088 
L 100.852155 69.37344 
L 101.797471 70.01856 
L 102.575744 71.3088 
L 103.371337 70.98624 
L 104.153708 71.63136 
L 105.12087 69.37344 
L 105.917729 69.696 
L 106.707063 70.34112 
L 107.693633 70.34112 
L 109.287118 69.05088 
L 111.075108 71.3088 
L 111.866241 70.66368 
L 112.646657 70.34112 
L 113.429939 70.98624 
L 114.42424 69.696 
L 115.218379 70.66368 
L 115.995567 70.34112 
L 116.783471 72.27648 
L 117.725804 72.27648 
L 118.513763 71.3088 
L 119.302239 69.37344 
L 120.241048 70.98624 
L 121.033988 69.37344 
L 121.826925 68.0832 
L 122.629969 68.40576 
L 124.548171 67.76064 
L 125.414745 66.4704 
L 126.210582 66.4704 
L 127.301891 66.79296 
L 128.173669 66.4704 
L 129.009253 66.4704 
L 129.803669 66.79296 
L 130.754002 69.37344 
L 131.535925 68.72832 
L 132.323534 68.72832 
L 133.394023 68.40576 
L 134.209676 68.40576 
L 135.071827 71.3088 
L 135.89756 70.34112 
L 136.891472 70.98624 
L 137.686169 70.34112 
L 138.476406 71.63136 
L 139.292874 69.696 
L 140.338626 70.01856 
L 141.128235 69.05088 
L 142.739738 70.34112 
L 143.80488 69.05088 
L 144.620742 69.696 
L 147.190082 68.72832 
L 147.991508 70.01856 
L 148.779274 69.696 
L 149.813547 70.98624 
L 150.599469 71.3088 
L 151.406885 69.05088 
L 152.200559 67.43808 
L 153.241832 67.76064 
L 154.030898 68.72832 
L 154.828607 69.37344 
L 155.617487 69.37344 
L 156.632678 68.0832 
L 157.436278 68.0832 
L 158.218527 67.76064 
L 159.232321 66.79296 
L 160.036936 68.40576 
L 160.838255 69.696 
L 161.636312 69.696 
L 162.673274 69.05088 
L 163.467567 68.40576 
L 164.294941 68.0832 
L 165.077239 67.43808 
L 166.158128 66.79296 
L 166.956481 66.4704 
L 167.745499 68.72832 
L 169.532936 68.0832 
L 170.330926 68.72832 
L 171.105417 68.0832 
L 172.927944 68.72832 
L 173.724983 70.34112 
L 174.52769 70.98624 
L 177.308251 70.98624 
L 178.217863 71.63136 
L 179.067039 70.66368 
L 180.185888 70.34112 
L 181.066144 70.66368 
L 182.042702 70.66368 
L 182.905041 71.95392 
L 184.060939 72.59904 
L 184.94369 72.27648 
L 186.987228 72.27648 
L 188.748747 74.21184 
L 189.704241 74.85696 
L 190.90772 74.85696 
L 191.77345 76.1472 
L 192.632742 75.17952 
L 193.495923 74.85696 
L 194.688921 74.85696 
L 195.568004 75.82464 
L 197.603884 73.88928 
L 198.829182 73.56672 
L 199.675986 72.59904 
L 200.503145 72.9216 
L 201.995458 70.34112 
L 203.151711 69.37344 
L 203.94354 69.37344 
L 204.827278 70.66368 
L 205.954008 69.05088 
L 207.689463 69.696 
L 208.683126 69.05088 
L 210.786655 68.72832 
L 211.593402 69.37344 
L 212.380825 71.95392 
L 213.188386 73.24416 
L 214.309014 72.59904 
L 215.108205 71.95392 
L 215.915826 73.56672 
L 216.990985 73.88928 
L 217.802334 72.9216 
L 218.60916 74.21184 
L 219.393629 73.24416 
L 220.50878 71.63136 
L 221.320729 69.37344 
L 222.116845 68.72832 
L 222.910192 69.05088 
L 224.03068 69.696 
L 224.838042 69.05088 
L 226.425242 68.40576 
L 227.509455 68.40576 
L 228.313209 69.37344 
L 229.110809 70.66368 
L 230.26117 70.98624 
L 231.865931 69.696 
L 232.663156 69.696 
L 233.808913 68.40576 
L 234.609122 67.11552 
L 235.40598 67.43808 
L 236.187994 66.4704 
L 237.342314 67.43808 
L 238.134343 67.11552 
L 238.915921 67.43808 
L 239.70709 69.05088 
L 240.805371 68.72832 
L 241.58389 68.72832 
L 242.378251 69.37344 
L 243.454398 69.37344 
L 244.250568 69.05088 
L 245.043748 69.05088 
L 245.827204 69.37344 
L 246.943832 69.37344 
L 247.741063 70.01856 
L 248.521503 68.0832 
L 250.475247 68.0832 
L 251.25857 69.37344 
L 252.876324 71.3088 
L 254.007644 72.27648 
L 254.805654 70.98624 
L 255.593635 70.66368 
L 256.753202 69.05088 
L 257.565369 70.01856 
L 258.360078 71.3088 
L 259.167979 71.3088 
L 260.342067 69.696 
L 261.141644 70.01856 
L 262.745856 70.01856 
L 263.89206 71.3088 
L 264.678723 70.66368 
L 265.46509 73.56672 
L 266.245771 73.24416 
L 267.343555 72.27648 
L 268.164628 72.9216 
L 268.98342 73.24416 
L 270.167475 72.27648 
L 270.981667 72.27648 
L 271.765025 71.63136 
L 272.565569 69.696 
L 273.764369 69.37344 
L 274.613595 67.11552 
L 275.474964 66.79296 
L 276.310821 67.43808 
L 277.567383 64.53504 
L 278.396884 64.21248 
L 279.244033 64.8576 
L 280.069945 65.18016 
L 281.284156 65.50272 
L 282.096099 65.50272 
L 282.919552 66.4704 
L 284.090978 66.14784 
L 284.88624 68.40576 
L 286.52593 68.40576 
L 287.809312 70.98624 
L 288.63095 71.3088 
L 289.476465 70.98624 
L 290.302863 70.98624 
L 291.544985 72.27648 
L 293.214605 73.56672 
L 294.048722 72.59904 
L 295.160759 73.88928 
L 295.988677 75.17952 
L 296.82608 74.5344 
L 298.164936 73.88928 
L 299.001144 72.9216 
L 299.844112 73.56672 
L 300.669856 72.9216 
L 301.974502 72.27648 
L 302.813263 72.27648 
L 303.627239 71.63136 
L 304.456198 70.66368 
L 305.746275 72.9216 
L 306.590971 71.63136 
L 307.452301 71.63136 
L 308.294507 72.59904 
L 309.517518 72.9216 
L 310.366262 72.27648 
L 311.195276 73.24416 
L 312.493058 73.56672 
L 313.337628 72.27648 
L 314.154026 72.59904 
L 314.996323 69.696 
L 316.323293 70.98624 
L 317.137654 70.34112 
L 318.786423 69.696 
L 320.037706 72.27648 
L 320.882856 72.9216 
L 321.707076 72.59904 
L 322.55103 73.88928 
L 323.859242 72.59904 
L 324.663663 74.21184 
L 325.473087 73.56672 
L 326.781099 75.17952 
L 327.600017 75.82464 
L 328.413497 75.50208 
L 329.20931 74.5344 
L 330.397889 72.59904 
L 331.204321 73.24416 
L 332.001158 75.50208 
L 332.814016 75.50208 
L 334.112793 74.85696 
L 334.932531 74.85696 
L 335.777738 73.24416 
L 336.638698 72.27648 
L 339.712799 72.27648 
L 340.560406 70.98624 
L 341.363686 70.66368 
L 342.623376 71.3088 
L 343.447034 67.76064 
L 344.273266 68.40576 
L 345.129717 67.76064 
L 346.536542 67.43808 
L 347.374632 68.0832 
L 349.047573 67.43808 
L 350.385604 67.11552 
L 351.201685 68.0832 
L 351.994583 67.43808 
L 352.790529 69.05088 
L 357.024537 69.05088 
L 357.882956 70.01856 
L 358.691145 69.696 
L 359.608856 70.34112 
L 360.975305 70.01856 
L 361.807714 68.40576 
L 363.465702 66.4704 
L 364.816452 67.43808 
L 365.714692 65.82528 
L 366.547653 65.18016 
L 367.783805 63.56736 
L 369.711651 63.88992 
L 371.102948 63.2448 
L 371.93327 63.88992 
L 373.217623 64.21248 
L 374.084284 63.2448 
L 375.46904 63.56736 
L 376.853118 62.59968 
L 379.413985 63.2448 
L 380.932437 64.21248 
L 382.238693 67.11552 
L 383.520998 66.79296 
L 385.567231 68.72832 
L 386.447503 69.37344 
L 387.241199 69.696 
L 388.053197 70.66368 
L 389.372327 70.66368 
L 390.216596 70.01856 
L 391.067832 70.01856 
L 392.312373 69.05088 
L 393.140618 66.4704 
L 393.929752 66.79296 
L 394.724565 65.82528 
L 396.050689 65.82528 
L 396.868812 67.11552 
L 397.669234 68.0832 
L 398.487273 67.76064 
L 398.487273 67.76064 
" clip-path="url(#p61033729c8)" style="fill: none; stroke: #0000ff; stroke-width: 1.5; stroke-linecap: square"/>
   </g>
   <g id="line2d_15">
    <path d="M 92.076667 200.01024 
L 94.375691 189.0432 
L 96.787032 178.39872 
L 99.034612 160.65792 
L 101.277666 141.62688 
L 103.507424 125.82144 
L 105.679722 117.43488 
L 107.882915 112.91904 
L 109.983421 107.43552 
L 112.042849 102.91968 
L 113.580579 94.21056 
L 115.167251 83.24352 
L 117.616923 81.63072 
L 122.804845 73.88928 
L 124.717076 72.27648 
L 126.19691 71.95392 
L 127.919423 70.01856 
L 129.601923 70.98624 
L 131.933435 71.95392 
L 134.133124 74.5344 
L 135.996767 74.5344 
L 137.569514 74.21184 
L 139.142724 74.5344 
L 141.079324 75.50208 
L 144.324879 76.79232 
L 145.849061 76.79232 
L 147.708963 75.82464 
L 149.23575 75.82464 
L 150.805449 76.1472 
L 152.376848 77.11488 
L 154.199007 76.79232 
L 155.798683 78.08256 
L 157.334472 77.11488 
L 159.119585 76.1472 
L 160.613807 75.50208 
L 162.092316 76.79232 
L 163.6017 76.79232 
L 165.339844 77.43744 
L 166.833103 77.11488 
L 168.321527 77.76 
L 169.880001 77.43744 
L 171.7367 74.85696 
L 173.247622 73.56672 
L 174.805312 73.88928 
L 176.405311 73.24416 
L 178.252982 73.88928 
L 179.824503 73.88928 
L 181.374242 71.95392 
L 183.215049 71.95392 
L 184.706709 70.66368 
L 186.294084 69.696 
L 187.864214 70.34112 
L 189.67822 72.27648 
L 191.17764 71.3088 
L 192.69886 70.98624 
L 194.208323 70.34112 
L 196.041372 70.01856 
L 197.585548 70.66368 
L 199.17328 69.37344 
L 200.752917 69.05088 
L 202.635202 70.34112 
L 204.278126 71.3088 
L 205.917327 70.34112 
L 207.884152 70.01856 
L 209.552604 68.72832 
L 211.223646 67.76064 
L 212.914022 68.0832 
L 214.91315 68.0832 
L 216.606115 67.43808 
L 218.324083 67.43808 
L 219.976347 67.11552 
L 221.915075 67.43808 
L 223.553319 68.40576 
L 225.144606 68.72832 
L 226.812153 70.98624 
L 228.742359 72.27648 
L 230.398663 71.3088 
L 232.088999 72.9216 
L 234.038546 73.56672 
L 235.681393 73.24416 
L 237.416632 71.63136 
L 239.053067 71.3088 
L 241.067593 71.3088 
L 242.758825 70.01856 
L 244.434369 69.37344 
L 246.088057 68.40576 
L 248.14979 69.37344 
L 249.766445 68.0832 
L 251.469953 68.72832 
L 253.180512 69.696 
L 255.314959 70.34112 
L 257.074265 69.696 
L 258.810026 70.34112 
L 260.887283 72.9216 
L 262.582676 72.59904 
L 264.289794 72.59904 
L 267.964109 71.95392 
L 269.613362 73.88928 
L 271.296909 74.85696 
L 272.944555 76.1472 
L 274.993441 77.43744 
L 276.683734 76.1472 
L 278.339283 75.17952 
L 280.059139 75.17952 
L 282.146389 76.1472 
L 283.884798 77.76 
L 285.630613 78.08256 
L 287.728901 75.17952 
L 289.45204 76.79232 
L 291.181251 76.1472 
L 292.902655 76.1472 
L 296.730842 76.79232 
L 298.437183 78.72768 
L 300.141177 77.76 
L 302.225435 76.1472 
L 303.929639 76.79232 
L 305.644501 78.40512 
L 307.374835 75.82464 
L 309.464082 76.1472 
L 311.149494 74.5344 
L 312.888486 75.17952 
L 315.064313 76.1472 
L 316.790827 74.85696 
L 318.438246 74.21184 
L 320.103335 74.85696 
L 322.173816 74.85696 
L 323.896307 73.56672 
L 325.592104 74.5344 
L 327.300599 76.1472 
L 329.373942 77.43744 
L 331.040205 76.79232 
L 332.769992 75.17952 
L 334.517881 75.82464 
L 336.629616 77.76 
L 338.332467 77.11488 
L 340.000712 77.11488 
L 342.129952 77.43744 
L 343.836441 75.82464 
L 345.505255 74.85696 
L 347.152162 74.5344 
L 349.219265 76.1472 
L 350.847792 75.82464 
L 352.495863 73.88928 
L 354.185849 74.5344 
L 356.254701 75.17952 
L 357.956548 74.21184 
L 359.656467 73.88928 
L 361.366534 74.5344 
L 363.512807 73.88928 
L 365.259737 73.24416 
L 366.998709 73.24416 
L 369.199138 74.85696 
L 371.000163 75.82464 
L 372.787294 72.9216 
L 374.686392 74.21184 
L 378.769704 75.50208 
L 382.421096 74.85696 
L 384.669844 75.17952 
L 386.377195 74.5344 
L 388.125975 72.59904 
L 389.874654 71.95392 
L 392.05345 73.56672 
L 393.817423 72.59904 
L 395.557809 72.27648 
L 397.690432 73.56672 
L 397.690432 73.56672 
" clip-path="url(#p61033729c8)" style="fill: none; stroke: #ffa500; stroke-width: 1.5; stroke-linecap: square"/>
   </g>
   <g id="line2d_16">
    <path d="M 73.832727 272.9088 
L 74.315544 272.9088 
L 75.363679 221.2992 
L 76.134186 218.0736 
L 76.76331 282.5856 
L 77.505546 156.7872 
L 78.3692 143.8848 
L 79.070185 137.4336 
L 79.705733 176.1408 
L 80.377991 127.7568 
L 81.869314 82.5984 
L 82.556189 79.3728 
L 83.348056 98.7264 
L 84.061978 69.696 
L 84.78231 72.9216 
L 85.540401 92.2752 
L 86.373936 72.9216 
L 87.126019 76.1472 
L 87.955687 53.568 
L 88.755499 53.568 
L 89.607405 63.2448 
L 90.391841 66.4704 
L 91.157974 79.3728 
L 91.910495 69.696 
L 92.800083 63.2448 
L 93.555232 60.0192 
L 94.325842 63.2448 
L 95.225557 69.696 
L 96.037066 69.696 
L 96.826112 85.824 
L 97.602455 79.3728 
L 98.534958 60.0192 
L 99.296547 69.696 
L 100.079689 69.696 
L 100.852155 66.4704 
L 101.797471 66.4704 
L 102.575744 76.1472 
L 103.371337 66.4704 
L 104.153708 76.1472 
L 105.12087 63.2448 
L 105.917729 82.5984 
L 106.707063 66.4704 
L 107.693633 69.696 
L 108.482179 63.2448 
L 109.287118 60.0192 
L 110.096436 76.1472 
L 111.075108 89.0496 
L 111.866241 60.0192 
L 112.646657 72.9216 
L 113.429939 69.696 
L 114.42424 69.696 
L 115.218379 76.1472 
L 115.995567 66.4704 
L 116.783471 82.5984 
L 117.725804 60.0192 
L 118.513763 66.4704 
L 119.302239 69.696 
L 120.241048 76.1472 
L 121.033988 56.7936 
L 121.826925 56.7936 
L 122.629969 72.9216 
L 123.677203 72.9216 
L 124.548171 63.2448 
L 125.414745 69.696 
L 126.210582 60.0192 
L 127.301891 69.696 
L 128.173669 66.4704 
L 129.009253 76.1472 
L 129.803669 60.0192 
L 130.754002 82.5984 
L 131.535925 66.4704 
L 132.323534 72.9216 
L 133.394023 60.0192 
L 134.209676 69.696 
L 135.071827 89.0496 
L 135.89756 60.0192 
L 136.891472 72.9216 
L 137.686169 69.696 
L 138.476406 72.9216 
L 139.292874 63.2448 
L 140.338626 69.696 
L 141.128235 63.2448 
L 141.930655 66.4704 
L 142.739738 76.1472 
L 143.80488 76.1472 
L 144.620742 66.4704 
L 145.403678 69.696 
L 146.397851 66.4704 
L 147.190082 69.696 
L 147.991508 76.1472 
L 148.779274 66.4704 
L 149.813547 76.1472 
L 150.599469 69.696 
L 151.406885 53.568 
L 152.200559 60.0192 
L 153.241832 69.696 
L 154.030898 79.3728 
L 154.828607 72.9216 
L 155.617487 69.696 
L 156.632678 63.2448 
L 157.436278 66.4704 
L 158.218527 72.9216 
L 159.232321 60.0192 
L 160.036936 69.696 
L 160.838255 72.9216 
L 161.636312 69.696 
L 162.673274 72.9216 
L 163.467567 66.4704 
L 164.294941 66.4704 
L 165.077239 56.7936 
L 166.158128 60.0192 
L 166.956481 69.696 
L 167.745499 82.5984 
L 168.53527 66.4704 
L 169.532936 69.696 
L 170.330926 76.1472 
L 171.105417 66.4704 
L 172.141356 69.696 
L 172.927944 69.696 
L 173.724983 72.9216 
L 174.52769 66.4704 
L 175.749553 69.696 
L 177.308251 82.5984 
L 178.217863 72.9216 
L 179.067039 60.0192 
L 180.185888 72.9216 
L 181.066144 69.696 
L 182.042702 69.696 
L 182.905041 82.5984 
L 184.060939 79.3728 
L 184.94369 63.2448 
L 185.861059 69.696 
L 186.987228 82.5984 
L 187.838584 82.5984 
L 188.748747 69.696 
L 189.704241 79.3728 
L 190.90772 69.696 
L 191.77345 82.5984 
L 192.632742 72.9216 
L 193.495923 76.1472 
L 194.688921 63.2448 
L 195.568004 79.3728 
L 196.531174 72.9216 
L 197.603884 72.9216 
L 198.829182 66.4704 
L 200.503145 72.9216 
L 201.995458 56.7936 
L 203.151711 63.2448 
L 203.94354 76.1472 
L 204.827278 76.1472 
L 205.954008 63.2448 
L 206.858841 76.1472 
L 207.689463 76.1472 
L 208.683126 60.0192 
L 210.786655 66.4704 
L 211.593402 79.3728 
L 212.380825 82.5984 
L 213.188386 76.1472 
L 214.309014 69.696 
L 215.108205 69.696 
L 215.915826 79.3728 
L 216.990985 79.3728 
L 217.802334 66.4704 
L 218.60916 72.9216 
L 219.393629 56.7936 
L 220.50878 63.2448 
L 221.320729 60.0192 
L 222.116845 69.696 
L 222.910192 72.9216 
L 224.03068 76.1472 
L 224.838042 72.9216 
L 225.641312 76.1472 
L 226.425242 63.2448 
L 227.509455 72.9216 
L 228.313209 66.4704 
L 229.110809 76.1472 
L 230.26117 63.2448 
L 231.064905 63.2448 
L 231.865931 66.4704 
L 232.663156 76.1472 
L 233.808913 60.0192 
L 235.40598 66.4704 
L 236.187994 63.2448 
L 237.342314 76.1472 
L 238.134343 72.9216 
L 238.915921 66.4704 
L 239.70709 79.3728 
L 240.805371 63.2448 
L 241.58389 76.1472 
L 242.378251 66.4704 
L 243.454398 63.2448 
L 245.043748 63.2448 
L 245.827204 79.3728 
L 246.943832 72.9216 
L 247.741063 72.9216 
L 248.521503 60.0192 
L 249.313197 63.2448 
L 250.475247 76.1472 
L 251.25857 79.3728 
L 252.068029 72.9216 
L 254.007644 72.9216 
L 254.805654 66.4704 
L 255.593635 69.696 
L 256.753202 56.7936 
L 257.565369 69.696 
L 258.360078 76.1472 
L 259.167979 76.1472 
L 260.342067 63.2448 
L 261.141644 76.1472 
L 261.942309 72.9216 
L 262.745856 72.9216 
L 263.89206 79.3728 
L 264.678723 63.2448 
L 265.46509 85.824 
L 266.245771 66.4704 
L 267.343555 66.4704 
L 268.164628 82.5984 
L 268.98342 66.4704 
L 270.167475 66.4704 
L 270.981667 72.9216 
L 272.565569 60.0192 
L 273.764369 60.0192 
L 274.613595 63.2448 
L 275.474964 63.2448 
L 276.310821 72.9216 
L 277.567383 53.568 
L 279.244033 72.9216 
L 280.069945 76.1472 
L 281.284156 69.696 
L 282.096099 60.0192 
L 282.919552 69.696 
L 284.090978 60.0192 
L 284.88624 85.824 
L 285.715967 72.9216 
L 286.52593 53.568 
L 287.809312 89.0496 
L 288.63095 76.1472 
L 290.302863 69.696 
L 291.544985 72.9216 
L 292.37533 76.1472 
L 293.214605 66.4704 
L 294.048722 76.1472 
L 295.160759 85.824 
L 295.988677 66.4704 
L 296.82608 82.5984 
L 298.164936 69.696 
L 299.001144 63.2448 
L 299.844112 76.1472 
L 300.669856 66.4704 
L 301.974502 69.696 
L 302.813263 66.4704 
L 303.627239 69.696 
L 304.456198 76.1472 
L 305.746275 89.0496 
L 306.590971 69.696 
L 307.452301 69.696 
L 308.294507 72.9216 
L 309.517518 79.3728 
L 310.366262 60.0192 
L 311.195276 79.3728 
L 312.493058 69.696 
L 313.337628 56.7936 
L 314.154026 79.3728 
L 314.996323 60.0192 
L 316.323293 82.5984 
L 317.137654 63.2448 
L 320.037706 85.824 
L 320.882856 85.824 
L 321.707076 66.4704 
L 322.55103 69.696 
L 323.859242 66.4704 
L 324.663663 76.1472 
L 325.473087 76.1472 
L 326.781099 79.3728 
L 328.413497 72.9216 
L 329.20931 76.1472 
L 330.397889 66.4704 
L 331.204321 72.9216 
L 332.001158 92.2752 
L 332.814016 66.4704 
L 334.112793 69.696 
L 334.932531 76.1472 
L 335.777738 63.2448 
L 336.638698 66.4704 
L 339.712799 72.9216 
L 340.560406 63.2448 
L 341.363686 63.2448 
L 342.623376 79.3728 
L 343.447034 56.7936 
L 344.273266 72.9216 
L 345.129717 63.2448 
L 346.536542 72.9216 
L 347.374632 69.696 
L 348.217681 63.2448 
L 349.047573 69.696 
L 350.385604 60.0192 
L 351.201685 72.9216 
L 354.186065 72.9216 
L 355.032713 63.2448 
L 355.852798 72.9216 
L 357.024537 69.696 
L 357.882956 72.9216 
L 358.691145 66.4704 
L 359.608856 66.4704 
L 360.975305 69.696 
L 361.807714 56.7936 
L 362.658369 63.2448 
L 363.465702 63.2448 
L 364.816452 72.9216 
L 365.714692 56.7936 
L 366.547653 63.2448 
L 367.783805 56.7936 
L 369.711651 69.696 
L 371.102948 60.0192 
L 371.93327 76.1472 
L 373.217623 60.0192 
L 374.084284 53.568 
L 375.46904 66.4704 
L 376.853118 63.2448 
L 379.413985 63.2448 
L 380.932437 72.9216 
L 382.238693 85.824 
L 383.520998 66.4704 
L 385.567231 79.3728 
L 386.447503 82.5984 
L 387.241199 63.2448 
L 388.053197 63.2448 
L 389.372327 66.4704 
L 390.216596 56.7936 
L 391.067832 63.2448 
L 392.312373 63.2448 
L 393.140618 60.0192 
L 393.929752 69.696 
L 394.724565 69.696 
L 396.050689 82.5984 
L 396.868812 76.1472 
L 397.669234 72.9216 
L 398.487273 63.2448 
L 398.487273 63.2448 
" clip-path="url(#p61033729c8)" style="fill: none; stroke: #0000ff; stroke-opacity: 0.2; stroke-width: 1.5; stroke-linecap: square"/>
   </g>
   <g id="line2d_17">
    <path d="M 74.575174 285.8112 
L 76.592516 205.1712 
L 78.686773 289.0368 
L 80.559796 295.488 
L 82.543003 253.5552 
L 84.738419 166.464 
L 86.457458 127.7568 
L 88.361832 124.5312 
L 90.150592 108.4032 
L 92.076667 143.8848 
L 94.375691 176.1408 
L 96.787032 98.7264 
L 99.034612 111.6288 
L 101.277666 105.1776 
L 103.507424 95.5008 
L 105.679722 82.5984 
L 107.882915 82.5984 
L 109.983421 69.696 
L 112.042849 63.2448 
L 113.580579 56.7936 
L 115.167251 66.4704 
L 117.616923 82.5984 
L 120.389254 69.696 
L 122.804845 69.696 
L 124.717076 79.3728 
L 126.19691 79.3728 
L 127.919423 63.2448 
L 129.601923 79.3728 
L 131.933435 72.9216 
L 134.133124 82.5984 
L 135.996767 66.4704 
L 137.569514 79.3728 
L 139.142724 72.9216 
L 141.079324 79.3728 
L 142.728383 85.824 
L 144.324879 85.824 
L 145.849061 63.2448 
L 147.708963 69.696 
L 149.23575 72.9216 
L 150.805449 85.824 
L 152.376848 76.1472 
L 154.199007 76.1472 
L 155.798683 85.824 
L 157.334472 69.696 
L 159.119585 76.1472 
L 160.613807 79.3728 
L 162.092316 76.1472 
L 163.6017 69.696 
L 165.339844 79.3728 
L 166.833103 82.5984 
L 168.321527 82.5984 
L 169.880001 72.9216 
L 171.7367 60.0192 
L 173.247622 56.7936 
L 174.805312 79.3728 
L 176.405311 72.9216 
L 178.252982 82.5984 
L 179.824503 69.696 
L 181.374242 60.0192 
L 183.215049 82.5984 
L 184.706709 69.696 
L 186.294084 63.2448 
L 187.864214 66.4704 
L 189.67822 76.1472 
L 191.17764 69.696 
L 192.69886 69.696 
L 194.208323 76.1472 
L 196.041372 66.4704 
L 197.585548 66.4704 
L 199.17328 69.696 
L 200.752917 66.4704 
L 202.635202 76.1472 
L 204.278126 76.1472 
L 205.917327 66.4704 
L 207.884152 66.4704 
L 209.552604 56.7936 
L 211.223646 66.4704 
L 212.914022 69.696 
L 214.91315 66.4704 
L 216.606115 63.2448 
L 218.324083 66.4704 
L 219.976347 72.9216 
L 221.915075 79.3728 
L 223.553319 76.1472 
L 225.144606 69.696 
L 226.812153 79.3728 
L 228.742359 79.3728 
L 230.398663 60.0192 
L 232.088999 82.5984 
L 234.038546 69.696 
L 237.416632 56.7936 
L 239.053067 76.1472 
L 241.067593 76.1472 
L 242.758825 56.7936 
L 244.434369 72.9216 
L 246.088057 69.696 
L 249.766445 69.696 
L 251.469953 76.1472 
L 253.180512 72.9216 
L 255.314959 63.2448 
L 257.074265 69.696 
L 258.810026 82.5984 
L 260.887283 82.5984 
L 262.582676 69.696 
L 264.289794 69.696 
L 265.978882 66.4704 
L 267.964109 66.4704 
L 269.613362 95.5008 
L 271.296909 82.5984 
L 272.944555 76.1472 
L 274.993441 82.5984 
L 276.683734 69.696 
L 278.339283 72.9216 
L 280.059139 69.696 
L 282.146389 79.3728 
L 283.884798 82.5984 
L 285.630613 69.696 
L 287.728901 66.4704 
L 289.45204 98.7264 
L 291.181251 69.696 
L 292.902655 82.5984 
L 294.991392 72.9216 
L 296.730842 76.1472 
L 298.437183 89.0496 
L 300.141177 69.696 
L 302.225435 66.4704 
L 303.929639 76.1472 
L 305.644501 82.5984 
L 307.374835 72.9216 
L 309.464082 72.9216 
L 311.149494 66.4704 
L 312.888486 79.3728 
L 315.064313 85.824 
L 316.790827 76.1472 
L 318.438246 63.2448 
L 320.103335 72.9216 
L 322.173816 76.1472 
L 323.896307 69.696 
L 325.592104 82.5984 
L 327.300599 89.0496 
L 329.373942 79.3728 
L 331.040205 72.9216 
L 332.769992 69.696 
L 334.517881 82.5984 
L 336.629616 82.5984 
L 338.332467 66.4704 
L 340.000712 76.1472 
L 342.129952 72.9216 
L 343.836441 66.4704 
L 345.505255 79.3728 
L 347.152162 76.1472 
L 349.219265 89.0496 
L 350.847792 66.4704 
L 352.495863 63.2448 
L 354.185849 89.0496 
L 356.254701 72.9216 
L 357.956548 66.4704 
L 361.366534 72.9216 
L 363.512807 72.9216 
L 365.259737 69.696 
L 366.998709 89.0496 
L 369.199138 82.5984 
L 371.000163 72.9216 
L 372.787294 60.0192 
L 374.686392 85.824 
L 376.909174 72.9216 
L 378.769704 76.1472 
L 380.54527 69.696 
L 382.421096 69.696 
L 384.669844 72.9216 
L 386.377195 82.5984 
L 388.125975 63.2448 
L 389.874654 66.4704 
L 392.05345 76.1472 
L 393.817423 76.1472 
L 395.557809 69.696 
L 397.690432 89.0496 
L 397.690432 89.0496 
" clip-path="url(#p61033729c8)" style="fill: none; stroke: #ffa500; stroke-opacity: 0.2; stroke-width: 1.5; stroke-linecap: square"/>
   </g>
   <g id="patch_3">
    <path d="M 57.6 307.584 
L 57.6 41.472 
" style="fill: none; stroke: #000000; stroke-width: 0.8; stroke-linejoin: miter; stroke-linecap: square"/>
   </g>
   <g id="patch_4">
    <path d="M 414.72 307.584 
L 414.72 41.472 
" style="fill: none; stroke: #000000; stroke-width: 0.8; stroke-linejoin: miter; stroke-linecap: square"/>
   </g>
   <g id="patch_5">
    <path d="M 57.6 307.584 
L 414.72 307.584 
" style="fill: none; stroke: #000000; stroke-width: 0.8; stroke-linejoin: miter; stroke-linecap: square"/>
   </g>
   <g id="patch_6">
    <path d="M 57.6 41.472 
L 414.72 41.472 
" style="fill: none; stroke: #000000; stroke-width: 0.8; stroke-linejoin: miter; stroke-linecap: square"/>
   </g>
   <g id="legend_1">
    <g id="patch_7">
     <path d="M 356.696563 302.584 
L 407.72 302.584 
Q 409.72 302.584 409.72 300.584 
L 409.72 272.22775 
Q 409.72 270.22775 407.72 270.22775 
L 356.696563 270.22775 
Q 354.696563 270.22775 354.696563 272.22775 
L 354.696563 300.584 
Q 354.696563 302.584 356.696563 302.584 
z
" style="fill: #ffffff; opacity: 0.8; stroke: #cccccc; stroke-linejoin: miter"/>
    </g>
    <g id="line2d_18">
     <path d="M 358.696563 278.326187 
L 368.696563 278.326187 
L 378.696563 278.326187 
" style="fill: none; stroke: #0000ff; stroke-width: 1.5; stroke-linecap: square"/>
    </g>
    <g id="text_16">
     <!-- cnn -->
     <g transform="translate(386.696563 281.826187)scale(0.1 -0.1)">
      <defs>
       <path id="DejaVuSans-63" d="M 3122 3366 
L 3122 2828 
Q 2878 2963 2633 3030 
Q 2388 3097 2138 3097 
Q 1578 3097 1268 2742 
Q 959 2388 959 1747 
Q 959 1106 1268 751 
Q 1578 397 2138 397 
Q 2388 397 2633 464 
Q 2878 531 3122 666 
L 3122 134 
Q 2881 22 2623 -34 
Q 2366 -91 2075 -91 
Q 1284 -91 818 406 
Q 353 903 353 1747 
Q 353 2603 823 3093 
Q 1294 3584 2113 3584 
Q 2378 3584 2631 3529 
Q 2884 3475 3122 3366 
z
" transform="scale(0.015625)"/>
      </defs>
      <use xlink:href="#DejaVuSans-63"/>
      <use xlink:href="#DejaVuSans-6e" x="54.980469"/>
      <use xlink:href="#DejaVuSans-6e" x="118.359375"/>
     </g>
    </g>
    <g id="line2d_19">
     <path d="M 358.696563 293.004312 
L 368.696563 293.004312 
L 378.696563 293.004312 
" style="fill: none; stroke: #ffa500; stroke-width: 1.5; stroke-linecap: square"/>
    </g>
    <g id="text_17">
     <!-- gnn -->
     <g transform="translate(386.696563 296.504312)scale(0.1 -0.1)">
      <defs>
       <path id="DejaVuSans-67" d="M 2906 1791 
Q 2906 2416 2648 2759 
Q 2391 3103 1925 3103 
Q 1463 3103 1205 2759 
Q 947 2416 947 1791 
Q 947 1169 1205 825 
Q 1463 481 1925 481 
Q 2391 481 2648 825 
Q 2906 1169 2906 1791 
z
M 3481 434 
Q 3481 -459 3084 -895 
Q 2688 -1331 1869 -1331 
Q 1566 -1331 1297 -1286 
Q 1028 -1241 775 -1147 
L 775 -588 
Q 1028 -725 1275 -790 
Q 1522 -856 1778 -856 
Q 2344 -856 2625 -561 
Q 2906 -266 2906 331 
L 2906 616 
Q 2728 306 2450 153 
Q 2172 0 1784 0 
Q 1141 0 747 490 
Q 353 981 353 1791 
Q 353 2603 747 3093 
Q 1141 3584 1784 3584 
Q 2172 3584 2450 3431 
Q 2728 3278 2906 2969 
L 2906 3500 
L 3481 3500 
L 3481 434 
z
" transform="scale(0.015625)"/>
      </defs>
      <use xlink:href="#DejaVuSans-67"/>
      <use xlink:href="#DejaVuSans-6e" x="63.476562"/>
      <use xlink:href="#DejaVuSans-6e" x="126.855469"/>
     </g>
    </g>
   </g>
  </g>
 </g>
 <defs>
  <clipPath id="p61033729c8">
   <rect x="57.6" y="41.472" width="357.12" height="266.112"/>
  </clipPath>
 </defs>
</svg>
